<svg width="337" height="601" viewBox="0 0 337 601" fill="none" xmlns="http://www.w3.org/2000/svg">
<path d="M44.1895 0.240997C19.5253 11.2464 3.31688 36.57 0.866592 63.1097C-1.6684 90.6029 12.0778 116.01 35.7607 129.925C58.6261 143.344 88.9593 145.567 111.79 130.803C133.146 116.99 147.979 87.2857 131.413 64.1917C117.42 44.6919 86.6976 38.032 66.7343 52.0241C46.771 66.0161 41.6304 94.5118 50.4081 116.338C61.4914 143.873 92.6 153.812 119.691 156.467C152.518 159.744 188.676 153.639 218.605 170.768C242.202 184.274 257.741 209.776 261.294 236.507C263.16 249.884 261.661 263.515 256.932 276.166C251.651 289.923 240.474 303.102 226.04 307.616C209.985 312.641 195.563 302.545 191.058 287.013C186.121 269.931 193.448 252.554 200.674 237.282C214.48 208.123 233.653 177.952 263.741 163.534C290.394 150.8 325.803 151.43 346.319 175.039C369.575 201.807 365.165 240.514 352.89 271.027C346.228 287.579 337.463 303.245 328.874 318.856C320.144 334.729 311.296 350.555 303.313 366.841C288.218 397.715 276.304 430.62 275.48 465.32C274.704 497.871 283.893 530.769 306.885 554.625C328.263 576.868 357.89 589.506 387.791 595.314C425.154 602.61 463.651 600.47 501.472 599.773L622.784 597.547L680.954 596.475C682.205 596.453 682.321 594.503 681.076 594.515L561.219 596.712C522.227 597.432 483.143 599.027 444.146 598.456C409.43 597.939 373.894 594.029 342.533 578.101C328.644 571.048 315.787 561.782 305.407 550.096C294.211 537.301 286.174 522.058 281.942 505.592C263.028 434.071 304.929 367.41 337.481 307.189C352.981 278.494 368.479 246.912 364.372 213.302C362.609 198.771 357.211 184.327 347.41 173.277C338.431 163.335 326.384 156.682 313.187 154.377C284.646 149.103 256.287 161.188 236.045 180.978C224.74 192.063 215.62 205.192 207.903 218.936C200.027 232.98 191.919 248.294 188.68 264.171C185.926 277.691 187.915 293.217 198.27 303.214C207.527 312.141 220.732 312.805 231.944 307.338C256.365 295.43 265.77 266.189 263.704 240.724C261.648 215.47 248.971 190.908 228.899 175.306C203.338 155.467 170.147 156.394 139.453 155.592C110.383 154.842 74.0562 150.902 56.6287 124.094C42.7062 102.681 45.8909 69.7572 67.1196 54.1534C88.5603 38.3712 124.401 48.3489 134.172 73.2905C145.893 103.179 116.672 132.316 89.2502 137.752C61.8285 143.188 31.3771 131.203 14.8585 108.634C-2.31916 85.1338 -0.55142 52.6772 14.6607 28.6771C21.9476 16.9867 32.5276 7.71124 45.0708 2.01646C46.2357 1.49525 45.3189 -0.237095 44.1895 0.240997Z" fill="#B5E9F7"/>
</svg>
