<svg width="621" height="593" viewBox="0 0 621 593" fill="none" xmlns="http://www.w3.org/2000/svg">
<path d="M578.324 0.516236C602.752 12.0366 618.425 37.6946 620.319 64.2798C622.276 91.8202 608 116.933 584.031 130.349C560.889 143.285 530.516 144.871 507.999 129.631C486.938 115.374 472.731 85.3648 489.779 62.6233C504.177 43.4214 535.032 37.4073 554.698 51.815C574.363 66.2228 578.905 94.8199 569.671 116.457C558.013 143.754 526.703 153.038 499.562 155.125C466.674 157.712 430.652 150.85 400.37 167.348C376.495 180.355 360.424 205.526 356.312 232.176C354.165 245.511 355.378 259.171 359.841 271.919C364.831 285.783 375.73 299.194 390.066 304.009C406.013 309.37 420.643 299.578 425.472 284.144C430.767 267.17 423.806 249.643 416.902 234.223C403.71 204.781 385.174 174.214 355.396 159.168C329.015 145.878 293.601 145.765 272.595 168.939C248.782 195.213 252.379 234.004 264.011 264.767C270.325 281.455 278.759 297.302 287.019 313.09C295.415 329.142 303.928 345.15 311.568 361.6C326.012 392.784 337.233 425.932 337.329 460.642C337.423 493.202 327.545 525.9 304.058 549.268C282.217 571.057 252.332 583.072 222.316 588.251C184.809 594.762 146.364 591.814 108.567 590.324L-12.6722 585.554L-70.8063 583.263C-72.0575 583.214 -72.1325 581.263 -70.8879 581.301L48.8966 586.011C87.8651 587.549 126.908 589.964 165.907 590.211C200.627 590.422 236.237 587.258 267.925 571.991C281.959 565.231 295.008 556.236 305.63 544.771C317.092 532.214 325.447 517.143 330.024 500.769C350.434 429.66 309.94 362.135 278.658 301.245C263.764 272.231 248.931 240.331 253.743 206.814C255.81 192.323 261.51 177.996 271.541 167.154C280.726 157.402 292.91 151.003 306.152 148.976C334.798 144.302 362.897 156.979 382.719 177.19C393.79 188.509 402.632 201.827 410.059 215.729C417.638 229.935 425.423 245.416 428.329 261.357C430.799 274.932 428.484 290.413 417.922 300.191C408.48 308.922 395.264 309.309 384.169 303.607C360.003 291.189 351.214 261.758 353.813 236.341C356.399 211.137 369.589 186.846 389.983 171.669C415.954 152.37 449.119 153.993 479.823 153.835C508.902 153.694 545.304 150.517 563.29 124.081C577.658 102.965 575.165 69.9815 554.268 53.9358C533.163 37.7074 497.121 46.9311 486.829 71.6622C474.484 101.298 503.087 131.042 530.389 137.052C557.69 143.061 588.387 131.719 605.375 109.501C623.042 86.3659 621.955 53.8793 607.25 29.5654C600.21 17.7248 589.827 8.22945 577.405 2.27282C576.252 1.7273 577.205 0.0145604 578.324 0.516236Z" fill="#B5E9F7"/>
</svg>
