<svg width="273" height="388" viewBox="0 0 273 388" fill="none" xmlns="http://www.w3.org/2000/svg">
<path d="M33.3723 0.910404C19.4656 3.06662 7.84991 13.5789 2.98453 26.5862C-2.05398 40.0613 1.37846 54.7166 11.3798 64.9548C21.0382 74.8315 35.9838 80.102 49.4835 75.8051C62.1111 71.7847 73.635 58.8816 68.468 45.003C64.103 33.2839 49.5692 25.7295 37.6171 30.0308C25.6649 34.3321 19.1792 47.9544 20.604 60.1292C22.4063 75.49 36.6854 84.7457 49.9416 89.7896C65.9969 95.931 85.011 97.8122 97.7125 110.522C107.727 120.542 112.048 135.491 110.174 149.416C109.281 156.396 106.661 163.044 102.551 168.757C98.0132 174.951 90.5896 180.046 82.715 180.339C73.9552 180.667 68.0868 173.617 67.9487 165.192C67.8052 155.928 73.8678 148.195 79.5913 141.506C90.5247 128.737 104.295 116.193 121.395 113.064C136.538 110.311 154.253 115.475 161.336 130.154C169.363 146.795 161.846 165.651 151.498 179.311C145.882 186.72 139.331 193.396 132.876 200.069C126.313 206.854 119.699 213.599 113.455 220.694C101.639 234.149 91.1446 249.061 85.9798 266.393C81.1329 282.652 81.2488 300.45 89.542 315.591C97.2448 329.7 110.409 340.11 124.647 347.124C142.432 355.907 162.079 360.101 181.189 364.929L242.483 380.419L271.874 387.844C272.507 388.004 272.832 387.04 272.204 386.875L211.646 371.57C191.944 366.594 172.076 362.045 152.549 356.419C135.166 351.406 117.836 344.575 104.25 332.274C98.2329 326.826 93.0377 320.407 89.419 313.111C85.542 305.146 83.5882 296.382 83.7148 287.525C83.9977 248.978 114.19 221.201 138.8 195.382C150.521 183.078 162.637 169.321 165.173 151.862C166.277 144.315 165.54 136.314 162.125 129.417C158.972 123.189 153.827 118.195 147.508 115.23C133.881 108.671 117.969 110.864 105.083 118.042C97.8814 122.067 91.4988 127.419 85.7379 133.272C79.8555 139.255 73.6826 145.844 69.8803 153.382C66.6445 159.802 65.5192 167.881 69.3564 174.324C72.7878 180.08 79.3359 182.221 85.7213 181.008C99.6292 178.364 108.361 164.951 110.809 151.866C113.232 138.888 110.222 124.804 102.267 114.212C92.1321 100.739 75.3183 96.6604 59.9968 92.0552C45.4848 87.6978 27.761 80.7437 22.6695 64.8802C18.6016 52.2088 24.7103 36.0924 37.5192 31.154C50.4592 26.155 67.1119 36.0781 68.6098 49.9552C70.4103 66.586 51.7304 77.2344 37.2 76.2129C22.6696 75.1913 9.001 64.9973 3.78628 51.3891C-1.63238 37.2226 3.69993 21.1471 14.6336 11.1638C19.8976 6.28418 26.4865 3.06944 33.5723 1.92367C34.2293 1.82112 34.0055 0.82467 33.3723 0.910404Z" fill="#B5E9F7"/>
</svg>
