<svg width="445" height="695" viewBox="0 0 445 695" fill="none" xmlns="http://www.w3.org/2000/svg"><path d="M-278.697 694.623C-307.12 682.334 -326.04 653.517 -329.203 623.123C-332.476 591.637 -317.055 562.325 -290.088 546.056C-264.052 530.367 -229.306 527.414 -202.934 544.037C-178.266 559.588 -160.865 593.445 -179.55 620.143C-195.332 642.685 -230.466 650.73 -253.54 634.955C-276.614 619.179 -282.887 586.578 -273.114 561.438C-260.775 529.722 -225.242 517.913 -194.218 514.507C-156.626 510.314 -115.091 516.831 -81.0065 496.793C-54.1335 480.995 -36.6573 451.55 -32.941 420.857C-30.9791 405.496 -32.8796 389.888 -38.4704 375.447C-44.7075 359.745 -57.6976 344.785 -74.3059 339.802C-92.7801 334.256 -109.18 346.022 -114.137 363.89C-119.57 383.539 -110.938 403.364 -102.451 420.776C-86.2331 454.022 -63.8497 488.357 -29.1631 504.486C1.56447 518.73 42.1506 517.536 65.3571 490.195C91.6636 459.197 86.091 414.878 71.6122 380.06C63.7533 361.173 53.4958 343.329 43.4405 325.545C33.2198 307.464 22.8659 289.438 13.4956 270.873C-4.22182 235.678 -18.3192 198.112 -19.726 158.34C-21.0499 121.031 -10.953 83.1918 15.0889 55.5359C39.3023 29.7503 73.0998 14.8653 107.304 7.80859C150.041 -1.05395 194.206 0.886971 237.576 1.18192L376.687 2.11738L443.391 2.57064C444.826 2.57982 444.985 4.81328 443.558 4.81586L306.116 3.89506C261.402 3.58879 216.572 2.28049 171.871 3.45489C132.077 4.51067 91.3878 9.46678 55.6457 28.1462C39.8163 36.4173 25.1994 47.2122 13.4547 60.7476C0.789528 75.5655 -8.22178 93.1487 -12.8545 112.083C-33.5858 194.332 15.3418 270.199 53.4642 338.806C71.6164 371.498 89.806 407.5 85.5448 446.087C83.7175 462.77 77.7206 479.402 66.6316 492.201C56.4697 503.719 42.7472 511.507 27.6479 514.326C-5.00376 520.752 -37.6774 507.275 -61.1475 484.856C-74.2569 472.298 -84.8876 457.367 -93.9174 441.714C-103.134 425.717 -112.634 408.268 -116.559 390.109C-119.897 374.645 -117.823 356.818 -106.085 345.219C-95.5914 334.861 -80.4607 333.924 -67.5335 340.043C-39.3767 353.37 -28.205 386.768 -30.2335 415.991C-32.2545 444.971 -46.4615 473.3 -69.2648 491.454C-98.3055 514.54 -136.371 513.919 -171.55 515.247C-204.868 516.495 -246.463 521.496 -266.086 552.463C-281.762 577.198 -277.672 614.902 -253.126 632.508C-228.335 650.316 -187.378 638.4 -176.507 609.675C-163.468 575.252 -197.357 542.236 -228.868 536.37C-260.379 530.503 -295.131 544.649 -313.768 570.744C-333.149 597.915 -330.69 635.103 -312.929 662.415C-304.419 675.721 -292.166 686.214 -277.71 692.576C-276.367 693.158 -277.395 695.156 -278.697 694.623Z" fill="#B5E9F7"/></svg>