<svg width="557" height="695" viewBox="0 0 557 695" fill="none" xmlns="http://www.w3.org/2000/svg"><path d="M723.465 694.623C751.888 682.334 770.808 653.517 773.971 623.123C777.244 591.637 761.823 562.325 734.856 546.056C708.821 530.367 674.074 527.414 647.702 544.037C623.034 559.588 605.633 593.445 624.318 620.143C640.1 642.685 675.234 650.73 698.308 634.955C721.382 619.179 727.655 586.578 717.882 561.438C705.543 529.722 670.01 517.913 638.986 514.507C601.395 510.314 559.859 516.831 525.775 496.793C498.902 480.995 481.425 451.55 477.709 420.857C475.747 405.496 477.648 389.888 483.239 375.447C489.476 359.745 502.466 344.785 519.074 339.802C537.548 334.256 553.948 346.022 558.905 363.89C564.338 383.539 555.707 403.364 547.219 420.776C531.001 454.022 508.618 488.357 473.931 504.486C443.204 518.73 402.618 517.536 379.411 490.195C353.105 459.197 358.677 414.878 373.156 380.06C381.015 361.173 391.272 343.329 401.328 325.545C411.548 307.464 421.902 289.438 431.273 270.873C448.99 235.678 463.087 198.112 464.494 158.34C465.818 121.031 455.721 83.1918 429.679 55.5359C405.466 29.7503 371.668 14.8653 337.465 7.80859C294.727 -1.05395 250.562 0.886971 207.192 1.18192L68.0813 2.11738L1.3774 2.57064C-0.058171 2.57982 -0.217134 4.81328 1.21062 4.81586L138.653 3.89506C183.366 3.58879 228.196 2.28049 272.897 3.45489C312.691 4.51067 353.38 9.46678 389.122 28.1462C404.952 36.4173 419.569 47.2122 431.313 60.7476C443.979 75.5655 452.99 93.1487 457.623 112.083C478.354 194.332 429.426 270.199 391.304 338.806C373.152 371.498 354.962 407.5 359.223 446.087C361.051 462.77 367.048 479.402 378.137 492.201C388.298 503.719 402.021 511.507 417.12 514.326C449.772 520.752 482.446 507.275 505.916 484.856C519.025 472.298 529.656 457.367 538.686 441.714C547.902 425.717 557.402 408.268 561.327 390.109C564.666 374.645 562.591 356.818 550.853 345.219C540.36 334.861 525.229 333.924 512.302 340.043C484.145 353.37 472.973 386.768 475.002 415.991C477.023 444.971 491.23 473.3 514.033 491.454C543.074 514.54 581.139 513.919 616.318 515.247C649.636 516.495 691.231 521.496 710.854 552.463C726.53 577.198 722.441 614.902 697.894 632.508C673.103 650.316 632.146 638.4 621.275 609.675C608.236 575.252 642.126 542.236 673.636 536.37C705.147 530.503 739.899 544.649 758.536 570.744C777.917 597.915 775.458 635.103 757.698 662.415C749.188 675.721 736.934 686.214 722.478 692.576C721.135 693.158 722.163 695.156 723.465 694.623Z" fill="#B5E9F7"/></svg>