<svg width="784" height="674" viewBox="0 0 784 674" fill="none" xmlns="http://www.w3.org/2000/svg"><path d="M50.528 -13.8963C22.2881 -1.19101 3.79388 27.9008 1.0782 58.3384C-1.73123 89.8696 14.1191 118.951 41.3217 134.822C67.5853 150.127 102.372 152.569 128.496 135.56C152.933 119.648 169.835 85.5381 150.759 59.1182C134.647 36.8102 99.3989 29.2828 76.5594 45.3958C53.7199 61.5088 47.9266 94.1984 58.0677 119.192C70.8724 150.724 106.575 162.009 137.645 164.958C175.295 168.598 216.73 161.471 251.105 181.005C278.207 196.407 296.115 225.592 300.282 256.227C302.469 271.557 300.798 287.192 295.421 301.714C289.415 317.505 276.646 332.655 260.113 337.881C241.722 343.699 225.151 332.174 219.932 314.382C214.211 294.815 222.55 274.865 230.781 257.33C246.508 223.849 268.384 189.189 302.83 172.551C333.345 157.857 373.944 158.455 397.55 185.452C424.309 216.06 419.389 260.455 405.423 295.482C397.843 314.483 387.849 332.476 378.056 350.406C368.103 368.635 358.015 386.812 348.918 405.513C331.72 440.964 318.177 478.733 317.355 518.522C316.579 555.846 327.232 593.533 353.677 620.803C378.267 646.229 412.28 660.616 446.584 667.169C489.447 675.402 533.579 672.812 576.939 671.88L716.021 668.899L782.712 667.465C784.147 667.435 784.273 665.2 782.845 665.218L645.432 668.159C600.728 669.123 555.921 671.09 511.208 670.573C471.403 670.102 430.645 665.745 394.632 647.593C378.683 639.556 363.909 628.977 351.967 615.615C339.085 600.985 329.816 583.537 324.906 564.672C302.967 482.737 350.774 406.159 387.884 336.998C405.554 304.044 423.212 267.778 418.384 229.257C416.311 212.603 410.071 196.062 398.795 183.427C388.465 172.06 374.629 164.474 359.49 161.878C326.747 155.932 294.275 169.888 271.137 192.65C258.214 205.399 247.804 220.484 239.005 236.269C230.025 252.399 220.783 269.986 217.125 288.201C214.014 303.712 216.35 321.507 228.258 332.932C238.902 343.135 254.045 343.85 266.881 337.541C294.839 323.802 305.518 290.243 303.061 261.053C300.614 232.106 285.992 203.989 262.924 186.172C233.547 163.516 195.495 164.695 160.3 163.885C126.968 163.127 85.3033 158.738 65.2273 128.063C49.189 103.561 52.7241 65.8012 77.0087 47.8357C101.536 29.6651 142.664 40.9785 153.955 69.5406C167.499 103.767 134.099 137.278 102.677 143.607C71.2564 149.936 36.3002 136.303 17.2813 110.485C-2.49667 83.6013 -0.584444 46.3821 16.7723 18.8112C25.0858 5.38196 37.1834 -5.29017 51.5447 -11.8638C52.8785 -12.4655 51.8212 -14.4484 50.528 -13.8963Z" fill="#B5E9F7"/></svg>