<svg width="21" height="21" viewBox="0 0 21 21" fill="none" xmlns="http://www.w3.org/2000/svg"><g clip-path="url(#clip0_7_97)"><path d="M10.5 21C16.2984 21 21 16.2984 21 10.5C21 4.70162 16.2984 0 10.5 0C4.70162 0 0 4.70162 0 10.5C0 16.2984 4.70162 21 10.5 21Z" fill="#fff"/><path d="M20.3466 14.1504C21.2178 11.7939 21.2178 9.20362 20.3466 6.84715H0.653383C-0.217794 9.20362 -0.217794 11.7939 0.653383 14.1504L10.5 15.0679L20.3466 14.1504Z" fill="#0052B4"/><path d="M10.4999 21C15.0149 21 18.8647 18.1535 20.3466 14.1504H0.65332C2.13686 18.1535 5.98494 21 10.4999 21Z" fill="#D80027"/></g><defs><clipPath id="clip0_7_97"><path fill="#fff" d="M0 0H21V21H0z"/></clipPath></defs></svg>