<svg width="21" height="21" viewBox="0 0 21 21" fill="none" xmlns="http://www.w3.org/2000/svg"><path d="M10.5 21C16.299 21 21 16.299 21 10.5C21 4.70101 16.299 0 10.5 0C4.70101 0 0 4.70101 0 10.5C0 16.299 4.70101 21 10.5 21Z" fill="#F0F0F0"/><path d="M2.17052 4.10739C1.34574 5.18048 0.723821 6.41731 0.361694 7.76094H5.82407L2.17052 4.10739Z" fill="#0052B4"/><path d="M20.6383 7.76094C20.2762 6.41735 19.6542 5.18052 18.8295 4.10743L15.176 7.76094H20.6383Z" fill="#0052B4"/><path d="M0.361694 13.2392C0.723862 14.5828 1.34578 15.8196 2.17052 16.8927L5.82395 13.2392H0.361694Z" fill="#0052B4"/><path d="M16.8926 2.17059C15.8196 1.34581 14.5828 0.723885 13.2391 0.361717V5.82406L16.8926 2.17059Z" fill="#0052B4"/><path d="M4.10742 18.8294C5.18051 19.6542 6.41734 20.2761 7.76093 20.6383V15.176L4.10742 18.8294Z" fill="#0052B4"/><path d="M7.76089 0.361717C6.4173 0.723885 5.18047 1.34581 4.10742 2.17055L7.76089 5.82401V0.361717Z" fill="#0052B4"/><path d="M13.2391 20.6383C14.5827 20.2761 15.8196 19.6542 16.8926 18.8295L13.2391 15.176V20.6383Z" fill="#0052B4"/><path d="M15.176 13.2392L18.8295 16.8927C19.6542 15.8196 20.2762 14.5828 20.6383 13.2392H15.176Z" fill="#0052B4"/><path d="M20.9111 9.13045H11.8696H11.8696V0.0888809C11.4213 0.0305156 10.9642 0 10.5 0C10.0357 0 9.57875 0.0305156 9.13045 0.0888809V9.13037V9.13041H0.0888809C0.0305156 9.57875 0 10.0358 0 10.5C0 10.9643 0.0305156 11.4213 0.0888809 11.8696H9.13037H9.13041V20.9111C9.57875 20.9695 10.0357 21 10.5 21C10.9642 21 11.4213 20.9695 11.8696 20.9111V11.8696V11.8696H20.9111C20.9695 11.4213 21 10.9643 21 10.5C21 10.0358 20.9695 9.57875 20.9111 9.13045Z" fill="#D80027"/><path d="M13.2391 13.2392L17.9246 17.9246C18.1401 17.7092 18.3457 17.484 18.5418 17.2506L14.5304 13.2391H13.2391V13.2392Z" fill="#D80027"/><path d="M7.76082 13.2392H7.76074L3.07532 17.9246C3.29073 18.1401 3.51595 18.3457 3.74941 18.5418L7.76082 14.5303V13.2392Z" fill="#D80027"/><path d="M7.76079 7.76094V7.76085L3.07533 3.07535C2.85984 3.29077 2.65427 3.51598 2.45813 3.74944L6.46958 7.7609H7.76079V7.76094Z" fill="#D80027"/><path d="M13.2391 7.76093L17.9246 3.07539C17.7092 2.8599 17.484 2.65432 17.2505 2.45823L13.2391 6.46968V7.76093Z" fill="#D80027"/></svg>