<svg width="953" height="499" viewBox="0 0 953 499" fill="none" xmlns="http://www.w3.org/2000/svg"><path d="M24.1552 0.93419C2.35395 22.9256 -4.47131 56.7159 3.91432 86.1013C12.6048 116.541 37.834 138 68.9196 143.054C98.9256 147.917 132.272 137.715 150.555 112.466C167.656 88.846 171.194 50.943 143.909 33.1262C120.866 18.0842 85.2642 23.7044 69.7264 46.939C54.1887 70.1736 60.5096 102.765 78.9428 122.457C102.208 147.295 139.582 145.019 169.642 136.624C206.091 126.514 242.21 104.995 281.306 110.896C312.129 115.548 339.315 136.365 354.196 163.465C361.738 176.99 365.788 192.183 365.979 207.668C366.039 224.563 359.555 243.285 345.998 254.095C330.919 266.124 311.317 261.312 300.061 246.577C287.701 230.365 288.327 208.751 289.718 189.431C292.386 152.536 300.37 112.335 326.553 84.4464C349.764 59.7824 387.875 45.7739 419.595 62.5039C455.555 81.4733 466.89 124.678 466.422 162.384C466.163 182.84 463.29 203.22 460.582 223.469C457.832 244.056 454.937 264.642 453.156 285.362C449.822 324.623 450.731 364.737 464.24 402.171C476.907 437.289 500.372 468.644 534.841 484.61C566.916 499.522 603.826 500.747 638.197 494.556C681.16 486.863 721.424 468.612 761.564 452.184L890.316 399.502L952.052 374.236C953.381 373.693 952.696 371.561 951.37 372.09L824.161 424.137C782.779 441.076 741.662 458.988 699.74 474.548C662.416 488.39 622.809 498.946 582.681 494.923C564.91 493.143 547.324 488.569 531.383 480.382C514.11 471.348 499.198 458.386 487.846 442.54C437.971 373.931 455.12 285.299 464.945 207.429C469.615 170.329 473.086 130.142 454.759 95.9183C446.849 81.1164 435.089 67.9151 420.031 60.1676C406.31 53.2631 390.674 51.1465 375.611 54.1547C342.916 60.3524 317.613 85.0299 304.182 114.578C296.693 131.114 292.389 148.931 289.839 166.821C287.244 185.099 284.927 204.831 288.047 223.146C290.709 238.74 299.274 254.512 314.489 260.905C328.085 266.609 342.476 261.843 352.194 251.349C373.361 228.494 371.289 193.338 358.522 166.973C345.852 140.831 322.116 119.832 294.191 111.478C258.641 100.87 223.546 115.624 190.404 127.494C159.018 138.746 118.553 149.598 88.8084 128.168C65.0471 111.052 54.7992 74.5376 71.0212 49.0553C87.396 23.2946 129.845 19.0987 150.632 41.708C175.554 68.7967 156.401 112.06 129.342 129.241C102.284 146.422 64.7638 146.238 37.7479 128.962C9.64138 110.965 -1.92737 75.5376 4.38178 43.575C7.32358 28.0572 14.7868 13.7551 25.8334 2.46662C26.8625 1.42645 25.1642 -0.0451772 24.1552 0.93419Z" fill="#B5E9F7"/></svg>