<svg width="577" height="682" viewBox="0 0 577 682" fill="none" xmlns="http://www.w3.org/2000/svg"><path d="M-24.0659 637.59C-13.0759 662.261 12.2376 678.485 38.7757 680.952C66.2674 683.505 91.683 669.774 105.613 646.1C119.046 623.243 121.288 592.911 106.538 570.071C92.739 548.706 63.0437 533.855 39.9394 550.407C20.4309 564.387 13.7517 595.106 27.7313 615.078C41.7109 635.05 70.2033 640.208 92.0348 631.444C119.577 620.378 129.535 589.276 132.208 562.187C135.504 529.361 129.422 493.2 146.571 463.281C160.091 439.693 185.603 424.169 212.336 420.634C225.714 418.775 239.344 420.283 251.993 425.02C265.746 430.309 278.918 441.495 283.423 455.932C288.437 471.99 278.332 486.406 262.797 490.901C245.713 495.827 228.34 488.49 213.073 481.254C183.923 467.429 153.764 448.238 139.364 418.141C126.647 391.479 127.299 356.072 150.921 335.57C177.704 312.33 216.408 316.765 246.913 329.059C263.461 335.731 279.121 344.506 294.727 353.105C310.594 361.845 326.415 370.702 342.696 378.696C373.56 393.811 406.458 405.745 441.158 406.59C473.709 407.387 506.612 398.218 530.482 375.241C552.738 353.877 565.396 324.258 571.222 294.36C578.541 257.003 576.425 218.504 575.752 180.683L573.601 59.3691L572.566 1.19905C572.545 -0.0529017 570.595 -0.170027 570.607 1.07511L572.728 120.933C573.424 159.926 574.995 199.012 574.4 238.008C573.861 272.723 569.928 308.257 553.98 339.608C546.919 353.492 537.644 366.344 525.952 376.717C513.151 387.904 497.903 395.932 481.434 400.154C409.901 419.023 343.266 377.08 283.066 344.49C254.38 328.973 222.808 313.454 189.195 317.541C174.663 319.295 160.216 324.684 149.16 334.478C139.212 343.451 132.551 355.493 130.238 368.689C124.946 397.227 137.014 425.593 156.791 445.847C167.869 457.16 180.993 466.288 194.731 474.013C208.77 481.898 224.079 490.015 239.954 493.265C253.473 496.028 269 494.048 279.004 483.699C287.937 474.448 288.609 461.243 283.148 450.028C271.255 425.599 242.021 416.176 216.554 418.226C191.299 420.266 166.729 432.928 151.115 452.99C131.26 478.539 132.166 511.731 131.345 542.424C130.576 571.493 126.614 607.818 99.7949 625.228C78.3733 639.137 45.4514 635.932 29.8608 614.694C14.0921 593.243 24.0922 557.409 49.0398 547.653C78.9353 535.951 108.055 565.19 113.473 592.615C118.892 620.041 106.888 650.484 84.3088 666.989C60.7978 684.152 28.3423 682.364 4.35173 667.137C-7.33406 659.842 -16.6029 649.257 -22.2899 636.71C-22.8104 635.545 -24.5433 636.46 -24.0659 637.59Z" fill="#B5E9F7"/></svg>