<svg width="611" height="671" viewBox="0 0 611 671" fill="none" xmlns="http://www.w3.org/2000/svg"><path d="M609.94 45.4237C599.442 20.5389 574.456 3.8146 547.973 0.820592C520.537 -2.27766 494.854 10.9447 480.456 34.3372C466.571 56.9226 463.726 87.2038 478.019 110.333C491.391 131.968 520.785 147.406 544.214 131.317C563.996 117.727 571.285 87.1478 557.705 66.9018C544.125 46.6557 515.741 40.9318 493.74 49.2602C465.983 59.7764 455.408 90.6747 452.198 117.705C448.249 150.459 453.611 186.734 435.871 216.305C421.885 239.62 396.069 254.634 369.272 257.637C355.859 259.229 342.261 257.451 329.71 252.463C316.064 246.901 303.117 235.456 298.9 220.933C294.206 204.778 304.595 190.566 320.217 186.381C337.395 181.795 354.619 189.476 369.739 197.014C398.609 211.416 428.381 231.203 442.179 261.58C454.364 288.489 453.007 323.877 428.982 343.905C401.743 366.608 363.135 361.404 332.88 348.507C316.468 341.506 300.985 332.422 285.554 323.514C269.863 314.46 254.222 305.291 238.103 296.974C207.545 281.25 174.891 268.663 140.215 267.128C107.687 265.685 74.6071 274.197 50.2853 296.695C27.6089 317.613 14.3651 346.974 7.94556 376.75C-0.115055 413.955 1.23547 452.488 1.15666 490.315L0.894532 611.648L0.772949 669.827C0.769864 671.079 2.71655 671.235 2.72984 669.99L2.9918 550.113C3.07118 511.114 2.27759 472.005 3.64821 433.029C4.87731 398.331 9.51511 362.882 26.0833 331.855C33.4195 318.113 42.9476 305.449 54.8435 295.311C67.8649 284.379 83.2699 276.656 99.8194 272.763C171.713 255.319 237.501 298.579 297.041 332.359C325.413 348.444 356.671 364.587 390.358 361.17C404.922 359.705 419.473 354.604 430.722 345.032C440.846 336.259 447.745 324.351 450.32 311.204C456.178 282.777 444.677 254.176 425.306 233.533C414.456 222.002 401.516 212.615 387.934 204.618C374.054 196.456 358.909 188.036 343.102 184.471C329.642 181.44 314.078 183.111 303.87 193.259C294.755 202.33 293.821 215.519 299.057 226.841C310.462 251.501 339.504 261.503 365.006 259.961C390.296 258.423 415.114 246.252 431.123 226.505C451.483 201.356 451.237 168.152 452.668 137.481C454.014 108.433 458.698 72.1945 485.858 55.3204C507.551 41.84 540.403 45.6991 555.568 67.2433C570.908 89.0032 560.197 124.632 535.06 133.889C504.938 144.995 476.406 115.182 471.534 87.6549C466.661 60.1275 479.268 29.9283 502.171 13.876C526.018 -2.81614 558.432 -0.383186 582.115 15.3179C593.654 22.843 602.71 33.611 608.147 46.2684C608.644 47.4437 610.394 46.5626 609.94 45.4237Z" fill="#B5E9F7"/></svg>