<svg width="18" height="19" viewBox="0 0 18 19" fill="none" xmlns="http://www.w3.org/2000/svg"><g clip-path="url(#clip0_190_1463)"><path fill-rule="evenodd" clip-rule="evenodd" d="M5.46407 0.734375H12.0203C13.4693 0.734648 14.8589 1.31044 15.8833 2.33513C16.9078 3.35981 17.4834 4.74946 17.4834 6.19844V12.7547C17.4831 14.2035 16.9074 15.5929 15.883 16.6174C14.8585 17.6418 13.4691 18.2175 12.0203 18.2177H5.46407C4.01508 18.2177 2.62543 17.6422 1.60075 16.6177C0.576069 15.5932 0.000272724 14.2037 0 12.7547V6.19844C0 4.74928 0.575677 3.35947 1.60039 2.33476C2.6251 1.31005 4.01491 0.734375 5.46407 0.734375ZM8.74168 13.8469C9.90049 13.8455 11.0114 13.3846 11.8308 12.5652C12.6502 11.7458 13.1112 10.6349 13.1125 9.47606C13.1112 8.31726 12.6502 7.20631 11.8308 6.38691C11.0114 5.56751 9.90049 5.10658 8.74168 5.10522C7.58288 5.10658 6.47193 5.56751 5.65253 6.38691C4.83314 7.20631 4.3722 8.31726 4.37084 9.47606C4.3722 10.6349 4.83314 11.7458 5.65253 12.5652C6.47193 13.3846 7.58288 13.8455 8.74168 13.8469ZM8.74168 6.74454C9.46588 6.74536 10.1602 7.0334 10.6723 7.54548C11.1843 8.05757 11.4724 8.75187 11.4732 9.47606C11.4727 10.2004 11.1847 10.895 10.6726 11.4073C10.1605 11.9196 9.46605 12.2078 8.74168 12.2086C8.01722 12.2078 7.32266 11.9196 6.81038 11.4074C6.29811 10.8951 6.00995 10.2005 6.00914 9.47606C6.00995 8.75169 6.29814 8.05723 6.81044 7.54512C7.32275 7.03301 8.01731 6.74508 8.74168 6.74454ZM4.91693 4.55911C4.91693 4.86071 4.67244 5.10521 4.37084 5.10521C4.06923 5.10521 3.82474 4.86071 3.82474 4.55911C3.82474 4.2575 4.06923 4.01301 4.37084 4.01301C4.67244 4.01301 4.91693 4.2575 4.91693 4.55911Z" fill="currentColor"/></g><defs><clipPath id="clip0_190_1463"><path fill="currentColor" transform="translate(0 .734)" d="M0 0H17.483V17.483H0z"/></clipPath></defs></svg>