<svg width="162" height="42" viewBox="0 0 162 42" fill="none" xmlns="http://www.w3.org/2000/svg"><rect y="2.117" width="39.018" height="39.018" rx="6" fill="#4ECAED" fill-opacity=".26"/><path d="M7.43939 28.2141V32.4551C7.43939 32.7131 7.67558 32.9281 7.97234 32.9281H11.6666C11.9573 32.9281 12.1996 32.7184 12.1996 32.4551V24.9944L9.51668 27.3756C8.94739 27.8755 8.22064 28.1657 7.43939 28.2141Z" fill="#4ECAED"/><path d="M13.7863 24.9944V32.4582C13.7863 32.7145 13.9831 32.9281 14.2304 32.9281H17.309C17.5512 32.9281 17.7531 32.7198 17.7531 32.4582V28.0643C17.0516 28.0483 16.3955 27.7546 15.9009 27.2314L13.7863 24.9944Z" fill="#4ECAED"/><path d="M19.3399 27.551V32.4539C19.3399 32.7125 19.5761 32.9281 19.8728 32.9281H23.5671C23.8578 32.9281 24.1 32.7179 24.1 32.4539V23.4077L19.8668 27.1738C19.7032 27.3193 19.5276 27.4432 19.3399 27.551Z" fill="#4ECAED"/><path d="M29.3558 17.0608L25.6868 21.1821V32.4292C25.6868 32.7013 25.8836 32.9281 26.1309 32.9281H29.2095C29.4517 32.9281 29.6536 32.707 29.6536 32.4292V17.3726C29.5527 17.2762 29.477 17.1912 29.4214 17.1345L29.3558 17.0608Z" fill="#4ECAED"/><path d="M32.5975 10.1844C32.4368 10.0103 32.1929 9.92047 31.8826 9.92047C31.8549 9.92047 31.8216 9.92047 31.7939 9.92047C30.22 9.99347 28.6517 10.0721 27.0778 10.1451C26.8672 10.1563 26.5791 10.1675 26.3518 10.3978C26.2798 10.4708 26.2244 10.555 26.18 10.6561C25.9473 11.1671 26.2743 11.4984 26.4294 11.6556L26.8229 12.0599C27.0944 12.3407 27.3715 12.6214 27.6486 12.8966L18.1388 22.5381L13.8661 18.2087C13.6112 17.9504 13.2676 17.8044 12.9018 17.8044C12.5361 17.8044 12.198 17.9504 11.9431 18.2087L6.25163 23.97C5.71961 24.5091 5.71961 25.3795 6.25163 25.9185L6.50655 26.1768C6.76148 26.4351 7.10507 26.5811 7.47083 26.5811C7.83659 26.5811 8.17464 26.4351 8.42957 26.1768L12.9018 21.6453L17.1746 25.9747C17.4295 26.233 17.7731 26.379 18.1388 26.379C18.5046 26.379 18.8427 26.233 19.1031 25.9747L29.8321 15.1034L31.0458 16.3276C31.1899 16.4736 31.3894 16.6757 31.6942 16.6757C31.8216 16.6757 31.9491 16.642 32.0821 16.569C32.1708 16.5185 32.2483 16.4623 32.3148 16.3949C32.5531 16.1535 32.5975 15.8446 32.6086 15.6032C32.6529 14.57 32.7028 13.5367 32.7526 12.4979L32.8247 10.9425C32.8413 10.6168 32.7693 10.3641 32.5975 10.1844Z" fill="#4ECAED"/><path d="M50.6219 19.0086V7.60043H46.1048V4.30195H59.2778V7.60043H54.7817V19.0086H50.6219Z" fill="#4ECAED"/><path d="M108.475 19.1977C107.228 19.1977 106.122 18.9456 105.155 18.4413C104.189 17.9371 103.425 17.2438 102.865 16.3614C102.319 15.465 102.046 14.4425 102.046 13.294C102.046 12.1455 102.319 11.13 102.865 10.2476C103.425 9.36523 104.189 8.67892 105.155 8.1887C106.122 7.68447 107.228 7.43236 108.475 7.43236C109.721 7.43236 110.828 7.68447 111.794 8.1887C112.775 8.67892 113.538 9.36523 114.084 10.2476C114.63 11.13 114.903 12.1455 114.903 13.294C114.903 14.4425 114.63 15.465 114.084 16.3614C113.538 17.2438 112.775 17.9371 111.794 18.4413C110.828 18.9456 109.721 19.1977 108.475 19.1977ZM108.475 16.0252C108.937 16.0252 109.343 15.9202 109.693 15.7101C110.057 15.5 110.344 15.1919 110.555 14.7857C110.765 14.3655 110.87 13.8683 110.87 13.294C110.87 12.7197 110.765 12.2365 110.555 11.8444C110.344 11.4382 110.057 11.13 109.693 10.9199C109.343 10.7098 108.937 10.6048 108.475 10.6048C108.026 10.6048 107.62 10.7098 107.256 10.9199C106.906 11.13 106.619 11.4382 106.395 11.8444C106.185 12.2365 106.079 12.7197 106.079 13.294C106.079 13.8683 106.185 14.3655 106.395 14.7857C106.619 15.1919 106.906 15.5 107.256 15.7101C107.62 15.9202 108.026 16.0252 108.475 16.0252Z" fill="#272D4E"/><path d="M126.149 19.0086V7.62144H130.141V19.0086H126.149ZM128.145 6.36087C127.417 6.36087 126.829 6.15778 126.381 5.7516C125.932 5.34542 125.708 4.84119 125.708 4.23892C125.708 3.63664 125.932 3.13242 126.381 2.72623C126.829 2.32005 127.417 2.11696 128.145 2.11696C128.874 2.11696 129.462 2.31305 129.91 2.70522C130.358 3.0834 130.582 3.57362 130.582 4.17589C130.582 4.80617 130.358 5.33141 129.91 5.7516C129.476 6.15778 128.888 6.36087 128.145 6.36087Z" fill="#272D4E"/><path d="M138.45 19.1977C137.203 19.1977 136.097 18.9456 135.131 18.4413C134.164 17.9371 133.401 17.2438 132.84 16.3614C132.294 15.465 132.021 14.4425 132.021 13.294C132.021 12.1455 132.294 11.13 132.84 10.2476C133.401 9.36523 134.164 8.67892 135.131 8.1887C136.097 7.68447 137.203 7.43236 138.45 7.43236C139.697 7.43236 140.803 7.68447 141.77 8.1887C142.75 8.67892 143.513 9.36523 144.06 10.2476C144.606 11.13 144.879 12.1455 144.879 13.294C144.879 14.4425 144.606 15.465 144.06 16.3614C143.513 17.2438 142.75 17.9371 141.77 18.4413C140.803 18.9456 139.697 19.1977 138.45 19.1977ZM138.45 16.0252C138.912 16.0252 139.318 15.9202 139.669 15.7101C140.033 15.5 140.32 15.1919 140.53 14.7857C140.74 14.3655 140.845 13.8683 140.845 13.294C140.845 12.7197 140.74 12.2365 140.53 11.8444C140.32 11.4382 140.033 11.13 139.669 10.9199C139.318 10.7098 138.912 10.6048 138.45 10.6048C138.002 10.6048 137.596 10.7098 137.231 10.9199C136.881 11.13 136.594 11.4382 136.37 11.8444C136.16 12.2365 136.055 12.7197 136.055 13.294C136.055 13.8683 136.16 14.3655 136.37 14.7857C136.594 15.1919 136.881 15.5 137.231 15.7101C137.596 15.9202 138.002 16.0252 138.45 16.0252Z" fill="#272D4E"/><path fill-rule="evenodd" clip-rule="evenodd" d="M86.7486 19.0086H86.0328V17.9456C86.0328 17.7993 85.9498 17.6628 85.8097 17.5814L83.6128 16.2998L86.7486 15.2446V19.0086ZM82.9039 15.6009L86.7486 14.307V11.424L88.2137 13.814L91.4584 12.7221L90.4624 11.0873L86.7486 10.2205L86.3248 10.1216L82.9039 9.32316V15.6009ZM87.431 6.11166L89.8186 10.0307L82.9039 8.41726V7.87235L87.431 6.11166ZM91.5736 12.6833L93.9189 11.894L92.2693 11.509L91.5736 12.6833ZM88.6901 14.5912L90.8799 13.8543L91.9324 13.5001L95.4912 12.3025L92.3582 17.5589H90.5093L88.6901 14.5912ZM82.9039 19.0086V16.9388L85.0324 18.1802V19.0086H82.9039ZM96.145 11.2057L95.9369 11.5548C95.8712 11.4784 95.777 11.421 95.6657 11.395L92.7411 10.7126L96.5391 4.30195H99.9636L100.006 19.0086H96.1819L96.145 11.2057ZM86.9588 5.33656L82.9039 6.9132V4.30195H86.3284L86.9588 5.33656Z" fill="#272D4E"/><path d="M74.1525 17.4329L71.8204 14.5126C71.3683 14.8806 70.9201 15.1697 70.4758 15.3798V16.8866L74.1525 17.4329Z" fill="#4ECAED"/><path fill-rule="evenodd" clip-rule="evenodd" d="M67.9757 19.3027C66.8132 19.3027 65.7347 19.1206 64.7402 18.7565C63.7458 18.3783 62.8844 17.8461 62.1561 17.1597C61.4417 16.4734 60.8815 15.6681 60.4753 14.7437C60.0691 13.8052 59.866 12.7758 59.866 11.6553C59.866 10.5348 60.0691 9.5123 60.4753 8.58788C60.8815 7.64946 61.4487 6.83709 62.1771 6.15078C62.9054 5.46447 63.7668 4.93923 64.7612 4.57507C65.7697 4.1969 66.8692 4.00781 68.0597 4.00781C69.4463 4.00781 70.6859 4.23892 71.7784 4.70112C72.8709 5.16333 73.7743 5.82864 74.4886 6.69703L71.8414 9.09211C71.3372 8.54586 70.7909 8.13968 70.2027 7.87356C69.6284 7.59343 68.9841 7.45337 68.2698 7.45337C67.6395 7.45337 67.0653 7.55141 66.547 7.7475C66.0288 7.94359 65.5876 8.23072 65.2234 8.60889C64.8593 8.97305 64.5721 9.41425 64.3621 9.93249C64.166 10.4367 64.0679 11.011 64.0679 11.6553C64.0679 12.2715 64.166 12.8388 64.3621 13.357C64.5721 13.8753 64.8593 14.3235 65.2234 14.7016C65.5876 15.0658 66.0218 15.3529 66.526 15.563C67.0443 15.7591 67.6115 15.8572 68.2278 15.8572C68.8441 15.8572 69.4463 15.7591 70.0346 15.563C70.1812 15.5107 70.3283 15.4496 70.4758 15.3798V16.8866L74.1525 17.4329C73.3121 18.0351 72.3386 18.4974 71.2321 18.8195C70.1256 19.1416 69.0402 19.3027 67.9757 19.3027Z" fill="#4ECAED"/><path d="M71.8204 14.5126L74.1525 17.4329V11.3401H70.4758V15.3798C70.9201 15.1697 71.3683 14.8806 71.8204 14.5126Z" fill="#4ECAED"/><path fill-rule="evenodd" clip-rule="evenodd" d="M118.433 18.1262C119.246 18.8405 120.38 19.1977 121.837 19.1977C122.369 19.1977 122.88 19.1416 123.371 19.0296C123.861 18.9316 124.274 18.7705 124.61 18.5464L123.623 15.7521C123.287 15.9902 122.88 16.1093 122.404 16.1093C122.054 16.1093 121.767 15.9972 121.543 15.7731C121.319 15.535 121.207 15.2129 121.207 14.8067V11.025H123.812V8.04163H121.207V5.0793H117.215V8.04163H115.555V11.025H117.215V14.8487C117.215 16.3054 117.621 17.3979 118.433 18.1262ZM117.215 11.025H121.207V8.04163H117.215V11.025Z" fill="#272D4E"/><path d="M117.215 11.025H121.207V8.04163H117.215V11.025Z" fill="#272D4E"/><path fill-rule="evenodd" clip-rule="evenodd" d="M156.54 7.97861C155.825 7.61444 155.027 7.43236 154.144 7.43236C153.192 7.43236 152.338 7.64245 151.581 8.06264C151.187 8.27414 150.837 8.54261 150.531 8.86803V7.62144H146.728V19.0086H150.72V13.5041C150.72 12.8738 150.818 12.3626 151.014 11.9704C151.21 11.5782 151.483 11.2911 151.833 11.109C152.184 10.9129 152.569 10.8149 152.989 10.8149C153.577 10.8149 154.032 11.004 154.355 11.3821C154.691 11.7463 154.859 12.3346 154.859 13.1469V19.0086H158.851V12.4956C158.851 11.3191 158.64 10.3597 158.22 9.61734C157.814 8.87501 157.254 8.32876 156.54 7.97861ZM150.531 10.8569V8.86803C150.506 8.89416 150.482 8.92065 150.458 8.9475C150.206 9.22862 149.985 9.54994 149.795 9.91148L150.531 10.8569Z" fill="#272D4E"/><path d="M149.795 9.91148L150.531 10.8569V8.86803C150.506 8.89416 150.482 8.92065 150.458 8.9475C150.206 9.22862 149.985 9.54994 149.795 9.91148Z" fill="#272D4E"/><path d="M49.8205 31.2021C49.3403 31.2021 48.8961 31.1241 48.4879 30.968C48.0857 30.8059 47.7346 30.5808 47.4344 30.2927C47.1403 29.9986 46.9092 29.6564 46.7411 29.2662C46.5731 28.876 46.489 28.4469 46.489 27.9786C46.489 27.5104 46.5731 27.0812 46.7411 26.6911C46.9092 26.3009 47.1433 25.9617 47.4434 25.6736C47.7436 25.3795 48.0947 25.1544 48.4969 24.9983C48.9051 24.8362 49.3493 24.7552 49.8295 24.7552C50.3157 24.7552 50.7629 24.8392 51.1711 25.0073C51.5853 25.1694 51.9365 25.4125 52.2246 25.7366L51.6393 26.3039C51.3992 26.0518 51.1291 25.8657 50.829 25.7456C50.5288 25.6196 50.2077 25.5565 49.8655 25.5565C49.5114 25.5565 49.1812 25.6166 48.8751 25.7366C48.575 25.8567 48.3138 26.0248 48.0917 26.2409C47.8696 26.457 47.6956 26.7151 47.5695 27.0152C47.4494 27.3093 47.3894 27.6305 47.3894 27.9786C47.3894 28.3268 47.4494 28.6509 47.5695 28.9511C47.6956 29.2452 47.8696 29.5003 48.0917 29.7164C48.3138 29.9325 48.575 30.1006 48.8751 30.2207C49.1812 30.3407 49.5114 30.4007 49.8655 30.4007C50.2077 30.4007 50.5288 30.3407 50.829 30.2207C51.1291 30.0946 51.3992 29.9025 51.6393 29.6444L52.2246 30.2117C51.9365 30.5358 51.5853 30.7819 51.1711 30.95C50.7629 31.1181 50.3127 31.2021 49.8205 31.2021Z" fill="#272D4E"/><path d="M55.2438 31.1841C54.7335 31.1841 54.2833 31.079 53.8932 30.8689C53.509 30.6589 53.2089 30.3707 52.9928 30.0046C52.7827 29.6384 52.6776 29.2182 52.6776 28.744C52.6776 28.2698 52.7797 27.8496 52.9838 27.4834C53.1939 27.1173 53.479 26.8321 53.8391 26.628C54.2053 26.4179 54.6165 26.3129 55.0727 26.3129C55.5349 26.3129 55.9431 26.4149 56.2973 26.619C56.6514 26.8231 56.9275 27.1113 57.1256 27.4834C57.3297 27.8496 57.4318 28.2788 57.4318 28.771C57.4318 28.807 57.4288 28.849 57.4228 28.8971C57.4228 28.9451 57.4198 28.9901 57.4138 29.0321H53.3529V28.4108H56.9636L56.6124 28.6269C56.6184 28.3208 56.5554 28.0477 56.4233 27.8076C56.2913 27.5675 56.1082 27.3814 55.8741 27.2493C55.646 27.1113 55.3788 27.0422 55.0727 27.0422C54.7726 27.0422 54.5054 27.1113 54.2713 27.2493C54.0372 27.3814 53.8542 27.5705 53.7221 27.8166C53.59 28.0567 53.524 28.3328 53.524 28.6449V28.789C53.524 29.1072 53.596 29.3923 53.7401 29.6444C53.8902 29.8905 54.0973 30.0826 54.3614 30.2207C54.6255 30.3587 54.9286 30.4277 55.2708 30.4277C55.5529 30.4277 55.808 30.3797 56.0361 30.2837C56.2702 30.1876 56.4743 30.0436 56.6484 29.8515L57.1256 30.4097C56.9095 30.6619 56.6394 30.8539 56.3153 30.986C55.9971 31.1181 55.64 31.1841 55.2438 31.1841Z" fill="#272D4E"/><path d="M61.3029 31.1841C60.9067 31.1841 60.5435 31.0941 60.2134 30.914C59.8892 30.7279 59.6281 30.4548 59.43 30.0946C59.2379 29.7344 59.1419 29.2842 59.1419 28.744C59.1419 28.2037 59.2349 27.7535 59.421 27.3934C59.6131 27.0332 59.8712 26.7631 60.1954 26.583C60.5255 26.4029 60.8947 26.3129 61.3029 26.3129C61.7711 26.3129 62.1853 26.4149 62.5454 26.619C62.9056 26.8231 63.1907 27.1083 63.4008 27.4744C63.6109 27.8346 63.716 28.2578 63.716 28.744C63.716 29.2302 63.6109 29.6564 63.4008 30.0226C63.1907 30.3887 62.9056 30.6739 62.5454 30.878C62.1853 31.082 61.7711 31.1841 61.3029 31.1841ZM58.7727 32.8769V26.3579H59.6011V27.6455L59.5471 28.753L59.6371 29.8605V32.8769H58.7727ZM61.2308 30.4277C61.537 30.4277 61.8101 30.3587 62.0502 30.2207C62.2963 30.0826 62.4884 29.8875 62.6265 29.6354C62.7705 29.3773 62.8426 29.0801 62.8426 28.744C62.8426 28.4018 62.7705 28.1077 62.6265 27.8616C62.4884 27.6095 62.2963 27.4144 62.0502 27.2763C61.8101 27.1383 61.537 27.0692 61.2308 27.0692C60.9307 27.0692 60.6576 27.1383 60.4115 27.2763C60.1714 27.4144 59.9793 27.6095 59.8352 27.8616C59.6972 28.1077 59.6281 28.4018 59.6281 28.744C59.6281 29.0801 59.6972 29.3773 59.8352 29.6354C59.9793 29.8875 60.1714 30.0826 60.4115 30.2207C60.6576 30.3587 60.9307 30.4277 61.2308 30.4277Z" fill="#272D4E"/><path d="M64.9718 31.1301V26.3579H67.1868C67.7451 26.3579 68.1833 26.466 68.5014 26.6821C68.8256 26.8922 68.9876 27.1923 68.9876 27.5825C68.9876 27.9726 68.8346 28.2758 68.5284 28.4919C68.2283 28.702 67.8291 28.807 67.3309 28.807L67.466 28.5729C68.0362 28.5729 68.4594 28.678 68.7355 28.8881C69.0117 29.0981 69.1497 29.4073 69.1497 29.8155C69.1497 30.2297 68.9936 30.5538 68.6815 30.7879C68.3754 31.016 67.9042 31.1301 67.2679 31.1301H64.9718ZM65.8182 30.4638H67.2048C67.565 30.4638 67.8351 30.4097 68.0152 30.3017C68.1953 30.1876 68.2853 30.0076 68.2853 29.7614C68.2853 29.5093 68.2013 29.3263 68.0332 29.2122C67.8711 29.0921 67.613 29.0321 67.2589 29.0321H65.8182V30.4638ZM65.8182 28.4108H67.1148C67.4449 28.4108 67.6941 28.3508 67.8621 28.2308C68.0362 28.1047 68.1233 27.9306 68.1233 27.7085C68.1233 27.4804 68.0362 27.3093 67.8621 27.1953C67.6941 27.0812 67.4449 27.0242 67.1148 27.0242H65.8182V28.4108Z" fill="#272D4E"/><path d="M70.5026 31.1301V26.3579H71.367V29.8335L74.2934 26.3579H75.0767V31.1301H74.2123V27.6545L71.295 31.1301H70.5026Z" fill="#272D4E"/><path d="M78.8344 31.1841C78.3482 31.1841 77.913 31.079 77.5288 30.8689C77.1507 30.6589 76.8535 30.3707 76.6374 30.0046C76.4213 29.6384 76.3133 29.2182 76.3133 28.744C76.3133 28.2698 76.4213 27.8496 76.6374 27.4834C76.8535 27.1173 77.1507 26.8321 77.5288 26.628C77.913 26.4179 78.3482 26.3129 78.8344 26.3129C79.2666 26.3129 79.6508 26.3999 79.9869 26.574C80.3291 26.7421 80.5932 26.9942 80.7793 27.3304L80.122 27.7535C79.9659 27.5194 79.7739 27.3484 79.5457 27.2403C79.3237 27.1263 79.0835 27.0692 78.8254 27.0692C78.5133 27.0692 78.2342 27.1383 77.988 27.2763C77.7419 27.4144 77.5468 27.6095 77.4028 27.8616C77.2587 28.1077 77.1867 28.4018 77.1867 28.744C77.1867 29.0861 77.2587 29.3833 77.4028 29.6354C77.5468 29.8875 77.7419 30.0826 77.988 30.2207C78.2342 30.3587 78.5133 30.4277 78.8254 30.4277C79.0835 30.4277 79.3237 30.3737 79.5457 30.2657C79.7739 30.1516 79.9659 29.9775 80.122 29.7434L80.7793 30.1576C80.5932 30.4878 80.3291 30.7429 79.9869 30.923C79.6508 31.0971 79.2666 31.1841 78.8344 31.1841Z" fill="#272D4E"/><path d="M84.3165 31.1301V26.3579H88.7375V31.1301H87.8731V26.8982L88.0802 27.1143H84.9738L85.1809 26.8982V31.1301H84.3165Z" fill="#272D4E"/><path d="M92.9402 31.1841C92.544 31.1841 92.1809 31.0941 91.8507 30.914C91.5266 30.7279 91.2655 30.4548 91.0674 30.0946C90.8753 29.7344 90.7792 29.2842 90.7792 28.744C90.7792 28.2037 90.8723 27.7535 91.0584 27.3934C91.2504 27.0332 91.5086 26.7631 91.8327 26.583C92.1629 26.4029 92.532 26.3129 92.9402 26.3129C93.4084 26.3129 93.8226 26.4149 94.1828 26.619C94.5429 26.8231 94.8281 27.1083 95.0382 27.4744C95.2483 27.8346 95.3533 28.2578 95.3533 28.744C95.3533 29.2302 95.2483 29.6564 95.0382 30.0226C94.8281 30.3887 94.5429 30.6739 94.1828 30.878C93.8226 31.082 93.4084 31.1841 92.9402 31.1841ZM90.4101 32.8769V26.3579H91.2384V27.6455L91.1844 28.753L91.2745 29.8605V32.8769H90.4101ZM92.8682 30.4277C93.1743 30.4277 93.4474 30.3587 93.6875 30.2207C93.9337 30.0826 94.1257 29.8875 94.2638 29.6354C94.4079 29.3773 94.4799 29.0801 94.4799 28.744C94.4799 28.4018 94.4079 28.1077 94.2638 27.8616C94.1257 27.6095 93.9337 27.4144 93.6875 27.2763C93.4474 27.1383 93.1743 27.0692 92.8682 27.0692C92.568 27.0692 92.2949 27.1383 92.0488 27.2763C91.8087 27.4144 91.6166 27.6095 91.4725 27.8616C91.3345 28.1077 91.2655 28.4018 91.2655 28.744C91.2655 29.0801 91.3345 29.3773 91.4725 29.6354C91.6166 29.8875 91.8087 30.0826 92.0488 30.2207C92.2949 30.3587 92.568 30.4277 92.8682 30.4277Z" fill="#272D4E"/><path d="M98.6531 31.1841C98.1729 31.1841 97.7467 31.079 97.3745 30.8689C97.0023 30.6589 96.7082 30.3707 96.4921 30.0046C96.276 29.6324 96.168 29.2122 96.168 28.744C96.168 28.2698 96.276 27.8496 96.4921 27.4834C96.7082 27.1173 97.0023 26.8321 97.3745 26.628C97.7467 26.4179 98.1729 26.3129 98.6531 26.3129C99.1273 26.3129 99.5505 26.4179 99.9227 26.628C100.301 26.8321 100.595 27.1173 100.805 27.4834C101.021 27.8436 101.129 28.2638 101.129 28.744C101.129 29.2182 101.021 29.6384 100.805 30.0046C100.595 30.3707 100.301 30.6589 99.9227 30.8689C99.5505 31.079 99.1273 31.1841 98.6531 31.1841ZM98.6531 30.4277C98.9592 30.4277 99.2323 30.3587 99.4725 30.2207C99.7186 30.0826 99.9106 29.8875 100.049 29.6354C100.187 29.3773 100.256 29.0801 100.256 28.744C100.256 28.4018 100.187 28.1077 100.049 27.8616C99.9106 27.6095 99.7186 27.4144 99.4725 27.2763C99.2323 27.1383 98.9592 27.0692 98.6531 27.0692C98.3469 27.0692 98.0738 27.1383 97.8337 27.2763C97.5936 27.4144 97.4015 27.6095 97.2575 27.8616C97.1134 28.1077 97.0414 28.4018 97.0414 28.744C97.0414 29.0801 97.1134 29.3773 97.2575 29.6354C97.4015 29.8875 97.5936 30.0826 97.8337 30.2207C98.0738 30.3587 98.3469 30.4277 98.6531 30.4277Z" fill="#272D4E"/><path d="M105.602 30.7249V27.1143H103.531L103.486 28.0327C103.474 28.3328 103.453 28.6239 103.423 28.9061C103.399 29.1822 103.357 29.4373 103.297 29.6714C103.243 29.9055 103.162 30.0976 103.054 30.2477C102.945 30.3977 102.801 30.4908 102.621 30.5268L101.766 30.3737C101.952 30.3797 102.102 30.3197 102.216 30.1936C102.33 30.0616 102.417 29.8815 102.477 29.6534C102.543 29.4253 102.591 29.1672 102.621 28.8791C102.651 28.5849 102.675 28.2818 102.693 27.9696L102.765 26.3579H106.466V30.7249H105.602ZM101.577 32.2376V30.3737H107.195V32.2376H106.385V31.1301H102.396V32.2376H101.577Z" fill="#272D4E"/><path d="M108.321 31.1301V26.3579H110.536C111.095 26.3579 111.533 26.466 111.851 26.6821C112.175 26.8922 112.337 27.1923 112.337 27.5825C112.337 27.9726 112.184 28.2758 111.878 28.4919C111.578 28.702 111.179 28.807 110.681 28.807L110.816 28.5729C111.386 28.5729 111.809 28.678 112.085 28.8881C112.361 29.0981 112.499 29.4073 112.499 29.8155C112.499 30.2297 112.343 30.5538 112.031 30.7879C111.725 31.016 111.254 31.1301 110.618 31.1301H108.321ZM109.168 30.4638H110.554C110.915 30.4638 111.185 30.4097 111.365 30.3017C111.545 30.1876 111.635 30.0076 111.635 29.7614C111.635 29.5093 111.551 29.3263 111.383 29.2122C111.221 29.0921 110.963 29.0321 110.609 29.0321H109.168V30.4638ZM109.168 28.4108H110.464C110.795 28.4108 111.044 28.3508 111.212 28.2308C111.386 28.1047 111.473 27.9306 111.473 27.7085C111.473 27.4804 111.386 27.3093 111.212 27.1953C111.044 27.0812 110.795 27.0242 110.464 27.0242H109.168V28.4108Z" fill="#272D4E"/><path d="M113.852 31.1301V26.3579H114.717V29.8335L117.643 26.3579H118.426V31.1301H117.562V27.6545L114.645 31.1301H113.852Z" fill="#272D4E"/><path d="M125.768 31.1301L124.246 28.807L124.957 28.3748L126.794 31.1301H125.768ZM123.256 29.1132V28.3748H124.804V29.1132H123.256ZM125.038 28.843L124.219 28.735L125.741 26.3579H126.668L125.038 28.843ZM120.41 31.1301H119.384L121.212 28.3748L121.923 28.807L120.41 31.1301ZM123.517 31.1301H122.652V26.3579H123.517V31.1301ZM122.913 29.1132H121.374V28.3748H122.913V29.1132ZM121.14 28.843L119.51 26.3579H120.428L121.95 28.735L121.14 28.843Z" fill="#272D4E"/><path d="M129.712 31.1841C129.202 31.1841 128.752 31.079 128.361 30.8689C127.977 30.6589 127.677 30.3707 127.461 30.0046C127.251 29.6384 127.146 29.2182 127.146 28.744C127.146 28.2698 127.248 27.8496 127.452 27.4834C127.662 27.1173 127.947 26.8321 128.307 26.628C128.674 26.4179 129.085 26.3129 129.541 26.3129C130.003 26.3129 130.411 26.4149 130.765 26.619C131.12 26.8231 131.396 27.1113 131.594 27.4834C131.798 27.8496 131.9 28.2788 131.9 28.771C131.9 28.807 131.897 28.849 131.891 28.8971C131.891 28.9451 131.888 28.9901 131.882 29.0321H127.821V28.4108H131.432L131.081 28.6269C131.087 28.3208 131.024 28.0477 130.892 27.8076C130.759 27.5675 130.576 27.3814 130.342 27.2493C130.114 27.1113 129.847 27.0422 129.541 27.0422C129.241 27.0422 128.974 27.1113 128.74 27.2493C128.505 27.3814 128.322 27.5705 128.19 27.8166C128.058 28.0567 127.992 28.3328 127.992 28.6449V28.789C127.992 29.1072 128.064 29.3923 128.208 29.6444C128.358 29.8905 128.565 30.0826 128.83 30.2207C129.094 30.3587 129.397 30.4277 129.739 30.4277C130.021 30.4277 130.276 30.3797 130.504 30.2837C130.738 30.1876 130.943 30.0436 131.117 29.8515L131.594 30.4097C131.378 30.6619 131.108 30.8539 130.783 30.986C130.465 31.1181 130.108 31.1841 129.712 31.1841Z" fill="#272D4E"/><path d="M133.241 31.1301V26.3579H134.105V28.3838H136.825V26.3579H137.689V31.1301H136.825V29.1312H134.105V31.1301H133.241Z" fill="#272D4E"/><path d="M139.37 31.1301V26.3579H140.234V29.8335L143.16 26.3579H143.944V31.1301H143.079V27.6545L140.162 31.1301H139.37Z" fill="#272D4E"/><path d="M148.674 31.1301V29.4553L148.809 29.6174H147.287C146.651 29.6174 146.153 29.4823 145.793 29.2122C145.438 28.9421 145.261 28.5489 145.261 28.0327C145.261 27.4804 145.45 27.0632 145.829 26.7811C146.213 26.499 146.723 26.3579 147.359 26.3579H149.448V31.1301H148.674ZM145.216 31.1301L146.513 29.3022H147.404L146.144 31.1301H145.216ZM148.674 29.1852V26.8711L148.809 27.1143H147.386C146.99 27.1143 146.684 27.1893 146.468 27.3394C146.252 27.4834 146.144 27.7235 146.144 28.0597C146.144 28.684 146.546 28.9961 147.35 28.9961H148.809L148.674 29.1852Z" fill="#272D4E"/><path d="M46.8582 40.1341V35.362H47.7226V38.8375L50.6489 35.362H51.4322V40.1341H50.5679V36.6586L47.6505 40.1341H46.8582Z" fill="#272D4E"/><path d="M58.0583 40.1882C57.6621 40.1882 57.2989 40.0981 56.9688 39.918C56.6446 39.732 56.3835 39.4588 56.1854 39.0987C55.9933 38.7385 55.8973 38.2883 55.8973 37.7481C55.8973 37.2078 55.9903 36.7576 56.1764 36.3974C56.3685 36.0373 56.6266 35.7672 56.9508 35.5871C57.2809 35.407 57.6501 35.317 58.0583 35.317C58.5265 35.317 58.9407 35.419 59.3008 35.6231C59.661 35.8272 59.9461 36.1123 60.1562 36.4785C60.3663 36.8386 60.4713 37.2618 60.4713 37.7481C60.4713 38.2343 60.3663 38.6605 60.1562 39.0266C59.9461 39.3928 59.661 39.6779 59.3008 39.882C58.9407 40.0861 58.5265 40.1882 58.0583 40.1882ZM55.5281 41.8809V35.362H56.3565V36.6496L56.3025 37.7571L56.3925 38.8646V41.8809H55.5281ZM57.9862 39.4318C58.2924 39.4318 58.5655 39.3628 58.8056 39.2247C59.0517 39.0867 59.2438 38.8916 59.3819 38.6395C59.5259 38.3813 59.5979 38.0842 59.5979 37.7481C59.5979 37.4059 59.5259 37.1118 59.3819 36.8657C59.2438 36.6135 59.0517 36.4185 58.8056 36.2804C58.5655 36.1423 58.2924 36.0733 57.9862 36.0733C57.6861 36.0733 57.413 36.1423 57.1669 36.2804C56.9267 36.4185 56.7347 36.6135 56.5906 36.8657C56.4525 37.1118 56.3835 37.4059 56.3835 37.7481C56.3835 38.0842 56.4525 38.3813 56.5906 38.6395C56.7347 38.8916 56.9267 39.0867 57.1669 39.2247C57.413 39.3628 57.6861 39.4318 57.9862 39.4318Z" fill="#272D4E"/><path d="M64.6096 40.1341V39.1257L64.5645 38.9366V37.2168C64.5645 36.8507 64.4565 36.5685 64.2404 36.3704C64.0303 36.1663 63.7121 36.0643 63.286 36.0643C63.0038 36.0643 62.7277 36.1123 62.4576 36.2084C62.1875 36.2984 61.9594 36.4215 61.7733 36.5775L61.4131 35.9292C61.6592 35.7311 61.9534 35.5811 62.2955 35.479C62.6437 35.371 63.0068 35.317 63.385 35.317C64.0393 35.317 64.5435 35.476 64.8977 35.7942C65.2518 36.1123 65.4289 36.5985 65.4289 37.2528V40.1341H64.6096ZM63.0428 40.1882C62.6887 40.1882 62.3765 40.1281 62.1064 40.0081C61.8423 39.888 61.6382 39.7229 61.4941 39.5129C61.3501 39.2968 61.278 39.0536 61.278 38.7835C61.278 38.5254 61.3381 38.2913 61.4581 38.0812C61.5842 37.8711 61.7853 37.703 62.0614 37.577C62.3435 37.4509 62.7217 37.3879 63.1959 37.3879H64.7086V38.0092H63.2319C62.7997 38.0092 62.5086 38.0812 62.3585 38.2253C62.2085 38.3693 62.1334 38.5434 62.1334 38.7475C62.1334 38.9816 62.2265 39.1707 62.4126 39.3148C62.5986 39.4528 62.8568 39.5219 63.1869 39.5219C63.5111 39.5219 63.7932 39.4498 64.0333 39.3058C64.2794 39.1617 64.4565 38.9516 64.5645 38.6755L64.7356 39.2697C64.6216 39.5519 64.4205 39.777 64.1323 39.945C63.8442 40.1071 63.481 40.1882 63.0428 40.1882Z" fill="#272D4E"/><path d="M69.0654 40.1882C68.5792 40.1882 68.144 40.0831 67.7598 39.873C67.3816 39.6629 67.0845 39.3748 66.8684 39.0086C66.6523 38.6425 66.5442 38.2223 66.5442 37.7481C66.5442 37.2738 66.6523 36.8537 66.8684 36.4875C67.0845 36.1213 67.3816 35.8362 67.7598 35.6321C68.144 35.422 68.5792 35.317 69.0654 35.317C69.4976 35.317 69.8817 35.404 70.2179 35.5781C70.56 35.7462 70.8242 35.9983 71.0102 36.3344L70.353 36.7576C70.1969 36.5235 70.0048 36.3524 69.7767 36.2444C69.5546 36.1303 69.3145 36.0733 69.0564 36.0733C68.7442 36.0733 68.4651 36.1423 68.219 36.2804C67.9729 36.4185 67.7778 36.6135 67.6337 36.8657C67.4897 37.1118 67.4176 37.4059 67.4176 37.7481C67.4176 38.0902 67.4897 38.3873 67.6337 38.6395C67.7778 38.8916 67.9729 39.0867 68.219 39.2247C68.4651 39.3628 68.7442 39.4318 69.0564 39.4318C69.3145 39.4318 69.5546 39.3778 69.7767 39.2697C70.0048 39.1557 70.1969 38.9816 70.353 38.7475L71.0102 39.1617C70.8242 39.4918 70.56 39.747 70.2179 39.927C69.8817 40.1011 69.4976 40.1882 69.0654 40.1882Z" fill="#272D4E"/><path d="M74.139 40.1882C73.6527 40.1882 73.2175 40.0831 72.8334 39.873C72.4552 39.6629 72.1581 39.3748 71.942 39.0086C71.7259 38.6425 71.6178 38.2223 71.6178 37.7481C71.6178 37.2738 71.7259 36.8537 71.942 36.4875C72.1581 36.1213 72.4552 35.8362 72.8334 35.6321C73.2175 35.422 73.6527 35.317 74.139 35.317C74.5711 35.317 74.9553 35.404 75.2915 35.5781C75.6336 35.7462 75.8977 35.9983 76.0838 36.3344L75.4265 36.7576C75.2705 36.5235 75.0784 36.3524 74.8503 36.2444C74.6282 36.1303 74.3881 36.0733 74.1299 36.0733C73.8178 36.0733 73.5387 36.1423 73.2926 36.2804C73.0465 36.4185 72.8514 36.6135 72.7073 36.8657C72.5632 37.1118 72.4912 37.4059 72.4912 37.7481C72.4912 38.0902 72.5632 38.3873 72.7073 38.6395C72.8514 38.8916 73.0465 39.0867 73.2926 39.2247C73.5387 39.3628 73.8178 39.4318 74.1299 39.4318C74.3881 39.4318 74.6282 39.3778 74.8503 39.2697C75.0784 39.1557 75.2705 38.9816 75.4265 38.7475L76.0838 39.1617C75.8977 39.4918 75.6336 39.747 75.2915 39.927C74.9553 40.1011 74.5711 40.1882 74.139 40.1882Z" fill="#272D4E"/><path d="M81.9211 40.1341V35.362H82.7855V40.1341H81.9211ZM79.3549 36.9827C79.9612 36.9887 80.4204 37.1268 80.7325 37.3969C81.0507 37.667 81.2097 38.0482 81.2097 38.5404C81.2097 39.0566 81.0357 39.4558 80.6875 39.738C80.3454 40.0141 79.8531 40.1491 79.2108 40.1431L77.2029 40.1341V35.362H78.0673V36.9737L79.3549 36.9827ZM79.1478 39.4858C79.532 39.4918 79.8261 39.4138 80.0302 39.2517C80.2343 39.0897 80.3363 38.8496 80.3363 38.5314C80.3363 38.2193 80.2343 37.9912 80.0302 37.8471C79.8321 37.703 79.538 37.628 79.1478 37.622L78.0673 37.604V39.4768L79.1478 39.4858Z" fill="#272D4E"/><path d="M83.6736 40.1251L83.7276 39.3958C83.7697 39.4018 83.8087 39.4078 83.8447 39.4138C83.8807 39.4198 83.9137 39.4228 83.9437 39.4228C84.1358 39.4228 84.2859 39.3568 84.3939 39.2247C84.508 39.0927 84.592 38.9186 84.6461 38.7025C84.7001 38.4804 84.7391 38.2313 84.7631 37.9551C84.7871 37.679 84.8051 37.4029 84.8171 37.1268L84.8982 35.362H88.5628V40.1341H87.6984V35.8662L87.9055 36.1183H85.4564L85.6545 35.8572L85.5915 37.1808C85.5735 37.601 85.5405 37.9942 85.4924 38.3603C85.4444 38.7265 85.3694 39.0476 85.2673 39.3238C85.1713 39.5999 85.0362 39.816 84.8622 39.9721C84.6941 40.1281 84.475 40.2062 84.2049 40.2062C84.1268 40.2062 84.0428 40.1972 83.9527 40.1792C83.8687 40.1671 83.7757 40.1491 83.6736 40.1251Z" fill="#272D4E"/><path d="M93.6918 40.1341L91.8459 37.8111L92.5573 37.3789L94.7092 40.1341H93.6918ZM90.2342 40.1341V35.362H91.0986V40.1341H90.2342ZM90.8375 38.1172V37.3789H92.4132V38.1172H90.8375ZM92.6293 37.8471L91.8279 37.7391L93.6558 35.362H94.5832L92.6293 37.8471Z" fill="#272D4E"/><path d="M95.6155 40.1341V35.362H96.4799V38.8375L99.4063 35.362H100.19V40.1341H99.3252V36.6586L96.4079 40.1341H95.6155Z" fill="#272D4E"/><path d="M104.285 40.1341V35.362H106.5C107.059 35.362 107.497 35.47 107.815 35.6861C108.139 35.8962 108.301 36.1964 108.301 36.5865C108.301 36.9767 108.148 37.2798 107.842 37.4959C107.542 37.706 107.143 37.8111 106.645 37.8111L106.78 37.577C107.35 37.577 107.773 37.682 108.049 37.8921C108.325 38.1022 108.463 38.4114 108.463 38.8195C108.463 39.2337 108.307 39.5579 107.995 39.792C107.689 40.0201 107.218 40.1341 106.582 40.1341H104.285ZM105.132 39.4678H106.518C106.879 39.4678 107.149 39.4138 107.329 39.3058C107.509 39.1917 107.599 39.0116 107.599 38.7655C107.599 38.5134 107.515 38.3303 107.347 38.2163C107.185 38.0962 106.927 38.0362 106.573 38.0362H105.132V39.4678ZM105.132 37.4149H106.428C106.759 37.4149 107.008 37.3549 107.176 37.2348C107.35 37.1088 107.437 36.9347 107.437 36.7126C107.437 36.4845 107.35 36.3134 107.176 36.1994C107.008 36.0853 106.759 36.0283 106.428 36.0283H105.132V37.4149Z" fill="#272D4E"/><path d="M113.18 40.1341V35.8932L113.396 36.1183H111.433V35.362H115.791V36.1183H113.837L114.044 35.8932V40.1341H113.18Z" fill="#272D4E"/><path d="M118.589 40.1882C118.079 40.1882 117.628 40.0831 117.238 39.873C116.854 39.6629 116.554 39.3748 116.338 39.0086C116.128 38.6425 116.023 38.2223 116.023 37.7481C116.023 37.2738 116.125 36.8537 116.329 36.4875C116.539 36.1213 116.824 35.8362 117.184 35.6321C117.55 35.422 117.962 35.317 118.418 35.317C118.88 35.317 119.288 35.419 119.642 35.6231C119.996 35.8272 120.273 36.1153 120.471 36.4875C120.675 36.8537 120.777 37.2828 120.777 37.7751C120.777 37.8111 120.774 37.8531 120.768 37.9011C120.768 37.9491 120.765 37.9942 120.759 38.0362H116.698V37.4149H120.309L119.957 37.631C119.963 37.3249 119.9 37.0517 119.768 36.8116C119.636 36.5715 119.453 36.3854 119.219 36.2534C118.991 36.1153 118.724 36.0463 118.418 36.0463C118.118 36.0463 117.85 36.1153 117.616 36.2534C117.382 36.3854 117.199 36.5745 117.067 36.8206C116.935 37.0607 116.869 37.3369 116.869 37.649V37.7931C116.869 38.1112 116.941 38.3963 117.085 38.6485C117.235 38.8946 117.442 39.0867 117.706 39.2247C117.971 39.3628 118.274 39.4318 118.616 39.4318C118.898 39.4318 119.153 39.3838 119.381 39.2878C119.615 39.1917 119.819 39.0476 119.993 38.8556L120.471 39.4138C120.255 39.6659 119.984 39.858 119.66 39.9901C119.342 40.1221 118.985 40.1882 118.589 40.1882Z" fill="#272D4E"/><path d="M121.246 40.1251L121.3 39.3958C121.342 39.4018 121.381 39.4078 121.417 39.4138C121.453 39.4198 121.486 39.4228 121.516 39.4228C121.708 39.4228 121.859 39.3568 121.967 39.2247C122.081 39.0927 122.165 38.9186 122.219 38.7025C122.273 38.4804 122.312 38.2313 122.336 37.9551C122.36 37.679 122.378 37.4029 122.39 37.1268L122.471 35.362H126.135V40.1341H125.271V35.8662L125.478 36.1183H123.029L123.227 35.8572L123.164 37.1808C123.146 37.601 123.113 37.9942 123.065 38.3603C123.017 38.7265 122.942 39.0476 122.84 39.3238C122.744 39.5999 122.609 39.816 122.435 39.9721C122.267 40.1281 122.048 40.2062 121.777 40.2062C121.699 40.2062 121.615 40.1972 121.525 40.1792C121.441 40.1671 121.348 40.1491 121.246 40.1251Z" fill="#272D4E"/><path d="M129.932 40.1882C129.422 40.1882 128.971 40.0831 128.581 39.873C128.197 39.6629 127.897 39.3748 127.681 39.0086C127.471 38.6425 127.366 38.2223 127.366 37.7481C127.366 37.2738 127.468 36.8537 127.672 36.4875C127.882 36.1213 128.167 35.8362 128.527 35.6321C128.893 35.422 129.305 35.317 129.761 35.317C130.223 35.317 130.631 35.419 130.985 35.6231C131.339 35.8272 131.616 36.1153 131.814 36.4875C132.018 36.8537 132.12 37.2828 132.12 37.7751C132.12 37.8111 132.117 37.8531 132.111 37.9011C132.111 37.9491 132.108 37.9942 132.102 38.0362H128.041V37.4149H131.652L131.3 37.631C131.306 37.3249 131.243 37.0517 131.111 36.8116C130.979 36.5715 130.796 36.3854 130.562 36.2534C130.334 36.1153 130.067 36.0463 129.761 36.0463C129.461 36.0463 129.193 36.1153 128.959 36.2534C128.725 36.3854 128.542 36.5745 128.41 36.8206C128.278 37.0607 128.212 37.3369 128.212 37.649V37.7931C128.212 38.1112 128.284 38.3963 128.428 38.6485C128.578 38.8946 128.785 39.0867 129.049 39.2247C129.314 39.3628 129.617 39.4318 129.959 39.4318C130.241 39.4318 130.496 39.3838 130.724 39.2878C130.958 39.1917 131.162 39.0476 131.336 38.8556L131.814 39.4138C131.598 39.6659 131.327 39.858 131.003 39.9901C130.685 40.1221 130.328 40.1882 129.932 40.1882Z" fill="#272D4E"/><path d="M133.461 40.1341V35.362H136.972V36.1183H134.118L134.325 35.9202V40.1341H133.461Z" fill="#272D4E"/><path d="M140.387 40.1882C139.991 40.1882 139.628 40.0981 139.298 39.918C138.974 39.732 138.713 39.4588 138.515 39.0987C138.322 38.7385 138.226 38.2883 138.226 37.7481C138.226 37.2078 138.319 36.7576 138.506 36.3974C138.698 36.0373 138.956 35.7672 139.28 35.5871C139.61 35.407 139.979 35.317 140.387 35.317C140.856 35.317 141.27 35.419 141.63 35.6231C141.99 35.8272 142.275 36.1123 142.485 36.4785C142.695 36.8386 142.8 37.2618 142.8 37.7481C142.8 38.2343 142.695 38.6605 142.485 39.0266C142.275 39.3928 141.99 39.6779 141.63 39.882C141.27 40.0861 140.856 40.1882 140.387 40.1882ZM137.857 41.8809V35.362H138.686V36.6496L138.632 37.7571L138.722 38.8646V41.8809H137.857ZM140.315 39.4318C140.622 39.4318 140.895 39.3628 141.135 39.2247C141.381 39.0867 141.573 38.8916 141.711 38.6395C141.855 38.3813 141.927 38.0842 141.927 37.7481C141.927 37.4059 141.855 37.1118 141.711 36.8657C141.573 36.6135 141.381 36.4185 141.135 36.2804C140.895 36.1423 140.622 36.0733 140.315 36.0733C140.015 36.0733 139.742 36.1423 139.496 36.2804C139.256 36.4185 139.064 36.6135 138.92 36.8657C138.782 37.1118 138.713 37.4059 138.713 37.7481C138.713 38.0842 138.782 38.3813 138.92 38.6395C139.064 38.8916 139.256 39.0867 139.496 39.2247C139.742 39.3628 140.015 39.4318 140.315 39.4318Z" fill="#272D4E"/><path d="M146.939 40.1341V39.1257L146.894 38.9366V37.2168C146.894 36.8507 146.786 36.5685 146.57 36.3704C146.359 36.1663 146.041 36.0643 145.615 36.0643C145.333 36.0643 145.057 36.1123 144.787 36.2084C144.517 36.2984 144.289 36.4215 144.102 36.5775L143.742 35.9292C143.988 35.7311 144.283 35.5811 144.625 35.479C144.973 35.371 145.336 35.317 145.714 35.317C146.368 35.317 146.873 35.476 147.227 35.7942C147.581 36.1123 147.758 36.5985 147.758 37.2528V40.1341H146.939ZM145.372 40.1882C145.018 40.1882 144.706 40.1281 144.436 40.0081C144.171 39.888 143.967 39.7229 143.823 39.5129C143.679 39.2968 143.607 39.0536 143.607 38.7835C143.607 38.5254 143.667 38.2913 143.787 38.0812C143.913 37.8711 144.114 37.703 144.391 37.577C144.673 37.4509 145.051 37.3879 145.525 37.3879H147.038V38.0092H145.561C145.129 38.0092 144.838 38.0812 144.688 38.2253C144.538 38.3693 144.463 38.5434 144.463 38.7475C144.463 38.9816 144.556 39.1707 144.742 39.3148C144.928 39.4528 145.186 39.5219 145.516 39.5219C145.84 39.5219 146.122 39.4498 146.362 39.3058C146.609 39.1617 146.786 38.9516 146.894 38.6755L147.065 39.2697C146.951 39.5519 146.75 39.777 146.462 39.945C146.173 40.1071 145.81 40.1882 145.372 40.1882Z" fill="#272D4E"/><path d="M149.315 40.1341V35.362H150.206L152.259 38.8916H151.899L154.006 35.362H154.816V40.1341H154.033V36.3344L154.177 36.4155L152.25 39.5939H151.872L149.936 36.3524L150.107 36.3164V40.1341H149.315Z" fill="#272D4E"/><path d="M156.499 40.1341V35.362H157.39L159.443 38.8916H159.083L161.19 35.362H162V40.1341H161.217V36.3344L161.361 36.4155L159.434 39.5939H159.056L157.12 36.3524L157.291 36.3164V40.1341H156.499Z" fill="#272D4E"/></svg>