<svg width="140" height="31" viewBox="0 0 140 31" fill="none" xmlns="http://www.w3.org/2000/svg"><path d="M118.485 6.64502V29.7375H115.74V12.7725C115.74 12.5475 115.74 12.3075 115.74 12.0225C115.74 11.7375 115.74 11.505 115.793 11.2725L107.895 25.695C107.803 25.9192 107.646 26.1106 107.444 26.2444C107.242 26.3781 107.005 26.448 106.763 26.445H106.313C106.072 26.4465 105.836 26.3759 105.635 26.2422C105.435 26.1086 105.279 25.918 105.188 25.695L97.0951 11.19C97.1587 11.7151 97.1912 12.2436 97.1926 12.7725V29.7375H94.4551V6.64502H96.7576C96.9756 6.63786 97.1934 6.66571 97.4026 6.72752C97.5952 6.82276 97.7489 6.98177 97.8376 7.17752L105.818 21.4275C105.945 21.69 106.073 21.96 106.193 22.2375C106.313 22.515 106.433 22.8 106.538 23.0925C106.65 22.8 106.763 22.515 106.883 22.23C106.993 21.95 107.121 21.677 107.265 21.4125L115.095 7.17752C115.177 6.97967 115.329 6.81927 115.523 6.72752C115.734 6.66628 115.955 6.63845 116.175 6.64502H118.485Z" fill="#222"/><path d="M127.507 27.2174V19.1699H136.267L136.364 18.3524V16.7549H127.507V9.10489H138.779V6.69739H124.289V29.6324H133.807L134.407 27.2174H127.507Z" fill="#222"/><path d="M138.607 29.7451V29.6476L138.539 29.7451H138.607Z" fill="#222"/><path d="M86.8509 9.69756C85.8294 8.65408 84.6005 7.83647 83.2434 7.29756C81.8767 6.74616 80.4194 6.45369 78.9459 6.43506L76.7559 9.30756C77.3639 9.19125 77.9818 9.13349 78.6009 9.13506C79.759 9.11879 80.9088 9.33294 81.9834 9.76506C82.9634 10.1679 83.8439 10.7797 84.5634 11.5576C85.2999 12.391 85.8588 13.3659 86.2059 14.4226C86.606 15.6549 86.8011 16.9445 86.7834 18.2401C86.8013 19.5331 86.6062 20.8204 86.2059 22.0501C85.8561 23.1033 85.2975 24.0752 84.5634 24.9076C83.8455 25.6855 82.9645 26.2951 81.9834 26.6926C79.8096 27.5207 77.4072 27.5207 75.2334 26.6926C74.2523 26.2951 73.3712 25.6855 72.6534 24.9076C71.9119 24.0675 71.3549 23.0813 71.0184 22.0126C70.6181 20.7829 70.423 19.4956 70.4409 18.2026C70.4409 17.9851 70.4409 17.7826 70.4409 17.5726L67.5684 21.3226C67.6787 21.8801 67.8291 22.4291 68.0184 22.9651C68.5269 24.3601 69.3156 25.6362 70.3359 26.7151C71.3525 27.7681 72.579 28.596 73.9359 29.1451C76.924 30.2954 80.2327 30.2954 83.2209 29.1451C84.581 28.5979 85.8102 27.7699 86.8284 26.7151C87.8486 25.6362 88.6373 24.3601 89.1459 22.9651C89.7085 21.441 89.9881 19.827 89.9709 18.2026C89.9881 16.5781 89.7085 14.9641 89.1459 13.4401C88.6339 12.0467 87.8456 10.7712 86.8284 9.69006" fill="#222"/><path d="M63.6456 26.1525C63.2377 26.4203 62.7997 26.6393 62.3406 26.805C61.8549 26.9832 61.3523 27.1113 60.8406 27.1875C60.2244 27.273 59.6027 27.3131 58.9806 27.3075C57.8999 27.3176 56.8283 27.1083 55.8306 26.6925C54.8668 26.2947 54.0035 25.6875 53.3031 24.915C52.5542 24.0844 51.978 23.113 51.6081 22.0575C51.1766 20.8189 50.9659 19.5141 50.9856 18.2025C50.9674 16.9052 51.1703 15.6142 51.5856 14.385C51.9421 13.3254 52.5084 12.3485 53.2506 11.5125C53.9606 10.7338 54.8339 10.1217 55.8081 9.72002C56.8259 9.30043 57.9173 9.08878 59.0181 9.09752C59.8617 9.07817 60.7034 9.18433 61.5156 9.41252C62.1029 9.58673 62.6709 9.82045 63.2106 10.11C63.5877 10.3257 63.9532 10.561 64.3057 10.815C64.5019 10.9912 64.7485 11.1014 65.0106 11.13C65.1554 11.1356 65.2987 11.0991 65.4232 11.025C65.5267 10.9569 65.6117 10.8641 65.6707 10.755L66.7057 9.32252C65.7368 8.41272 64.6111 7.68598 63.3831 7.17752C61.9995 6.62991 60.521 6.36224 59.0331 6.39002C57.461 6.36898 55.9004 6.66222 54.4431 7.25252C53.0958 7.79948 51.8792 8.62502 50.8731 9.67502C49.8527 10.7537 49.064 12.0299 48.5556 13.425C48.0059 14.9567 47.7391 16.5755 47.7681 18.2025C47.7372 19.8291 47.991 21.4485 48.5181 22.9875C49.0084 24.3761 49.7736 25.6515 50.7681 26.7375C51.7361 27.7822 52.918 28.6059 54.2331 29.1525C55.659 29.7426 57.1901 30.0361 58.7332 30.015C59.443 30.0152 60.1521 29.9676 60.8556 29.8725L63.7357 26.1225L63.6231 26.1975" fill="#222"/><path opacity=".99" d="M33.6599 5.175C30.4382 2.78836 26.7942 1.03251 22.9199 0L16.7324 26.1975L16.8449 26.25L33.6599 5.175Z" fill="#3976F4"/><path d="M43.8663 13.4774C43.3544 12.1134 42.5623 10.8717 41.5413 9.83242C40.5223 8.80059 39.295 7.99777 37.9413 7.47742C36.9783 7.09778 35.9697 6.84564 34.9413 6.72742L32.9988 9.15742H33.3138C34.4723 9.14149 35.623 9.34771 36.7038 9.76492C37.6832 10.1581 38.5622 10.7654 39.2763 11.5424C40.0164 12.3619 40.5759 13.3278 40.9188 14.3774C41.3259 15.6031 41.5236 16.8886 41.5038 18.1799C41.5236 19.4713 41.3259 20.7567 40.9188 21.9824C40.5777 23.0306 40.0178 23.9943 39.2763 24.8099C38.5635 25.5848 37.6838 26.1875 36.7038 26.5724C35.6246 26.9958 34.4731 27.2047 33.3138 27.1874H27.8013V15.6749L24.6738 19.5899V29.7374H33.2913C34.8793 29.7563 36.4568 29.4765 37.9413 28.9124C39.2991 28.3917 40.53 27.5871 41.5518 26.5523C42.5736 25.5176 43.3627 24.2766 43.8663 22.9124C44.4298 21.4044 44.707 19.8046 44.6838 18.1949C44.7053 16.5854 44.4281 14.9859 43.8663 13.4774Z" fill="#222"/><path d="M16.755 17.5501L12.39 6.64514H9.2325L0 29.7376H2.415C2.66188 29.7452 2.90355 29.6656 3.0975 29.5126C3.26368 29.3788 3.39065 29.2026 3.465 29.0026L5.625 23.4226H15.375L16.755 17.5501ZM10.1175 11.7976C10.3983 11.089 10.6314 10.3624 10.815 9.62264C10.92 10.0426 11.0325 10.4326 11.1525 10.8076C11.2725 11.1826 11.385 11.4976 11.49 11.7826L15.12 21.1726H6.5175L10.1175 11.7976Z" fill="#222"/><path d="M17.8262 28.1701L18.1487 29.0026C18.2265 29.2089 18.3587 29.3903 18.5312 29.5276C18.7239 29.6758 18.9633 29.7503 19.2062 29.7376H21.6287L19.9412 25.5226L17.8262 28.1701Z" fill="#222"/></svg>