<svg width="162" height="42" viewBox="0 0 162 42" fill="none" xmlns="http://www.w3.org/2000/svg"><rect y="2.117" width="39.018" height="39.018" rx="6" fill="#4ECAED" fill-opacity=".26"/><path d="M7.43938 28.2143V32.4553C7.43938 32.7133 7.67557 32.9283 7.97232 32.9283H11.6666C11.9573 32.9283 12.1996 32.7186 12.1996 32.4553V24.9946L9.51666 27.3758C8.94738 27.8757 8.22063 28.1659 7.43938 28.2143Z" fill="#4ECAED"/><path d="M13.7863 24.9946V32.4585C13.7863 32.7147 13.9831 32.9283 14.2304 32.9283H17.309C17.5512 32.9283 17.7531 32.7201 17.7531 32.4585V28.0645C17.0516 28.0485 16.3955 27.7549 15.9009 27.2316L13.7863 24.9946Z" fill="#4ECAED"/><path d="M19.3399 27.551V32.454C19.3399 32.7126 19.5761 32.9281 19.8728 32.9281H23.5671C23.8578 32.9281 24.1 32.718 24.1 32.454V23.4077L19.8668 27.1738C19.7032 27.3193 19.5276 27.4432 19.3399 27.551Z" fill="#4ECAED"/><path d="M29.3558 17.0605L25.6868 21.1818V32.429C25.6868 32.7011 25.8836 32.9278 26.1309 32.9278H29.2095C29.4517 32.9278 29.6536 32.7068 29.6536 32.429V17.3723C29.5527 17.276 29.477 17.1909 29.4215 17.1342L29.3558 17.0605Z" fill="#4ECAED"/><path d="M32.5975 10.1843C32.4368 10.0103 32.1929 9.92041 31.8826 9.92041C31.8549 9.92041 31.8216 9.92041 31.7939 9.92041C30.22 9.99341 28.6517 10.072 27.0778 10.145C26.8672 10.1563 26.579 10.1675 26.3518 10.3977C26.2798 10.4707 26.2244 10.5549 26.18 10.656C25.9473 11.167 26.2742 11.4983 26.4294 11.6555L26.8229 12.0598C27.0944 12.3406 27.3715 12.6214 27.6486 12.8965L18.1388 22.538L13.8661 18.2086C13.6112 17.9503 13.2676 17.8043 12.9018 17.8043C12.536 17.8043 12.198 17.9503 11.9431 18.2086L6.25161 23.9699C5.7196 24.509 5.7196 25.3794 6.25161 25.9185L6.50654 26.1768C6.76146 26.4351 7.10505 26.5811 7.47081 26.5811C7.83657 26.5811 8.17463 26.4351 8.42955 26.1768L12.9018 21.6452L17.1746 25.9746C17.4295 26.2329 17.7731 26.3789 18.1388 26.3789C18.5046 26.3789 18.8426 26.2329 19.1031 25.9746L29.8321 15.1034L31.0458 16.3275C31.1898 16.4735 31.3893 16.6756 31.6941 16.6756C31.8216 16.6756 31.9491 16.6419 32.0821 16.5689C32.1707 16.5184 32.2483 16.4623 32.3148 16.3949C32.5531 16.1534 32.5975 15.8446 32.6085 15.6031C32.6529 14.5699 32.7028 13.5367 32.7526 12.4978L32.8247 10.9424C32.8413 10.6167 32.7693 10.364 32.5975 10.1843Z" fill="#4ECAED"/><path d="M50.6219 19.0086V7.60044H46.1048V4.30195H59.2778V7.60044H54.7817V19.0086H50.6219Z" fill="#4ECAED"/><path d="M108.475 19.1977C107.228 19.1977 106.122 18.9456 105.155 18.4413C104.189 17.9371 103.425 17.2438 102.865 16.3614C102.319 15.465 102.046 14.4425 102.046 13.294C102.046 12.1455 102.319 11.13 102.865 10.2476C103.425 9.36523 104.189 8.67892 105.155 8.1887C106.122 7.68447 107.228 7.43236 108.475 7.43236C109.721 7.43236 110.828 7.68447 111.794 8.1887C112.775 8.67892 113.538 9.36523 114.084 10.2476C114.63 11.13 114.903 12.1455 114.903 13.294C114.903 14.4425 114.63 15.465 114.084 16.3614C113.538 17.2438 112.775 17.9371 111.794 18.4413C110.828 18.9456 109.721 19.1977 108.475 19.1977ZM108.475 16.0252C108.937 16.0252 109.343 15.9202 109.693 15.7101C110.057 15.5 110.344 15.1919 110.555 14.7857C110.765 14.3655 110.87 13.8683 110.87 13.294C110.87 12.7197 110.765 12.2365 110.555 11.8444C110.344 11.4382 110.057 11.13 109.693 10.9199C109.343 10.7098 108.937 10.6048 108.475 10.6048C108.026 10.6048 107.62 10.7098 107.256 10.9199C106.906 11.13 106.619 11.4382 106.395 11.8444C106.185 12.2365 106.08 12.7197 106.08 13.294C106.08 13.8683 106.185 14.3655 106.395 14.7857C106.619 15.1919 106.906 15.5 107.256 15.7101C107.62 15.9202 108.026 16.0252 108.475 16.0252Z" fill="#fff"/><path d="M126.149 19.0086V7.62144H130.141V19.0086H126.149ZM128.145 6.36088C127.417 6.36088 126.829 6.15778 126.381 5.7516C125.932 5.34542 125.708 4.84119 125.708 4.23892C125.708 3.63665 125.932 3.13242 126.381 2.72623C126.829 2.32005 127.417 2.11696 128.145 2.11696C128.874 2.11696 129.462 2.31305 129.91 2.70523C130.358 3.0834 130.582 3.57362 130.582 4.17589C130.582 4.80617 130.358 5.33141 129.91 5.7516C129.476 6.15778 128.888 6.36088 128.145 6.36088Z" fill="#fff"/><path d="M138.45 19.1977C137.203 19.1977 136.097 18.9456 135.131 18.4413C134.164 17.9371 133.401 17.2438 132.841 16.3614C132.294 15.465 132.021 14.4425 132.021 13.294C132.021 12.1455 132.294 11.13 132.841 10.2476C133.401 9.36523 134.164 8.67892 135.131 8.1887C136.097 7.68447 137.203 7.43236 138.45 7.43236C139.697 7.43236 140.803 7.68447 141.77 8.1887C142.75 8.67892 143.513 9.36523 144.06 10.2476C144.606 11.13 144.879 12.1455 144.879 13.294C144.879 14.4425 144.606 15.465 144.06 16.3614C143.513 17.2438 142.75 17.9371 141.77 18.4413C140.803 18.9456 139.697 19.1977 138.45 19.1977ZM138.45 16.0252C138.912 16.0252 139.318 15.9202 139.669 15.7101C140.033 15.5 140.32 15.1919 140.53 14.7857C140.74 14.3655 140.845 13.8683 140.845 13.294C140.845 12.7197 140.74 12.2365 140.53 11.8444C140.32 11.4382 140.033 11.13 139.669 10.9199C139.318 10.7098 138.912 10.6048 138.45 10.6048C138.002 10.6048 137.596 10.7098 137.231 10.9199C136.881 11.13 136.594 11.4382 136.37 11.8444C136.16 12.2365 136.055 12.7197 136.055 13.294C136.055 13.8683 136.16 14.3655 136.37 14.7857C136.594 15.1919 136.881 15.5 137.231 15.7101C137.596 15.9202 138.002 16.0252 138.45 16.0252Z" fill="#fff"/><path fill-rule="evenodd" clip-rule="evenodd" d="M86.7486 19.0086H86.0328V17.9456C86.0328 17.7994 85.9498 17.6628 85.8097 17.5814L83.6129 16.2998L86.7486 15.2446V19.0086ZM82.9039 15.6009L86.7486 14.307V11.424L88.2137 13.814L91.4584 12.7221L90.4624 11.0873L86.7486 10.2205L86.3248 10.1216L82.9039 9.32316V15.6009ZM87.431 6.11167L89.8187 10.0307L82.9039 8.41726V7.87236L87.431 6.11167ZM91.5737 12.6833L93.9189 11.894L92.2693 11.509L91.5737 12.6833ZM88.6901 14.5912L90.8799 13.8543L91.9324 13.5001L95.4912 12.3025L92.3582 17.5589H90.5093L88.6901 14.5912ZM82.9039 19.0086V16.9388L85.0324 18.1802V19.0086H82.9039ZM96.145 11.2057L95.9369 11.5548C95.8712 11.4784 95.777 11.421 95.6657 11.395L92.7412 10.7126L96.5391 4.30195H99.9636L100.006 19.0086H96.1819L96.145 11.2057ZM86.9588 5.33656L82.9039 6.9132V4.30195H86.3285L86.9588 5.33656Z" fill="#fff"/><path fill-rule="evenodd" clip-rule="evenodd" d="M64.7402 18.7565C65.7347 19.1206 66.8132 19.3027 67.9757 19.3027C69.0402 19.3027 70.1257 19.1416 71.2322 18.8195C72.3387 18.4974 73.3121 18.0351 74.1525 17.4329V11.3401H70.4758V15.3798C70.3283 15.4496 70.1812 15.5107 70.0346 15.563C69.4463 15.7591 68.8441 15.8572 68.2278 15.8572C67.6115 15.8572 67.0443 15.7591 66.526 15.563C66.0218 15.3529 65.5876 15.0658 65.2234 14.7016C64.8593 14.3235 64.5722 13.8753 64.3621 13.357C64.166 12.8388 64.0679 12.2715 64.0679 11.6553C64.0679 11.011 64.166 10.4367 64.3621 9.93249C64.5722 9.41426 64.8593 8.97306 65.2234 8.60889C65.5876 8.23072 66.0288 7.94359 66.547 7.7475C67.0653 7.55141 67.6395 7.45337 68.2698 7.45337C68.9841 7.45337 69.6284 7.59343 70.2027 7.87356C70.791 8.13968 71.3372 8.54586 71.8414 9.09211L74.4886 6.69703C73.7743 5.82864 72.8709 5.16334 71.7784 4.70113C70.6859 4.23892 69.4463 4.00781 68.0597 4.00781C66.8692 4.00781 65.7697 4.1969 64.7612 4.57507C63.7668 4.93923 62.9054 5.46447 62.1771 6.15078C61.4487 6.83709 60.8815 7.64946 60.4753 8.58788C60.0691 9.5123 59.866 10.5348 59.866 11.6553C59.866 12.7758 60.0691 13.8052 60.4753 14.7437C60.8815 15.6681 61.4417 16.4734 62.1561 17.1598C62.8844 17.8461 63.7458 18.3783 64.7402 18.7565ZM70.4758 16.8866V15.3798C70.9201 15.1697 71.3683 14.8806 71.8204 14.5126L74.1525 17.4329L70.4758 16.8866Z" fill="#4ECAED"/><path d="M74.1525 17.4329L71.8204 14.5126C71.3683 14.8806 70.9201 15.1697 70.4758 15.3798V16.8866L74.1525 17.4329Z" fill="#4ECAED"/><path fill-rule="evenodd" clip-rule="evenodd" d="M118.433 18.1262C119.246 18.8405 120.38 19.1977 121.837 19.1977C122.369 19.1977 122.88 19.1417 123.371 19.0296C123.861 18.9316 124.274 18.7705 124.61 18.5464L123.623 15.7521C123.287 15.9902 122.88 16.1093 122.404 16.1093C122.054 16.1093 121.767 15.9972 121.543 15.7731C121.319 15.535 121.207 15.2129 121.207 14.8067V11.025H123.812V8.04164H121.207V5.0793H117.215V8.04164H115.555V11.025H117.215V14.8487C117.215 16.3054 117.621 17.3979 118.433 18.1262ZM117.215 11.025H121.207V8.04164H117.215V11.025Z" fill="#fff"/><path d="M117.215 11.025H121.207V8.04164H117.215V11.025Z" fill="#fff"/><path fill-rule="evenodd" clip-rule="evenodd" d="M156.54 7.97861C155.825 7.61444 155.027 7.43236 154.144 7.43236C153.192 7.43236 152.338 7.64246 151.581 8.06264C151.187 8.27415 150.837 8.54261 150.531 8.86804V7.62144H146.728V19.0086H150.72V13.5041C150.72 12.8738 150.818 12.3626 151.014 11.9704C151.21 11.5782 151.483 11.2911 151.833 11.109C152.184 10.9129 152.569 10.8149 152.989 10.8149C153.577 10.8149 154.032 11.004 154.355 11.3821C154.691 11.7463 154.859 12.3346 154.859 13.1469V19.0086H158.851V12.4956C158.851 11.3191 158.64 10.3597 158.22 9.61735C157.814 8.87501 157.254 8.32877 156.54 7.97861ZM150.531 10.8569V8.86804C150.506 8.89416 150.482 8.92065 150.458 8.94751C150.206 9.22862 149.985 9.54994 149.795 9.91148L150.531 10.8569Z" fill="#fff"/><path d="M149.795 9.91148L150.531 10.8569V8.86804C150.506 8.89416 150.482 8.92065 150.458 8.94751C150.206 9.22862 149.985 9.54994 149.795 9.91148Z" fill="#fff"/><path d="M49.8205 31.2023C49.3403 31.2023 48.8961 31.1242 48.4879 30.9682C48.0857 30.8061 47.7346 30.581 47.4344 30.2929C47.1403 29.9987 46.9092 29.6566 46.7411 29.2664C46.5731 28.8762 46.489 28.447 46.489 27.9788C46.489 27.5106 46.5731 27.0814 46.7411 26.6912C46.9092 26.3011 47.1433 25.9619 47.4434 25.6738C47.7436 25.3797 48.0947 25.1546 48.4969 24.9985C48.9051 24.8364 49.3493 24.7554 49.8295 24.7554C50.3157 24.7554 50.7629 24.8394 51.1711 25.0075C51.5853 25.1696 51.9365 25.4127 52.2246 25.7368L51.6393 26.3041C51.3992 26.052 51.1291 25.8659 50.829 25.7458C50.5288 25.6198 50.2077 25.5567 49.8655 25.5567C49.5114 25.5567 49.1812 25.6168 48.8751 25.7368C48.575 25.8569 48.3138 26.0249 48.0917 26.241C47.8696 26.4571 47.6956 26.7153 47.5695 27.0154C47.4494 27.3095 47.3894 27.6307 47.3894 27.9788C47.3894 28.327 47.4494 28.6511 47.5695 28.9513C47.6956 29.2454 47.8696 29.5005 48.0917 29.7166C48.3138 29.9327 48.575 30.1008 48.8751 30.2208C49.1812 30.3409 49.5114 30.4009 49.8655 30.4009C50.2077 30.4009 50.5288 30.3409 50.829 30.2208C51.1291 30.0948 51.3992 29.9027 51.6393 29.6446L52.2246 30.2118C51.9365 30.536 51.5853 30.7821 51.1711 30.9502C50.7629 31.1182 50.3127 31.2023 49.8205 31.2023Z" fill="#fff"/><path d="M55.2438 31.1843C54.7335 31.1843 54.2833 31.0792 53.8932 30.8691C53.509 30.659 53.2089 30.3709 52.9928 30.0047C52.7827 29.6386 52.6776 29.2184 52.6776 28.7442C52.6776 28.27 52.7797 27.8498 52.9838 27.4836C53.1939 27.1174 53.479 26.8323 53.8391 26.6282C54.2053 26.4181 54.6165 26.3131 55.0727 26.3131C55.5349 26.3131 55.9431 26.4151 56.2973 26.6192C56.6514 26.8233 56.9275 27.1114 57.1256 27.4836C57.3297 27.8498 57.4318 28.279 57.4318 28.7712C57.4318 28.8072 57.4288 28.8492 57.4228 28.8972C57.4228 28.9453 57.4198 28.9903 57.4138 29.0323H53.3529V28.411H56.9636L56.6124 28.6271C56.6184 28.321 56.5554 28.0479 56.4233 27.8077C56.2913 27.5676 56.1082 27.3816 55.8741 27.2495C55.646 27.1114 55.3788 27.0424 55.0727 27.0424C54.7726 27.0424 54.5054 27.1114 54.2713 27.2495C54.0372 27.3816 53.8542 27.5706 53.7221 27.8168C53.59 28.0569 53.524 28.333 53.524 28.6451V28.7892C53.524 29.1073 53.596 29.3925 53.7401 29.6446C53.8902 29.8907 54.0973 30.0828 54.3614 30.2208C54.6255 30.3589 54.9286 30.4279 55.2708 30.4279C55.5529 30.4279 55.808 30.3799 56.0361 30.2839C56.2702 30.1878 56.4743 30.0438 56.6484 29.8517L57.1256 30.4099C56.9095 30.662 56.6394 30.8541 56.3153 30.9862C55.9971 31.1182 55.64 31.1843 55.2438 31.1843Z" fill="#fff"/><path d="M61.3029 31.1843C60.9067 31.1843 60.5435 31.0942 60.2134 30.9142C59.8892 30.7281 59.6281 30.4549 59.43 30.0948C59.238 29.7346 59.1419 29.2844 59.1419 28.7442C59.1419 28.2039 59.235 27.7537 59.421 27.3936C59.6131 27.0334 59.8712 26.7633 60.1954 26.5832C60.5255 26.4031 60.8947 26.3131 61.3029 26.3131C61.7711 26.3131 62.1853 26.4151 62.5454 26.6192C62.9056 26.8233 63.1907 27.1084 63.4008 27.4746C63.6109 27.8348 63.716 28.258 63.716 28.7442C63.716 29.2304 63.6109 29.6566 63.4008 30.0228C63.1907 30.3889 62.9056 30.674 62.5454 30.8781C62.1853 31.0822 61.7711 31.1843 61.3029 31.1843ZM58.7727 32.877V26.3581H59.6011V27.6457L59.5471 28.7532L59.6371 29.8607V32.877H58.7727ZM61.2309 30.4279C61.537 30.4279 61.8101 30.3589 62.0502 30.2208C62.2963 30.0828 62.4884 29.8877 62.6265 29.6356C62.7705 29.3775 62.8426 29.0803 62.8426 28.7442C62.8426 28.402 62.7705 28.1079 62.6265 27.8618C62.4884 27.6097 62.2963 27.4146 62.0502 27.2765C61.8101 27.1384 61.537 27.0694 61.2309 27.0694C60.9307 27.0694 60.6576 27.1384 60.4115 27.2765C60.1714 27.4146 59.9793 27.6097 59.8352 27.8618C59.6972 28.1079 59.6281 28.402 59.6281 28.7442C59.6281 29.0803 59.6972 29.3775 59.8352 29.6356C59.9793 29.8877 60.1714 30.0828 60.4115 30.2208C60.6576 30.3589 60.9307 30.4279 61.2309 30.4279Z" fill="#fff"/><path d="M64.9718 31.1303V26.3581H67.1868C67.7451 26.3581 68.1833 26.4661 68.5014 26.6822C68.8256 26.8923 68.9876 27.1925 68.9876 27.5826C68.9876 27.9728 68.8346 28.276 68.5284 28.4921C68.2283 28.7022 67.8291 28.8072 67.3309 28.8072L67.466 28.5731C68.0362 28.5731 68.4594 28.6781 68.7355 28.8882C69.0117 29.0983 69.1497 29.4075 69.1497 29.8157C69.1497 30.2298 68.9936 30.554 68.6815 30.7881C68.3754 31.0162 67.9042 31.1303 67.2679 31.1303H64.9718ZM65.8182 30.4639H67.2048C67.565 30.4639 67.8351 30.4099 68.0152 30.3019C68.1953 30.1878 68.2853 30.0077 68.2853 29.7616C68.2853 29.5095 68.2013 29.3264 68.0332 29.2124C67.8711 29.0923 67.613 29.0323 67.2589 29.0323H65.8182V30.4639ZM65.8182 28.411H67.1148C67.4449 28.411 67.6941 28.351 67.8621 28.2309C68.0362 28.1049 68.1233 27.9308 68.1233 27.7087C68.1233 27.4806 68.0362 27.3095 67.8621 27.1955C67.6941 27.0814 67.4449 27.0244 67.1148 27.0244H65.8182V28.411Z" fill="#fff"/><path d="M70.5026 31.1303V26.3581H71.367V29.8337L74.2934 26.3581H75.0767V31.1303H74.2123V27.6547L71.295 31.1303H70.5026Z" fill="#fff"/><path d="M78.8344 31.1843C78.3482 31.1843 77.913 31.0792 77.5288 30.8691C77.1507 30.659 76.8535 30.3709 76.6374 30.0047C76.4213 29.6386 76.3133 29.2184 76.3133 28.7442C76.3133 28.27 76.4213 27.8498 76.6374 27.4836C76.8535 27.1174 77.1507 26.8323 77.5288 26.6282C77.913 26.4181 78.3482 26.3131 78.8344 26.3131C79.2666 26.3131 79.6508 26.4001 79.987 26.5742C80.3291 26.7423 80.5932 26.9944 80.7793 27.3305L80.122 27.7537C79.9659 27.5196 79.7739 27.3485 79.5458 27.2405C79.3237 27.1264 79.0835 27.0694 78.8254 27.0694C78.5133 27.0694 78.2342 27.1384 77.9881 27.2765C77.7419 27.4146 77.5469 27.6097 77.4028 27.8618C77.2587 28.1079 77.1867 28.402 77.1867 28.7442C77.1867 29.0863 77.2587 29.3835 77.4028 29.6356C77.5469 29.8877 77.7419 30.0828 77.9881 30.2208C78.2342 30.3589 78.5133 30.4279 78.8254 30.4279C79.0835 30.4279 79.3237 30.3739 79.5458 30.2659C79.7739 30.1518 79.9659 29.9777 80.122 29.7436L80.7793 30.1578C80.5932 30.488 80.3291 30.7431 79.987 30.9232C79.6508 31.0972 79.2666 31.1843 78.8344 31.1843Z" fill="#fff"/><path d="M84.3165 31.1303V26.3581H88.7375V31.1303H87.8731V26.8983L88.0802 27.1144H84.9738L85.1809 26.8983V31.1303H84.3165Z" fill="#fff"/><path d="M92.9402 31.1843C92.544 31.1843 92.1809 31.0942 91.8507 30.9142C91.5266 30.7281 91.2655 30.4549 91.0674 30.0948C90.8753 29.7346 90.7792 29.2844 90.7792 28.7442C90.7792 28.2039 90.8723 27.7537 91.0584 27.3936C91.2505 27.0334 91.5086 26.7633 91.8327 26.5832C92.1629 26.4031 92.532 26.3131 92.9402 26.3131C93.4084 26.3131 93.8226 26.4151 94.1828 26.6192C94.5429 26.8233 94.8281 27.1084 95.0382 27.4746C95.2483 27.8348 95.3533 28.258 95.3533 28.7442C95.3533 29.2304 95.2483 29.6566 95.0382 30.0228C94.8281 30.3889 94.5429 30.674 94.1828 30.8781C93.8226 31.0822 93.4084 31.1843 92.9402 31.1843ZM90.4101 32.877V26.3581H91.2384V27.6457L91.1844 28.7532L91.2745 29.8607V32.877H90.4101ZM92.8682 30.4279C93.1743 30.4279 93.4474 30.3589 93.6876 30.2208C93.9337 30.0828 94.1258 29.8877 94.2638 29.6356C94.4079 29.3775 94.4799 29.0803 94.4799 28.7442C94.4799 28.402 94.4079 28.1079 94.2638 27.8618C94.1258 27.6097 93.9337 27.4146 93.6876 27.2765C93.4474 27.1384 93.1743 27.0694 92.8682 27.0694C92.5681 27.0694 92.2949 27.1384 92.0488 27.2765C91.8087 27.4146 91.6166 27.6097 91.4726 27.8618C91.3345 28.1079 91.2655 28.402 91.2655 28.7442C91.2655 29.0803 91.3345 29.3775 91.4726 29.6356C91.6166 29.8877 91.8087 30.0828 92.0488 30.2208C92.2949 30.3589 92.5681 30.4279 92.8682 30.4279Z" fill="#fff"/><path d="M98.6531 31.1843C98.1729 31.1843 97.7467 31.0792 97.3745 30.8691C97.0023 30.659 96.7082 30.3709 96.4921 30.0047C96.276 29.6326 96.168 29.2124 96.168 28.7442C96.168 28.27 96.276 27.8498 96.4921 27.4836C96.7082 27.1174 97.0023 26.8323 97.3745 26.6282C97.7467 26.4181 98.1729 26.3131 98.6531 26.3131C99.1273 26.3131 99.5505 26.4181 99.9227 26.6282C100.301 26.8323 100.595 27.1174 100.805 27.4836C101.021 27.8438 101.129 28.264 101.129 28.7442C101.129 29.2184 101.021 29.6386 100.805 30.0047C100.595 30.3709 100.301 30.659 99.9227 30.8691C99.5505 31.0792 99.1273 31.1843 98.6531 31.1843ZM98.6531 30.4279C98.9592 30.4279 99.2323 30.3589 99.4725 30.2208C99.7186 30.0828 99.9107 29.8877 100.049 29.6356C100.187 29.3775 100.256 29.0803 100.256 28.7442C100.256 28.402 100.187 28.1079 100.049 27.8618C99.9107 27.6097 99.7186 27.4146 99.4725 27.2765C99.2323 27.1384 98.9592 27.0694 98.6531 27.0694C98.3469 27.0694 98.0738 27.1384 97.8337 27.2765C97.5936 27.4146 97.4015 27.6097 97.2575 27.8618C97.1134 28.1079 97.0414 28.402 97.0414 28.7442C97.0414 29.0803 97.1134 29.3775 97.2575 29.6356C97.4015 29.8877 97.5936 30.0828 97.8337 30.2208C98.0738 30.3589 98.3469 30.4279 98.6531 30.4279Z" fill="#fff"/><path d="M105.602 30.7251V27.1144H103.531L103.486 28.0329C103.474 28.333 103.453 28.6241 103.423 28.9062C103.399 29.1824 103.357 29.4375 103.297 29.6716C103.243 29.9057 103.162 30.0978 103.054 30.2479C102.945 30.3979 102.801 30.491 102.621 30.527L101.766 30.3739C101.952 30.3799 102.102 30.3199 102.216 30.1938C102.33 30.0618 102.417 29.8817 102.477 29.6536C102.543 29.4255 102.591 29.1674 102.621 28.8792C102.651 28.5851 102.675 28.282 102.693 27.9698L102.765 26.3581H106.466V30.7251H105.602ZM101.577 32.2378V30.3739H107.195V32.2378H106.385V31.1303H102.396V32.2378H101.577Z" fill="#fff"/><path d="M108.321 31.1303V26.3581H110.536C111.095 26.3581 111.533 26.4661 111.851 26.6822C112.175 26.8923 112.337 27.1925 112.337 27.5826C112.337 27.9728 112.184 28.276 111.878 28.4921C111.578 28.7022 111.179 28.8072 110.681 28.8072L110.816 28.5731C111.386 28.5731 111.809 28.6781 112.085 28.8882C112.361 29.0983 112.499 29.4075 112.499 29.8157C112.499 30.2298 112.343 30.554 112.031 30.7881C111.725 31.0162 111.254 31.1303 110.618 31.1303H108.321ZM109.168 30.4639H110.554C110.915 30.4639 111.185 30.4099 111.365 30.3019C111.545 30.1878 111.635 30.0077 111.635 29.7616C111.635 29.5095 111.551 29.3264 111.383 29.2124C111.221 29.0923 110.963 29.0323 110.609 29.0323H109.168V30.4639ZM109.168 28.411H110.464C110.795 28.411 111.044 28.351 111.212 28.2309C111.386 28.1049 111.473 27.9308 111.473 27.7087C111.473 27.4806 111.386 27.3095 111.212 27.1955C111.044 27.0814 110.795 27.0244 110.464 27.0244H109.168V28.411Z" fill="#fff"/><path d="M113.852 31.1303V26.3581H114.717V29.8337L117.643 26.3581H118.426V31.1303H117.562V27.6547L114.645 31.1303H113.852Z" fill="#fff"/><path d="M125.768 31.1303L124.246 28.8072L124.957 28.375L126.794 31.1303H125.768ZM123.256 29.1133V28.375H124.804V29.1133H123.256ZM125.038 28.8432L124.219 28.7352L125.741 26.3581H126.668L125.038 28.8432ZM120.41 31.1303H119.384L121.212 28.375L121.923 28.8072L120.41 31.1303ZM123.517 31.1303H122.652V26.3581H123.517V31.1303ZM122.913 29.1133H121.374V28.375H122.913V29.1133ZM121.14 28.8432L119.51 26.3581H120.428L121.95 28.7352L121.14 28.8432Z" fill="#fff"/><path d="M129.712 31.1843C129.202 31.1843 128.752 31.0792 128.361 30.8691C127.977 30.659 127.677 30.3709 127.461 30.0047C127.251 29.6386 127.146 29.2184 127.146 28.7442C127.146 28.27 127.248 27.8498 127.452 27.4836C127.662 27.1174 127.947 26.8323 128.307 26.6282C128.674 26.4181 129.085 26.3131 129.541 26.3131C130.003 26.3131 130.411 26.4151 130.765 26.6192C131.12 26.8233 131.396 27.1114 131.594 27.4836C131.798 27.8498 131.9 28.279 131.9 28.7712C131.9 28.8072 131.897 28.8492 131.891 28.8972C131.891 28.9453 131.888 28.9903 131.882 29.0323H127.821V28.411H131.432L131.081 28.6271C131.087 28.321 131.024 28.0479 130.892 27.8077C130.759 27.5676 130.576 27.3816 130.342 27.2495C130.114 27.1114 129.847 27.0424 129.541 27.0424C129.241 27.0424 128.974 27.1114 128.74 27.2495C128.505 27.3816 128.322 27.5706 128.19 27.8168C128.058 28.0569 127.992 28.333 127.992 28.6451V28.7892C127.992 29.1073 128.064 29.3925 128.208 29.6446C128.358 29.8907 128.565 30.0828 128.83 30.2208C129.094 30.3589 129.397 30.4279 129.739 30.4279C130.021 30.4279 130.276 30.3799 130.504 30.2839C130.738 30.1878 130.943 30.0438 131.117 29.8517L131.594 30.4099C131.378 30.662 131.108 30.8541 130.783 30.9862C130.465 31.1182 130.108 31.1843 129.712 31.1843Z" fill="#fff"/><path d="M133.241 31.1303V26.3581H134.105V28.384H136.825V26.3581H137.689V31.1303H136.825V29.1313H134.105V31.1303H133.241Z" fill="#fff"/><path d="M139.37 31.1303V26.3581H140.234V29.8337L143.16 26.3581H143.944V31.1303H143.079V27.6547L140.162 31.1303H139.37Z" fill="#fff"/><path d="M148.674 31.1303V29.4555L148.809 29.6176H147.287C146.651 29.6176 146.153 29.4825 145.793 29.2124C145.438 28.9423 145.261 28.5491 145.261 28.0329C145.261 27.4806 145.45 27.0634 145.829 26.7813C146.213 26.4992 146.723 26.3581 147.359 26.3581H149.448V31.1303H148.674ZM145.216 31.1303L146.513 29.3024H147.404L146.144 31.1303H145.216ZM148.674 29.1854V26.8713L148.809 27.1144H147.386C146.99 27.1144 146.684 27.1895 146.468 27.3395C146.252 27.4836 146.144 27.7237 146.144 28.0599C146.144 28.6841 146.546 28.9963 147.35 28.9963H148.809L148.674 29.1854Z" fill="#fff"/><path d="M46.8582 40.1343V35.3622H47.7226V38.8377L50.6489 35.3622H51.4322V40.1343H50.5679V36.6587L47.6505 40.1343H46.8582Z" fill="#fff"/><path d="M58.0583 40.1883C57.6621 40.1883 57.2989 40.0983 56.9688 39.9182C56.6446 39.7321 56.3835 39.459 56.1854 39.0989C55.9933 38.7387 55.8973 38.2885 55.8973 37.7482C55.8973 37.208 55.9903 36.7578 56.1764 36.3976C56.3685 36.0375 56.6266 35.7673 56.9508 35.5873C57.2809 35.4072 57.6501 35.3171 58.0583 35.3171C58.5265 35.3171 58.9407 35.4192 59.3008 35.6233C59.661 35.8274 59.9461 36.1125 60.1562 36.4787C60.3663 36.8388 60.4713 37.262 60.4713 37.7482C60.4713 38.2345 60.3663 38.6607 60.1562 39.0268C59.9461 39.393 59.661 39.6781 59.3008 39.8822C58.9407 40.0863 58.5265 40.1883 58.0583 40.1883ZM55.5281 41.8811V35.3622H56.3565V36.6497L56.3025 37.7572L56.3925 38.8647V41.8811H55.5281ZM57.9862 39.432C58.2924 39.432 58.5655 39.363 58.8056 39.2249C59.0517 39.0868 59.2438 38.8918 59.3819 38.6396C59.5259 38.3815 59.5979 38.0844 59.5979 37.7482C59.5979 37.4061 59.5259 37.112 59.3819 36.8658C59.2438 36.6137 59.0517 36.4186 58.8056 36.2806C58.5655 36.1425 58.2924 36.0735 57.9862 36.0735C57.6861 36.0735 57.413 36.1425 57.1669 36.2806C56.9267 36.4186 56.7347 36.6137 56.5906 36.8658C56.4525 37.112 56.3835 37.4061 56.3835 37.7482C56.3835 38.0844 56.4525 38.3815 56.5906 38.6396C56.7347 38.8918 56.9267 39.0868 57.1669 39.2249C57.413 39.363 57.6861 39.432 57.9862 39.432Z" fill="#fff"/><path d="M64.6096 40.1343V39.1259L64.5645 38.9368V37.217C64.5645 36.8508 64.4565 36.5687 64.2404 36.3706C64.0303 36.1665 63.7122 36.0645 63.286 36.0645C63.0038 36.0645 62.7277 36.1125 62.4576 36.2085C62.1875 36.2986 61.9594 36.4216 61.7733 36.5777L61.4131 35.9294C61.6592 35.7313 61.9534 35.5813 62.2955 35.4792C62.6437 35.3712 63.0068 35.3171 63.385 35.3171C64.0393 35.3171 64.5435 35.4762 64.8977 35.7944C65.2518 36.1125 65.4289 36.5987 65.4289 37.253V40.1343H64.6096ZM63.0428 40.1883C62.6887 40.1883 62.3765 40.1283 62.1064 40.0083C61.8423 39.8882 61.6382 39.7231 61.4941 39.513C61.3501 39.2969 61.2781 39.0538 61.2781 38.7837C61.2781 38.5256 61.3381 38.2915 61.4581 38.0814C61.5842 37.8713 61.7853 37.7032 62.0614 37.5772C62.3435 37.4511 62.7217 37.3881 63.1959 37.3881H64.7086V38.0094H63.2319C62.7997 38.0094 62.5086 38.0814 62.3585 38.2255C62.2085 38.3695 62.1334 38.5436 62.1334 38.7477C62.1334 38.9818 62.2265 39.1709 62.4126 39.3149C62.5986 39.453 62.8568 39.522 63.1869 39.522C63.5111 39.522 63.7932 39.45 64.0333 39.3059C64.2794 39.1619 64.4565 38.9518 64.5645 38.6757L64.7356 39.2699C64.6216 39.5521 64.4205 39.7772 64.1323 39.9452C63.8442 40.1073 63.481 40.1883 63.0428 40.1883Z" fill="#fff"/><path d="M69.0654 40.1883C68.5792 40.1883 68.144 40.0833 67.7598 39.8732C67.3816 39.6631 67.0845 39.375 66.8684 39.0088C66.6523 38.6426 66.5442 38.2225 66.5442 37.7482C66.5442 37.274 66.6523 36.8538 66.8684 36.4877C67.0845 36.1215 67.3816 35.8364 67.7598 35.6323C68.144 35.4222 68.5792 35.3171 69.0654 35.3171C69.4976 35.3171 69.8817 35.4042 70.2179 35.5783C70.56 35.7463 70.8242 35.9984 71.0103 36.3346L70.353 36.7578C70.1969 36.5237 70.0048 36.3526 69.7767 36.2446C69.5546 36.1305 69.3145 36.0735 69.0564 36.0735C68.7442 36.0735 68.4651 36.1425 68.219 36.2806C67.9729 36.4186 67.7778 36.6137 67.6337 36.8658C67.4897 37.112 67.4176 37.4061 67.4176 37.7482C67.4176 38.0904 67.4897 38.3875 67.6337 38.6396C67.7778 38.8918 67.9729 39.0868 68.219 39.2249C68.4651 39.363 68.7442 39.432 69.0564 39.432C69.3145 39.432 69.5546 39.378 69.7767 39.2699C70.0048 39.1559 70.1969 38.9818 70.353 38.7477L71.0103 39.1619C70.8242 39.492 70.56 39.7471 70.2179 39.9272C69.8817 40.1013 69.4976 40.1883 69.0654 40.1883Z" fill="#fff"/><path d="M74.139 40.1883C73.6527 40.1883 73.2175 40.0833 72.8334 39.8732C72.4552 39.6631 72.1581 39.375 71.942 39.0088C71.7259 38.6426 71.6178 38.2225 71.6178 37.7482C71.6178 37.274 71.7259 36.8538 71.942 36.4877C72.1581 36.1215 72.4552 35.8364 72.8334 35.6323C73.2175 35.4222 73.6527 35.3171 74.139 35.3171C74.5711 35.3171 74.9553 35.4042 75.2915 35.5783C75.6336 35.7463 75.8977 35.9984 76.0838 36.3346L75.4265 36.7578C75.2705 36.5237 75.0784 36.3526 74.8503 36.2446C74.6282 36.1305 74.3881 36.0735 74.1299 36.0735C73.8178 36.0735 73.5387 36.1425 73.2926 36.2806C73.0465 36.4186 72.8514 36.6137 72.7073 36.8658C72.5632 37.112 72.4912 37.4061 72.4912 37.7482C72.4912 38.0904 72.5632 38.3875 72.7073 38.6396C72.8514 38.8918 73.0465 39.0868 73.2926 39.2249C73.5387 39.363 73.8178 39.432 74.1299 39.432C74.3881 39.432 74.6282 39.378 74.8503 39.2699C75.0784 39.1559 75.2705 38.9818 75.4265 38.7477L76.0838 39.1619C75.8977 39.492 75.6336 39.7471 75.2915 39.9272C74.9553 40.1013 74.5711 40.1883 74.139 40.1883Z" fill="#fff"/><path d="M81.9211 40.1343V35.3622H82.7855V40.1343H81.9211ZM79.3549 36.9829C79.9612 36.9889 80.4204 37.127 80.7325 37.3971C81.0507 37.6672 81.2097 38.0484 81.2097 38.5406C81.2097 39.0568 81.0357 39.456 80.6875 39.7381C80.3454 40.0143 79.8531 40.1493 79.2108 40.1433L77.2029 40.1343V35.3622H78.0673V36.9739L79.3549 36.9829ZM79.1478 39.486C79.532 39.492 79.8261 39.414 80.0302 39.2519C80.2343 39.0898 80.3364 38.8497 80.3364 38.5316C80.3364 38.2195 80.2343 37.9914 80.0302 37.8473C79.8321 37.7032 79.538 37.6282 79.1478 37.6222L78.0673 37.6042V39.477L79.1478 39.486Z" fill="#fff"/><path d="M83.6736 40.1253L83.7276 39.396C83.7697 39.402 83.8087 39.408 83.8447 39.414C83.8807 39.42 83.9137 39.423 83.9437 39.423C84.1358 39.423 84.2859 39.357 84.394 39.2249C84.508 39.0928 84.592 38.9188 84.6461 38.7027C84.7001 38.4806 84.7391 38.2315 84.7631 37.9553C84.7871 37.6792 84.8051 37.4031 84.8171 37.127L84.8982 35.3622H88.5628V40.1343H87.6984V35.8664L87.9055 36.1185H85.4564L85.6545 35.8574L85.5915 37.181C85.5735 37.6012 85.5405 37.9944 85.4924 38.3605C85.4444 38.7267 85.3694 39.0478 85.2673 39.324C85.1713 39.6001 85.0362 39.8162 84.8622 39.9722C84.6941 40.1283 84.475 40.2064 84.2049 40.2064C84.1268 40.2064 84.0428 40.1973 83.9528 40.1793C83.8687 40.1673 83.7757 40.1493 83.6736 40.1253Z" fill="#fff"/><path d="M93.6918 40.1343L91.8459 37.8113L92.5573 37.3791L94.7092 40.1343H93.6918ZM90.2342 40.1343V35.3622H91.0986V40.1343H90.2342ZM90.8375 38.1174V37.3791H92.4132V38.1174H90.8375ZM92.6293 37.8473L91.8279 37.7392L93.6558 35.3622H94.5832L92.6293 37.8473Z" fill="#fff"/><path d="M95.6156 40.1343V35.3622H96.4799V38.8377L99.4063 35.3622H100.19V40.1343H99.3252V36.6587L96.4079 40.1343H95.6156Z" fill="#fff"/><path d="M104.285 40.1343V35.3622H106.5C107.059 35.3622 107.497 35.4702 107.815 35.6863C108.139 35.8964 108.301 36.1965 108.301 36.5867C108.301 36.9769 108.148 37.28 107.842 37.4961C107.542 37.7062 107.143 37.8113 106.645 37.8113L106.78 37.5772C107.35 37.5772 107.773 37.6822 108.049 37.8923C108.325 38.1024 108.463 38.4115 108.463 38.8197C108.463 39.2339 108.307 39.5581 107.995 39.7922C107.689 40.0203 107.218 40.1343 106.582 40.1343H104.285ZM105.132 39.468H106.518C106.879 39.468 107.149 39.414 107.329 39.3059C107.509 39.1919 107.599 39.0118 107.599 38.7657C107.599 38.5136 107.515 38.3305 107.347 38.2165C107.185 38.0964 106.927 38.0364 106.573 38.0364H105.132V39.468ZM105.132 37.4151H106.428C106.759 37.4151 107.008 37.3551 107.176 37.235C107.35 37.109 107.437 36.9349 107.437 36.7128C107.437 36.4847 107.35 36.3136 107.176 36.1995C107.008 36.0855 106.759 36.0285 106.428 36.0285H105.132V37.4151Z" fill="#fff"/><path d="M113.18 40.1343V35.8934L113.396 36.1185H111.433V35.3622H115.791V36.1185H113.837L114.044 35.8934V40.1343H113.18Z" fill="#fff"/><path d="M118.589 40.1883C118.079 40.1883 117.628 40.0833 117.238 39.8732C116.854 39.6631 116.554 39.375 116.338 39.0088C116.128 38.6426 116.023 38.2225 116.023 37.7482C116.023 37.274 116.125 36.8538 116.329 36.4877C116.539 36.1215 116.824 35.8364 117.184 35.6323C117.55 35.4222 117.962 35.3171 118.418 35.3171C118.88 35.3171 119.288 35.4192 119.642 35.6233C119.996 35.8274 120.273 36.1155 120.471 36.4877C120.675 36.8538 120.777 37.283 120.777 37.7753C120.777 37.8113 120.774 37.8533 120.768 37.9013C120.768 37.9493 120.765 37.9944 120.759 38.0364H116.698V37.4151H120.309L119.957 37.6312C119.963 37.325 119.9 37.0519 119.768 36.8118C119.636 36.5717 119.453 36.3856 119.219 36.2536C118.991 36.1155 118.724 36.0465 118.418 36.0465C118.118 36.0465 117.85 36.1155 117.616 36.2536C117.382 36.3856 117.199 36.5747 117.067 36.8208C116.935 37.0609 116.869 37.3371 116.869 37.6492V37.7933C116.869 38.1114 116.941 38.3965 117.085 38.6486C117.235 38.8948 117.442 39.0868 117.706 39.2249C117.971 39.363 118.274 39.432 118.616 39.432C118.898 39.432 119.153 39.384 119.381 39.2879C119.615 39.1919 119.819 39.0478 119.993 38.8557L120.471 39.414C120.255 39.6661 119.984 39.8582 119.66 39.9903C119.342 40.1223 118.985 40.1883 118.589 40.1883Z" fill="#fff"/><path d="M121.246 40.1253L121.3 39.396C121.342 39.402 121.381 39.408 121.417 39.414C121.453 39.42 121.486 39.423 121.516 39.423C121.708 39.423 121.859 39.357 121.967 39.2249C122.081 39.0928 122.165 38.9188 122.219 38.7027C122.273 38.4806 122.312 38.2315 122.336 37.9553C122.36 37.6792 122.378 37.4031 122.39 37.127L122.471 35.3622H126.135V40.1343H125.271V35.8664L125.478 36.1185H123.029L123.227 35.8574L123.164 37.181C123.146 37.6012 123.113 37.9944 123.065 38.3605C123.017 38.7267 122.942 39.0478 122.84 39.324C122.744 39.6001 122.609 39.8162 122.435 39.9722C122.267 40.1283 122.048 40.2064 121.777 40.2064C121.699 40.2064 121.615 40.1973 121.525 40.1793C121.441 40.1673 121.348 40.1493 121.246 40.1253Z" fill="#fff"/><path d="M129.932 40.1883C129.422 40.1883 128.971 40.0833 128.581 39.8732C128.197 39.6631 127.897 39.375 127.681 39.0088C127.471 38.6426 127.366 38.2225 127.366 37.7482C127.366 37.274 127.468 36.8538 127.672 36.4877C127.882 36.1215 128.167 35.8364 128.527 35.6323C128.893 35.4222 129.305 35.3171 129.761 35.3171C130.223 35.3171 130.631 35.4192 130.985 35.6233C131.339 35.8274 131.616 36.1155 131.814 36.4877C132.018 36.8538 132.12 37.283 132.12 37.7753C132.12 37.8113 132.117 37.8533 132.111 37.9013C132.111 37.9493 132.108 37.9944 132.102 38.0364H128.041V37.4151H131.652L131.3 37.6312C131.306 37.325 131.243 37.0519 131.111 36.8118C130.979 36.5717 130.796 36.3856 130.562 36.2536C130.334 36.1155 130.067 36.0465 129.761 36.0465C129.461 36.0465 129.193 36.1155 128.959 36.2536C128.725 36.3856 128.542 36.5747 128.41 36.8208C128.278 37.0609 128.212 37.3371 128.212 37.6492V37.7933C128.212 38.1114 128.284 38.3965 128.428 38.6486C128.578 38.8948 128.785 39.0868 129.049 39.2249C129.314 39.363 129.617 39.432 129.959 39.432C130.241 39.432 130.496 39.384 130.724 39.2879C130.958 39.1919 131.162 39.0478 131.336 38.8557L131.814 39.414C131.598 39.6661 131.327 39.8582 131.003 39.9903C130.685 40.1223 130.328 40.1883 129.932 40.1883Z" fill="#fff"/><path d="M133.461 40.1343V35.3622H136.972V36.1185H134.118L134.325 35.9204V40.1343H133.461Z" fill="#fff"/><path d="M140.387 40.1883C139.991 40.1883 139.628 40.0983 139.298 39.9182C138.974 39.7321 138.713 39.459 138.515 39.0989C138.322 38.7387 138.226 38.2885 138.226 37.7482C138.226 37.208 138.319 36.7578 138.506 36.3976C138.698 36.0375 138.956 35.7673 139.28 35.5873C139.61 35.4072 139.979 35.3171 140.387 35.3171C140.856 35.3171 141.27 35.4192 141.63 35.6233C141.99 35.8274 142.275 36.1125 142.485 36.4787C142.695 36.8388 142.801 37.262 142.801 37.7482C142.801 38.2345 142.695 38.6607 142.485 39.0268C142.275 39.393 141.99 39.6781 141.63 39.8822C141.27 40.0863 140.856 40.1883 140.387 40.1883ZM137.857 41.8811V35.3622H138.686V36.6497L138.632 37.7572L138.722 38.8647V41.8811H137.857ZM140.315 39.432C140.622 39.432 140.895 39.363 141.135 39.2249C141.381 39.0868 141.573 38.8918 141.711 38.6396C141.855 38.3815 141.927 38.0844 141.927 37.7482C141.927 37.4061 141.855 37.112 141.711 36.8658C141.573 36.6137 141.381 36.4186 141.135 36.2806C140.895 36.1425 140.622 36.0735 140.315 36.0735C140.015 36.0735 139.742 36.1425 139.496 36.2806C139.256 36.4186 139.064 36.6137 138.92 36.8658C138.782 37.112 138.713 37.4061 138.713 37.7482C138.713 38.0844 138.782 38.3815 138.92 38.6396C139.064 38.8918 139.256 39.0868 139.496 39.2249C139.742 39.363 140.015 39.432 140.315 39.432Z" fill="#fff"/><path d="M146.939 40.1343V39.1259L146.894 38.9368V37.217C146.894 36.8508 146.786 36.5687 146.57 36.3706C146.359 36.1665 146.041 36.0645 145.615 36.0645C145.333 36.0645 145.057 36.1125 144.787 36.2085C144.517 36.2986 144.289 36.4216 144.102 36.5777L143.742 35.9294C143.988 35.7313 144.283 35.5813 144.625 35.4792C144.973 35.3712 145.336 35.3171 145.714 35.3171C146.368 35.3171 146.873 35.4762 147.227 35.7944C147.581 36.1125 147.758 36.5987 147.758 37.253V40.1343H146.939ZM145.372 40.1883C145.018 40.1883 144.706 40.1283 144.436 40.0083C144.171 39.8882 143.967 39.7231 143.823 39.513C143.679 39.2969 143.607 39.0538 143.607 38.7837C143.607 38.5256 143.667 38.2915 143.787 38.0814C143.913 37.8713 144.114 37.7032 144.391 37.5772C144.673 37.4511 145.051 37.3881 145.525 37.3881H147.038V38.0094H145.561C145.129 38.0094 144.838 38.0814 144.688 38.2255C144.538 38.3695 144.463 38.5436 144.463 38.7477C144.463 38.9818 144.556 39.1709 144.742 39.3149C144.928 39.453 145.186 39.522 145.516 39.522C145.84 39.522 146.122 39.45 146.362 39.3059C146.609 39.1619 146.786 38.9518 146.894 38.6757L147.065 39.2699C146.951 39.5521 146.75 39.7772 146.462 39.9452C146.173 40.1073 145.81 40.1883 145.372 40.1883Z" fill="#fff"/><path d="M149.315 40.1343V35.3622H150.206L152.259 38.8918H151.899L154.006 35.3622H154.816V40.1343H154.033V36.3346L154.177 36.4156L152.25 39.5941H151.872L149.936 36.3526L150.107 36.3166V40.1343H149.315Z" fill="#fff"/><path d="M156.499 40.1343V35.3622H157.39L159.443 38.8918H159.083L161.19 35.3622H162V40.1343H161.217V36.3346L161.361 36.4156L159.434 39.5941H159.056L157.12 36.3526L157.291 36.3166V40.1343H156.499Z" fill="#fff"/></svg>