<svg width="308" height="398" viewBox="0 0 308 398" fill="none" xmlns="http://www.w3.org/2000/svg"><path d="M18.0533 0.794916C0.453004 21.2809 -3.38582 51.1013 5.73468 76.1447C15.1859 102.087 38.4674 119.188 65.8248 121.654C92.231 124.02 120.607 113.074 134.945 89.9724C148.355 68.3616 149.078 35.1675 124.235 21.3623C103.254 9.70762 72.6305 16.8084 60.5564 37.9869C48.4823 59.1654 56.0057 87.1265 73.2651 103.112C95.0479 123.275 127.421 118.974 153.05 109.804C184.132 98.7443 214.218 77.7801 248.596 80.4847C275.7 82.6173 300.644 99.0386 315.274 121.691C322.675 132.988 327.142 145.954 328.27 159.414C329.371 174.108 324.894 190.798 313.771 201.045C301.4 212.446 284.048 209.477 273.34 197.357C261.581 184.022 260.782 165.179 260.793 148.285C260.822 116.022 265.271 80.5523 286.317 54.664C304.978 31.7655 337.263 17.2113 365.897 29.7954C398.359 44.0646 410.904 80.9473 412.839 113.779C413.885 131.591 412.651 149.5 411.553 167.284C410.439 185.365 409.199 203.454 408.937 221.589C408.476 255.953 411.758 290.794 425.835 322.521C439.037 352.285 461.398 378.106 492.376 389.855C521.207 400.835 553.393 399.609 582.911 392.088C619.809 382.726 653.704 364.347 687.604 347.563L796.342 293.733L848.48 267.918C849.602 267.363 848.875 265.551 847.754 266.093L740.319 319.275C705.37 336.581 670.712 354.718 635.208 370.858C603.597 385.219 569.796 396.862 534.636 395.855C519.065 395.411 503.482 392.524 489.105 386.392C473.517 379.605 459.739 369.255 448.879 356.175C401.228 299.585 410.642 221.413 414.353 153.058C416.11 120.492 416.634 85.3159 398.564 56.6806C390.764 44.2948 379.713 33.5407 366.131 27.7359C353.766 22.5815 340.031 21.7114 327.114 25.264C299.055 32.6867 278.575 55.7271 268.726 82.267C263.238 97.1185 260.6 112.885 259.494 128.608C258.371 144.671 257.581 161.981 261.434 177.72C264.718 191.121 273.149 204.31 286.782 208.926C298.964 213.044 311.188 208.004 318.99 198.271C335.985 177.073 331.999 146.617 319.254 124.474C306.608 102.518 284.654 85.7242 259.842 80.1907C228.256 73.1703 198.641 88.1855 170.545 100.571C143.94 112.309 109.411 124.263 82.2027 107.468C60.468 94.0536 49.2845 62.9239 61.8143 39.7476C74.4596 16.3194 111.128 10.0324 130.617 28.4105C153.98 50.4288 140.005 89.2561 117.532 105.884C95.0598 122.511 62.4071 124.682 37.8311 111.331C12.2614 97.4194 -0.00356209 67.3175 3.49981 39.1193C5.09516 25.4365 10.6996 12.5306 19.6085 2.02383C20.4392 1.05499 18.8703 -0.119777 18.0533 0.794916Z" fill="#B5E9F7"/></svg>