<svg width="216" height="191" viewBox="0 0 216 191" fill="none" xmlns="http://www.w3.org/2000/svg"><path d="M127.764 179.8H88.207L91.4638 132.1H124.533L127.764 179.8Z" fill="#110239"/><path d="M132.952 172.159C132.72 171.807 132.404 171.519 132.032 171.322C131.659 171.125 131.244 171.025 130.823 171.031H85.1775C84.7522 171.021 84.3312 171.119 83.9543 171.316C83.5773 171.513 83.2568 171.803 83.0229 172.159L77.0605 181.077C76.7663 181.458 76.5879 181.915 76.5464 182.394C76.505 182.873 76.6023 183.354 76.8269 183.779C77.0514 184.205 77.3937 184.556 77.8127 184.793C78.2318 185.029 78.7098 185.139 79.1899 185.111H136.81C137.292 185.144 137.774 185.038 138.197 184.804C138.62 184.57 138.966 184.218 139.194 183.792C139.421 183.366 139.521 182.882 139.48 182.401C139.44 181.919 139.261 181.459 138.965 181.077L132.952 172.159Z" fill="#110239"/><path d="M204.877 0H11.1232C4.98002 0 0 4.98001 0 11.1232V133.653C0 139.797 4.98002 144.777 11.1232 144.777H204.877C211.02 144.777 216 139.797 216 133.653V11.1232C216 4.98001 211.02 0 204.877 0Z" fill="#110239"/><path d="M206.056 9.595H9.94727V133.704H206.056V9.595Z" fill="#3976F4"/><path d="M135.083 93.545H124.336V133.578H135.083V93.545Z" fill="#D0D1DE"/><path d="M135.083 93.545H124.336V106.096H135.083V93.545Z" fill="#9698B5"/><path d="M164.169 31.4655H100.611V96.025H189.421V56.7181C189.421 50.0207 186.761 43.5976 182.025 38.8618C177.289 34.1261 170.866 31.4655 164.169 31.4655Z" fill="#FD425F"/><path d="M126.264 96.0251H75.1074V56.7182C75.1074 50.0208 77.768 43.5977 82.5037 38.8619C87.2395 34.1261 93.6627 31.4656 100.36 31.4656H100.886C104.213 31.4491 107.51 32.0901 110.588 33.3517C113.667 34.6134 116.465 36.4709 118.823 38.8175C121.182 41.164 123.053 43.9534 124.33 47.0254C125.607 50.0974 126.264 53.3914 126.264 56.7182V96.0251Z" fill="#FD425F"/><path d="M121.782 90.5136H79.4688V57.9458C79.4688 55.1954 80.0104 52.472 81.063 49.931C82.1155 47.39 83.6582 45.0812 85.603 43.1364C87.5478 41.1916 89.8566 39.6489 92.3976 38.5964C94.9386 37.5439 97.662 37.0022 100.412 37.0022H100.838C106.393 37.0022 111.72 39.2087 115.648 43.1364C119.575 47.0641 121.782 52.3912 121.782 57.9458V90.5136Z" fill="#110239"/><path d="M106.723 91.0646H58.2969V96.025H106.723V91.0646Z" fill="#FD425F"/><path d="M162.464 72.1254C163.993 72.1254 165.496 69.6201 165.496 66.188C165.609 64.5457 165.376 62.8979 164.811 61.3518C164.246 59.8057 163.361 58.3959 162.215 57.2143C161.069 56.0327 159.687 55.1057 158.158 54.4936C156.63 53.8815 154.99 53.5982 153.345 53.6619C150.023 53.6619 146.837 54.9816 144.488 57.3307C142.139 59.6798 140.819 62.8659 140.819 66.188C140.788 67.7798 141.081 69.3613 141.679 70.8366C142.278 72.3119 143.17 73.6501 144.302 74.77C145.433 75.8899 146.781 76.7682 148.262 77.3514C149.744 77.9347 151.328 78.2108 152.919 78.1629C155.409 78.1401 157.831 77.353 159.859 75.9082L161.562 78.8644C159.021 80.6221 156.009 81.5736 152.919 81.5951C150.86 81.67 148.806 81.3254 146.883 80.5821C144.961 79.8389 143.21 78.7125 141.736 77.2715C140.262 75.8305 139.096 74.1049 138.31 72.1996C137.524 70.2943 137.133 68.249 137.162 66.188C137.184 64.0892 137.622 62.0155 138.448 60.0862C139.275 58.1569 140.475 56.41 141.979 54.9457C143.482 53.4814 145.261 52.3287 147.211 51.5538C149.162 50.7789 151.247 50.397 153.345 50.4302C155.431 50.3681 157.506 50.7322 159.446 51.5002C161.386 52.2682 163.148 53.424 164.626 54.8968C166.103 56.3696 167.265 58.1284 168.039 60.0655C168.813 62.0027 169.184 64.0775 169.128 66.1629C169.128 71.6744 166.122 75.2318 162.038 75.2318C161.091 75.3744 160.124 75.1616 159.324 74.6344C158.524 74.1072 157.947 73.3028 157.704 72.3759V71.95C157.1 72.8547 156.279 73.5943 155.317 74.1017C154.355 74.6092 153.281 74.8684 152.193 74.8561C151.102 74.8302 150.027 74.588 149.03 74.1433C148.033 73.6986 147.134 73.0604 146.386 72.2656C145.638 71.4709 145.055 70.5355 144.672 69.5136C144.288 68.4918 144.111 67.404 144.151 66.3133C144.052 65.2459 144.17 64.1695 144.497 63.1488C144.825 62.1282 145.356 61.1845 146.058 60.3746C146.761 59.5647 147.62 58.9053 148.583 58.4362C149.547 57.9672 150.596 57.6981 151.667 57.6452C152.619 57.6276 153.563 57.8233 154.43 58.2177C155.297 58.6122 156.065 59.1955 156.677 59.9249V57.9458H161.237V70.3216C161.111 71.6494 161.663 72.1254 162.464 72.1254ZM149.061 66.0377C149.061 68.5429 150.439 70.6222 152.594 70.6222C154.748 70.6222 156.251 68.5429 156.251 66.0627C156.35 65.5345 156.332 64.9909 156.197 64.4707C156.062 63.9505 155.814 63.4664 155.471 63.0528C155.128 62.6393 154.698 62.3065 154.211 62.078C153.725 61.8496 153.194 61.7311 152.656 61.7311C152.119 61.7311 151.588 61.8496 151.102 62.078C150.615 62.3065 150.185 62.6393 149.842 63.0528C149.499 63.4664 149.251 63.9505 149.116 64.4707C148.981 64.9909 148.962 65.5345 149.061 66.0627V66.0377Z" fill="#fff"/><path d="M110.958 104.468C111.333 94.4469 118.198 85.9041 121.78 82.0962V79.9667H88.6862C81.9222 79.9667 77.8888 83.4239 74.2312 89.1358C71.1284 93.683 69.2949 98.9756 68.92 104.468C68.419 118.121 71.4253 124.735 62.5067 133.779C53.5881 142.823 49.68 147.958 52.3105 162.714H94.4733C91.8428 147.958 95.8011 142.798 104.67 133.779C113.538 124.76 110.482 118.071 110.958 104.468Z" fill="#E5E6ED"/><path d="M115.842 82.9979H84.7771L83.5996 84.3507H114.689L115.842 82.9979Z" fill="#9A94AB"/><path d="M110.956 89.5867H79.8915C79.6159 90.0376 79.3404 90.4885 79.0898 90.9645H110.155C110.405 90.5136 110.681 90.0376 110.956 89.5867Z" fill="#9A94AB"/><path d="M107.701 96.1002H76.6362C76.4608 96.526 76.3105 97.002 76.1602 97.453H107.225L107.701 96.1002Z" fill="#9A94AB"/><path d="M106.221 102.589H75.1566C75.1566 103.04 75.1565 103.491 75.0312 103.942H106.096C105.996 103.491 106.046 103.04 106.221 102.589Z" fill="#9A94AB"/><path d="M105.895 109.077H74.8301C74.8301 109.553 74.8301 110.004 74.8301 110.43H105.895C105.895 110.004 105.895 109.553 105.895 109.077Z" fill="#9A94AB"/><path d="M106.02 115.566H74.9551C74.9551 116.042 74.9551 116.493 74.9551 116.944H106.02C106.045 116.493 106.045 116.042 106.02 115.566Z" fill="#9A94AB"/><path d="M105.745 122.079H74.6551C74.6044 122.534 74.5292 122.986 74.4297 123.432H105.494C105.595 123.081 105.67 122.53 105.745 122.079Z" fill="#9A94AB"/><path d="M103.567 128.568H72.5022C72.2266 129.019 71.951 129.47 71.6504 129.921H102.715C103.016 129.47 103.316 129.019 103.567 128.568Z" fill="#9A94AB"/><path d="M98.2815 135.056H67.2167L65.9141 136.434H96.9788L98.2815 135.056Z" fill="#9A94AB"/><path d="M92.6678 141.57H61.6031C61.2858 142.021 60.9851 142.472 60.7012 142.923H91.766L92.6678 141.57Z" fill="#9A94AB"/><path d="M89.4369 148.134H58.3722C58.3722 148.585 58.1217 149.035 58.0215 149.486H89.0862C89.1864 148.96 89.3116 148.509 89.4369 148.134Z" fill="#9A94AB"/><path d="M88.6838 154.547H57.6191V155.925H88.6838V154.547Z" fill="#9A94AB"/><path d="M72.6272 94.597C72.3516 94.1461 70.598 95.5741 70.3474 95.9498C69.8818 96.4868 69.4549 97.0561 69.0698 97.6534C68.7943 98.2546 68.5186 98.8309 68.218 99.4321C68.1081 99.776 68.0244 100.128 67.9675 100.484C67.7285 101.002 67.4162 101.483 67.0405 101.912C67.0405 102.038 67.0406 102.088 66.8652 102.288C67.5667 102.864 67.5917 103.39 67.9925 104.192C68.2563 103.935 68.5412 103.7 68.8443 103.491C69.1199 103.315 70.8736 102.639 71.1742 102.514C71.7753 102.265 72.3399 101.937 72.8527 101.536C73.0531 101.386 73.8047 101.136 73.7295 100.86C73.6544 100.585 72.5771 100.585 72.3266 100.635C71.7247 100.864 71.0909 101 70.4477 101.035C70.3296 100.996 70.2207 100.934 70.1273 100.851C70.034 100.769 69.9582 100.669 69.9044 100.556C69.8506 100.444 69.82 100.322 69.8143 100.198C69.8087 100.074 69.8281 99.9496 69.8715 99.8329C70.0745 99.2162 70.4586 98.675 70.9738 98.2797L72.7024 96.7014C73.6293 95.8997 73.2284 95.3235 72.3767 95.8496C72.2013 95.8496 70.8736 97.0521 70.7483 97.1023L71.0991 96.7265C71.6252 96.1002 72.9779 95.1231 72.6272 94.597Z" fill="#F88667"/><path d="M35.7253 79.3653C35.7253 79.3653 35.8506 79.5908 35.9257 79.7161C36.5907 80.8321 37.3626 81.8809 38.2305 82.8476C38.7566 83.3987 39.6836 83.8998 40.1345 84.476C40.3134 84.6965 40.5058 84.9057 40.7107 85.1023C39.5474 87.7116 38.5924 90.409 37.8547 93.1691C37.8547 93.1691 32.2681 91.4906 30.7148 88.7098C32.6651 85.7535 34.3422 82.6258 35.7253 79.3653Z" fill="#F88667"/><path d="M36.6269 89.5616C36.6051 87.8074 36.0454 86.1022 35.0235 84.6764C34.6654 84.2198 34.2806 83.7848 33.8711 83.3737C34.59 82.0866 35.2097 80.7466 35.7249 79.3653C35.7249 79.3653 35.8502 79.5908 35.9254 79.7161C36.5903 80.8321 37.3622 81.8809 38.2302 82.8476C38.7562 83.3987 39.6832 83.8998 40.1341 84.476C40.313 84.6965 40.5055 84.9057 40.7104 85.1023C39.547 87.7116 38.592 90.409 37.8544 93.1691C37.8544 93.1691 36.9024 92.8685 35.6749 92.3424C36.3045 91.5536 36.641 90.5708 36.6269 89.5616Z" fill="#E45940"/><path d="M14.9567 182.555C14.9567 182.555 14.1049 188.217 14.9567 189.044C15.8085 189.871 27.6331 190.697 28.6602 189.67C29.6874 188.643 29.1613 186.839 26.6811 186.063C24.2009 185.286 22.7229 186.063 21.0694 185.186C19.416 184.309 19.9421 181.829 19.9421 181.829L14.9567 182.555Z" fill="#110239"/><path d="M34.8258 182.555C34.8258 182.555 33.9741 188.217 34.8258 189.044C35.6776 189.871 47.5022 190.697 48.5294 189.67C49.5565 188.643 49.0304 186.839 46.5502 186.063C44.0701 185.286 42.592 186.063 40.9386 185.186C39.2851 184.309 39.8112 181.829 39.8112 181.829L34.8258 182.555Z" fill="#110239"/><path d="M13.0998 150.639C11.1308 139.989 10.1663 129.177 10.2188 118.347C12.1712 117.997 14.1742 118.048 16.1061 118.497C19.8639 119.524 23.6217 120.451 27.3545 121.403C24.9958 131.517 23.3219 141.778 22.3441 152.117C22.3441 157.278 20.9913 184.384 20.9913 184.384L14.1771 184.535C13.5258 180.426 13.3253 152.017 13.0998 150.639Z" fill="#FD425F"/><path d="M21.3696 119.975C23.3487 120.551 25.3779 120.952 27.3821 121.328C25.0553 131.431 23.3817 141.673 22.3717 151.992C21.0439 149.486 15.9833 140.493 13.1775 133.679C11.2909 129.126 10.3041 124.251 10.2715 119.324C13.9761 118.77 17.7552 118.992 21.3696 119.975Z" fill="#E01F41"/><path d="M16.7839 118.272C19.2891 119.023 23.8988 120.05 27.381 121.127C30.0115 127.065 37.4019 142.823 38.7297 149.136C40.6587 157.854 40.6837 183.908 40.6837 183.908H34.07C34.07 183.908 29.5605 154.397 28.7589 152.343C25.5522 144.075 19.665 138.338 17.3852 134.43C14.0045 129.084 11.7063 123.126 10.6211 116.894C12.5752 117.47 14.6545 117.67 16.7839 118.272Z" fill="#FD425F"/><path d="M32.9166 95.975C34.3446 93.1441 33.2173 91.1399 36.2235 92.1169C41.234 93.7203 45.8686 104.342 48.7496 105.044C52.7079 105.996 67.3634 100.935 67.3634 100.935L68.8665 104.668C68.8665 104.668 49.5513 113.111 46.3195 112.309C43.0878 111.507 34.8457 102.463 32.8165 99.4071C32.5174 98.8807 32.3685 98.2822 32.3862 97.677C32.4038 97.0718 32.5873 96.4831 32.9166 95.975Z" fill="#D0D1DE"/><path d="M32.9166 95.975C34.3446 93.1441 33.2173 91.1399 36.2235 92.1169C41.234 93.7203 45.8686 104.342 48.7496 105.044C52.7079 105.996 67.3634 100.935 67.3634 100.935L68.8665 104.668C68.8665 104.668 49.5513 113.111 46.3195 112.309C43.0878 111.507 34.8457 102.463 32.8165 99.4071C32.5174 98.8807 32.3685 98.2822 32.3862 97.677C32.4038 97.0718 32.5873 96.4831 32.9166 95.975Z" fill="#B8B9CD"/><path d="M30.0396 125.587C26.0437 125.302 22.0933 124.563 18.2652 123.382C13.9812 121.954 10.2985 119.549 9.69727 117.72C9.69727 117.72 16.4614 100.184 21.1461 94.0709C22.2889 92.3988 23.7726 90.9875 25.4997 89.9296C27.2268 88.8718 29.1582 88.1914 31.167 87.9331C33.15 89.7543 35.5111 91.1146 38.0814 91.9164C38.0814 91.9164 35.0501 105.019 33.5971 110.205C32.1441 115.39 30.0396 125.587 30.0396 125.587Z" fill="#D0D1DE"/><path d="M28.5588 105.545C28.1918 102.618 28.3444 99.6501 29.0097 96.7767C29.2853 97.0021 29.586 97.2276 29.8365 97.4781C31.3129 99.0643 33.0498 100.386 34.9722 101.386C35.2218 101.496 35.4821 101.58 35.7488 101.637C34.9972 104.818 34.1955 108.025 33.6193 110.054C32.1913 115.215 29.9366 125.436 29.9366 125.436C29.9366 125.436 28.2582 125.436 25.8281 124.985C28.5588 119.349 28.7592 112.084 28.5588 105.545Z" fill="#B8B9CD"/><path d="M36.0779 71.3737C36.0779 71.3737 40.7877 68.0668 43.5936 69.8706C46.3994 71.6743 47.9527 73.2025 47.7021 74.5303C47.1157 76.6048 46.705 78.725 46.4745 80.8685C46.7968 82.326 46.9813 83.8106 47.0257 85.3027C46.7 85.7787 44.9464 85.0272 44.7209 85.3027C44.4955 85.5783 41.5142 88.6848 40.6875 88.7349C38.2423 86.9076 36.4786 84.3149 35.677 81.3695C35.8023 79.1148 34.2741 74.1545 36.0779 71.3737Z" fill="#F88667"/><path d="M41.8888 75.0565C42.2646 76.0585 43.7176 77.7871 47.5756 78.1128C51.4337 78.4385 54.0391 70.5972 47.3251 67.5909C40.6111 64.5846 39.6341 66.9646 38.1811 66.8143C37.4762 66.683 36.7514 66.7045 36.0556 66.8774C35.3598 67.0503 34.7091 67.3705 34.1477 67.8164C32.8268 68.7947 31.8854 70.2003 31.4835 71.7941C31.0816 73.388 31.244 75.0719 31.9431 76.5596C33.4713 80.9437 35.751 81.57 35.751 81.57C36.3272 80.8435 37.0036 79.4406 36.5276 78.664C36.2232 78.3178 35.9701 77.9297 35.7761 77.5116C35.6905 77.2107 35.706 76.89 35.8204 76.5988C35.9348 76.3076 36.1416 76.062 36.4091 75.8998C36.6766 75.7376 36.99 75.6677 37.3011 75.7009C37.6122 75.7341 37.9037 75.8686 38.131 76.0836C38.7823 76.5846 38.4316 78.0377 38.607 78.7141C38.7823 79.3905 39.133 79.5157 39.4337 79.5408C39.7343 79.5658 41.1122 78.3633 40.9368 76.3091C40.8116 75.0063 41.488 74.0544 41.8888 75.0565Z" fill="#110239"/><path d="M60.1767 125.937C60.4175 125.976 60.653 126.044 60.8781 126.138C61.3563 126.417 61.9032 126.555 62.4564 126.539C63.4 126.443 64.3529 126.572 65.2373 126.914C65.6381 127.14 67.9679 128.743 66.9408 129.42C66.7522 129.532 66.5337 129.585 66.3145 129.57L65.4627 128.793C65.6735 128.966 65.8665 129.159 66.0389 129.369C66.1449 129.478 66.2299 129.606 66.2894 129.745C66.2844 129.908 66.2208 130.064 66.1104 130.183C65.9999 130.303 65.85 130.379 65.6882 130.397C65.4377 130.397 65.3625 130.096 65.2122 129.921C65.3374 130.121 65.6631 130.372 65.2122 130.823C64.7612 131.273 64.661 130.823 64.4356 130.823L64.2101 130.597C64.2101 130.597 64.5609 130.998 64.611 131.098C64.6611 131.198 63.9596 131.9 63.5087 131.649C63.0577 131.399 62.7069 130.823 62.5316 130.797L61.9053 130.647C61.2991 130.447 60.7552 130.093 60.327 129.62L59.5253 128.843C59.2426 128.541 58.9987 128.204 58.7988 127.841C59.4499 127.37 59.9328 126.703 60.1767 125.937Z" fill="#F88667"/><path d="M59.0496 129.52L62.1059 125.436C62.1059 125.436 51.0328 114.94 46.8742 109.754C42.7155 104.568 38.7322 94.522 35.275 93.5449C31.8178 92.5679 28.035 94.1462 29.5381 99.2819C31.0412 104.418 40.7614 112.059 42.6403 114.464C47.8393 119.77 53.3168 124.796 59.0496 129.52Z" fill="#D0D1DE"/></svg>