<svg width="244" height="184" viewBox="0 0 244 184" fill="none" xmlns="http://www.w3.org/2000/svg"><path d="M155.712 178.728H116.406L119.65 131.339H152.468L155.712 178.728Z" fill="#110239"/><path d="M160.85 171.132C160.606 170.79 160.287 170.509 159.916 170.312C159.545 170.115 159.134 170.007 158.714 169.997H113.379C112.962 169.998 112.551 170.102 112.183 170.301C111.815 170.499 111.502 170.784 111.271 171.132L105.324 179.999C105.106 180.394 104.99 180.836 104.986 181.287C104.983 181.738 105.093 182.182 105.305 182.58C105.517 182.977 105.825 183.315 106.202 183.563C106.578 183.811 107.01 183.962 107.459 184H164.661C165.11 183.962 165.543 183.811 165.919 183.563C166.295 183.315 166.603 182.977 166.816 182.58C167.028 182.182 167.137 181.738 167.134 181.287C167.131 180.836 167.015 180.394 166.797 179.999L160.85 171.132Z" fill="#110239"/><path d="M232.271 0.0933838H39.8222C33.7158 0.0933838 28.7656 5.04357 28.7656 11.1499V132.88C28.7656 138.987 33.7158 143.937 39.8222 143.937H232.271C238.378 143.937 243.328 138.987 243.328 132.88V11.1499C243.328 5.04357 238.378 0.0933838 232.271 0.0933838Z" fill="#110239"/><path d="M233.461 9.63586H38.6602V132.934H233.461V9.63586Z" fill="#3976F4"/><path d="M228.593 23.0445H43.5234V132.907H228.593V23.0445Z" fill="#3976F4"/><path d="M228.593 23.0445H43.5234V32.1277H228.593V23.0445Z" fill="#FEFEFE"/><path d="M219.619 61.783H162.146V69.3793H219.619V61.783Z" fill="#FEFEFE"/><path d="M219.619 75.1913H162.146V82.7876H219.619V75.1913Z" fill="#FEFEFE"/><path d="M219.619 88.627H162.146V96.2233H219.619V88.627Z" fill="#FEFEFE"/><path d="M118.055 41.2649H60.582V48.8612H118.055V41.2649Z" fill="#FEFEFE"/><path d="M118.055 54.6732H60.582V62.2695H118.055V54.6732Z" fill="#FEFEFE"/><path d="M115.378 57.0253H6.86645C5.96474 57.0253 5.07186 57.2029 4.23878 57.548C3.40571 57.893 2.64876 58.3988 2.01115 59.0364C1.37355 59.674 0.867782 60.431 0.522712 61.264C0.177642 62.0971 0 62.99 0 63.8917V98.8996C0 99.8013 0.177642 100.694 0.522712 101.527C0.867782 102.36 1.37355 103.117 2.01115 103.755C2.64876 104.393 3.40571 104.898 4.23878 105.243C5.07186 105.589 5.96474 105.766 6.86645 105.766H74.8549L100.753 127.798L88.4525 105.766H115.486C117.309 105.766 119.059 105.044 120.351 103.757C121.643 102.47 122.372 100.723 122.379 98.8996V63.8917C122.376 62.9796 122.191 62.0772 121.837 61.2368C121.482 60.3965 120.964 59.6348 120.312 58.9962C119.661 58.3575 118.89 57.8545 118.043 57.5161C117.196 57.1778 116.29 57.0109 115.378 57.0253Z" fill="#FD425F"/><path d="M113.996 66.4597H40.8711V70.6769H113.996V66.4597Z" fill="#fff"/><path d="M113.996 75.0563H40.8711V79.2735H113.996V75.0563Z" fill="#fff"/><path d="M113.996 83.653H40.8711V87.8702H113.996V83.653Z" fill="#fff"/><path d="M89.3956 92.2224H40.8711V96.4396H89.3956V92.2224Z" fill="#fff"/><path d="M35.0879 80.6522C35.0879 83.4431 34.2603 86.1714 32.7097 88.492C31.1591 90.8126 28.9553 92.6213 26.3767 93.6893C23.7982 94.7574 20.9609 95.0369 18.2236 94.4924C15.4862 93.9479 12.9718 92.6039 10.9983 90.6304C9.02483 88.6569 7.68089 86.1425 7.1364 83.4051C6.59191 80.6678 6.87131 77.8305 7.93936 75.252C9.00741 72.6735 10.8161 70.4696 13.1367 68.919C15.4573 67.3685 18.1856 66.5408 20.9765 66.5408C22.8297 66.5408 24.6647 66.9059 26.3767 67.615C28.0888 68.3242 29.6444 69.3637 30.9548 70.674C32.2651 71.9844 33.3046 73.54 34.0137 75.252C34.7229 76.9641 35.0879 78.799 35.0879 80.6522Z" fill="#110239"/><path d="M20.9758 80.5711C23.1705 80.5711 24.9497 78.7314 24.9497 76.462C24.9497 74.1927 23.1705 72.353 20.9758 72.353C18.7811 72.353 17.002 74.1927 17.002 76.462C17.002 78.7314 18.7811 80.5711 20.9758 80.5711Z" fill="#fff"/><path d="M21.0557 81.1118H20.9206C19.0421 81.1118 17.2406 81.858 15.9123 83.1863C14.5841 84.5145 13.8379 86.316 13.8379 88.1944V92.709C15.9885 94.0172 18.4573 94.7091 20.9746 94.7091C23.4919 94.7091 25.9608 94.0172 28.1114 92.709V88.1944C28.115 87.2656 27.9351 86.3452 27.5821 85.4861C27.2291 84.6269 26.7099 83.8459 26.0544 83.1878C25.3988 82.5298 24.6199 82.0076 23.7621 81.6514C22.9043 81.2951 21.9845 81.1117 21.0557 81.1118Z" fill="#fff"/><path d="M216.616 108.523H173.552C170.059 108.523 167.227 111.356 167.227 114.849V119.877C167.227 123.371 170.059 126.203 173.552 126.203H216.616C220.11 126.203 222.942 123.371 222.942 119.877V114.849C222.942 111.356 220.11 108.523 216.616 108.523Z" fill="#FD425F"/><path d="M189.504 115.2C189.508 115.635 189.363 116.057 189.092 116.397C188.821 116.736 188.442 116.973 188.018 117.066C188.528 117.145 188.992 117.409 189.321 117.808C189.65 118.206 189.821 118.712 189.802 119.228C189.802 120.715 188.504 121.634 186.477 121.634H182.232V113.011H186.314C188.288 113.011 189.504 113.876 189.504 115.2ZM187.207 115.579C187.207 115.065 186.828 114.768 186.206 114.768H184.476V116.444H186.206C186.828 116.444 187.207 116.255 187.207 115.579ZM187.477 118.958C187.477 118.417 186.99 118.066 186.206 118.066H184.476V119.877H186.206C186.99 119.877 187.477 119.553 187.477 118.958Z" fill="#fff"/><path d="M194.88 119.823C195.114 119.833 195.348 119.791 195.565 119.701C195.781 119.612 195.976 119.476 196.136 119.304C196.295 119.132 196.415 118.927 196.488 118.704C196.56 118.481 196.583 118.245 196.556 118.012V113.011H198.8V118.012C198.717 119.006 198.265 119.932 197.531 120.608C196.797 121.283 195.837 121.658 194.839 121.658C193.842 121.658 192.881 121.283 192.148 120.608C191.414 119.932 190.961 119.006 190.879 118.012V113.011H193.123V118.012C193.103 118.25 193.135 118.49 193.215 118.715C193.296 118.94 193.424 119.145 193.59 119.316C193.756 119.488 193.958 119.622 194.18 119.709C194.403 119.797 194.641 119.835 194.88 119.823Z" fill="#fff"/><path d="M204.855 118.958V121.661H202.612V118.958L199.422 113.038H201.666L203.72 116.741L205.721 113.038H207.964L204.855 118.958Z" fill="#fff"/><path d="M142.624 52.4296C139.753 52.944 136.825 53.0713 133.92 52.8081C132.879 52.7018 131.854 52.475 130.865 52.1323C131 55.7547 131.027 64.2702 128.459 67.7845C128.459 67.7845 129.378 71.9476 136.92 72.0828C144.463 72.2179 145.301 66.5139 145.301 66.5139C143.967 61.914 143.071 57.1982 142.624 52.4296Z" fill="#F88667"/><path d="M128.49 67.9196V68.217C128.556 68.3692 128.638 68.5142 128.733 68.6496L129.112 69.1902C129.508 69.6447 129.962 70.0447 130.463 70.3797C130.791 70.587 131.134 70.7678 131.491 70.9204H131.626C132.059 71.0981 132.501 71.2514 132.951 71.3799C133.179 69.4084 133.946 67.5379 135.167 65.9732C137.283 63.312 140.323 61.5457 143.683 61.0262C142.961 58.1082 142.5 55.1318 142.304 52.1323C139.432 52.6467 136.505 52.774 133.599 52.5107C132.558 52.4045 131.533 52.1777 130.545 51.8349C130.68 55.4573 130.707 63.9728 128.139 67.4871V67.6223L128.49 67.9196Z" fill="#E45940"/><path d="M132.164 32.0735C132.164 32.0735 144.545 28.424 146.491 31.4247C148.438 34.4254 148.113 39.2373 148.924 41.3729C149.735 43.5085 152.817 45.7523 153.141 46.5903C153.466 47.4283 151.087 49.0774 150.762 49.7532C150.438 50.429 149.195 57.4036 147.032 58.9444C144.869 60.4853 133.38 56.4034 130.542 50.8345C127.703 45.2657 128.866 33.8577 132.164 32.0735Z" fill="#F88667"/><path d="M137.815 34.2361C137.948 36.4426 137.491 38.6449 136.49 40.6159C135.76 42.1028 139.464 46.0226 138.437 47.8338C137.734 49.0232 136.733 48.6988 135.733 46.3469C135.291 45.5586 134.582 44.9545 133.733 44.6438C130.705 43.3463 130.002 47.9419 132.706 49.3206C134.598 50.2938 133.489 55.0786 133.489 55.0786C131.435 56.6466 124.704 54.7542 125.379 49.8342C125.866 46.7254 126.055 45.5089 124.974 44.752C124.248 44.3544 123.624 43.7955 123.148 43.1185C122.673 42.4415 122.359 41.6644 122.231 40.847C122.103 40.0296 122.164 39.1938 122.41 38.4038C122.656 37.6139 123.08 36.8909 123.649 36.2906C128.164 31.8031 124.055 30.3974 129.272 29.0998C134.49 27.8022 138.95 30.9921 137.815 34.2361Z" fill="#110239"/><path d="M128.57 31.6141C128.868 30.4787 130.922 28.9107 131.949 28.2349C133.579 27.0905 135.415 26.2734 137.356 25.829C139.301 25.3337 141.331 25.2691 143.303 25.6397C144.979 25.9641 146.412 26.721 148.142 26.9103C148.878 27.0781 149.64 27.0902 150.38 26.9459C151.12 26.8016 151.822 26.504 152.441 26.0722C152.746 27.3554 152.82 28.683 152.657 29.992C152.215 31.5595 151.461 33.0216 150.44 34.2903C148.756 36.2954 146.499 37.7377 143.972 38.4238C141.445 39.1099 138.769 39.0071 136.302 38.1291C134.072 37.5322 132.115 36.1863 130.76 34.3174C130.166 33.3143 129.428 32.4035 128.57 31.6141Z" fill="#110239"/><path d="M194.559 39.67L206.508 66.1896C206.508 66.1896 203.021 70.1093 201.858 69.2442C200.696 68.3792 182.746 46.8608 181.016 45.7254C179.285 44.59 194.559 39.67 194.559 39.67Z" fill="#110239"/><path d="M164.93 42.9678C164.93 42.9678 164.93 50.5911 169.633 52.3483C169.633 52.3483 193.531 42.4271 198.343 41.535C203.155 40.6429 220.645 40.4537 220.645 40.4537L203.019 8.96002C203.019 8.96002 194.558 25.8828 186.8 31.4246C179.843 35.8729 172.528 39.734 164.93 42.9678Z" fill="#FD425F"/><path d="M180.418 47.9692L186.23 45.6983C183.683 42.5668 181.955 38.8508 181.202 34.8851C179.39 35.9123 177.498 36.9126 175.795 37.8587C176.452 41.5668 178.043 45.0464 180.418 47.9692Z" fill="#110239"/><path d="M227.162 17.0161C232.136 29.0188 230.379 41.1567 223.215 44.0493C216.052 46.9418 206.239 39.6699 201.265 27.6672C196.29 15.6644 198.048 3.52653 205.184 0.63398C212.321 -2.25857 222.134 5.01335 227.162 17.0161Z" fill="#01C7E2"/><path d="M226.184 17.4215C230.428 27.613 228.888 37.9396 222.832 40.4807C216.777 43.0219 208.396 36.7502 204.152 26.5316C199.908 16.3131 201.449 6.01344 207.504 3.47232C213.56 0.931203 221.94 7.20291 226.184 17.4215Z" fill="#110239"/><path d="M192.991 58.7552C192.423 58.4308 192.586 56.2952 192.694 55.7275C192.802 55.1598 193.478 53.727 192.883 52.889C191.802 51.4292 190.315 55.3761 190.18 55.9438C189.792 56.7895 189.688 57.7375 189.882 58.6471C190.42 59.9366 191.2 61.1111 192.18 62.1073C192.18 62.4858 191.937 62.8913 191.802 63.3239C192.784 63.7562 193.74 64.2435 194.667 64.7836C195.83 65.4594 195.776 66.2705 196.857 67.0274L197.938 64.5403C196.428 62.4974 194.775 60.5642 192.991 58.7552Z" fill="#F88667"/><path d="M200.639 50.0776C199.612 48.9692 197.936 49.4018 196.746 50.3209C195.557 51.24 193.205 53.0242 193.908 54.6462C194.611 56.2682 197.882 53.0783 197.882 53.0783C196.638 54.1596 194.313 55.0247 194.908 56.079C195.503 57.1333 198.504 55.5924 199.152 55.1058C198.504 55.268 195.206 57.2684 196.449 58.3227C197.693 59.377 199.801 57.5387 200.504 57.0251C199.531 57.3225 198.206 58.1875 198.477 59.5392C198.909 60.2691 200.369 59.7825 201.18 59.5392C202.423 59.0255 203.586 58.8363 203.694 57.2955C203.694 57.0251 203.694 56.7548 203.694 56.4574C203.58 55.2836 203.211 54.1489 202.613 53.1323C202.076 52.041 201.413 51.0159 200.639 50.0776Z" fill="#F88667"/><path d="M74.8293 58.8903C74.2459 57.9709 73.7825 56.9807 73.4506 55.9437C73.1532 55.0786 72.9369 54.1595 72.6125 53.2404C72.2608 52.38 72.0597 51.4656 72.0178 50.537C72.0869 49.9982 72.1953 49.4651 72.3422 48.9421C72.5314 48.2663 72.7747 47.6174 72.9099 46.9416C73.045 46.2658 72.9099 45.7251 73.0991 45.1304C73.2732 43.9648 73.629 42.8337 74.1535 41.7783C74.5961 41.0262 75.1122 40.3199 75.6943 39.6697C75.9623 39.3196 76.2609 38.9939 76.5864 38.6965C76.964 38.4476 77.2564 38.0891 77.4244 37.6692C77.4743 37.5365 77.4955 37.3947 77.4864 37.2532C77.4773 37.1117 77.4382 36.9737 77.3717 36.8484C77.3053 36.7231 77.213 36.6134 77.1009 36.5266C76.9888 36.4397 76.8594 36.3777 76.7216 36.3446C76.1041 36.2295 75.4675 36.2733 74.8717 36.472C74.2758 36.6706 73.7403 37.0175 73.3154 37.48C72.4233 38.6965 71.9908 40.1833 70.9905 41.4269C67.9358 45.0763 65.0433 40.778 61.4749 39.2371C60.2546 38.5978 59.0962 37.8467 58.0146 36.9934C57.3929 36.5068 54.6355 33.9116 53.3379 34.5874C52.0403 35.2633 54.257 37.2908 55.1491 37.8044C55.5276 38.0207 58.5823 40.5077 58.9878 40.6429C57.1158 39.8617 55.3816 38.7847 53.8515 37.453C52.4728 36.3987 51.1482 35.3444 50.4183 35.9391C48.1475 37.8044 57.0955 42.0757 57.7714 42.4812C57.0415 42.4812 50.0398 37.5882 49.391 39.3994C49.0126 40.3996 50.4724 41.3998 51.6618 42.1027C52.8513 42.8056 55.6357 43.4814 56.2034 43.9139C55.1491 44.2924 50.5264 41.2106 50.5264 43.0488C50.5264 44.3194 53.392 45.2385 54.4733 45.59C55.5546 45.9414 58.8527 48.2933 59.8799 48.6447C63.3402 50.2937 64.7459 50.1045 66.1246 52.159C66.9897 53.4836 68.5305 60.4582 69.8011 63.1074L74.8293 58.8903Z" fill="#F88667"/><path d="M191.067 62.3235C187.985 71.2985 181.389 87.167 179.199 86.0586C175.117 83.9771 166.358 76.7863 159.789 72.4069C157.393 70.7008 154.841 69.2254 152.166 68.0005L156.735 89.627C156.735 89.627 178.361 106.063 182.903 103.549C186.471 101.576 195.257 76.5159 198.366 66.2163L191.067 62.3235Z" fill="#01C7E2"/><path d="M169.608 93.2226C165.189 88.163 160.429 83.4121 155.361 79.0031L156.064 89.2757C156.064 89.2757 177.907 105.685 182.719 103.63C177.864 100.819 173.447 97.3128 169.608 93.2226Z" fill="#00A7CC"/><path d="M115.43 69.1359C115.43 69.1359 88.8027 79.9492 85.8831 79.1382C82.9635 78.3272 73.4478 50.9156 73.4478 50.9156L65.3379 54.2136C65.3379 54.2136 73.9344 93.7902 79.5032 95.6555C85.0721 97.5208 118.08 87.951 118.08 87.951C118.269 81.5745 117.373 75.2122 115.43 69.1359Z" fill="#01C7E2"/><path d="M92.6973 93.1954C90.3724 94.0334 87.9665 94.8444 85.5605 95.5473C96.503 93.6027 107.332 91.0669 118 87.9509C118.109 84.5886 117.919 81.2233 117.433 77.8946C110.493 84.8539 102.023 90.0938 92.6973 93.1954Z" fill="#00A7CC"/><path d="M213.561 24.7204C213.115 23.0097 212.015 21.5421 210.499 20.6325C208.983 19.7228 207.171 19.4435 205.451 19.8545C204.372 20.2389 203.431 20.9351 202.748 21.8549C203.779 26.1495 205.695 30.1821 208.371 33.6955C208.894 33.6942 209.414 33.6121 209.912 33.4521C211.547 32.7698 212.847 31.4705 213.53 29.8359C214.213 28.2013 214.224 26.3633 213.561 24.7204Z" fill="#FEFEFE"/><path d="M115.461 101.522C114.542 110.767 113.785 130.204 113.244 132.907H156.93C157.635 118.496 157.572 104.058 156.741 89.6542C156.169 82.2767 154.633 75.0059 152.172 68.0276C152.172 68.0276 148.901 67.0004 145.035 65.5135C145.035 65.5135 136.925 70.4066 129.491 65.5135C129.491 65.5135 115.975 68.7305 114.353 69.4874C112.731 70.2444 116.461 91.6546 115.461 101.522Z" fill="#01C7E2"/><path d="M127.031 114.173C126.983 109.855 126.13 105.582 124.517 101.576C124.134 100.715 123.87 99.8052 123.733 98.8726C123.516 96.6221 122.884 94.4314 121.867 92.4117C120.894 90.9248 119.894 89.4651 118.948 87.9783C118.407 87.2484 117.839 86.4914 117.218 85.5723C116.221 84.0612 115.318 82.4904 114.514 80.8685C115.294 87.76 115.601 94.6966 115.434 101.63C114.514 110.875 113.757 130.312 113.217 133.016H133.546C130.888 129.261 128.954 125.044 127.842 120.58C127.264 118.495 126.99 116.337 127.031 114.173Z" fill="#00A7CC"/></svg>