<svg width="223" height="211" viewBox="0 0 223 211" fill="none" xmlns="http://www.w3.org/2000/svg"><path d="M199.014 18.4866C199.014 18.4866 209.99 20.9095 222.685 31.9821L207.47 59.7241C203.15 55.5549 197.756 52.6691 191.891 51.3894L199.014 18.4866Z" fill="#FD425F"/><path d="M201.752 36.101C203.084 31.2552 204.175 26.0945 205.459 21.1033C203.377 20.0743 201.223 19.1997 199.014 18.4866L191.891 51.3894C195.864 47.9246 196.93 49.2572 197.633 48.9665C198.82 44.6053 200.613 40.341 201.752 36.101Z" fill="#E42244"/><path d="M139.533 3.36788C139.533 3.36788 182.515 -0.920633 206.405 11.4361L197.634 48.8938C197.634 48.8938 176.555 37.5548 141.568 42.4005L139.533 3.36788Z" fill="#FD425F"/><path d="M142.927 0H139.486V147.311H142.927V0Z" fill="#110239"/><path d="M145.565 142.877H136.867V149.783H145.565V142.877Z" fill="#110239"/><path d="M148.959 148.28H133.477V151.745H148.959V148.28Z" fill="#110239"/><path d="M77.9668 65.1998V89.7437H84.0967V72.4443C84.0967 71.6025 84.4311 70.7952 85.0263 70.1999C85.6216 69.6047 86.4289 69.2703 87.2707 69.2703H113.607C114.445 69.2767 115.246 69.6139 115.836 70.2085C116.426 70.803 116.757 71.6067 116.757 72.4443V89.7437H122.887V65.1998C122.89 64.7842 122.811 64.372 122.654 63.987C122.497 63.6021 122.266 63.252 121.973 62.957C121.68 62.6619 121.332 62.4277 120.948 62.2679C120.565 62.1081 120.153 62.0259 119.737 62.0259H81.1408C80.299 62.0259 79.4917 62.3603 78.8965 62.9555C78.3012 63.5507 77.9668 64.3581 77.9668 65.1998Z" fill="#D0D1DE"/><path d="M190.124 81.433H10.7576C4.81635 81.433 0 86.2494 0 92.1906V199.815C0 205.756 4.81635 210.573 10.7576 210.573H190.124C196.065 210.573 200.881 205.756 200.881 199.815V92.1906C200.881 86.2494 196.065 81.433 190.124 81.433Z" fill="#110239"/><path d="M200.88 117.413V92.1907C200.88 90.7759 200.601 89.375 200.058 88.0683C199.516 86.7615 198.722 85.5746 197.72 84.5753C196.719 83.5761 195.53 82.7842 194.222 82.245C192.914 81.7058 191.513 81.4299 190.098 81.4331H10.8045C7.95139 81.4331 5.21514 82.5664 3.1977 84.5839C1.18026 86.6013 0.046875 89.3376 0.046875 92.1907V117.413C0.046875 124.764 2.96715 131.814 8.16525 137.012C13.3633 142.21 20.4134 145.131 27.7647 145.131H173.138C180.491 145.131 187.544 142.211 192.746 137.014C197.948 131.816 200.873 124.766 200.88 117.413Z" fill="#453964"/><path d="M106.825 139.316H94.0566V153.829H106.825V139.316Z" fill="#D0D1DE"/><path d="M102.486 146.269H98.3672V149.855H102.486V146.269Z" fill="#110239"/><path d="M48.0454 17.469H41.3098C41.3098 17.469 40.3407 26.6275 38.5962 27.7178C38.5962 27.7178 36.4156 38.5481 44.6777 38.5481C54.6599 38.5481 50.7591 27.7178 50.7591 27.7178C49.0147 26.6275 48.0454 17.469 48.0454 17.469Z" fill="#F88667"/><path d="M48.0454 17.469H41.3098C41.3098 17.469 40.3407 26.6275 38.5962 27.7178C38.5962 27.7178 36.4156 38.5481 44.6777 38.5481C54.6599 38.5481 50.7591 27.7178 50.7591 27.7178C49.0147 26.6275 48.0454 17.469 48.0454 17.469Z" fill="#E45940"/><path d="M53.426 19.262C52.4811 18.1959 51.3666 19.8435 51.3666 19.8435C51.3666 19.8435 52.893 13.7863 51.3666 11.1211C49.8402 8.45594 44.849 9.86123 44.849 9.86123C44.849 9.86123 39.8579 8.45594 38.3315 11.1211C36.8051 13.7863 38.3315 19.8435 38.3315 19.8435C38.3315 19.8435 37.2169 18.1959 36.272 19.262C35.3271 20.3281 37.8226 23.0417 38.3799 23.3809C38.3799 23.3809 41.9658 30.0923 44.849 30.0923C47.7323 30.0923 51.3181 23.3809 51.3181 23.3809C51.8754 23.0417 54.3467 20.3523 53.426 19.262Z" fill="#F88667"/><path d="M43.6139 12.2598C43.6139 12.2598 39.8342 12.9382 39.4223 14.9492C39.3048 15.9622 39.3705 16.9881 39.6162 17.9778C39.816 19.0818 39.9293 20.1997 39.9554 21.3214C39.7909 21.3806 39.611 21.3806 39.4466 21.3214C38.9613 20.8702 38.5377 20.3569 38.1867 19.795C37.4598 18.7289 36.4422 18.8985 36.1272 19.5769C36.1272 19.5769 35.3034 9.64308 39.4466 9.27964C43.5897 8.91621 43.6139 12.2598 43.6139 12.2598Z" fill="#110239"/><path d="M46.0332 12.2598C46.0332 12.2598 49.8129 12.9382 50.2248 14.9492C50.367 15.9614 50.301 16.992 50.0309 17.9778C49.8254 19.0806 49.72 20.1996 49.716 21.3214C49.872 21.381 50.0445 21.381 50.2006 21.3214C50.6931 20.8706 51.1248 20.3574 51.4847 19.795C52.1873 18.7289 53.2292 18.8985 53.5199 19.5769C53.5199 19.5769 54.3679 9.64308 50.2006 9.27964C46.0332 8.91621 46.0332 12.2598 46.0332 12.2598Z" fill="#110239"/><path d="M52.2614 10.5881C52.1087 9.86057 51.7821 9.18082 51.3095 8.60699C50.837 8.03316 50.2325 7.58231 49.5477 7.29298C47.0002 6.25527 44.182 6.08499 41.528 6.80841C40.6141 6.93424 39.7499 7.30055 39.0239 7.86986C38.298 8.43918 37.7362 9.19108 37.3961 10.0487C37.0561 10.9063 36.9498 11.8388 37.0883 12.751C37.2268 13.6631 37.6051 14.522 38.1844 15.24C38.8159 15.8737 39.5737 16.3674 40.4086 16.6888C41.2435 17.0103 42.1368 17.1523 43.0302 17.1057C50.3473 17.1057 53.3032 12.8172 52.2614 10.5881Z" fill="#110239"/><path d="M50.8791 27.7179C50.5157 36.9249 44.7977 35.98 44.7977 35.98C44.7977 35.98 39.0555 36.9249 38.7163 27.7179C33.9738 29.0111 29.4026 30.8656 25.0996 33.2421C26.3123 38.8179 26.9858 44.4975 27.1106 50.2023L32.3441 70.4576L44.7977 71.0875L57.2271 70.4576L62.4605 50.2023C62.5862 44.4962 63.2678 38.8159 64.4957 33.2421C60.1909 30.8695 55.6202 29.0152 50.8791 27.7179Z" fill="#00BAD1"/><path d="M61.448 38.5723C55.7542 41.6009 52.9921 48.5788 47.468 51.9951C41.9438 55.4114 37.7765 48.385 34.9417 44.7265C32.6075 41.515 29.4408 39.0018 25.7832 37.4578C26.5139 41.6929 26.9189 45.9778 26.9946 50.2748L32.228 70.5301L44.6817 71.1601L57.1111 70.5301L62.3445 50.2748C62.4296 46.0437 62.8264 41.8245 63.5317 37.6516C62.8048 37.8939 62.1021 38.2089 61.448 38.5723Z" fill="#00547A" opacity=".32"/><path d="M67.838 78.6711C67.838 71.5478 59.0187 66.8716 59.0187 66.8716H29.29C29.29 66.8716 20.4707 71.5478 20.4707 78.6711C20.5638 80.5117 20.7986 82.3423 21.1733 84.1468H31.0344C30.6225 84.8737 30.2591 85.5521 29.9684 86.1335C29.8888 86.3 29.7999 86.4618 29.7019 86.6181H36.8493C37.4066 86.6181 37.237 86.8362 37.0674 86.0366C36.8978 85.2371 36.1467 84.2679 36.8493 83.0807C38.0282 82.0454 39.5224 81.4391 41.0894 81.3605H41.792C43.3427 81.3605 44.8691 81.3605 46.4198 81.3605C47.0086 81.4061 47.5924 81.5034 48.1642 81.6512C48.6488 81.6512 50.151 81.6512 50.7809 82.4508C51.1087 82.965 51.2851 83.5612 51.2898 84.171C51.2702 84.9848 51.181 85.7953 51.0232 86.5939H59.9879C59.3736 85.8161 58.7994 85.0074 58.2676 84.171H67.0385C67.447 82.3612 67.7143 80.5223 67.838 78.6711Z" fill="#FD425F"/><path d="M67.838 78.6711C67.838 71.5478 59.0187 66.8716 59.0187 66.8716H29.29C29.29 66.8716 20.4707 71.5478 20.4707 78.6711C20.5638 80.5117 20.7986 82.3423 21.1733 84.1468H31.0344C30.6225 84.8737 30.2591 85.5521 29.9684 86.1335C29.8888 86.3 29.7999 86.4618 29.7019 86.6181H36.8493C37.4066 86.6181 37.237 86.8362 37.0674 86.0366C36.8978 85.2371 36.1467 84.2679 36.8493 83.0807C38.0282 82.0454 39.5224 81.4391 41.0894 81.3605H41.792C43.3427 81.3605 44.8691 81.3605 46.4198 81.3605C47.0086 81.4061 47.5924 81.5034 48.1642 81.6512C48.6488 81.6512 50.151 81.6512 50.7809 82.4508C51.1087 82.965 51.2851 83.5612 51.2898 84.171C51.2702 84.9848 51.181 85.7953 51.0232 86.5939H59.9879C59.3736 85.8161 58.7994 85.0074 58.2676 84.171H67.0385C67.447 82.3612 67.7143 80.5223 67.838 78.6711Z" fill="#BD1337"/><path d="M24.9812 33.3631C24.9812 33.3631 13.6664 57.8343 14.4902 61.0809C14.684 61.9047 28.446 70.2152 34.9393 69.0038L37.5802 68.5191C37.5802 68.5191 27.9614 33.0724 24.9812 33.3631Z" fill="#00BAD1"/><path d="M64.349 33.3631C64.349 33.3631 75.6639 57.8343 74.8401 61.0809C74.6221 61.9047 60.8601 70.2152 54.391 69.0038L51.75 68.5191C51.75 68.5191 61.3689 33.0724 64.349 33.3631Z" fill="#00BAD1"/><path d="M29.3898 41.7947C29.4157 43.03 29.3101 44.2645 29.0748 45.4775C28.0814 49.8871 26.5065 54.4906 28.1541 58.9972C29.59 62.4941 31.2994 65.8724 33.2664 69.1006C33.8668 69.1345 34.469 69.0938 35.0593 68.9794L37.7003 68.4949C37.7003 68.4949 33.1695 52.2131 29.3898 41.7947Z" fill="#00547A" opacity=".32"/><path d="M58.1511 68.7614C59.0237 66.7013 59.4529 64.4807 59.4109 62.2438C59.2656 57.7373 59.2413 53.2307 59.4109 48.6999C59.4109 46.7616 59.411 44.8476 59.6048 43.0062C55.922 53.4003 51.8516 68.398 51.8516 68.398L54.4925 68.8826C55.709 69.0686 56.9495 69.0275 58.1511 68.7614Z" fill="#00547A" opacity=".32"/><path d="M33.3884 120.999C30.5321 124.302 27.8551 127.755 25.3687 131.345C24.5207 133.162 26.5801 135.463 29.3664 134.518C32.1527 133.574 33.8003 131.684 33.8488 130.472C33.8972 129.261 35.3752 128.607 36.0293 128.51C36.6835 128.413 40.4148 124.173 40.0513 123.01C39.5053 122.033 38.7325 121.202 37.7981 120.587L33.3884 120.999Z" fill="#000"/><path d="M54.8284 120.999C57.6847 124.302 60.3618 127.755 62.8481 131.345C63.6962 133.162 61.6367 135.463 58.8504 134.518C56.0641 133.574 54.4165 131.684 54.3681 130.472C54.3196 129.261 52.8417 128.607 52.1875 128.51C51.5333 128.413 47.8021 124.173 48.1655 123.01C48.7115 122.033 49.4843 121.202 50.4187 120.587L54.8284 120.999Z" fill="#000"/><path d="M35.8822 78.2834C35.0342 76.2481 34.8646 71.9596 29.0982 71.9596C18.0256 71.9596 20.618 80.8516 20.7876 82.16C22.4594 95.4132 30.4791 121.798 30.4791 121.798H41.6002C41.6002 121.798 37.554 89.4529 36.924 84.4617C36.7772 82.3734 36.4283 80.3043 35.8822 78.2834Z" fill="#FD425F"/><path d="M52.3586 78.2834C53.2066 76.2481 53.3762 71.9596 59.1427 71.9596C70.2395 71.9596 67.6228 80.8516 67.4532 82.16C65.7814 95.4132 57.7616 121.798 57.7616 121.798H46.6406C46.6406 121.798 50.6868 89.4529 51.3168 84.4617C51.4636 82.3734 51.8125 80.3043 52.3586 78.2834Z" fill="#FD425F"/><path d="M60.9851 68.6888H28.373V70.6271H60.9851V68.6888Z" fill="#110239"/><path d="M65.7822 46.0833H23.5757C23.2669 46.0809 22.9618 46.1514 22.6854 46.289C22.409 46.4267 22.1689 46.6276 21.9848 46.8755C21.8006 47.1234 21.6776 47.4112 21.6256 47.7156C21.5737 48.02 21.5943 48.3324 21.6858 48.6274C22.0735 51.0502 27.4038 68.9311 28.4699 68.9311H60.888C61.833 68.9311 67.2844 51.1714 67.6721 48.6274C67.7636 48.3324 67.7842 48.02 67.7323 47.7156C67.6803 47.4112 67.5573 47.1234 67.3731 46.8755C67.189 46.6276 66.9489 46.4267 66.6725 46.289C66.396 46.1514 66.091 46.0809 65.7822 46.0833Z" fill="#110239"/><path d="M46.4245 58.3915C46.4245 58.7365 46.3222 59.0738 46.1305 59.3607C45.9388 59.6475 45.6664 59.8711 45.3477 60.0032C45.0289 60.1352 44.6781 60.1697 44.3397 60.1024C44.0013 60.0351 43.6905 59.869 43.4465 59.625C43.2025 59.381 43.0364 59.0702 42.9691 58.7318C42.9017 58.3934 42.9363 58.0427 43.0684 57.7239C43.2004 57.4051 43.424 57.1327 43.7108 56.941C43.9977 56.7493 44.335 56.647 44.68 56.647C44.9091 56.647 45.136 56.6921 45.3477 56.7798C45.5593 56.8675 45.7516 56.9959 45.9136 57.1579C46.0756 57.3199 46.2041 57.5123 46.2917 57.7239C46.3794 57.9356 46.4245 58.1624 46.4245 58.3915Z" fill="#D0D1DE"/><path d="M88.1944 178.397L90.1569 184.406H96.4807L91.3684 188.137L93.3309 194.17L88.1944 190.439L83.0822 194.17L85.0204 188.137L79.9082 184.406H86.2319L88.1944 178.397Z" fill="#D0D1DE"/><path d="M110.823 178.397L112.786 184.406H119.134L113.997 188.137L115.96 194.17L110.823 190.439L105.711 194.17L107.674 188.137L102.537 184.406H108.885L110.823 178.397Z" fill="#D0D1DE"/><path d="M133.475 178.397L135.413 184.406H141.761L136.624 188.137L138.587 194.17L133.475 190.439L128.338 194.17L130.301 188.137L125.164 184.406H131.512L133.475 178.397Z" fill="#D0D1DE"/><path d="M156.107 178.397L158.07 184.406H164.394L159.281 188.137L161.22 194.17L156.107 190.439L150.971 194.17L152.933 188.137L147.797 184.406H154.145L156.107 178.397Z" fill="#D0D1DE"/><path d="M178.733 178.397L180.696 184.406H187.02L181.907 188.137L183.87 194.17L178.733 190.439L173.597 194.17L175.56 188.137L170.447 184.406H176.771L178.733 178.397Z" fill="#D0D1DE"/></svg>