<svg width="28" height="16" viewBox="0 0 28 16" fill="none" xmlns="http://www.w3.org/2000/svg"><g clip-path="url(#clip0_190_1459)"><path fill-rule="evenodd" clip-rule="evenodd" d="M26.8715 14.1997C26.8398 14.1313 26.8102 14.0746 26.7827 14.0292C26.328 13.211 25.459 12.2066 24.1763 11.0159L24.1492 10.9886L24.1356 10.9753L24.1219 10.9616H24.1081C23.5259 10.4071 23.1573 10.0343 23.0029 9.84343C22.7204 9.47984 22.6571 9.1118 22.8115 8.7389C22.9206 8.45716 23.3303 7.86215 24.0397 6.95307C24.4129 6.47129 24.7084 6.08516 24.9266 5.79425C26.5006 3.70362 27.183 2.36768 26.9737 1.7859L26.8924 1.64995C26.8377 1.5681 26.6967 1.49322 26.4695 1.42493C26.2418 1.35679 25.9508 1.34552 25.5959 1.39093L21.6659 1.41806C21.6022 1.39552 21.5113 1.39762 21.3929 1.42493C21.2746 1.45225 21.2154 1.46595 21.2154 1.46595L21.147 1.5001L21.0927 1.54112C21.0472 1.56824 20.9972 1.61595 20.9425 1.68414C20.8882 1.75209 20.8427 1.83184 20.8064 1.92271C20.3785 3.02251 19.8921 4.04505 19.3461 4.99028C19.0094 5.55391 18.7003 6.04238 18.418 6.45597C18.136 6.86941 17.8995 7.17403 17.7086 7.36929C17.5174 7.56474 17.3448 7.72133 17.1899 7.83961C17.0352 7.95794 16.917 8.00794 16.8353 7.98965C16.7533 7.97136 16.6761 7.95322 16.603 7.93507C16.4757 7.85322 16.3734 7.74191 16.2962 7.60104C16.2186 7.46017 16.1664 7.28286 16.1392 7.06926C16.112 6.85552 16.0959 6.67167 16.0914 6.51709C16.0871 6.3627 16.0891 6.14433 16.0983 5.86258C16.1078 5.5807 16.112 5.38997 16.112 5.28998C16.112 4.94453 16.1187 4.56962 16.1323 4.16515C16.146 3.76068 16.1572 3.44021 16.1665 3.20412C16.1758 2.96779 16.1801 2.71775 16.1801 2.45416C16.1801 2.19056 16.164 1.98384 16.1323 1.8338C16.1009 1.68395 16.0528 1.53849 15.9894 1.39748C15.9256 1.2566 15.8322 1.14763 15.7096 1.07027C15.5868 0.993007 15.4342 0.931692 15.2525 0.886135C14.7703 0.777115 14.1562 0.71814 13.4101 0.708971C11.718 0.690825 10.6308 0.799989 10.1486 1.03632C9.95757 1.13617 9.78469 1.2726 9.63011 1.44518C9.46631 1.64522 9.44347 1.75438 9.56172 1.77234C10.1076 1.85404 10.4941 2.0495 10.7216 2.35851L10.8036 2.52225C10.8673 2.64039 10.931 2.84955 10.9947 3.14944C11.0583 3.44933 11.0994 3.78107 11.1174 4.14447C11.1629 4.8081 11.1629 5.37617 11.1174 5.84874C11.0719 6.32149 11.0289 6.68953 10.9878 6.95312C10.9468 7.21672 10.8854 7.43032 10.8036 7.59387C10.7216 7.75748 10.6671 7.85747 10.6397 7.89376C10.6124 7.93006 10.5897 7.95293 10.5716 7.96191C10.4534 8.00718 10.3304 8.03024 10.2031 8.03024C10.0756 8.03024 9.92105 7.96654 9.73914 7.83923C9.55727 7.71192 9.36852 7.53705 9.17289 7.31433C8.97726 7.09156 8.75663 6.78026 8.51091 6.38037C8.26538 5.98049 8.01062 5.50787 7.74678 4.96253L7.52849 4.56704C7.39204 4.31261 7.20563 3.94214 6.96908 3.45597C6.73239 2.9696 6.52319 2.49914 6.34132 2.04467C6.26862 1.8538 6.15941 1.70849 6.01387 1.6085L5.94556 1.56748C5.90016 1.53118 5.82727 1.49265 5.72728 1.45158C5.62714 1.41056 5.52266 1.38114 5.4134 1.36305L1.67431 1.39017C1.29223 1.39017 1.03298 1.47665 0.89647 1.64937L0.841839 1.73108C0.814547 1.77659 0.800781 1.84927 0.800781 1.94931C0.800781 2.04931 0.828073 2.17203 0.882705 2.31734C1.42854 3.59904 2.02213 4.83513 2.66346 6.0258C3.3048 7.21648 3.86211 8.1756 4.33506 8.90231C4.8081 9.62954 5.29027 10.3159 5.78157 10.961C6.27288 11.6064 6.59808 12.02 6.7572 12.2017C6.91651 12.3838 7.04164 12.5198 7.13259 12.6107L7.47381 12.9379C7.69215 13.1561 8.01277 13.4174 8.43582 13.7218C8.85896 14.0264 9.32742 14.3263 9.84142 14.6219C10.3555 14.9171 10.9536 15.158 11.636 15.3443C12.3183 15.5307 12.9824 15.6056 13.6283 15.5695H15.1977C15.516 15.542 15.7571 15.442 15.921 15.2694L15.9753 15.2011C16.0118 15.1468 16.046 15.0626 16.0775 14.9491C16.1095 14.8355 16.1253 14.7104 16.1253 14.5742C16.116 14.1835 16.1458 13.8313 16.2139 13.5177C16.2819 13.2043 16.3594 12.968 16.4461 12.8088C16.5328 12.6498 16.6306 12.5156 16.7394 12.4068C16.8485 12.2978 16.9262 12.2318 16.9718 12.209C17.0171 12.1861 17.0533 12.1706 17.0806 12.1613C17.2989 12.0886 17.5558 12.159 17.8518 12.3728C18.1475 12.5864 18.4249 12.8502 18.6843 13.1636C18.9436 13.4773 19.2552 13.8293 19.619 14.2201C19.9831 14.611 20.3014 14.9016 20.5742 15.0927L20.847 15.2563C21.0292 15.3655 21.2658 15.4655 21.557 15.5564C21.8476 15.6472 22.1023 15.6699 22.3209 15.6245L25.8142 15.5701C26.1598 15.5701 26.4286 15.5129 26.6193 15.3995C26.8104 15.2859 26.9239 15.1607 26.9606 15.0246C26.9971 14.8883 26.999 14.7337 26.9675 14.5608C26.9351 14.3884 26.9032 14.2678 26.8715 14.1997Z" fill="currentColor"/></g><defs><clipPath id="clip0_190_1459"><path fill="currentColor" transform="translate(.8 .671)" d="M0 0H26.24V14.995H0z"/></clipPath></defs></svg>