<svg xmlns="http://www.w3.org/2000/svg" style="border: 0 !important; clip: rect(0 0 0 0) !important; height: 1px !important; margin: -1px !important; overflow: hidden !important; padding: 0 !important; position: absolute !important; width: 1px !important;" class="root-svg-symbols-element">
  <defs>
      <filter id="filter0_d_415_5" x="0" y="60" width="145" height="145" filterUnits="userSpaceOnUse" color-interpolation-filters="sRGB"><feFlood flood-opacity="0" result="BackgroundImageFix"/><feColorMatrix in="SourceAlpha" values="0 0 0 0 0 0 0 0 0 0 0 0 0 0 0 0 0 0 127 0" result="hardAlpha"/><feOffset dy="5"/><feGaussianBlur stdDeviation="7.5"/><feComposite in2="hardAlpha" operator="out"/><feColorMatrix values="0 0 0 0 0.133333 0 0 0 0 0.133333 0 0 0 0 0.133333 0 0 0 0.05 0"/><feBlend in2="BackgroundImageFix" result="effect1_dropShadow_415_5"/><feBlend in="SourceGraphic" in2="effect1_dropShadow_415_5" result="shape"/></filter><filter id="filter1_d_415_5" x="84" y="35" width="74" height="74" filterUnits="userSpaceOnUse" color-interpolation-filters="sRGB"><feFlood flood-opacity="0" result="BackgroundImageFix"/><feColorMatrix in="SourceAlpha" values="0 0 0 0 0 0 0 0 0 0 0 0 0 0 0 0 0 0 127 0" result="hardAlpha"/><feOffset dy="5"/><feGaussianBlur stdDeviation="7.5"/><feComposite in2="hardAlpha" operator="out"/><feColorMatrix values="0 0 0 0 0.133333 0 0 0 0 0.133333 0 0 0 0 0.133333 0 0 0 0.05 0"/><feBlend in2="BackgroundImageFix" result="effect1_dropShadow_415_5"/><feBlend in="SourceGraphic" in2="effect1_dropShadow_415_5" result="shape"/></filter><linearGradient id="paint0_linear_415_5" x1="99" y1="89" x2="159.023" y2="72.743" gradientUnits="userSpaceOnUse"><stop stop-color="#FF8045"/><stop offset="1" stop-color="#FDA556"/></linearGradient>
<clipPath id="clip0_190_1461"><path fill="currentColor" transform="translate(.19)" d="M0 0H10.284V19.54H0z"/></clipPath>
<clipPath id="clip0_190_1463"><path fill="currentColor" transform="translate(0 .734)" d="M0 0H17.483V17.483H0z"/></clipPath>
<filter id="filter0_d_190_1523" x="0" y="0" width="66" height="66" filterUnits="userSpaceOnUse" color-interpolation-filters="sRGB"><feFlood flood-opacity="0" result="BackgroundImageFix"/><feColorMatrix in="SourceAlpha" values="0 0 0 0 0 0 0 0 0 0 0 0 0 0 0 0 0 0 127 0" result="hardAlpha"/><feOffset dy="5"/><feGaussianBlur stdDeviation="7.5"/><feComposite in2="hardAlpha" operator="out"/><feColorMatrix values="0 0 0 0 0.133333 0 0 0 0 0.133333 0 0 0 0 0.133333 0 0 0 0.05 0"/><feBlend in2="BackgroundImageFix" result="effect1_dropShadow_190_1523"/><feBlend in="SourceGraphic" in2="effect1_dropShadow_190_1523" result="shape"/></filter>
<linearGradient id="paint0_linear_190_1533" x1="0" y1="83" x2="113.224" y2="52.334" gradientUnits="userSpaceOnUse"><stop stop-color="#FF8045"/><stop offset="1" stop-color="#FDA556"/></linearGradient>
<filter id="filter0_d_190_1535" x=".148" y="0" width="70.703" height="65.25" filterUnits="userSpaceOnUse" color-interpolation-filters="sRGB"><feFlood flood-opacity="0" result="BackgroundImageFix"/><feColorMatrix in="SourceAlpha" values="0 0 0 0 0 0 0 0 0 0 0 0 0 0 0 0 0 0 127 0" result="hardAlpha"/><feOffset dy="5"/><feGaussianBlur stdDeviation="7.5"/><feComposite in2="hardAlpha" operator="out"/><feColorMatrix values="0 0 0 0 0.133333 0 0 0 0 0.133333 0 0 0 0 0.133333 0 0 0 0.05 0"/><feBlend in2="BackgroundImageFix" result="effect1_dropShadow_190_1535"/><feBlend in="SourceGraphic" in2="effect1_dropShadow_190_1535" result="shape"/></filter>
<linearGradient id="paint0_linear_190_1520" x1="15" y1="28" x2="39.555" y2="21.349" gradientUnits="userSpaceOnUse"><stop stop-color="#FF8045"/><stop offset="1" stop-color="#FDA556"/></linearGradient><filter id="filter0_d_190_1520" x="0" y="0" width="48" height="48" filterUnits="userSpaceOnUse" color-interpolation-filters="sRGB"><feFlood flood-opacity="0" result="BackgroundImageFix"/><feColorMatrix in="SourceAlpha" values="0 0 0 0 0 0 0 0 0 0 0 0 0 0 0 0 0 0 127 0" result="hardAlpha"/><feOffset dy="5"/><feGaussianBlur stdDeviation="7.5"/><feComposite in2="hardAlpha" operator="out"/><feColorMatrix values="0 0 0 0 0.133333 0 0 0 0 0.133333 0 0 0 0 0.133333 0 0 0 0.05 0"/><feBlend in2="BackgroundImageFix" result="effect1_dropShadow_190_1520"/><feBlend in="SourceGraphic" in2="effect1_dropShadow_190_1520" result="shape"/></filter>
<clipPath id="clip0_190_1443"><path fill="#fff" d="M0 0H180V39H0z"/></clipPath>
<linearGradient id="paint0_linear_190_1440" x1="15" y1="108" x2="148.687" y2="71.792" gradientUnits="userSpaceOnUse"><stop stop-color="#FF8045"/><stop offset="1" stop-color="#FDA556"/></linearGradient><filter id="filter0_d_190_1440" x="0" y="0" width="128" height="128" filterUnits="userSpaceOnUse" color-interpolation-filters="sRGB"><feFlood flood-opacity="0" result="BackgroundImageFix"/><feColorMatrix in="SourceAlpha" values="0 0 0 0 0 0 0 0 0 0 0 0 0 0 0 0 0 0 127 0" result="hardAlpha"/><feOffset dy="5"/><feGaussianBlur stdDeviation="7.5"/><feComposite in2="hardAlpha" operator="out"/><feColorMatrix values="0 0 0 0 0.133333 0 0 0 0 0.133333 0 0 0 0 0.133333 0 0 0 0.05 0"/><feBlend in2="BackgroundImageFix" result="effect1_dropShadow_190_1440"/><feBlend in="SourceGraphic" in2="effect1_dropShadow_190_1440" result="shape"/></filter>
<filter id="filter0_d_415_2" x="15" y="4" width="102" height="102" filterUnits="userSpaceOnUse" color-interpolation-filters="sRGB"><feFlood flood-opacity="0" result="BackgroundImageFix"/><feColorMatrix in="SourceAlpha" values="0 0 0 0 0 0 0 0 0 0 0 0 0 0 0 0 0 0 127 0" result="hardAlpha"/><feOffset dy="5"/><feGaussianBlur stdDeviation="7.5"/><feComposite in2="hardAlpha" operator="out"/><feColorMatrix values="0 0 0 0 0.133333 0 0 0 0 0.133333 0 0 0 0 0.133333 0 0 0 0.05 0"/><feBlend in2="BackgroundImageFix" result="effect1_dropShadow_415_2"/><feBlend in="SourceGraphic" in2="effect1_dropShadow_415_2" result="shape"/></filter><filter id="filter1_d_415_2" x="0" y="0" width="60" height="60" filterUnits="userSpaceOnUse" color-interpolation-filters="sRGB"><feFlood flood-opacity="0" result="BackgroundImageFix"/><feColorMatrix in="SourceAlpha" values="0 0 0 0 0 0 0 0 0 0 0 0 0 0 0 0 0 0 127 0" result="hardAlpha"/><feOffset dy="5"/><feGaussianBlur stdDeviation="7.5"/><feComposite in2="hardAlpha" operator="out"/><feColorMatrix values="0 0 0 0 0.133333 0 0 0 0 0.133333 0 0 0 0 0.133333 0 0 0 0.05 0"/><feBlend in2="BackgroundImageFix" result="effect1_dropShadow_415_2"/><feBlend in="SourceGraphic" in2="effect1_dropShadow_415_2" result="shape"/></filter>
<filter id="filter0_d_415_3" x="0" y="0" width="102" height="102" filterUnits="userSpaceOnUse" color-interpolation-filters="sRGB"><feFlood flood-opacity="0" result="BackgroundImageFix"/><feColorMatrix in="SourceAlpha" values="0 0 0 0 0 0 0 0 0 0 0 0 0 0 0 0 0 0 127 0" result="hardAlpha"/><feOffset dy="5"/><feGaussianBlur stdDeviation="7.5"/><feComposite in2="hardAlpha" operator="out"/><feColorMatrix values="0 0 0 0 0.133333 0 0 0 0 0.133333 0 0 0 0 0.133333 0 0 0 0.05 0"/><feBlend in2="BackgroundImageFix" result="effect1_dropShadow_415_3"/><feBlend in="SourceGraphic" in2="effect1_dropShadow_415_3" result="shape"/></filter><filter id="filter1_d_415_3" x="54" y="49" width="60" height="60" filterUnits="userSpaceOnUse" color-interpolation-filters="sRGB"><feFlood flood-opacity="0" result="BackgroundImageFix"/><feColorMatrix in="SourceAlpha" values="0 0 0 0 0 0 0 0 0 0 0 0 0 0 0 0 0 0 127 0" result="hardAlpha"/><feOffset dy="5"/><feGaussianBlur stdDeviation="7.5"/><feComposite in2="hardAlpha" operator="out"/><feColorMatrix values="0 0 0 0 0.133333 0 0 0 0 0.133333 0 0 0 0 0.133333 0 0 0 0.05 0"/><feBlend in2="BackgroundImageFix" result="effect1_dropShadow_415_3"/><feBlend in="SourceGraphic" in2="effect1_dropShadow_415_3" result="shape"/></filter><filter id="filter2_d_415_3" x="88" y="28" width="46" height="46" filterUnits="userSpaceOnUse" color-interpolation-filters="sRGB"><feFlood flood-opacity="0" result="BackgroundImageFix"/><feColorMatrix in="SourceAlpha" values="0 0 0 0 0 0 0 0 0 0 0 0 0 0 0 0 0 0 127 0" result="hardAlpha"/><feOffset dy="5"/><feGaussianBlur stdDeviation="7.5"/><feComposite in2="hardAlpha" operator="out"/><feColorMatrix values="0 0 0 0 0.133333 0 0 0 0 0.133333 0 0 0 0 0.133333 0 0 0 0.05 0"/><feBlend in2="BackgroundImageFix" result="effect1_dropShadow_415_3"/><feBlend in="SourceGraphic" in2="effect1_dropShadow_415_3" result="shape"/></filter>
<filter id="filter0_d_190_1549" x="45" y="0" width="199" height="199" filterUnits="userSpaceOnUse" color-interpolation-filters="sRGB"><feFlood flood-opacity="0" result="BackgroundImageFix"/><feColorMatrix in="SourceAlpha" values="0 0 0 0 0 0 0 0 0 0 0 0 0 0 0 0 0 0 127 0" result="hardAlpha"/><feOffset dy="5"/><feGaussianBlur stdDeviation="7.5"/><feComposite in2="hardAlpha" operator="out"/><feColorMatrix values="0 0 0 0 0.133333 0 0 0 0 0.133333 0 0 0 0 0.133333 0 0 0 0.05 0"/><feBlend in2="BackgroundImageFix" result="effect1_dropShadow_190_1549"/><feBlend in="SourceGraphic" in2="effect1_dropShadow_190_1549" result="shape"/></filter><filter id="filter1_d_190_1549" x="26" y="51" width="66" height="65" filterUnits="userSpaceOnUse" color-interpolation-filters="sRGB"><feFlood flood-opacity="0" result="BackgroundImageFix"/><feColorMatrix in="SourceAlpha" values="0 0 0 0 0 0 0 0 0 0 0 0 0 0 0 0 0 0 127 0" result="hardAlpha"/><feOffset dy="5"/><feGaussianBlur stdDeviation="7.5"/><feComposite in2="hardAlpha" operator="out"/><feColorMatrix values="0 0 0 0 0.133333 0 0 0 0 0.133333 0 0 0 0 0.133333 0 0 0 0.05 0"/><feBlend in2="BackgroundImageFix" result="effect1_dropShadow_190_1549"/><feBlend in="SourceGraphic" in2="effect1_dropShadow_190_1549" result="shape"/></filter><filter id="filter2_d_190_1549" x="0" y="33" width="46" height="45" filterUnits="userSpaceOnUse" color-interpolation-filters="sRGB"><feFlood flood-opacity="0" result="BackgroundImageFix"/><feColorMatrix in="SourceAlpha" values="0 0 0 0 0 0 0 0 0 0 0 0 0 0 0 0 0 0 127 0" result="hardAlpha"/><feOffset dy="5"/><feGaussianBlur stdDeviation="7.5"/><feComposite in2="hardAlpha" operator="out"/><feColorMatrix values="0 0 0 0 0.133333 0 0 0 0 0.133333 0 0 0 0 0.133333 0 0 0 0.05 0"/><feBlend in2="BackgroundImageFix" result="effect1_dropShadow_190_1549"/><feBlend in="SourceGraphic" in2="effect1_dropShadow_190_1549" result="shape"/></filter><linearGradient id="paint0_linear_190_1549" x1="41" y1="96" x2="89.916" y2="82.373" gradientUnits="userSpaceOnUse"><stop stop-color="#FF8045"/><stop offset="1" stop-color="#FDA556"/></linearGradient>
<clipPath id="clip0_190_1459"><path fill="currentColor" transform="translate(.8 .671)" d="M0 0H26.24V14.995H0z"/></clipPath>
  </defs>
    <symbol id="arrow-down" viewBox="0 0 12 7">
      <path d="M1 1L6 6L11 1" stroke="#3976F4" stroke-width="1.2"/>
    </symbol>
    <symbol id="cases-icon" viewBox="0 0 158 205">
      <g filter="url(#filter0_d_415_5)"><rect x="15" y="70" width="115" height="115" rx="15" fill="#0C92F7"/></g><g filter="url(#filter1_d_415_5)"><rect x="99" y="45" width="44" height="44" rx="10" fill="url(#paint0_linear_415_5)"/></g><path d="M99 30L86.0096 7.5L111.99 7.5L99 30Z" fill="#F4C006"/>
    </symbol>
    <symbol id="close-icon" viewBox="0 0 24 24">
      <path d="M6.22517 4.81108C5.83465 4.42056 5.20148 4.42056 4.81096 4.81108C4.42044 5.20161 4.42044 5.83477 4.81096 6.2253L10.5857 12L4.81102 17.7747C4.4205 18.1652 4.42049 18.7984 4.81102 19.1889C5.20154 19.5794 5.83471 19.5794 6.22523 19.1889L11.9999 13.4142L17.7746 19.1889C18.1651 19.5794 18.7983 19.5794 19.1888 19.1889C19.5793 18.7984 19.5793 18.1652 19.1888 17.7747L13.4141 12L19.1889 6.2253C19.5794 5.83477 19.5794 5.20161 19.1889 4.81108C18.7983 4.42056 18.1652 4.42056 17.7746 4.81108L11.9999 10.5858L6.22517 4.81108Z" fill="currentColor"/>
    </symbol>
    <symbol id="fb-icon" viewBox="0 0 11 20">
      <g clip-path="url(#clip0_190_1461)"><path d="M10.0861 0H7.61786C4.84829 0 3.05779 1.88718 3.05779 4.80895V7.02626H0.577207C0.525614 7.02693 0.474659 7.03775 0.427251 7.05812C0.379843 7.07849 0.336912 7.10799 0.300908 7.14495C0.264904 7.18191 0.236533 7.2256 0.217415 7.27352C0.198297 7.32145 0.188808 7.37267 0.189487 7.42426V10.6371C0.188808 10.6887 0.198297 10.7399 0.217415 10.7878C0.236533 10.8357 0.264904 10.8794 0.300908 10.9164C0.336912 10.9534 0.379843 10.9829 0.427251 11.0032C0.474659 11.0236 0.525614 11.0344 0.577207 11.0351H3.05779V19.1412C3.05697 19.1929 3.06636 19.2442 3.08542 19.2923C3.10447 19.3403 3.13282 19.3841 3.16884 19.4212C3.20486 19.4582 3.24784 19.4878 3.29531 19.5083C3.34279 19.5287 3.39383 19.5396 3.44551 19.5402H6.68096C6.73255 19.5396 6.78351 19.5287 6.83091 19.5084C6.87832 19.488 6.92125 19.4585 6.95726 19.4215C6.99326 19.3846 7.02163 19.3409 7.04075 19.293C7.05987 19.245 7.06936 19.1938 7.06868 19.1422V11.0361H9.96886C10.0205 11.0354 10.0714 11.0246 10.1188 11.0043C10.1662 10.9839 10.2092 10.9544 10.2452 10.9174C10.2812 10.8805 10.3095 10.8368 10.3287 10.7889C10.3478 10.7409 10.3573 10.6897 10.3566 10.6381V7.42426C10.3569 7.3192 10.3164 7.21813 10.2435 7.14247C10.2079 7.10552 10.1652 7.0761 10.1181 7.05596C10.0709 7.03581 10.0202 7.02536 9.96886 7.02523H7.06971V5.14217C7.06971 4.2392 7.27539 3.78052 8.42518 3.78052H10.0861C10.1898 3.77917 10.2887 3.73689 10.3613 3.66292C10.4339 3.58895 10.4744 3.48927 10.4738 3.3856V0.402117C10.4749 0.350218 10.4657 0.298615 10.4468 0.250275C10.4279 0.201936 10.3996 0.157813 10.3636 0.120443C10.3275 0.083074 10.2845 0.0531954 10.2369 0.0325254C10.1892 0.0118554 10.138 0.000801768 10.0861 0V0Z" fill="currentColor"/></g>
    </symbol>
    <symbol id="instagram-icon" viewBox="0 0 18 19">
      <g clip-path="url(#clip0_190_1463)"><path fill-rule="evenodd" clip-rule="evenodd" d="M5.46407 0.734375H12.0203C13.4693 0.734648 14.8589 1.31044 15.8833 2.33513C16.9078 3.35981 17.4834 4.74946 17.4834 6.19844V12.7547C17.4831 14.2035 16.9074 15.5929 15.883 16.6174C14.8585 17.6418 13.4691 18.2175 12.0203 18.2177H5.46407C4.01508 18.2177 2.62543 17.6422 1.60075 16.6177C0.576069 15.5932 0.000272724 14.2037 0 12.7547V6.19844C0 4.74928 0.575677 3.35947 1.60039 2.33476C2.6251 1.31005 4.01491 0.734375 5.46407 0.734375ZM8.74168 13.8469C9.90049 13.8455 11.0114 13.3846 11.8308 12.5652C12.6502 11.7458 13.1112 10.6349 13.1125 9.47606C13.1112 8.31726 12.6502 7.20631 11.8308 6.38691C11.0114 5.56751 9.90049 5.10658 8.74168 5.10522C7.58288 5.10658 6.47193 5.56751 5.65253 6.38691C4.83314 7.20631 4.3722 8.31726 4.37084 9.47606C4.3722 10.6349 4.83314 11.7458 5.65253 12.5652C6.47193 13.3846 7.58288 13.8455 8.74168 13.8469ZM8.74168 6.74454C9.46588 6.74536 10.1602 7.0334 10.6723 7.54548C11.1843 8.05757 11.4724 8.75187 11.4732 9.47606C11.4727 10.2004 11.1847 10.895 10.6726 11.4073C10.1605 11.9196 9.46605 12.2078 8.74168 12.2086C8.01722 12.2078 7.32266 11.9196 6.81038 11.4074C6.29811 10.8951 6.00995 10.2005 6.00914 9.47606C6.00995 8.75169 6.29814 8.05723 6.81044 7.54512C7.32275 7.03301 8.01731 6.74508 8.74168 6.74454ZM4.91693 4.55911C4.91693 4.86071 4.67244 5.10521 4.37084 5.10521C4.06923 5.10521 3.82474 4.86071 3.82474 4.55911C3.82474 4.2575 4.06923 4.01301 4.37084 4.01301C4.67244 4.01301 4.91693 4.2575 4.91693 4.55911Z" fill="currentColor"/></g>
    </symbol>
    <symbol id="know-1-icon" viewBox="0 0 66 66">
      <g filter="url(#filter0_d_190_1523)"><path d="M15 18.1818C15 13.6631 18.6631 10 23.1818 10H42.8182C47.3369 10 51 13.6631 51 18.1818V37.8182C51 42.3369 47.3369 46 42.8182 46H23.1818C18.6631 46 15 42.3369 15 37.8182V18.1818Z" fill="#6161E5"/></g>
    </symbol>
    <symbol id="know-3-icon" viewBox="0 0 83 83">
      <circle cx="41.5" cy="41.5" r="31.5" stroke="url(#paint0_linear_190_1533)" stroke-width="20"/>
    </symbol>
    <symbol id="know-4-icon" viewBox="0 0 71 66">
      <g filter="url(#filter0_d_190_1535)"><path d="M35.5 10L55.8516 45.25H15.1484L35.5 10Z" fill="#FAD310"/></g>
    </symbol>
    <symbol id="know-5-icon" viewBox="0 0 48 48">
      <g filter="url(#filter0_d_190_1520)"><path d="M15 14.0909C15 11.8316 16.8316 10 19.0909 10H28.9091C31.1684 10 33 11.8316 33 14.0909V23.9091C33 26.1684 31.1684 28 28.9091 28H19.0909C16.8316 28 15 26.1684 15 23.9091V14.0909Z" fill="url(#paint0_linear_190_1520)"/></g>
    </symbol>
    <symbol id="logo-second" viewBox="0 0 180 39">
      <g clip-path="url(#clip0_190_1443)"><path d="M153.677 8.63839V38.6586H150.117V16.6041C150.117 16.3116 150.117 15.9996 150.117 15.6291C150.117 15.2586 150.117 14.9564 150.185 14.6541L139.942 33.4034C139.823 33.6948 139.619 33.9437 139.357 34.1175C139.095 34.2914 138.787 34.3823 138.473 34.3784H137.889C137.577 34.3803 137.271 34.2885 137.011 34.1148C136.751 33.941 136.548 33.6933 136.43 33.4034L125.934 14.5469C126.016 15.2296 126.059 15.9165 126.06 16.6041V38.6586H122.51V8.63839H125.496C125.779 8.62908 126.061 8.66529 126.333 8.74564C126.583 8.86945 126.782 9.07617 126.897 9.33064L137.247 27.8556C137.412 28.1969 137.578 28.5479 137.733 28.9086C137.889 29.2694 138.045 29.6399 138.181 30.0201C138.327 29.6399 138.473 29.2694 138.628 28.8989C138.772 28.5349 138.938 28.18 139.125 27.8361L149.28 9.33064C149.386 9.07343 149.584 8.86492 149.835 8.74564C150.109 8.66604 150.395 8.62985 150.681 8.63839H153.677Z" fill="#fff"/><path d="M165.38 35.3828V24.921H176.742L176.869 23.8583V21.7815H165.38V11.8365H180.001V8.70679H161.207V38.5223H173.551L174.33 35.3828H165.38Z" fill="#fff"/><path d="M179.777 38.6685V38.5417L179.689 38.6685H179.777Z" fill="#fff"/><path d="M112.646 12.6067C111.322 11.2502 109.728 10.1873 107.967 9.48673C106.195 8.76991 104.305 8.3897 102.394 8.36548L99.5531 12.0997C100.342 11.9485 101.143 11.8734 101.946 11.8755C103.448 11.8543 104.939 12.1327 106.333 12.6945C107.604 13.2182 108.746 14.0134 109.68 15.0247C110.635 16.1082 111.36 17.3755 111.81 18.7492C112.329 20.3512 112.582 22.0278 112.559 23.712C112.582 25.393 112.329 27.0664 111.81 28.665C111.356 30.0342 110.632 31.2977 109.68 32.3797C108.748 33.3911 107.606 34.1835 106.333 34.7002C103.514 35.7768 100.398 35.7768 97.5784 34.7002C96.3058 34.1835 95.1631 33.3911 94.232 32.3797C93.2703 31.2877 92.5479 30.0056 92.1114 28.6162C91.5923 27.0176 91.3392 25.3442 91.3624 23.6632C91.3624 23.3805 91.3624 23.1172 91.3624 22.8442L87.6367 27.7192C87.7799 28.4441 87.9749 29.1577 88.2204 29.8545C88.88 31.668 89.9029 33.327 91.2262 34.7295C92.5448 36.0985 94.1356 37.1747 95.8955 37.8885C99.7711 39.3839 104.063 39.3839 107.938 37.8885C109.702 37.1772 111.297 36.1007 112.617 34.7295C113.941 33.327 114.963 31.668 115.623 29.8545C116.353 27.8732 116.715 25.7751 116.693 23.6632C116.715 21.5514 116.353 19.4532 115.623 17.472C114.959 15.6606 113.937 14.0024 112.617 12.597" fill="#fff"/><path d="M82.5478 33.9982C82.0187 34.3464 81.4506 34.6311 80.8552 34.8465C80.2253 35.0781 79.5734 35.2447 78.9097 35.3437C78.1104 35.4549 77.3041 35.507 76.4972 35.4997C75.0955 35.5128 73.7056 35.2408 72.4116 34.7002C71.1616 34.183 70.0418 33.3937 69.1334 32.3895C68.162 31.3097 67.4147 30.0469 66.935 28.6747C66.3753 27.0645 66.102 25.3682 66.1276 23.6632C66.1039 21.9767 66.3671 20.2984 66.9058 18.7005C67.3682 17.323 68.1026 16.053 69.0653 14.9662C69.9861 13.9539 71.1189 13.1582 72.3825 12.636C73.7025 12.0905 75.1181 11.8154 76.5459 11.8267C77.6399 11.8016 78.7316 11.9396 79.7852 12.2362C80.5469 12.4627 81.2835 12.7665 81.9836 13.143C82.4727 13.4234 82.9468 13.7293 83.4039 14.0595C83.6584 14.2885 83.9782 14.4318 84.3183 14.469C84.506 14.4762 84.6918 14.4288 84.8533 14.3325C84.9876 14.2439 85.0979 14.1233 85.1743 13.9815L86.5167 12.1192C85.2601 10.9365 83.8001 9.99174 82.2074 9.33074C80.4128 8.61885 78.4951 8.27088 76.5653 8.30699C74.5262 8.27964 72.5022 8.66085 70.612 9.42824C68.8645 10.1393 67.2865 11.2125 65.9817 12.5775C64.6582 13.9798 63.6352 15.6389 62.9758 17.4525C62.2628 19.4436 61.9168 21.5481 61.9544 23.6632C61.9143 25.7777 62.2436 27.883 62.9272 29.8837C63.563 31.6889 64.5556 33.3469 65.8455 34.7587C67.101 36.1168 68.6339 37.1877 70.3397 37.8982C72.189 38.6654 74.1749 39.0469 76.1762 39.0195C77.097 39.0197 78.0167 38.9578 78.9291 38.8342L82.6646 33.9592L82.5186 34.0567" fill="#fff"/><path opacity=".99" d="M43.6584 6.7275C39.4797 3.62486 34.7534 1.34226 29.7284 0L21.7031 34.0568L21.849 34.125L43.6584 6.7275Z" fill="#3976F4"/><path d="M56.8969 17.5208C56.2329 15.7476 55.2056 14.1335 53.8813 12.7823C52.5596 11.441 50.9678 10.3973 49.2121 9.72085C47.963 9.22732 46.6549 8.89955 45.321 8.74585L42.8016 11.9048H43.2101C44.7126 11.8841 46.2052 12.1522 47.607 12.6946C48.8773 13.2057 50.0173 13.9952 50.9436 15.0053C51.9034 16.0707 52.6292 17.3264 53.0739 18.6909C53.6019 20.2842 53.8584 21.9553 53.8327 23.6341C53.8584 25.3129 53.6019 26.984 53.0739 28.5773C52.6315 29.9399 51.9053 31.1928 50.9436 32.2531C50.0191 33.2605 48.8781 34.044 47.607 34.5443C46.2072 35.0948 44.7137 35.3664 43.2101 35.3438H36.0603V20.3776L32.0039 25.4671V38.6588H43.181C45.2406 38.6834 47.2866 38.3196 49.2121 37.5863C50.9731 36.9094 52.5697 35.8634 53.895 34.5182C55.2202 33.1731 56.2437 31.5598 56.8969 29.7863C57.6277 27.826 57.9873 25.7461 57.9572 23.6536C57.985 21.5612 57.6255 19.4818 56.8969 17.5208Z" fill="#fff"/><path d="M21.7315 22.8149L16.07 8.63843H11.9747L0 38.6587H3.1323C3.45251 38.6686 3.76595 38.565 4.01751 38.3662C4.23305 38.1922 4.39773 37.9632 4.49416 37.7032L7.29572 30.4492H19.9416L21.7315 22.8149ZM13.1226 15.3367C13.4868 14.4155 13.7891 13.4709 14.0272 12.5092C14.1634 13.0552 14.3093 13.5622 14.465 14.0497C14.6206 14.5372 14.7665 14.9467 14.9027 15.3172L19.6109 27.5242H8.45331L13.1226 15.3367Z" fill="#fff"/><path d="M23.123 36.621L23.5413 37.7032C23.6423 37.9714 23.8137 38.2072 24.0374 38.3857C24.2875 38.5784 24.598 38.6752 24.9129 38.6587H28.055L25.8662 33.1792L23.123 36.621Z" fill="#fff"/></g>
    </symbol>
    <symbol id="logo" viewBox="0 0 140 31">
      <path d="M118.485 6.64502V29.7375H115.74V12.7725C115.74 12.5475 115.74 12.3075 115.74 12.0225C115.74 11.7375 115.74 11.505 115.793 11.2725L107.895 25.695C107.803 25.9192 107.646 26.1106 107.444 26.2444C107.242 26.3781 107.005 26.448 106.763 26.445H106.313C106.072 26.4465 105.836 26.3759 105.635 26.2422C105.435 26.1086 105.279 25.918 105.188 25.695L97.0951 11.19C97.1587 11.7151 97.1912 12.2436 97.1926 12.7725V29.7375H94.4551V6.64502H96.7576C96.9756 6.63786 97.1934 6.66571 97.4026 6.72752C97.5952 6.82276 97.7489 6.98177 97.8376 7.17752L105.818 21.4275C105.945 21.69 106.073 21.96 106.193 22.2375C106.313 22.515 106.433 22.8 106.538 23.0925C106.65 22.8 106.763 22.515 106.883 22.23C106.993 21.95 107.121 21.677 107.265 21.4125L115.095 7.17752C115.177 6.97967 115.329 6.81927 115.523 6.72752C115.734 6.66628 115.955 6.63845 116.175 6.64502H118.485Z" fill="#222"/><path d="M127.507 27.2174V19.1699H136.267L136.364 18.3524V16.7549H127.507V9.10489H138.779V6.69739H124.289V29.6324H133.807L134.407 27.2174H127.507Z" fill="#222"/><path d="M138.607 29.7451V29.6476L138.539 29.7451H138.607Z" fill="#222"/><path d="M86.8509 9.69756C85.8294 8.65408 84.6005 7.83647 83.2434 7.29756C81.8767 6.74616 80.4194 6.45369 78.9459 6.43506L76.7559 9.30756C77.3639 9.19125 77.9818 9.13349 78.6009 9.13506C79.759 9.11879 80.9088 9.33294 81.9834 9.76506C82.9634 10.1679 83.8439 10.7797 84.5634 11.5576C85.2999 12.391 85.8588 13.3659 86.2059 14.4226C86.606 15.6549 86.8011 16.9445 86.7834 18.2401C86.8013 19.5331 86.6062 20.8204 86.2059 22.0501C85.8561 23.1033 85.2975 24.0752 84.5634 24.9076C83.8455 25.6855 82.9645 26.2951 81.9834 26.6926C79.8096 27.5207 77.4072 27.5207 75.2334 26.6926C74.2523 26.2951 73.3712 25.6855 72.6534 24.9076C71.9119 24.0675 71.3549 23.0813 71.0184 22.0126C70.6181 20.7829 70.423 19.4956 70.4409 18.2026C70.4409 17.9851 70.4409 17.7826 70.4409 17.5726L67.5684 21.3226C67.6787 21.8801 67.8291 22.4291 68.0184 22.9651C68.5269 24.3601 69.3156 25.6362 70.3359 26.7151C71.3525 27.7681 72.579 28.596 73.9359 29.1451C76.924 30.2954 80.2327 30.2954 83.2209 29.1451C84.581 28.5979 85.8102 27.7699 86.8284 26.7151C87.8486 25.6362 88.6373 24.3601 89.1459 22.9651C89.7085 21.441 89.9881 19.827 89.9709 18.2026C89.9881 16.5781 89.7085 14.9641 89.1459 13.4401C88.6339 12.0467 87.8456 10.7712 86.8284 9.69006" fill="#222"/><path d="M63.6456 26.1525C63.2377 26.4203 62.7997 26.6393 62.3406 26.805C61.8549 26.9832 61.3523 27.1113 60.8406 27.1875C60.2244 27.273 59.6027 27.3131 58.9806 27.3075C57.8999 27.3176 56.8283 27.1083 55.8306 26.6925C54.8668 26.2947 54.0035 25.6875 53.3031 24.915C52.5542 24.0844 51.978 23.113 51.6081 22.0575C51.1766 20.8189 50.9659 19.5141 50.9856 18.2025C50.9674 16.9052 51.1703 15.6142 51.5856 14.385C51.9421 13.3254 52.5084 12.3485 53.2506 11.5125C53.9606 10.7338 54.8339 10.1217 55.8081 9.72002C56.8259 9.30043 57.9173 9.08878 59.0181 9.09752C59.8617 9.07817 60.7034 9.18433 61.5156 9.41252C62.1029 9.58673 62.6709 9.82045 63.2106 10.11C63.5877 10.3257 63.9532 10.561 64.3057 10.815C64.5019 10.9912 64.7485 11.1014 65.0106 11.13C65.1554 11.1356 65.2987 11.0991 65.4232 11.025C65.5267 10.9569 65.6117 10.8641 65.6707 10.755L66.7057 9.32252C65.7368 8.41272 64.6111 7.68598 63.3831 7.17752C61.9995 6.62991 60.521 6.36224 59.0331 6.39002C57.461 6.36898 55.9004 6.66222 54.4431 7.25252C53.0958 7.79948 51.8792 8.62502 50.8731 9.67502C49.8527 10.7537 49.064 12.0299 48.5556 13.425C48.0059 14.9567 47.7391 16.5755 47.7681 18.2025C47.7372 19.8291 47.991 21.4485 48.5181 22.9875C49.0084 24.3761 49.7736 25.6515 50.7681 26.7375C51.7361 27.7822 52.918 28.6059 54.2331 29.1525C55.659 29.7426 57.1901 30.0361 58.7332 30.015C59.443 30.0152 60.1521 29.9676 60.8556 29.8725L63.7357 26.1225L63.6231 26.1975" fill="#222"/><path opacity=".99" d="M33.6599 5.175C30.4382 2.78836 26.7942 1.03251 22.9199 0L16.7324 26.1975L16.8449 26.25L33.6599 5.175Z" fill="#3976F4"/><path d="M43.8663 13.4774C43.3544 12.1134 42.5623 10.8717 41.5413 9.83242C40.5223 8.80059 39.295 7.99777 37.9413 7.47742C36.9783 7.09778 35.9697 6.84564 34.9413 6.72742L32.9988 9.15742H33.3138C34.4723 9.14149 35.623 9.34771 36.7038 9.76492C37.6832 10.1581 38.5622 10.7654 39.2763 11.5424C40.0164 12.3619 40.5759 13.3278 40.9188 14.3774C41.3259 15.6031 41.5236 16.8886 41.5038 18.1799C41.5236 19.4713 41.3259 20.7567 40.9188 21.9824C40.5777 23.0306 40.0178 23.9943 39.2763 24.8099C38.5635 25.5848 37.6838 26.1875 36.7038 26.5724C35.6246 26.9958 34.4731 27.2047 33.3138 27.1874H27.8013V15.6749L24.6738 19.5899V29.7374H33.2913C34.8793 29.7563 36.4568 29.4765 37.9413 28.9124C39.2991 28.3917 40.53 27.5871 41.5518 26.5523C42.5736 25.5176 43.3627 24.2766 43.8663 22.9124C44.4298 21.4044 44.707 19.8046 44.6838 18.1949C44.7053 16.5854 44.4281 14.9859 43.8663 13.4774Z" fill="#222"/><path d="M16.755 17.5501L12.39 6.64514H9.2325L0 29.7376H2.415C2.66188 29.7452 2.90355 29.6656 3.0975 29.5126C3.26368 29.3788 3.39065 29.2026 3.465 29.0026L5.625 23.4226H15.375L16.755 17.5501ZM10.1175 11.7976C10.3983 11.089 10.6314 10.3624 10.815 9.62264C10.92 10.0426 11.0325 10.4326 11.1525 10.8076C11.2725 11.1826 11.385 11.4976 11.49 11.7826L15.12 21.1726H6.5175L10.1175 11.7976Z" fill="#222"/><path d="M17.8262 28.1701L18.1487 29.0026C18.2265 29.2089 18.3587 29.3903 18.5312 29.5276C18.7239 29.6758 18.9633 29.7503 19.2062 29.7376H21.6287L19.9412 25.5226L17.8262 28.1701Z" fill="#222"/>
    </symbol>
    <symbol id="menu-icon" viewBox="0 0 17 14">
      <path stroke="#3976F4" stroke-width="2" stroke-linecap="round" d="M1 1L16 1"/><path stroke="#3976F4" stroke-width="2" stroke-linecap="round" d="M1 7L16 7"/><path stroke="#3976F4" stroke-width="2" stroke-linecap="round" d="M1 13L16 13"/>
    </symbol>
    <symbol id="request-2-icon" viewBox="0 0 128 128">
      <g filter="url(#filter0_d_190_1440)"><rect x="15" y="10" width="98" height="98" rx="15" fill="url(#paint0_linear_190_1440)"/></g>
    </symbol>
    <symbol id="step-1-icon" viewBox="0 0 223 211">
      <path d="M199.014 18.4866C199.014 18.4866 209.99 20.9095 222.685 31.9821L207.47 59.7241C203.15 55.5549 197.756 52.6691 191.891 51.3894L199.014 18.4866Z" fill="#FD425F"/><path d="M201.752 36.101C203.084 31.2552 204.175 26.0945 205.459 21.1033C203.377 20.0743 201.223 19.1997 199.014 18.4866L191.891 51.3894C195.864 47.9246 196.93 49.2572 197.633 48.9665C198.82 44.6053 200.613 40.341 201.752 36.101Z" fill="#E42244"/><path d="M139.533 3.36788C139.533 3.36788 182.515 -0.920633 206.405 11.4361L197.634 48.8938C197.634 48.8938 176.555 37.5548 141.568 42.4005L139.533 3.36788Z" fill="#FD425F"/><path d="M142.927 0H139.486V147.311H142.927V0Z" fill="#110239"/><path d="M145.565 142.877H136.867V149.783H145.565V142.877Z" fill="#110239"/><path d="M148.959 148.28H133.477V151.745H148.959V148.28Z" fill="#110239"/><path d="M77.9668 65.1998V89.7437H84.0967V72.4443C84.0967 71.6025 84.4311 70.7952 85.0263 70.1999C85.6216 69.6047 86.4289 69.2703 87.2707 69.2703H113.607C114.445 69.2767 115.246 69.6139 115.836 70.2085C116.426 70.803 116.757 71.6067 116.757 72.4443V89.7437H122.887V65.1998C122.89 64.7842 122.811 64.372 122.654 63.987C122.497 63.6021 122.266 63.252 121.973 62.957C121.68 62.6619 121.332 62.4277 120.948 62.2679C120.565 62.1081 120.153 62.0259 119.737 62.0259H81.1408C80.299 62.0259 79.4917 62.3603 78.8965 62.9555C78.3012 63.5507 77.9668 64.3581 77.9668 65.1998Z" fill="#D0D1DE"/><path d="M190.124 81.433H10.7576C4.81635 81.433 0 86.2494 0 92.1906V199.815C0 205.756 4.81635 210.573 10.7576 210.573H190.124C196.065 210.573 200.881 205.756 200.881 199.815V92.1906C200.881 86.2494 196.065 81.433 190.124 81.433Z" fill="#110239"/><path d="M200.88 117.413V92.1907C200.88 90.7759 200.601 89.375 200.058 88.0683C199.516 86.7615 198.722 85.5746 197.72 84.5753C196.719 83.5761 195.53 82.7842 194.222 82.245C192.914 81.7058 191.513 81.4299 190.098 81.4331H10.8045C7.95139 81.4331 5.21514 82.5664 3.1977 84.5839C1.18026 86.6013 0.046875 89.3376 0.046875 92.1907V117.413C0.046875 124.764 2.96715 131.814 8.16525 137.012C13.3633 142.21 20.4134 145.131 27.7647 145.131H173.138C180.491 145.131 187.544 142.211 192.746 137.014C197.948 131.816 200.873 124.766 200.88 117.413Z" fill="#453964"/><path d="M106.825 139.316H94.0566V153.829H106.825V139.316Z" fill="#D0D1DE"/><path d="M102.486 146.269H98.3672V149.855H102.486V146.269Z" fill="#110239"/><path d="M48.0454 17.469H41.3098C41.3098 17.469 40.3407 26.6275 38.5962 27.7178C38.5962 27.7178 36.4156 38.5481 44.6777 38.5481C54.6599 38.5481 50.7591 27.7178 50.7591 27.7178C49.0147 26.6275 48.0454 17.469 48.0454 17.469Z" fill="#F88667"/><path d="M48.0454 17.469H41.3098C41.3098 17.469 40.3407 26.6275 38.5962 27.7178C38.5962 27.7178 36.4156 38.5481 44.6777 38.5481C54.6599 38.5481 50.7591 27.7178 50.7591 27.7178C49.0147 26.6275 48.0454 17.469 48.0454 17.469Z" fill="#E45940"/><path d="M53.426 19.262C52.4811 18.1959 51.3666 19.8435 51.3666 19.8435C51.3666 19.8435 52.893 13.7863 51.3666 11.1211C49.8402 8.45594 44.849 9.86123 44.849 9.86123C44.849 9.86123 39.8579 8.45594 38.3315 11.1211C36.8051 13.7863 38.3315 19.8435 38.3315 19.8435C38.3315 19.8435 37.2169 18.1959 36.272 19.262C35.3271 20.3281 37.8226 23.0417 38.3799 23.3809C38.3799 23.3809 41.9658 30.0923 44.849 30.0923C47.7323 30.0923 51.3181 23.3809 51.3181 23.3809C51.8754 23.0417 54.3467 20.3523 53.426 19.262Z" fill="#F88667"/><path d="M43.6139 12.2598C43.6139 12.2598 39.8342 12.9382 39.4223 14.9492C39.3048 15.9622 39.3705 16.9881 39.6162 17.9778C39.816 19.0818 39.9293 20.1997 39.9554 21.3214C39.7909 21.3806 39.611 21.3806 39.4466 21.3214C38.9613 20.8702 38.5377 20.3569 38.1867 19.795C37.4598 18.7289 36.4422 18.8985 36.1272 19.5769C36.1272 19.5769 35.3034 9.64308 39.4466 9.27964C43.5897 8.91621 43.6139 12.2598 43.6139 12.2598Z" fill="#110239"/><path d="M46.0332 12.2598C46.0332 12.2598 49.8129 12.9382 50.2248 14.9492C50.367 15.9614 50.301 16.992 50.0309 17.9778C49.8254 19.0806 49.72 20.1996 49.716 21.3214C49.872 21.381 50.0445 21.381 50.2006 21.3214C50.6931 20.8706 51.1248 20.3574 51.4847 19.795C52.1873 18.7289 53.2292 18.8985 53.5199 19.5769C53.5199 19.5769 54.3679 9.64308 50.2006 9.27964C46.0332 8.91621 46.0332 12.2598 46.0332 12.2598Z" fill="#110239"/><path d="M52.2614 10.5881C52.1087 9.86057 51.7821 9.18082 51.3095 8.60699C50.837 8.03316 50.2325 7.58231 49.5477 7.29298C47.0002 6.25527 44.182 6.08499 41.528 6.80841C40.6141 6.93424 39.7499 7.30055 39.0239 7.86986C38.298 8.43918 37.7362 9.19108 37.3961 10.0487C37.0561 10.9063 36.9498 11.8388 37.0883 12.751C37.2268 13.6631 37.6051 14.522 38.1844 15.24C38.8159 15.8737 39.5737 16.3674 40.4086 16.6888C41.2435 17.0103 42.1368 17.1523 43.0302 17.1057C50.3473 17.1057 53.3032 12.8172 52.2614 10.5881Z" fill="#110239"/><path d="M50.8791 27.7179C50.5157 36.9249 44.7977 35.98 44.7977 35.98C44.7977 35.98 39.0555 36.9249 38.7163 27.7179C33.9738 29.0111 29.4026 30.8656 25.0996 33.2421C26.3123 38.8179 26.9858 44.4975 27.1106 50.2023L32.3441 70.4576L44.7977 71.0875L57.2271 70.4576L62.4605 50.2023C62.5862 44.4962 63.2678 38.8159 64.4957 33.2421C60.1909 30.8695 55.6202 29.0152 50.8791 27.7179Z" fill="#00BAD1"/><path d="M61.448 38.5723C55.7542 41.6009 52.9921 48.5788 47.468 51.9951C41.9438 55.4114 37.7765 48.385 34.9417 44.7265C32.6075 41.515 29.4408 39.0018 25.7832 37.4578C26.5139 41.6929 26.9189 45.9778 26.9946 50.2748L32.228 70.5301L44.6817 71.1601L57.1111 70.5301L62.3445 50.2748C62.4296 46.0437 62.8264 41.8245 63.5317 37.6516C62.8048 37.8939 62.1021 38.2089 61.448 38.5723Z" fill="#00547A" opacity=".32"/><path d="M67.838 78.6711C67.838 71.5478 59.0187 66.8716 59.0187 66.8716H29.29C29.29 66.8716 20.4707 71.5478 20.4707 78.6711C20.5638 80.5117 20.7986 82.3423 21.1733 84.1468H31.0344C30.6225 84.8737 30.2591 85.5521 29.9684 86.1335C29.8888 86.3 29.7999 86.4618 29.7019 86.6181H36.8493C37.4066 86.6181 37.237 86.8362 37.0674 86.0366C36.8978 85.2371 36.1467 84.2679 36.8493 83.0807C38.0282 82.0454 39.5224 81.4391 41.0894 81.3605H41.792C43.3427 81.3605 44.8691 81.3605 46.4198 81.3605C47.0086 81.4061 47.5924 81.5034 48.1642 81.6512C48.6488 81.6512 50.151 81.6512 50.7809 82.4508C51.1087 82.965 51.2851 83.5612 51.2898 84.171C51.2702 84.9848 51.181 85.7953 51.0232 86.5939H59.9879C59.3736 85.8161 58.7994 85.0074 58.2676 84.171H67.0385C67.447 82.3612 67.7143 80.5223 67.838 78.6711Z" fill="#FD425F"/><path d="M67.838 78.6711C67.838 71.5478 59.0187 66.8716 59.0187 66.8716H29.29C29.29 66.8716 20.4707 71.5478 20.4707 78.6711C20.5638 80.5117 20.7986 82.3423 21.1733 84.1468H31.0344C30.6225 84.8737 30.2591 85.5521 29.9684 86.1335C29.8888 86.3 29.7999 86.4618 29.7019 86.6181H36.8493C37.4066 86.6181 37.237 86.8362 37.0674 86.0366C36.8978 85.2371 36.1467 84.2679 36.8493 83.0807C38.0282 82.0454 39.5224 81.4391 41.0894 81.3605H41.792C43.3427 81.3605 44.8691 81.3605 46.4198 81.3605C47.0086 81.4061 47.5924 81.5034 48.1642 81.6512C48.6488 81.6512 50.151 81.6512 50.7809 82.4508C51.1087 82.965 51.2851 83.5612 51.2898 84.171C51.2702 84.9848 51.181 85.7953 51.0232 86.5939H59.9879C59.3736 85.8161 58.7994 85.0074 58.2676 84.171H67.0385C67.447 82.3612 67.7143 80.5223 67.838 78.6711Z" fill="#BD1337"/><path d="M24.9812 33.3631C24.9812 33.3631 13.6664 57.8343 14.4902 61.0809C14.684 61.9047 28.446 70.2152 34.9393 69.0038L37.5802 68.5191C37.5802 68.5191 27.9614 33.0724 24.9812 33.3631Z" fill="#00BAD1"/><path d="M64.349 33.3631C64.349 33.3631 75.6639 57.8343 74.8401 61.0809C74.6221 61.9047 60.8601 70.2152 54.391 69.0038L51.75 68.5191C51.75 68.5191 61.3689 33.0724 64.349 33.3631Z" fill="#00BAD1"/><path d="M29.3898 41.7947C29.4157 43.03 29.3101 44.2645 29.0748 45.4775C28.0814 49.8871 26.5065 54.4906 28.1541 58.9972C29.59 62.4941 31.2994 65.8724 33.2664 69.1006C33.8668 69.1345 34.469 69.0938 35.0593 68.9794L37.7003 68.4949C37.7003 68.4949 33.1695 52.2131 29.3898 41.7947Z" fill="#00547A" opacity=".32"/><path d="M58.1511 68.7614C59.0237 66.7013 59.4529 64.4807 59.4109 62.2438C59.2656 57.7373 59.2413 53.2307 59.4109 48.6999C59.4109 46.7616 59.411 44.8476 59.6048 43.0062C55.922 53.4003 51.8516 68.398 51.8516 68.398L54.4925 68.8826C55.709 69.0686 56.9495 69.0275 58.1511 68.7614Z" fill="#00547A" opacity=".32"/><path d="M33.3884 120.999C30.5321 124.302 27.8551 127.755 25.3687 131.345C24.5207 133.162 26.5801 135.463 29.3664 134.518C32.1527 133.574 33.8003 131.684 33.8488 130.472C33.8972 129.261 35.3752 128.607 36.0293 128.51C36.6835 128.413 40.4148 124.173 40.0513 123.01C39.5053 122.033 38.7325 121.202 37.7981 120.587L33.3884 120.999Z" fill="#000"/><path d="M54.8284 120.999C57.6847 124.302 60.3618 127.755 62.8481 131.345C63.6962 133.162 61.6367 135.463 58.8504 134.518C56.0641 133.574 54.4165 131.684 54.3681 130.472C54.3196 129.261 52.8417 128.607 52.1875 128.51C51.5333 128.413 47.8021 124.173 48.1655 123.01C48.7115 122.033 49.4843 121.202 50.4187 120.587L54.8284 120.999Z" fill="#000"/><path d="M35.8822 78.2834C35.0342 76.2481 34.8646 71.9596 29.0982 71.9596C18.0256 71.9596 20.618 80.8516 20.7876 82.16C22.4594 95.4132 30.4791 121.798 30.4791 121.798H41.6002C41.6002 121.798 37.554 89.4529 36.924 84.4617C36.7772 82.3734 36.4283 80.3043 35.8822 78.2834Z" fill="#FD425F"/><path d="M52.3586 78.2834C53.2066 76.2481 53.3762 71.9596 59.1427 71.9596C70.2395 71.9596 67.6228 80.8516 67.4532 82.16C65.7814 95.4132 57.7616 121.798 57.7616 121.798H46.6406C46.6406 121.798 50.6868 89.4529 51.3168 84.4617C51.4636 82.3734 51.8125 80.3043 52.3586 78.2834Z" fill="#FD425F"/><path d="M60.9851 68.6888H28.373V70.6271H60.9851V68.6888Z" fill="#110239"/><path d="M65.7822 46.0833H23.5757C23.2669 46.0809 22.9618 46.1514 22.6854 46.289C22.409 46.4267 22.1689 46.6276 21.9848 46.8755C21.8006 47.1234 21.6776 47.4112 21.6256 47.7156C21.5737 48.02 21.5943 48.3324 21.6858 48.6274C22.0735 51.0502 27.4038 68.9311 28.4699 68.9311H60.888C61.833 68.9311 67.2844 51.1714 67.6721 48.6274C67.7636 48.3324 67.7842 48.02 67.7323 47.7156C67.6803 47.4112 67.5573 47.1234 67.3731 46.8755C67.189 46.6276 66.9489 46.4267 66.6725 46.289C66.396 46.1514 66.091 46.0809 65.7822 46.0833Z" fill="#110239"/><path d="M46.4245 58.3915C46.4245 58.7365 46.3222 59.0738 46.1305 59.3607C45.9388 59.6475 45.6664 59.8711 45.3477 60.0032C45.0289 60.1352 44.6781 60.1697 44.3397 60.1024C44.0013 60.0351 43.6905 59.869 43.4465 59.625C43.2025 59.381 43.0364 59.0702 42.9691 58.7318C42.9017 58.3934 42.9363 58.0427 43.0684 57.7239C43.2004 57.4051 43.424 57.1327 43.7108 56.941C43.9977 56.7493 44.335 56.647 44.68 56.647C44.9091 56.647 45.136 56.6921 45.3477 56.7798C45.5593 56.8675 45.7516 56.9959 45.9136 57.1579C46.0756 57.3199 46.2041 57.5123 46.2917 57.7239C46.3794 57.9356 46.4245 58.1624 46.4245 58.3915Z" fill="#D0D1DE"/><path d="M88.1944 178.397L90.1569 184.406H96.4807L91.3684 188.137L93.3309 194.17L88.1944 190.439L83.0822 194.17L85.0204 188.137L79.9082 184.406H86.2319L88.1944 178.397Z" fill="#D0D1DE"/><path d="M110.823 178.397L112.786 184.406H119.134L113.997 188.137L115.96 194.17L110.823 190.439L105.711 194.17L107.674 188.137L102.537 184.406H108.885L110.823 178.397Z" fill="#D0D1DE"/><path d="M133.475 178.397L135.413 184.406H141.761L136.624 188.137L138.587 194.17L133.475 190.439L128.338 194.17L130.301 188.137L125.164 184.406H131.512L133.475 178.397Z" fill="#D0D1DE"/><path d="M156.107 178.397L158.07 184.406H164.394L159.281 188.137L161.22 194.17L156.107 190.439L150.971 194.17L152.933 188.137L147.797 184.406H154.145L156.107 178.397Z" fill="#D0D1DE"/><path d="M178.733 178.397L180.696 184.406H187.02L181.907 188.137L183.87 194.17L178.733 190.439L173.597 194.17L175.56 188.137L170.447 184.406H176.771L178.733 178.397Z" fill="#D0D1DE"/>
    </symbol>
    <symbol id="step-1-side-icon" viewBox="0 0 117 106">
      <g filter="url(#filter0_d_415_2)"><path d="M30 30.3636C30 21.3263 37.3263 14 46.3636 14H85.6364C94.6738 14 102 21.3263 102 30.3636V69.6364C102 78.6738 94.6738 86 85.6364 86H46.3636C37.3263 86 30 78.6738 30 69.6364V30.3636Z" fill="#FAD310"/></g><g filter="url(#filter1_d_415_2)"><path d="M15 16.8182C15 13.0526 18.0526 10 21.8182 10H38.1818C41.9474 10 45 13.0526 45 16.8182V33.1818C45 36.9474 41.9474 40 38.1818 40H21.8182C18.0526 40 15 36.9474 15 33.1818V16.8182Z" fill="#807DE7"/></g>
    </symbol>
    <symbol id="step-2-icon" viewBox="0 0 232 172">
      <path d="M198 113H34V138H198V113Z" fill="#110239"/><path d="M203.001 0H28.999C23.4767 0 19 4.47554 19 9.99641V120.004C19 125.524 23.4767 130 28.999 130H203.001C208.523 130 213 125.524 213 120.004V9.99641C213 4.47554 208.523 0 203.001 0Z" fill="#110239"/><path d="M204 9H28V120H204V9Z" fill="#3976F4"/><path d="M0 165V168.489C0 170.416 2.15205 172 4.79532 172H227.322C229.965 172 232 170.416 232 168.489V165H0Z" fill="#110239"/><path d="M115.994 137H20.7811C20.4537 137.349 5.48898 150.664 0.906015 160.563C-1.03473 164.792 0.227923 167 3.87559 167H228.137C231.761 167 233.047 164.676 231.083 160.563C226.406 150.664 211.559 137.325 211.231 137H115.994Z" fill="#110239"/><path d="M220 162H18L32.0129 141H206.01L220 162Z" fill="#9C9EB9"/><path d="M218 158.3L217.556 157.64H203.966L201.627 152.572H214.281L213.837 151.912H201.206L198.68 146.822H210.375L209.93 146.162H198.352L195.802 141H194.61L197.112 146.162H182.657L180.575 141H179.406L181.394 146.162H166.892L165.372 141H164.202L165.676 146.162H151.174L150.168 141H148.998L149.957 146.162H135.455L134.964 141H133.794L134.239 146.162H120.532V141H119.246V146.162H104.977L105.422 141H104.252L103.785 146.162H89.3526L90.3116 141H89.1421L88.1363 146.162H73.6343L75.1079 141H73.9383L72.418 146.162H57.9159L59.9275 141H58.7579L56.606 146.162H42.104L44.6067 141H43.4372L40.9344 146.162H28.1399L27.6955 146.822H40.607L38.0808 151.912H24.3038L23.8594 152.572H37.7533L35.2506 157.64H20.4444L20 158.3H34.9231L33.2156 162H34.5488L36.3265 158.3H51.9279L50.4777 162H51.811L53.2144 158.3H68.8626L67.7633 162H69.0965L70.1491 158.3H85.7973L85.0722 162H86.4054L87.1071 158.3H102.732L102.381 162H103.714L104.042 158.3H119.316V162H120.602V158.3H135.408L135.712 162H137.046L136.695 158.3H152.273L152.951 162H154.284L153.583 158.3H169.208L170.26 162H171.593L170.517 158.3H186.142L187.592 162H188.926L187.475 158.3H203.1L204.901 162H206.305L204.48 158.3H218ZM57.6118 146.822H72.1607L70.6403 151.912H55.6236L57.6118 146.822ZM41.8233 146.822H56.3955L54.3839 151.912H39.3439L41.8233 146.822ZM52.1151 157.64H36.537L39.0164 152.572H54.1266L52.1151 157.64ZM68.9796 157.64H53.4015L55.3897 152.572H70.4766L68.9796 157.64ZM85.8441 157.64H70.2894L71.7396 152.572H86.8265L85.8441 157.64ZM87.0136 151.912H71.9268L73.377 146.822H87.9492L87.0136 151.912ZM102.755 157.64H87.1539L88.0895 152.572H103.176L102.755 157.64ZM103.293 151.912H88.2065L89.1655 146.822H103.714L103.293 151.912ZM119.292 157.64H104.018L104.439 152.572H119.246L119.292 157.64ZM119.292 151.912H104.556L104.977 146.822H119.292V151.912ZM120.579 146.822H134.403L134.847 151.912H120.579V146.822ZM120.579 157.64V152.572H134.894L135.315 157.64H120.579ZM197.51 146.822L199.989 151.912H184.926L182.914 146.822H197.51ZM181.745 146.822L183.71 151.912H168.623L167.126 146.822H181.745ZM135.619 146.822H150.168L151.103 151.912H136.133L135.619 146.822ZM136.625 157.64L136.133 152.572H151.22L152.179 157.64H136.625ZM151.407 146.822H165.956L167.407 151.912H152.343L151.407 146.822ZM153.489 157.64L152.507 152.572H167.594L169.067 157.64H153.489ZM170.354 157.64L168.88 152.572H183.99L185.955 157.64H170.354ZM187.218 157.64L185.253 152.572H200.34L202.82 157.64H187.218Z" fill="#D0D1DE"/><path opacity=".2" d="M185 110H47V25H185V110ZM49.599 107.4H182.424V27.5999H49.599V107.4Z" fill="#fff"/><path d="M165 47H153V101H165V47Z" fill="#FD425F"/><path d="M142 75H128V101H142V75Z" fill="#fff"/><path d="M118 69H106V101H118V69Z" fill="#01C7E2"/><path d="M94 52H81V101H94V52Z" fill="#fff"/><path d="M70 63H57V101H70V63Z" fill="#fff"/><path d="M135.75 65L111.125 60.2309L87.414 38.1651L63.8669 58.4282L63 57.4926L87.4609 36.4537L111.758 59.0671L135.164 63.5852L158.946 31L160 31.7302L135.75 65Z" fill="#fff"/><path d="M65.9999 58.976C66.0047 59.5703 65.8328 60.1527 65.506 60.6492C65.1793 61.1457 64.7124 61.5339 64.1647 61.7647C63.6169 61.9954 63.013 62.0583 62.4295 61.9453C61.846 61.8322 61.3092 61.5484 60.8872 61.1298C60.4653 60.7112 60.1771 60.1767 60.0594 59.5942C59.9417 59.0116 59.9997 58.4071 60.226 57.8576C60.4524 57.308 60.8369 56.838 61.3307 56.5073C61.8246 56.1766 62.4055 56 62.9999 56C63.7914 56 64.5509 56.3127 65.1128 56.8702C65.6747 57.4276 65.9936 58.1845 65.9999 58.976Z" fill="#FD425F"/><path d="M87 40C88.6569 40 90 38.8807 90 37.5C90 36.1193 88.6569 35 87 35C85.3431 35 84 36.1193 84 37.5C84 38.8807 85.3431 40 87 40Z" fill="#FD425F"/><path d="M114 60.5C114 60.9945 113.795 61.4778 113.41 61.8889C113.026 62.3001 112.479 62.6205 111.839 62.8097C111.2 62.9989 110.496 63.0484 109.817 62.952C109.138 62.8555 108.515 62.6174 108.025 62.2678C107.536 61.9181 107.202 61.4727 107.067 60.9877C106.932 60.5028 107.002 60.0001 107.266 59.5433C107.531 59.0865 107.98 58.696 108.556 58.4213C109.131 58.1466 109.808 58 110.5 58C111.428 58 112.318 58.2634 112.975 58.7322C113.631 59.2011 114 59.837 114 60.5Z" fill="#FD425F"/><path d="M138 65.0001C138 65.5945 137.823 66.1754 137.493 66.6693C137.162 67.1631 136.692 67.5476 136.142 67.774C135.593 68.0003 134.988 68.0583 134.406 67.9406C133.823 67.8229 133.289 67.5347 132.87 67.1128C132.452 66.6908 132.168 66.154 132.055 65.5705C131.942 64.987 132.005 64.3831 132.235 63.8353C132.466 63.2876 132.854 62.8207 133.351 62.494C133.847 62.1672 134.43 61.9953 135.024 62.0001C135.417 62.0001 135.806 62.0778 136.168 62.2289C136.531 62.38 136.86 62.6013 137.137 62.8802C137.413 63.1591 137.632 63.49 137.78 63.8539C137.928 64.2177 138.003 64.6073 138 65.0001Z" fill="#FD425F"/><path d="M162 31.472C162.005 32.1654 161.833 32.8448 161.506 33.4241C161.179 34.0033 160.712 34.4563 160.165 34.7255C159.617 34.9947 159.013 35.068 158.429 34.9361C157.846 34.8043 157.309 34.4731 156.887 33.9848C156.465 33.4964 156.177 32.8729 156.059 32.1932C155.942 31.5135 156 30.8083 156.226 30.1672C156.452 29.526 156.837 28.9777 157.331 28.5919C157.825 28.206 158.406 28 159 28C159.791 28 160.551 28.3649 161.113 29.0152C161.675 29.6655 161.994 30.5486 162 31.472Z" fill="#FD425F"/><path d="M86.2665 53.9701C87.1228 53.7369 87.9101 53.2853 88.5574 52.656C88.8149 52.294 89.1428 51.9927 89.5196 51.772C89.9607 51.5358 90.3691 51.2384 90.7338 50.888C91.0886 50.5235 91.5322 50.2674 92.0167 50.1473C92.6352 50.1473 92.3145 50.8402 92.0167 51.2941C91.7189 51.7481 90.0465 52.4888 90.1153 53.11C90.184 53.7312 92.1771 52.7755 92.5665 52.5843C93.4829 52.1065 93.5516 51.2941 94.1014 50.5057C94.6512 49.7172 94.6971 49.9562 94.9032 50.5057C94.9299 50.7409 94.909 50.9794 94.842 51.2057C94.7749 51.4321 94.6631 51.6412 94.5138 51.8198C94.0456 52.6462 93.3934 53.3429 92.6123 53.8507C93.3675 53.4225 94.0364 52.8465 94.5825 52.1543C94.8803 51.772 95.9342 49.765 96.5527 50.3145C97.8127 51.2225 94.2618 54.5913 93.5058 54.8541C94.2783 54.4502 94.9824 53.9175 95.5905 53.2772C95.98 52.9188 96.8276 52.0587 96.988 52.9905C97.1942 54.3763 94.6971 55.3798 93.5287 56.0488C94.3325 55.8135 95.1029 55.468 95.8196 55.0214C96.7818 54.4958 96.8047 55.4276 95.8196 56.1204C95.361 56.4258 94.8869 56.705 94.3992 56.9567C92.7665 57.8198 90.9064 58.0969 89.1073 57.7451C88.3513 57.7451 86.8164 58.3186 86.4498 57.7451C85.6709 56.9328 86.1062 55.0931 86.2665 53.9701Z" fill="#F88667"/><path d="M86.4679 54.0928L88 59.3834C88 59.3834 70.026 64.1713 65.6811 64.9613C61.3363 65.7513 51.7318 54.1886 51.7318 54.1886C51.7318 54.1886 48.4617 45.8816 50.9086 46.0013C52.8066 46.0013 66.5272 57.0613 67.3047 57.4922C68.0822 57.9231 86.4679 54.0928 86.4679 54.0928Z" fill="#FD425F"/><path d="M38.7073 146.163C38.6211 147.946 38.7707 149.733 39.1522 151.475C39.7611 153.157 44 155.753 44 155.753C44 155.753 40.1592 156.522 38.6838 155.345C36.5905 153.018 34.995 150.267 34 147.269C34.2108 146.476 35.2881 144 35.2881 144L38.7073 146.163Z" fill="#F88667"/><path d="M61.7073 143.163C61.6222 144.948 61.7798 146.735 62.1756 148.475C62.7611 150.157 67 152.753 67 152.753C67 152.753 63.1592 153.522 61.6838 152.345C59.5905 150.018 57.995 147.267 57 144.269C57.2342 143.476 58.2881 141 58.2881 141L61.7073 143.163Z" fill="#F88667"/><path d="M35.53 147C35.53 147 32.2706 148.043 33.1509 150.764C33.6623 152.806 33.8943 154.902 33.8408 157H34.7925C34.7925 157 34.9828 153.1 35.6014 153.236C36.2199 153.372 37.576 157 38.9321 157H46.6405C46.6405 157 47.4494 156.229 46.6405 155.776C45.8316 155.322 40.5975 155.503 40.0027 154.415C39.408 153.327 35.53 147 35.53 147Z" fill="#110239"/><path d="M58.5281 144C58.5281 144 55.2711 145.043 56.1507 147.764C56.661 149.806 56.8928 151.902 56.8402 154H57.7911C57.7911 154 57.9813 150.1 58.5994 150.236C59.2175 150.372 60.5726 154 61.9277 154H69.6302C69.6302 154 70.4623 153.229 69.6302 152.776C68.7981 152.322 63.5918 152.503 62.9975 151.415C62.4031 150.327 58.5281 144 58.5281 144Z" fill="#110239"/><path d="M55.6845 75C55.6845 75 46.7454 78.1264 40.2674 75C37.533 77.6283 35.8787 81.1662 35.6237 84.931C35.4551 87.4236 35.5406 89.9267 35.8791 92.4023C36.799 98.8347 37.0867 105.34 36.7382 111.828C35.7398 120.586 33 146.034 33 146.034L39.1529 147C39.1529 147 44.8183 116.264 45.4916 112.517C46.1649 108.77 48.3243 93.3218 48.3243 93.3218C48.3243 93.3218 52.1553 105.23 53.1537 111C53.293 111.897 56.0328 144.517 56.0328 144.517H62C62 144.517 61.7678 108.241 61.7678 110.103C61.7678 110.885 60.1425 85.6667 55.6845 75Z" fill="#01C7E2"/><path d="M52.5089 96.9892C51.6241 93.3534 50.0903 89.9554 48 87C48.2552 88.7124 48.4892 90.4011 48.6806 92.1373C48.6806 92.1373 51.6794 102.697 52.9343 109C52.7429 102.103 53.4234 100.057 52.5089 96.9892Z" fill="#00A7CC"/><path d="M49.785 37.9072C49.2 37.7863 46.32 31.2574 45.105 30C44.4975 34.4493 42 44.9923 42 44.9923C45.0375 48.4985 51 46.3464 51 46.3464C50.0977 43.6424 49.6853 40.7778 49.785 37.9072Z" fill="#E45940"/><path d="M48.2191 22.1003C48.2191 22.1003 54.7544 23.4328 56.0016 25.1492C57.2488 26.8657 57.2488 31.3601 57.9473 32.5571C58.3464 33.2798 58.7205 33.8444 58.945 34.2735C59.1695 34.7027 58.6706 34.8607 58.0969 35.0414C57.9512 35.0844 57.8188 35.158 57.7104 35.2561C57.602 35.3542 57.5208 35.4741 57.4733 35.6061C57.0992 36.6901 56.0266 39.4681 54.9789 39.852C52.9398 40.2107 50.8263 39.9126 49.0042 39.0094C47.1822 38.1062 45.7662 36.6546 45.0013 34.9059C42.931 29.6436 44.1034 20.971 48.2191 22.1003Z" fill="#F88667"/><path d="M42.6396 41C45.507 42.257 48.4508 43.3413 51.4545 44.2468C51.4545 44.2468 56.621 54.226 56.9638 56.9954C57.3066 59.7647 60 78.7443 60 78.7443C60 78.7443 49.6915 85.0947 35 80.0573C35 80.0573 38.5749 65.1124 37.7669 59.2156C36.9589 53.3188 37.4486 45.3689 42.6396 41Z" fill="#FD425F"/><path d="M40.6456 82C40.485 75.8074 41.8849 70.1757 41.9997 63.9597C42.0131 61.927 41.6306 59.9118 40.8743 58.0306C40.1179 56.1494 39.0028 54.4396 37.5933 53C37.3052 55.3824 37.3052 57.7917 37.5933 60.1741C38.3507 65.946 35 80.5745 35 80.5745C36.8382 81.2139 38.727 81.6908 40.6456 82Z" fill="#E42244"/><path d="M35.104 59.2874C38.4873 56.3378 37.1157 53.4122 40.4989 50.6064L41.2304 50.0069C41.4133 48.4722 37.8929 49.2635 38.9445 47.7288C40.316 45.5465 46.031 42.2612 45.9167 40.1509C45.7793 39.4954 45.8269 38.812 46.0539 38.1845C46.351 36.5538 46.9911 36.2421 45.7795 35.043C44.9337 34.2037 44.2022 33.2924 44.888 32.0454C45.5738 30.7985 46.3282 30.7025 47.174 31.6618C47.3797 31.9255 48.3856 34.0598 48.637 32.8608C48.637 32.5251 48.2941 31.8776 48.2484 31.4939C48.1555 31.2704 48.1172 31.0261 48.1372 30.7832C48.1572 30.5403 48.2347 30.3065 48.3627 30.103C48.9571 29.4316 49.8486 29.0719 50.4887 28.4004C51.1287 27.7289 51.3573 26.434 52.4775 26.0023C53.0656 25.8105 53.6953 25.8105 54.2834 26.0023C54.5577 26.0023 55.6779 26.8896 55.8836 26.8177C57.8038 26.0023 56.9351 22.8609 55.6093 21.9017C53.2139 20.0736 50.3414 19.0608 47.3797 19C45.6245 19.2385 43.9378 19.8666 42.4321 20.8425C40.9263 21.8183 39.6361 23.1195 38.6473 24.6594C37.1614 26.6738 37.2757 28.7841 36.2013 30.9184C35.1269 33.0526 33.138 33.868 31.8808 35.7145C31.3624 36.5628 31.03 37.5212 30.9075 38.5206C30.7849 39.52 30.8753 40.5355 31.1721 41.4938C31.6298 42.9288 31.8086 44.4455 31.6979 45.9542C31.4007 47.8966 29.9148 49.3355 29.4119 51.2059C28.8627 52.942 28.8627 54.8176 29.4119 56.5536C30.1891 59.8629 32.1779 60.8222 35.104 59.2874Z" fill="#110239"/><path d="M29.7124 90.6776C29.7274 91.5515 29.9879 92.4058 30.4671 93.1531C30.7364 93.4697 30.9368 93.8335 31.0567 94.2236C31.1819 94.6667 31.3641 95.0936 31.5991 95.4948C31.8597 95.8895 31.9986 96.3452 32 96.8106C32 97.3681 31.2925 96.8106 30.9387 96.5876C30.585 96.3646 30.2784 94.5358 29.6888 94.4912C29.0992 94.4466 29.5473 96.4092 29.6888 96.7214C29.9246 97.658 30.6321 97.8811 31.2453 98.5278C31.8585 99.1746 31.6227 99.1746 31.0095 99.2415C30.3963 99.3084 30.1841 98.9069 29.8775 98.617C29.2085 98.0028 28.7207 97.2341 28.4624 96.3869C28.6614 97.1959 29.0392 97.9559 29.5709 98.617C29.8539 98.9738 31.3632 100.29 30.7972 100.847C29.6888 101.806 27.3776 97.9703 27.3304 97.1674C27.5205 97.9561 27.8472 98.7097 28.2974 99.3976C28.5332 99.799 29.1464 100.758 28.2974 100.691C26.9767 100.691 26.6465 98.0595 26.2692 96.9444C26.3175 97.7028 26.4681 98.4522 26.7172 99.1746C26.9767 100.156 26.1276 99.9997 25.6796 99.0407C25.4959 98.56 25.3462 98.0683 25.2315 97.5688C24.805 95.922 24.971 94.1878 25.7031 92.6402C25.9626 91.9711 25.7031 90.41 26.222 90.2093C27.1182 89.6295 28.6983 90.41 29.7124 90.6776Z" fill="#F88667"/><path d="M30.5081 90.7177L25 91C25 91 25 74.2256 26.3884 68.5087C27.7768 62.7918 38.2696 47.4525 40.6367 46.2997C43.4818 44.8881 52.0171 48.6523 45.7579 53.6164C39.4987 58.5805 33.6491 70.4614 33.4215 70.9084C33.1939 71.3554 30.5081 90.7177 30.5081 90.7177Z" fill="#FD425F"/>
    </symbol>
    <symbol id="step-2-side-icon" viewBox="0 0 51 51">
      <path d="M40.1028 0L25.5 14.6028L10.8998 0L0 10.8972L14.6028 25.5L0 40.1002L10.8998 51L25.5 36.3972L40.1028 51L51 40.1002L36.3972 25.5L51 10.8972L40.1028 0Z" fill="currentColor"/>
    </symbol>
    <symbol id="step-3-icon" viewBox="0 0 216 191">
      <path d="M127.764 179.8H88.207L91.4638 132.1H124.533L127.764 179.8Z" fill="#110239"/><path d="M132.952 172.159C132.72 171.807 132.404 171.519 132.032 171.322C131.659 171.125 131.244 171.025 130.823 171.031H85.1775C84.7522 171.021 84.3312 171.119 83.9543 171.316C83.5773 171.513 83.2568 171.803 83.0229 172.159L77.0605 181.077C76.7663 181.458 76.5879 181.915 76.5464 182.394C76.505 182.873 76.6023 183.354 76.8269 183.779C77.0514 184.205 77.3937 184.556 77.8127 184.793C78.2318 185.029 78.7098 185.139 79.1899 185.111H136.81C137.292 185.144 137.774 185.038 138.197 184.804C138.62 184.57 138.966 184.218 139.194 183.792C139.421 183.366 139.521 182.882 139.48 182.401C139.44 181.919 139.261 181.459 138.965 181.077L132.952 172.159Z" fill="#110239"/><path d="M204.877 0H11.1232C4.98002 0 0 4.98001 0 11.1232V133.653C0 139.797 4.98002 144.777 11.1232 144.777H204.877C211.02 144.777 216 139.797 216 133.653V11.1232C216 4.98001 211.02 0 204.877 0Z" fill="#110239"/><path d="M206.056 9.595H9.94727V133.704H206.056V9.595Z" fill="#3976F4"/><path d="M135.083 93.545H124.336V133.578H135.083V93.545Z" fill="#D0D1DE"/><path d="M135.083 93.545H124.336V106.096H135.083V93.545Z" fill="#9698B5"/><path d="M164.169 31.4655H100.611V96.025H189.421V56.7181C189.421 50.0207 186.761 43.5976 182.025 38.8618C177.289 34.1261 170.866 31.4655 164.169 31.4655Z" fill="#FD425F"/><path d="M126.264 96.0251H75.1074V56.7182C75.1074 50.0208 77.768 43.5977 82.5037 38.8619C87.2395 34.1261 93.6627 31.4656 100.36 31.4656H100.886C104.213 31.4491 107.51 32.0901 110.588 33.3517C113.667 34.6134 116.465 36.4709 118.823 38.8175C121.182 41.164 123.053 43.9534 124.33 47.0254C125.607 50.0974 126.264 53.3914 126.264 56.7182V96.0251Z" fill="#FD425F"/><path d="M121.782 90.5136H79.4688V57.9458C79.4688 55.1954 80.0104 52.472 81.063 49.931C82.1155 47.39 83.6582 45.0812 85.603 43.1364C87.5478 41.1916 89.8566 39.6489 92.3976 38.5964C94.9386 37.5439 97.662 37.0022 100.412 37.0022H100.838C106.393 37.0022 111.72 39.2087 115.648 43.1364C119.575 47.0641 121.782 52.3912 121.782 57.9458V90.5136Z" fill="#110239"/><path d="M106.723 91.0646H58.2969V96.025H106.723V91.0646Z" fill="#FD425F"/><path d="M162.464 72.1254C163.993 72.1254 165.496 69.6201 165.496 66.188C165.609 64.5457 165.376 62.8979 164.811 61.3518C164.246 59.8057 163.361 58.3959 162.215 57.2143C161.069 56.0327 159.687 55.1057 158.158 54.4936C156.63 53.8815 154.99 53.5982 153.345 53.6619C150.023 53.6619 146.837 54.9816 144.488 57.3307C142.139 59.6798 140.819 62.8659 140.819 66.188C140.788 67.7798 141.081 69.3613 141.679 70.8366C142.278 72.3119 143.17 73.6501 144.302 74.77C145.433 75.8899 146.781 76.7682 148.262 77.3514C149.744 77.9347 151.328 78.2108 152.919 78.1629C155.409 78.1401 157.831 77.353 159.859 75.9082L161.562 78.8644C159.021 80.6221 156.009 81.5736 152.919 81.5951C150.86 81.67 148.806 81.3254 146.883 80.5821C144.961 79.8389 143.21 78.7125 141.736 77.2715C140.262 75.8305 139.096 74.1049 138.31 72.1996C137.524 70.2943 137.133 68.249 137.162 66.188C137.184 64.0892 137.622 62.0155 138.448 60.0862C139.275 58.1569 140.475 56.41 141.979 54.9457C143.482 53.4814 145.261 52.3287 147.211 51.5538C149.162 50.7789 151.247 50.397 153.345 50.4302C155.431 50.3681 157.506 50.7322 159.446 51.5002C161.386 52.2682 163.148 53.424 164.626 54.8968C166.103 56.3696 167.265 58.1284 168.039 60.0655C168.813 62.0027 169.184 64.0775 169.128 66.1629C169.128 71.6744 166.122 75.2318 162.038 75.2318C161.091 75.3744 160.124 75.1616 159.324 74.6344C158.524 74.1072 157.947 73.3028 157.704 72.3759V71.95C157.1 72.8547 156.279 73.5943 155.317 74.1017C154.355 74.6092 153.281 74.8684 152.193 74.8561C151.102 74.8302 150.027 74.588 149.03 74.1433C148.033 73.6986 147.134 73.0604 146.386 72.2656C145.638 71.4709 145.055 70.5355 144.672 69.5136C144.288 68.4918 144.111 67.404 144.151 66.3133C144.052 65.2459 144.17 64.1695 144.497 63.1488C144.825 62.1282 145.356 61.1845 146.058 60.3746C146.761 59.5647 147.62 58.9053 148.583 58.4362C149.547 57.9672 150.596 57.6981 151.667 57.6452C152.619 57.6276 153.563 57.8233 154.43 58.2177C155.297 58.6122 156.065 59.1955 156.677 59.9249V57.9458H161.237V70.3216C161.111 71.6494 161.663 72.1254 162.464 72.1254ZM149.061 66.0377C149.061 68.5429 150.439 70.6222 152.594 70.6222C154.748 70.6222 156.251 68.5429 156.251 66.0627C156.35 65.5345 156.332 64.9909 156.197 64.4707C156.062 63.9505 155.814 63.4664 155.471 63.0528C155.128 62.6393 154.698 62.3065 154.211 62.078C153.725 61.8496 153.194 61.7311 152.656 61.7311C152.119 61.7311 151.588 61.8496 151.102 62.078C150.615 62.3065 150.185 62.6393 149.842 63.0528C149.499 63.4664 149.251 63.9505 149.116 64.4707C148.981 64.9909 148.962 65.5345 149.061 66.0627V66.0377Z" fill="#fff"/><path d="M110.958 104.468C111.333 94.4469 118.198 85.9041 121.78 82.0962V79.9667H88.6862C81.9222 79.9667 77.8888 83.4239 74.2312 89.1358C71.1284 93.683 69.2949 98.9756 68.92 104.468C68.419 118.121 71.4253 124.735 62.5067 133.779C53.5881 142.823 49.68 147.958 52.3105 162.714H94.4733C91.8428 147.958 95.8011 142.798 104.67 133.779C113.538 124.76 110.482 118.071 110.958 104.468Z" fill="#E5E6ED"/><path d="M115.842 82.9979H84.7771L83.5996 84.3507H114.689L115.842 82.9979Z" fill="#9A94AB"/><path d="M110.956 89.5867H79.8915C79.6159 90.0376 79.3404 90.4885 79.0898 90.9645H110.155C110.405 90.5136 110.681 90.0376 110.956 89.5867Z" fill="#9A94AB"/><path d="M107.701 96.1002H76.6362C76.4608 96.526 76.3105 97.002 76.1602 97.453H107.225L107.701 96.1002Z" fill="#9A94AB"/><path d="M106.221 102.589H75.1566C75.1566 103.04 75.1565 103.491 75.0312 103.942H106.096C105.996 103.491 106.046 103.04 106.221 102.589Z" fill="#9A94AB"/><path d="M105.895 109.077H74.8301C74.8301 109.553 74.8301 110.004 74.8301 110.43H105.895C105.895 110.004 105.895 109.553 105.895 109.077Z" fill="#9A94AB"/><path d="M106.02 115.566H74.9551C74.9551 116.042 74.9551 116.493 74.9551 116.944H106.02C106.045 116.493 106.045 116.042 106.02 115.566Z" fill="#9A94AB"/><path d="M105.745 122.079H74.6551C74.6044 122.534 74.5292 122.986 74.4297 123.432H105.494C105.595 123.081 105.67 122.53 105.745 122.079Z" fill="#9A94AB"/><path d="M103.567 128.568H72.5022C72.2266 129.019 71.951 129.47 71.6504 129.921H102.715C103.016 129.47 103.316 129.019 103.567 128.568Z" fill="#9A94AB"/><path d="M98.2815 135.056H67.2167L65.9141 136.434H96.9788L98.2815 135.056Z" fill="#9A94AB"/><path d="M92.6678 141.57H61.6031C61.2858 142.021 60.9851 142.472 60.7012 142.923H91.766L92.6678 141.57Z" fill="#9A94AB"/><path d="M89.4369 148.134H58.3722C58.3722 148.585 58.1217 149.035 58.0215 149.486H89.0862C89.1864 148.96 89.3116 148.509 89.4369 148.134Z" fill="#9A94AB"/><path d="M88.6838 154.547H57.6191V155.925H88.6838V154.547Z" fill="#9A94AB"/><path d="M72.6272 94.597C72.3516 94.1461 70.598 95.5741 70.3474 95.9498C69.8818 96.4868 69.4549 97.0561 69.0698 97.6534C68.7943 98.2546 68.5186 98.8309 68.218 99.4321C68.1081 99.776 68.0244 100.128 67.9675 100.484C67.7285 101.002 67.4162 101.483 67.0405 101.912C67.0405 102.038 67.0406 102.088 66.8652 102.288C67.5667 102.864 67.5917 103.39 67.9925 104.192C68.2563 103.935 68.5412 103.7 68.8443 103.491C69.1199 103.315 70.8736 102.639 71.1742 102.514C71.7753 102.265 72.3399 101.937 72.8527 101.536C73.0531 101.386 73.8047 101.136 73.7295 100.86C73.6544 100.585 72.5771 100.585 72.3266 100.635C71.7247 100.864 71.0909 101 70.4477 101.035C70.3296 100.996 70.2207 100.934 70.1273 100.851C70.034 100.769 69.9582 100.669 69.9044 100.556C69.8506 100.444 69.82 100.322 69.8143 100.198C69.8087 100.074 69.8281 99.9496 69.8715 99.8329C70.0745 99.2162 70.4586 98.675 70.9738 98.2797L72.7024 96.7014C73.6293 95.8997 73.2284 95.3235 72.3767 95.8496C72.2013 95.8496 70.8736 97.0521 70.7483 97.1023L71.0991 96.7265C71.6252 96.1002 72.9779 95.1231 72.6272 94.597Z" fill="#F88667"/><path d="M35.7253 79.3653C35.7253 79.3653 35.8506 79.5908 35.9257 79.7161C36.5907 80.8321 37.3626 81.8809 38.2305 82.8476C38.7566 83.3987 39.6836 83.8998 40.1345 84.476C40.3134 84.6965 40.5058 84.9057 40.7107 85.1023C39.5474 87.7116 38.5924 90.409 37.8547 93.1691C37.8547 93.1691 32.2681 91.4906 30.7148 88.7098C32.6651 85.7535 34.3422 82.6258 35.7253 79.3653Z" fill="#F88667"/><path d="M36.6269 89.5616C36.6051 87.8074 36.0454 86.1022 35.0235 84.6764C34.6654 84.2198 34.2806 83.7848 33.8711 83.3737C34.59 82.0866 35.2097 80.7466 35.7249 79.3653C35.7249 79.3653 35.8502 79.5908 35.9254 79.7161C36.5903 80.8321 37.3622 81.8809 38.2302 82.8476C38.7562 83.3987 39.6832 83.8998 40.1341 84.476C40.313 84.6965 40.5055 84.9057 40.7104 85.1023C39.547 87.7116 38.592 90.409 37.8544 93.1691C37.8544 93.1691 36.9024 92.8685 35.6749 92.3424C36.3045 91.5536 36.641 90.5708 36.6269 89.5616Z" fill="#E45940"/><path d="M14.9567 182.555C14.9567 182.555 14.1049 188.217 14.9567 189.044C15.8085 189.871 27.6331 190.697 28.6602 189.67C29.6874 188.643 29.1613 186.839 26.6811 186.063C24.2009 185.286 22.7229 186.063 21.0694 185.186C19.416 184.309 19.9421 181.829 19.9421 181.829L14.9567 182.555Z" fill="#110239"/><path d="M34.8258 182.555C34.8258 182.555 33.9741 188.217 34.8258 189.044C35.6776 189.871 47.5022 190.697 48.5294 189.67C49.5565 188.643 49.0304 186.839 46.5502 186.063C44.0701 185.286 42.592 186.063 40.9386 185.186C39.2851 184.309 39.8112 181.829 39.8112 181.829L34.8258 182.555Z" fill="#110239"/><path d="M13.0998 150.639C11.1308 139.989 10.1663 129.177 10.2188 118.347C12.1712 117.997 14.1742 118.048 16.1061 118.497C19.8639 119.524 23.6217 120.451 27.3545 121.403C24.9958 131.517 23.3219 141.778 22.3441 152.117C22.3441 157.278 20.9913 184.384 20.9913 184.384L14.1771 184.535C13.5258 180.426 13.3253 152.017 13.0998 150.639Z" fill="#FD425F"/><path d="M21.3696 119.975C23.3487 120.551 25.3779 120.952 27.3821 121.328C25.0553 131.431 23.3817 141.673 22.3717 151.992C21.0439 149.486 15.9833 140.493 13.1775 133.679C11.2909 129.126 10.3041 124.251 10.2715 119.324C13.9761 118.77 17.7552 118.992 21.3696 119.975Z" fill="#E01F41"/><path d="M16.7839 118.272C19.2891 119.023 23.8988 120.05 27.381 121.127C30.0115 127.065 37.4019 142.823 38.7297 149.136C40.6587 157.854 40.6837 183.908 40.6837 183.908H34.07C34.07 183.908 29.5605 154.397 28.7589 152.343C25.5522 144.075 19.665 138.338 17.3852 134.43C14.0045 129.084 11.7063 123.126 10.6211 116.894C12.5752 117.47 14.6545 117.67 16.7839 118.272Z" fill="#FD425F"/><path d="M32.9166 95.975C34.3446 93.1441 33.2173 91.1399 36.2235 92.1169C41.234 93.7203 45.8686 104.342 48.7496 105.044C52.7079 105.996 67.3634 100.935 67.3634 100.935L68.8665 104.668C68.8665 104.668 49.5513 113.111 46.3195 112.309C43.0878 111.507 34.8457 102.463 32.8165 99.4071C32.5174 98.8807 32.3685 98.2822 32.3862 97.677C32.4038 97.0718 32.5873 96.4831 32.9166 95.975Z" fill="#D0D1DE"/><path d="M32.9166 95.975C34.3446 93.1441 33.2173 91.1399 36.2235 92.1169C41.234 93.7203 45.8686 104.342 48.7496 105.044C52.7079 105.996 67.3634 100.935 67.3634 100.935L68.8665 104.668C68.8665 104.668 49.5513 113.111 46.3195 112.309C43.0878 111.507 34.8457 102.463 32.8165 99.4071C32.5174 98.8807 32.3685 98.2822 32.3862 97.677C32.4038 97.0718 32.5873 96.4831 32.9166 95.975Z" fill="#B8B9CD"/><path d="M30.0396 125.587C26.0437 125.302 22.0933 124.563 18.2652 123.382C13.9812 121.954 10.2985 119.549 9.69727 117.72C9.69727 117.72 16.4614 100.184 21.1461 94.0709C22.2889 92.3988 23.7726 90.9875 25.4997 89.9296C27.2268 88.8718 29.1582 88.1914 31.167 87.9331C33.15 89.7543 35.5111 91.1146 38.0814 91.9164C38.0814 91.9164 35.0501 105.019 33.5971 110.205C32.1441 115.39 30.0396 125.587 30.0396 125.587Z" fill="#D0D1DE"/><path d="M28.5588 105.545C28.1918 102.618 28.3444 99.6501 29.0097 96.7767C29.2853 97.0021 29.586 97.2276 29.8365 97.4781C31.3129 99.0643 33.0498 100.386 34.9722 101.386C35.2218 101.496 35.4821 101.58 35.7488 101.637C34.9972 104.818 34.1955 108.025 33.6193 110.054C32.1913 115.215 29.9366 125.436 29.9366 125.436C29.9366 125.436 28.2582 125.436 25.8281 124.985C28.5588 119.349 28.7592 112.084 28.5588 105.545Z" fill="#B8B9CD"/><path d="M36.0779 71.3737C36.0779 71.3737 40.7877 68.0668 43.5936 69.8706C46.3994 71.6743 47.9527 73.2025 47.7021 74.5303C47.1157 76.6048 46.705 78.725 46.4745 80.8685C46.7968 82.326 46.9813 83.8106 47.0257 85.3027C46.7 85.7787 44.9464 85.0272 44.7209 85.3027C44.4955 85.5783 41.5142 88.6848 40.6875 88.7349C38.2423 86.9076 36.4786 84.3149 35.677 81.3695C35.8023 79.1148 34.2741 74.1545 36.0779 71.3737Z" fill="#F88667"/><path d="M41.8888 75.0565C42.2646 76.0585 43.7176 77.7871 47.5756 78.1128C51.4337 78.4385 54.0391 70.5972 47.3251 67.5909C40.6111 64.5846 39.6341 66.9646 38.1811 66.8143C37.4762 66.683 36.7514 66.7045 36.0556 66.8774C35.3598 67.0503 34.7091 67.3705 34.1477 67.8164C32.8268 68.7947 31.8854 70.2003 31.4835 71.7941C31.0816 73.388 31.244 75.0719 31.9431 76.5596C33.4713 80.9437 35.751 81.57 35.751 81.57C36.3272 80.8435 37.0036 79.4406 36.5276 78.664C36.2232 78.3178 35.9701 77.9297 35.7761 77.5116C35.6905 77.2107 35.706 76.89 35.8204 76.5988C35.9348 76.3076 36.1416 76.062 36.4091 75.8998C36.6766 75.7376 36.99 75.6677 37.3011 75.7009C37.6122 75.7341 37.9037 75.8686 38.131 76.0836C38.7823 76.5846 38.4316 78.0377 38.607 78.7141C38.7823 79.3905 39.133 79.5157 39.4337 79.5408C39.7343 79.5658 41.1122 78.3633 40.9368 76.3091C40.8116 75.0063 41.488 74.0544 41.8888 75.0565Z" fill="#110239"/><path d="M60.1767 125.937C60.4175 125.976 60.653 126.044 60.8781 126.138C61.3563 126.417 61.9032 126.555 62.4564 126.539C63.4 126.443 64.3529 126.572 65.2373 126.914C65.6381 127.14 67.9679 128.743 66.9408 129.42C66.7522 129.532 66.5337 129.585 66.3145 129.57L65.4627 128.793C65.6735 128.966 65.8665 129.159 66.0389 129.369C66.1449 129.478 66.2299 129.606 66.2894 129.745C66.2844 129.908 66.2208 130.064 66.1104 130.183C65.9999 130.303 65.85 130.379 65.6882 130.397C65.4377 130.397 65.3625 130.096 65.2122 129.921C65.3374 130.121 65.6631 130.372 65.2122 130.823C64.7612 131.273 64.661 130.823 64.4356 130.823L64.2101 130.597C64.2101 130.597 64.5609 130.998 64.611 131.098C64.6611 131.198 63.9596 131.9 63.5087 131.649C63.0577 131.399 62.7069 130.823 62.5316 130.797L61.9053 130.647C61.2991 130.447 60.7552 130.093 60.327 129.62L59.5253 128.843C59.2426 128.541 58.9987 128.204 58.7988 127.841C59.4499 127.37 59.9328 126.703 60.1767 125.937Z" fill="#F88667"/><path d="M59.0496 129.52L62.1059 125.436C62.1059 125.436 51.0328 114.94 46.8742 109.754C42.7155 104.568 38.7322 94.522 35.275 93.5449C31.8178 92.5679 28.035 94.1462 29.5381 99.2819C31.0412 104.418 40.7614 112.059 42.6403 114.464C47.8393 119.77 53.3168 124.796 59.0496 129.52Z" fill="#D0D1DE"/>
    </symbol>
    <symbol id="step-3-side-icon" viewBox="0 0 83 83">
      <circle cx="41.5" cy="41.5" r="31.5" stroke="#FAD310" stroke-width="20"/>
    </symbol>
    <symbol id="step-4-icon" viewBox="0 0 244 184">
      <path d="M155.712 178.728H116.406L119.65 131.339H152.468L155.712 178.728Z" fill="#110239"/><path d="M160.85 171.132C160.606 170.79 160.287 170.509 159.916 170.312C159.545 170.115 159.134 170.007 158.714 169.997H113.379C112.962 169.998 112.551 170.102 112.183 170.301C111.815 170.499 111.502 170.784 111.271 171.132L105.324 179.999C105.106 180.394 104.99 180.836 104.986 181.287C104.983 181.738 105.093 182.182 105.305 182.58C105.517 182.977 105.825 183.315 106.202 183.563C106.578 183.811 107.01 183.962 107.459 184H164.661C165.11 183.962 165.543 183.811 165.919 183.563C166.295 183.315 166.603 182.977 166.816 182.58C167.028 182.182 167.137 181.738 167.134 181.287C167.131 180.836 167.015 180.394 166.797 179.999L160.85 171.132Z" fill="#110239"/><path d="M232.271 0.0933838H39.8222C33.7158 0.0933838 28.7656 5.04357 28.7656 11.1499V132.88C28.7656 138.987 33.7158 143.937 39.8222 143.937H232.271C238.378 143.937 243.328 138.987 243.328 132.88V11.1499C243.328 5.04357 238.378 0.0933838 232.271 0.0933838Z" fill="#110239"/><path d="M233.461 9.63586H38.6602V132.934H233.461V9.63586Z" fill="#3976F4"/><path d="M228.593 23.0445H43.5234V132.907H228.593V23.0445Z" fill="#3976F4"/><path d="M228.593 23.0445H43.5234V32.1277H228.593V23.0445Z" fill="#FEFEFE"/><path d="M219.619 61.783H162.146V69.3793H219.619V61.783Z" fill="#FEFEFE"/><path d="M219.619 75.1913H162.146V82.7876H219.619V75.1913Z" fill="#FEFEFE"/><path d="M219.619 88.627H162.146V96.2233H219.619V88.627Z" fill="#FEFEFE"/><path d="M118.055 41.2649H60.582V48.8612H118.055V41.2649Z" fill="#FEFEFE"/><path d="M118.055 54.6732H60.582V62.2695H118.055V54.6732Z" fill="#FEFEFE"/><path d="M115.378 57.0253H6.86645C5.96474 57.0253 5.07186 57.2029 4.23878 57.548C3.40571 57.893 2.64876 58.3988 2.01115 59.0364C1.37355 59.674 0.867782 60.431 0.522712 61.264C0.177642 62.0971 0 62.99 0 63.8917V98.8996C0 99.8013 0.177642 100.694 0.522712 101.527C0.867782 102.36 1.37355 103.117 2.01115 103.755C2.64876 104.393 3.40571 104.898 4.23878 105.243C5.07186 105.589 5.96474 105.766 6.86645 105.766H74.8549L100.753 127.798L88.4525 105.766H115.486C117.309 105.766 119.059 105.044 120.351 103.757C121.643 102.47 122.372 100.723 122.379 98.8996V63.8917C122.376 62.9796 122.191 62.0772 121.837 61.2368C121.482 60.3965 120.964 59.6348 120.312 58.9962C119.661 58.3575 118.89 57.8545 118.043 57.5161C117.196 57.1778 116.29 57.0109 115.378 57.0253Z" fill="#FD425F"/><path d="M113.996 66.4597H40.8711V70.6769H113.996V66.4597Z" fill="#fff"/><path d="M113.996 75.0563H40.8711V79.2735H113.996V75.0563Z" fill="#fff"/><path d="M113.996 83.653H40.8711V87.8702H113.996V83.653Z" fill="#fff"/><path d="M89.3956 92.2224H40.8711V96.4396H89.3956V92.2224Z" fill="#fff"/><path d="M35.0879 80.6522C35.0879 83.4431 34.2603 86.1714 32.7097 88.492C31.1591 90.8126 28.9553 92.6213 26.3767 93.6893C23.7982 94.7574 20.9609 95.0369 18.2236 94.4924C15.4862 93.9479 12.9718 92.6039 10.9983 90.6304C9.02483 88.6569 7.68089 86.1425 7.1364 83.4051C6.59191 80.6678 6.87131 77.8305 7.93936 75.252C9.00741 72.6735 10.8161 70.4696 13.1367 68.919C15.4573 67.3685 18.1856 66.5408 20.9765 66.5408C22.8297 66.5408 24.6647 66.9059 26.3767 67.615C28.0888 68.3242 29.6444 69.3637 30.9548 70.674C32.2651 71.9844 33.3046 73.54 34.0137 75.252C34.7229 76.9641 35.0879 78.799 35.0879 80.6522Z" fill="#110239"/><path d="M20.9758 80.5711C23.1705 80.5711 24.9497 78.7314 24.9497 76.462C24.9497 74.1927 23.1705 72.353 20.9758 72.353C18.7811 72.353 17.002 74.1927 17.002 76.462C17.002 78.7314 18.7811 80.5711 20.9758 80.5711Z" fill="#fff"/><path d="M21.0557 81.1118H20.9206C19.0421 81.1118 17.2406 81.858 15.9123 83.1863C14.5841 84.5145 13.8379 86.316 13.8379 88.1944V92.709C15.9885 94.0172 18.4573 94.7091 20.9746 94.7091C23.4919 94.7091 25.9608 94.0172 28.1114 92.709V88.1944C28.115 87.2656 27.9351 86.3452 27.5821 85.4861C27.2291 84.6269 26.7099 83.8459 26.0544 83.1878C25.3988 82.5298 24.6199 82.0076 23.7621 81.6514C22.9043 81.2951 21.9845 81.1117 21.0557 81.1118Z" fill="#fff"/><path d="M216.616 108.523H173.552C170.059 108.523 167.227 111.356 167.227 114.849V119.877C167.227 123.371 170.059 126.203 173.552 126.203H216.616C220.11 126.203 222.942 123.371 222.942 119.877V114.849C222.942 111.356 220.11 108.523 216.616 108.523Z" fill="#FD425F"/><path d="M189.504 115.2C189.508 115.635 189.363 116.057 189.092 116.397C188.821 116.736 188.442 116.973 188.018 117.066C188.528 117.145 188.992 117.409 189.321 117.808C189.65 118.206 189.821 118.712 189.802 119.228C189.802 120.715 188.504 121.634 186.477 121.634H182.232V113.011H186.314C188.288 113.011 189.504 113.876 189.504 115.2ZM187.207 115.579C187.207 115.065 186.828 114.768 186.206 114.768H184.476V116.444H186.206C186.828 116.444 187.207 116.255 187.207 115.579ZM187.477 118.958C187.477 118.417 186.99 118.066 186.206 118.066H184.476V119.877H186.206C186.99 119.877 187.477 119.553 187.477 118.958Z" fill="#fff"/><path d="M194.88 119.823C195.114 119.833 195.348 119.791 195.565 119.701C195.781 119.612 195.976 119.476 196.136 119.304C196.295 119.132 196.415 118.927 196.488 118.704C196.56 118.481 196.583 118.245 196.556 118.012V113.011H198.8V118.012C198.717 119.006 198.265 119.932 197.531 120.608C196.797 121.283 195.837 121.658 194.839 121.658C193.842 121.658 192.881 121.283 192.148 120.608C191.414 119.932 190.961 119.006 190.879 118.012V113.011H193.123V118.012C193.103 118.25 193.135 118.49 193.215 118.715C193.296 118.94 193.424 119.145 193.59 119.316C193.756 119.488 193.958 119.622 194.18 119.709C194.403 119.797 194.641 119.835 194.88 119.823Z" fill="#fff"/><path d="M204.855 118.958V121.661H202.612V118.958L199.422 113.038H201.666L203.72 116.741L205.721 113.038H207.964L204.855 118.958Z" fill="#fff"/><path d="M142.624 52.4296C139.753 52.944 136.825 53.0713 133.92 52.8081C132.879 52.7018 131.854 52.475 130.865 52.1323C131 55.7547 131.027 64.2702 128.459 67.7845C128.459 67.7845 129.378 71.9476 136.92 72.0828C144.463 72.2179 145.301 66.5139 145.301 66.5139C143.967 61.914 143.071 57.1982 142.624 52.4296Z" fill="#F88667"/><path d="M128.49 67.9196V68.217C128.556 68.3692 128.638 68.5142 128.733 68.6496L129.112 69.1902C129.508 69.6447 129.962 70.0447 130.463 70.3797C130.791 70.587 131.134 70.7678 131.491 70.9204H131.626C132.059 71.0981 132.501 71.2514 132.951 71.3799C133.179 69.4084 133.946 67.5379 135.167 65.9732C137.283 63.312 140.323 61.5457 143.683 61.0262C142.961 58.1082 142.5 55.1318 142.304 52.1323C139.432 52.6467 136.505 52.774 133.599 52.5107C132.558 52.4045 131.533 52.1777 130.545 51.8349C130.68 55.4573 130.707 63.9728 128.139 67.4871V67.6223L128.49 67.9196Z" fill="#E45940"/><path d="M132.164 32.0735C132.164 32.0735 144.545 28.424 146.491 31.4247C148.438 34.4254 148.113 39.2373 148.924 41.3729C149.735 43.5085 152.817 45.7523 153.141 46.5903C153.466 47.4283 151.087 49.0774 150.762 49.7532C150.438 50.429 149.195 57.4036 147.032 58.9444C144.869 60.4853 133.38 56.4034 130.542 50.8345C127.703 45.2657 128.866 33.8577 132.164 32.0735Z" fill="#F88667"/><path d="M137.815 34.2361C137.948 36.4426 137.491 38.6449 136.49 40.6159C135.76 42.1028 139.464 46.0226 138.437 47.8338C137.734 49.0232 136.733 48.6988 135.733 46.3469C135.291 45.5586 134.582 44.9545 133.733 44.6438C130.705 43.3463 130.002 47.9419 132.706 49.3206C134.598 50.2938 133.489 55.0786 133.489 55.0786C131.435 56.6466 124.704 54.7542 125.379 49.8342C125.866 46.7254 126.055 45.5089 124.974 44.752C124.248 44.3544 123.624 43.7955 123.148 43.1185C122.673 42.4415 122.359 41.6644 122.231 40.847C122.103 40.0296 122.164 39.1938 122.41 38.4038C122.656 37.6139 123.08 36.8909 123.649 36.2906C128.164 31.8031 124.055 30.3974 129.272 29.0998C134.49 27.8022 138.95 30.9921 137.815 34.2361Z" fill="#110239"/><path d="M128.57 31.6141C128.868 30.4787 130.922 28.9107 131.949 28.2349C133.579 27.0905 135.415 26.2734 137.356 25.829C139.301 25.3337 141.331 25.2691 143.303 25.6397C144.979 25.9641 146.412 26.721 148.142 26.9103C148.878 27.0781 149.64 27.0902 150.38 26.9459C151.12 26.8016 151.822 26.504 152.441 26.0722C152.746 27.3554 152.82 28.683 152.657 29.992C152.215 31.5595 151.461 33.0216 150.44 34.2903C148.756 36.2954 146.499 37.7377 143.972 38.4238C141.445 39.1099 138.769 39.0071 136.302 38.1291C134.072 37.5322 132.115 36.1863 130.76 34.3174C130.166 33.3143 129.428 32.4035 128.57 31.6141Z" fill="#110239"/><path d="M194.559 39.67L206.508 66.1896C206.508 66.1896 203.021 70.1093 201.858 69.2442C200.696 68.3792 182.746 46.8608 181.016 45.7254C179.285 44.59 194.559 39.67 194.559 39.67Z" fill="#110239"/><path d="M164.93 42.9678C164.93 42.9678 164.93 50.5911 169.633 52.3483C169.633 52.3483 193.531 42.4271 198.343 41.535C203.155 40.6429 220.645 40.4537 220.645 40.4537L203.019 8.96002C203.019 8.96002 194.558 25.8828 186.8 31.4246C179.843 35.8729 172.528 39.734 164.93 42.9678Z" fill="#FD425F"/><path d="M180.418 47.9692L186.23 45.6983C183.683 42.5668 181.955 38.8508 181.202 34.8851C179.39 35.9123 177.498 36.9126 175.795 37.8587C176.452 41.5668 178.043 45.0464 180.418 47.9692Z" fill="#110239"/><path d="M227.162 17.0161C232.136 29.0188 230.379 41.1567 223.215 44.0493C216.052 46.9418 206.239 39.6699 201.265 27.6672C196.29 15.6644 198.048 3.52653 205.184 0.63398C212.321 -2.25857 222.134 5.01335 227.162 17.0161Z" fill="#01C7E2"/><path d="M226.184 17.4215C230.428 27.613 228.888 37.9396 222.832 40.4807C216.777 43.0219 208.396 36.7502 204.152 26.5316C199.908 16.3131 201.449 6.01344 207.504 3.47232C213.56 0.931203 221.94 7.20291 226.184 17.4215Z" fill="#110239"/><path d="M192.991 58.7552C192.423 58.4308 192.586 56.2952 192.694 55.7275C192.802 55.1598 193.478 53.727 192.883 52.889C191.802 51.4292 190.315 55.3761 190.18 55.9438C189.792 56.7895 189.688 57.7375 189.882 58.6471C190.42 59.9366 191.2 61.1111 192.18 62.1073C192.18 62.4858 191.937 62.8913 191.802 63.3239C192.784 63.7562 193.74 64.2435 194.667 64.7836C195.83 65.4594 195.776 66.2705 196.857 67.0274L197.938 64.5403C196.428 62.4974 194.775 60.5642 192.991 58.7552Z" fill="#F88667"/><path d="M200.639 50.0776C199.612 48.9692 197.936 49.4018 196.746 50.3209C195.557 51.24 193.205 53.0242 193.908 54.6462C194.611 56.2682 197.882 53.0783 197.882 53.0783C196.638 54.1596 194.313 55.0247 194.908 56.079C195.503 57.1333 198.504 55.5924 199.152 55.1058C198.504 55.268 195.206 57.2684 196.449 58.3227C197.693 59.377 199.801 57.5387 200.504 57.0251C199.531 57.3225 198.206 58.1875 198.477 59.5392C198.909 60.2691 200.369 59.7825 201.18 59.5392C202.423 59.0255 203.586 58.8363 203.694 57.2955C203.694 57.0251 203.694 56.7548 203.694 56.4574C203.58 55.2836 203.211 54.1489 202.613 53.1323C202.076 52.041 201.413 51.0159 200.639 50.0776Z" fill="#F88667"/><path d="M74.8293 58.8903C74.2459 57.9709 73.7825 56.9807 73.4506 55.9437C73.1532 55.0786 72.9369 54.1595 72.6125 53.2404C72.2608 52.38 72.0597 51.4656 72.0178 50.537C72.0869 49.9982 72.1953 49.4651 72.3422 48.9421C72.5314 48.2663 72.7747 47.6174 72.9099 46.9416C73.045 46.2658 72.9099 45.7251 73.0991 45.1304C73.2732 43.9648 73.629 42.8337 74.1535 41.7783C74.5961 41.0262 75.1122 40.3199 75.6943 39.6697C75.9623 39.3196 76.2609 38.9939 76.5864 38.6965C76.964 38.4476 77.2564 38.0891 77.4244 37.6692C77.4743 37.5365 77.4955 37.3947 77.4864 37.2532C77.4773 37.1117 77.4382 36.9737 77.3717 36.8484C77.3053 36.7231 77.213 36.6134 77.1009 36.5266C76.9888 36.4397 76.8594 36.3777 76.7216 36.3446C76.1041 36.2295 75.4675 36.2733 74.8717 36.472C74.2758 36.6706 73.7403 37.0175 73.3154 37.48C72.4233 38.6965 71.9908 40.1833 70.9905 41.4269C67.9358 45.0763 65.0433 40.778 61.4749 39.2371C60.2546 38.5978 59.0962 37.8467 58.0146 36.9934C57.3929 36.5068 54.6355 33.9116 53.3379 34.5874C52.0403 35.2633 54.257 37.2908 55.1491 37.8044C55.5276 38.0207 58.5823 40.5077 58.9878 40.6429C57.1158 39.8617 55.3816 38.7847 53.8515 37.453C52.4728 36.3987 51.1482 35.3444 50.4183 35.9391C48.1475 37.8044 57.0955 42.0757 57.7714 42.4812C57.0415 42.4812 50.0398 37.5882 49.391 39.3994C49.0126 40.3996 50.4724 41.3998 51.6618 42.1027C52.8513 42.8056 55.6357 43.4814 56.2034 43.9139C55.1491 44.2924 50.5264 41.2106 50.5264 43.0488C50.5264 44.3194 53.392 45.2385 54.4733 45.59C55.5546 45.9414 58.8527 48.2933 59.8799 48.6447C63.3402 50.2937 64.7459 50.1045 66.1246 52.159C66.9897 53.4836 68.5305 60.4582 69.8011 63.1074L74.8293 58.8903Z" fill="#F88667"/><path d="M191.067 62.3235C187.985 71.2985 181.389 87.167 179.199 86.0586C175.117 83.9771 166.358 76.7863 159.789 72.4069C157.393 70.7008 154.841 69.2254 152.166 68.0005L156.735 89.627C156.735 89.627 178.361 106.063 182.903 103.549C186.471 101.576 195.257 76.5159 198.366 66.2163L191.067 62.3235Z" fill="#01C7E2"/><path d="M169.608 93.2226C165.189 88.163 160.429 83.4121 155.361 79.0031L156.064 89.2757C156.064 89.2757 177.907 105.685 182.719 103.63C177.864 100.819 173.447 97.3128 169.608 93.2226Z" fill="#00A7CC"/><path d="M115.43 69.1359C115.43 69.1359 88.8027 79.9492 85.8831 79.1382C82.9635 78.3272 73.4478 50.9156 73.4478 50.9156L65.3379 54.2136C65.3379 54.2136 73.9344 93.7902 79.5032 95.6555C85.0721 97.5208 118.08 87.951 118.08 87.951C118.269 81.5745 117.373 75.2122 115.43 69.1359Z" fill="#01C7E2"/><path d="M92.6973 93.1954C90.3724 94.0334 87.9665 94.8444 85.5605 95.5473C96.503 93.6027 107.332 91.0669 118 87.9509C118.109 84.5886 117.919 81.2233 117.433 77.8946C110.493 84.8539 102.023 90.0938 92.6973 93.1954Z" fill="#00A7CC"/><path d="M213.561 24.7204C213.115 23.0097 212.015 21.5421 210.499 20.6325C208.983 19.7228 207.171 19.4435 205.451 19.8545C204.372 20.2389 203.431 20.9351 202.748 21.8549C203.779 26.1495 205.695 30.1821 208.371 33.6955C208.894 33.6942 209.414 33.6121 209.912 33.4521C211.547 32.7698 212.847 31.4705 213.53 29.8359C214.213 28.2013 214.224 26.3633 213.561 24.7204Z" fill="#FEFEFE"/><path d="M115.461 101.522C114.542 110.767 113.785 130.204 113.244 132.907H156.93C157.635 118.496 157.572 104.058 156.741 89.6542C156.169 82.2767 154.633 75.0059 152.172 68.0276C152.172 68.0276 148.901 67.0004 145.035 65.5135C145.035 65.5135 136.925 70.4066 129.491 65.5135C129.491 65.5135 115.975 68.7305 114.353 69.4874C112.731 70.2444 116.461 91.6546 115.461 101.522Z" fill="#01C7E2"/><path d="M127.031 114.173C126.983 109.855 126.13 105.582 124.517 101.576C124.134 100.715 123.87 99.8052 123.733 98.8726C123.516 96.6221 122.884 94.4314 121.867 92.4117C120.894 90.9248 119.894 89.4651 118.948 87.9783C118.407 87.2484 117.839 86.4914 117.218 85.5723C116.221 84.0612 115.318 82.4904 114.514 80.8685C115.294 87.76 115.601 94.6966 115.434 101.63C114.514 110.875 113.757 130.312 113.217 133.016H133.546C130.888 129.261 128.954 125.044 127.842 120.58C127.264 118.495 126.99 116.337 127.031 114.173Z" fill="#00A7CC"/>
    </symbol>
    <symbol id="step-4-side-icon" viewBox="0 0 134 109">
      <g filter="url(#filter0_d_415_3)"><path d="M15 26.3636C15 17.3263 22.3263 10 31.3636 10H70.6364C79.6738 10 87 17.3263 87 26.3636V65.6364C87 74.6738 79.6738 82 70.6364 82H31.3636C22.3263 82 15 74.6738 15 65.6364V26.3636Z" fill="#FAD310"/></g><g filter="url(#filter1_d_415_3)"><path d="M69 65.8182C69 62.0526 72.0526 59 75.8182 59H92.1818C95.9474 59 99 62.0526 99 65.8182V82.1818C99 85.9474 95.9474 89 92.1818 89H75.8182C72.0526 89 69 85.9474 69 82.1818V65.8182Z" fill="#807DE7"/></g><g filter="url(#filter2_d_415_3)"><path d="M103 41.6364C103 39.6281 104.628 38 106.636 38H115.364C117.372 38 119 39.6281 119 41.6364V50.3636C119 52.3719 117.372 54 115.364 54H106.636C104.628 54 103 52.3719 103 50.3636V41.6364Z" fill="#3976F4"/></g>
    </symbol>
    <symbol id="trust-icon" viewBox="0 0 94 199">
      <g filter="url(#filter0_d_190_1549)"><path d="M60 48.4091C60 27.1963 77.1963 10 98.4091 10H190.591C211.804 10 229 27.1963 229 48.4091V140.591C229 161.804 211.804 179 190.591 179H98.4091C77.1963 179 60 161.804 60 140.591V48.4091Z" fill="#807DE7"/></g><g filter="url(#filter1_d_190_1549)"><path d="M41 68.9545C41 64.5614 44.6631 61 49.1818 61H68.8182C73.3369 61 77 64.5614 77 68.9545V88.0455C77 92.4386 73.3369 96 68.8182 96H49.1818C44.6631 96 41 92.4386 41 88.0455V68.9545Z" fill="url(#paint0_linear_190_1549)"/></g><g filter="url(#filter2_d_190_1549)"><path d="M15 46.4091C15 44.5263 16.6281 43 18.6364 43H27.3636C29.3719 43 31 44.5263 31 46.4091V54.5909C31 56.4737 29.3719 58 27.3636 58H18.6364C16.6281 58 15 56.4737 15 54.5909V46.4091Z" fill="#0C92F7"/></g>
    </symbol>
    <symbol id="vk-icon" viewBox="0 0 28 16">
      <g clip-path="url(#clip0_190_1459)"><path fill-rule="evenodd" clip-rule="evenodd" d="M26.8715 14.1997C26.8398 14.1313 26.8102 14.0746 26.7827 14.0292C26.328 13.211 25.459 12.2066 24.1763 11.0159L24.1492 10.9886L24.1356 10.9753L24.1219 10.9616H24.1081C23.5259 10.4071 23.1573 10.0343 23.0029 9.84343C22.7204 9.47984 22.6571 9.1118 22.8115 8.7389C22.9206 8.45716 23.3303 7.86215 24.0397 6.95307C24.4129 6.47129 24.7084 6.08516 24.9266 5.79425C26.5006 3.70362 27.183 2.36768 26.9737 1.7859L26.8924 1.64995C26.8377 1.5681 26.6967 1.49322 26.4695 1.42493C26.2418 1.35679 25.9508 1.34552 25.5959 1.39093L21.6659 1.41806C21.6022 1.39552 21.5113 1.39762 21.3929 1.42493C21.2746 1.45225 21.2154 1.46595 21.2154 1.46595L21.147 1.5001L21.0927 1.54112C21.0472 1.56824 20.9972 1.61595 20.9425 1.68414C20.8882 1.75209 20.8427 1.83184 20.8064 1.92271C20.3785 3.02251 19.8921 4.04505 19.3461 4.99028C19.0094 5.55391 18.7003 6.04238 18.418 6.45597C18.136 6.86941 17.8995 7.17403 17.7086 7.36929C17.5174 7.56474 17.3448 7.72133 17.1899 7.83961C17.0352 7.95794 16.917 8.00794 16.8353 7.98965C16.7533 7.97136 16.6761 7.95322 16.603 7.93507C16.4757 7.85322 16.3734 7.74191 16.2962 7.60104C16.2186 7.46017 16.1664 7.28286 16.1392 7.06926C16.112 6.85552 16.0959 6.67167 16.0914 6.51709C16.0871 6.3627 16.0891 6.14433 16.0983 5.86258C16.1078 5.5807 16.112 5.38997 16.112 5.28998C16.112 4.94453 16.1187 4.56962 16.1323 4.16515C16.146 3.76068 16.1572 3.44021 16.1665 3.20412C16.1758 2.96779 16.1801 2.71775 16.1801 2.45416C16.1801 2.19056 16.164 1.98384 16.1323 1.8338C16.1009 1.68395 16.0528 1.53849 15.9894 1.39748C15.9256 1.2566 15.8322 1.14763 15.7096 1.07027C15.5868 0.993007 15.4342 0.931692 15.2525 0.886135C14.7703 0.777115 14.1562 0.71814 13.4101 0.708971C11.718 0.690825 10.6308 0.799989 10.1486 1.03632C9.95757 1.13617 9.78469 1.2726 9.63011 1.44518C9.46631 1.64522 9.44347 1.75438 9.56172 1.77234C10.1076 1.85404 10.4941 2.0495 10.7216 2.35851L10.8036 2.52225C10.8673 2.64039 10.931 2.84955 10.9947 3.14944C11.0583 3.44933 11.0994 3.78107 11.1174 4.14447C11.1629 4.8081 11.1629 5.37617 11.1174 5.84874C11.0719 6.32149 11.0289 6.68953 10.9878 6.95312C10.9468 7.21672 10.8854 7.43032 10.8036 7.59387C10.7216 7.75748 10.6671 7.85747 10.6397 7.89376C10.6124 7.93006 10.5897 7.95293 10.5716 7.96191C10.4534 8.00718 10.3304 8.03024 10.2031 8.03024C10.0756 8.03024 9.92105 7.96654 9.73914 7.83923C9.55727 7.71192 9.36852 7.53705 9.17289 7.31433C8.97726 7.09156 8.75663 6.78026 8.51091 6.38037C8.26538 5.98049 8.01062 5.50787 7.74678 4.96253L7.52849 4.56704C7.39204 4.31261 7.20563 3.94214 6.96908 3.45597C6.73239 2.9696 6.52319 2.49914 6.34132 2.04467C6.26862 1.8538 6.15941 1.70849 6.01387 1.6085L5.94556 1.56748C5.90016 1.53118 5.82727 1.49265 5.72728 1.45158C5.62714 1.41056 5.52266 1.38114 5.4134 1.36305L1.67431 1.39017C1.29223 1.39017 1.03298 1.47665 0.89647 1.64937L0.841839 1.73108C0.814547 1.77659 0.800781 1.84927 0.800781 1.94931C0.800781 2.04931 0.828073 2.17203 0.882705 2.31734C1.42854 3.59904 2.02213 4.83513 2.66346 6.0258C3.3048 7.21648 3.86211 8.1756 4.33506 8.90231C4.8081 9.62954 5.29027 10.3159 5.78157 10.961C6.27288 11.6064 6.59808 12.02 6.7572 12.2017C6.91651 12.3838 7.04164 12.5198 7.13259 12.6107L7.47381 12.9379C7.69215 13.1561 8.01277 13.4174 8.43582 13.7218C8.85896 14.0264 9.32742 14.3263 9.84142 14.6219C10.3555 14.9171 10.9536 15.158 11.636 15.3443C12.3183 15.5307 12.9824 15.6056 13.6283 15.5695H15.1977C15.516 15.542 15.7571 15.442 15.921 15.2694L15.9753 15.2011C16.0118 15.1468 16.046 15.0626 16.0775 14.9491C16.1095 14.8355 16.1253 14.7104 16.1253 14.5742C16.116 14.1835 16.1458 13.8313 16.2139 13.5177C16.2819 13.2043 16.3594 12.968 16.4461 12.8088C16.5328 12.6498 16.6306 12.5156 16.7394 12.4068C16.8485 12.2978 16.9262 12.2318 16.9718 12.209C17.0171 12.1861 17.0533 12.1706 17.0806 12.1613C17.2989 12.0886 17.5558 12.159 17.8518 12.3728C18.1475 12.5864 18.4249 12.8502 18.6843 13.1636C18.9436 13.4773 19.2552 13.8293 19.619 14.2201C19.9831 14.611 20.3014 14.9016 20.5742 15.0927L20.847 15.2563C21.0292 15.3655 21.2658 15.4655 21.557 15.5564C21.8476 15.6472 22.1023 15.6699 22.3209 15.6245L25.8142 15.5701C26.1598 15.5701 26.4286 15.5129 26.6193 15.3995C26.8104 15.2859 26.9239 15.1607 26.9606 15.0246C26.9971 14.8883 26.999 14.7337 26.9675 14.5608C26.9351 14.3884 26.9032 14.2678 26.8715 14.1997Z" fill="currentColor"/></g>
    </symbol></svg>