<svg width="479" height="391" viewBox="0 0 479 391" fill="none" xmlns="http://www.w3.org/2000/svg"><circle cx="173" cy="218" r="148" stroke="url(#paint0_linear_415_6)" stroke-width="50"/><path d="M97 211.683C97 158.232 165.277 114.901 249.5 114.901C333.723 114.901 402 158.232 402 211.683C402 262.999 339.065 304.988 259.503 308.258C244.948 323.906 218.108 334.404 187.401 334.404C141.192 334.404 103.732 310.631 103.732 281.306C103.732 272.127 107.402 263.491 113.863 255.961C103.086 242.693 97 227.637 97 211.683Z" fill="#fff"/><path d="M158 336.999C158 340.314 197.398 343 245.999 343C294.601 343 334 340.314 334 336.999C334 333.685 294.602 331 245.999 331C197.397 331 158 333.685 158 336.999Z" fill="#3D3D3D"/><path d="M183.15 334.299C183.15 334.299 173.513 305.824 176.017 303.314C178.521 300.804 186.62 320.123 186.62 320.123C186.62 320.123 174.861 284.766 180.259 283.027C185.656 281.288 190.088 313.747 190.088 313.747C190.088 313.747 188.74 271.818 191.439 269.115C194.138 266.413 194.914 297.323 194.914 297.323C194.914 297.323 195.493 277.424 199.927 277.424C204.361 277.424 201.085 308.915 201.085 308.915C201.085 308.915 205.519 284.185 208.035 286.696C210.551 289.206 208.035 315.291 208.035 315.291C208.035 315.291 212.277 299.474 215.747 301.104C219.217 302.734 212.084 328.817 212.084 328.817C212.084 328.817 215.36 317.03 218.061 317.03C220.762 317.03 218.061 333.888 218.061 333.888L183.15 334.299Z" fill="#478C3B"/><path d="M166.269 334.404C166.568 333.264 167.332 332.04 169.25 331.942C171.669 331.819 172.832 333.103 173.339 333.997C172.623 332.284 171.21 328.369 173.221 328.369C174.572 328.369 176.233 330.08 177.488 331.706C177.257 329.544 177.328 327.233 178.35 326.207C180.06 324.489 181.227 329.135 181.647 331.197C181.183 328.587 180.088 321.282 181.82 319.541C183.94 317.409 186.454 326.507 186.454 326.507C186.454 326.507 183.486 311.864 184.718 310.626C185.951 309.389 190.262 319.743 190.262 319.743C190.262 319.743 187.996 303.681 190.262 303.681C192.528 303.681 194.546 320.711 194.546 320.711C194.546 320.711 195.996 302.989 198.792 300.182C201.588 297.375 196.285 332.333 196.864 332.922C196.864 332.922 201.298 290.508 204.19 291.477C205.489 291.911 204.688 299.26 203.411 307.227C204.164 305.095 205.01 303.69 205.925 303.69C209.705 303.69 202.841 330.21 202.841 331.371C202.841 332.532 206.696 309.681 210.553 311.304C213.333 312.465 209.835 324.428 207.644 331.09C207.853 331.046 208.065 331.02 208.278 331.011C210.699 330.888 211.862 332.172 212.367 333.064C211.654 331.35 210.243 327.435 212.251 327.435C213.602 327.435 215.263 329.149 216.519 330.772C216.287 328.613 216.359 326.302 217.38 325.276C219.092 323.558 220.258 328.202 220.677 330.266C220.214 327.656 219.118 320.351 220.851 318.607C222.97 316.478 225.484 325.573 225.484 325.573C225.484 325.573 222.516 310.931 223.749 309.693C224.981 308.455 229.29 318.795 229.29 318.795C229.29 318.795 227.024 302.734 229.29 302.734C231.556 302.734 233.557 319.743 233.557 319.743C233.557 319.743 235.01 302.021 237.804 299.214C240.597 296.406 235.299 331.362 235.876 331.942C235.876 331.942 240.31 289.529 243.201 290.497C244.501 290.933 243.699 298.283 242.423 306.247C243.178 304.118 244.021 302.713 244.936 302.713C248.717 302.713 241.853 329.233 241.853 330.394C241.853 331.555 245.708 308.704 249.565 310.324C250.888 310.879 250.784 313.893 250.077 317.616C250.535 317.157 251.123 316.852 251.761 316.743C252.47 316.19 253.239 315.948 254.078 316.16C259.489 317.53 246.315 333.11 245.228 334.395L166.269 334.404Z" fill="#53A545"/><path d="M315.994 192.354C316.226 192.586 319.048 199.03 320.192 207.312C321.413 216.136 320.961 226.841 320.961 226.841L316.085 227.391L314.398 209.511L310.814 195.746L315.994 192.354Z" fill="#F88667"/><path d="M218.03 143.401C218.03 143.401 222.636 208.081 234.74 216.766L235.898 225.162L231.288 230.651C231.288 230.651 224.084 207.25 221.202 198.301L184.02 168.254L186.036 166.522C186.036 166.522 216.587 192.226 220.625 192.226C220.625 192.226 213.42 149.757 214.861 145.424C216.302 141.091 218.03 143.401 218.03 143.401Z" fill="#4E2406"/><path d="M238.216 241.339C236.717 247.358 240.172 316.266 241.112 334.388H228.834C229.223 315.222 227.273 243.364 227.273 243.364L228.137 237.007L227.687 224.307C227.687 224.307 239.073 211.594 242.532 204.083C245.991 196.571 255.505 134.169 255.505 134.169L261.846 129.822C261.846 129.822 250.67 192.517 248.298 203.493C245.634 215.844 240.371 226.016 240.371 229.785C240.371 233.554 239.938 234.406 238.216 241.339Z" fill="#4E2406"/><path d="M303.342 54.3609C303.342 54.3609 326.795 30.444 338.255 34.4565C349.716 38.4689 343.72 54.3609 343.72 54.3609C343.72 54.3609 357.156 63.4353 352.908 75.3102C348.659 87.185 334.771 86.4698 334.771 86.4698C334.771 86.4698 352.215 92.2075 341.936 102.513C331.658 112.818 316.375 106.168 314.779 100.776C313.183 95.384 303.342 54.3609 303.342 54.3609Z" fill="#53A545"/><path d="M126.375 137.046C126.375 137.046 115.718 129.822 122.052 115.667C128.386 101.512 142.804 102.664 142.804 102.664C142.804 102.664 126.662 86.1958 137.038 68.5717C147.414 50.9475 151.169 59.9059 153.468 57.5955C155.766 55.2851 152.603 41.4156 172.779 32.7499C192.954 24.0841 199.584 32.4619 199.584 32.4619C196.415 18.5948 226.39 -1.62537 238.216 0.104541C250.042 1.83445 251.189 13.5932 251.189 13.5932C251.189 13.5932 261.074 11.378 271.73 11.6729C275.919 8.16196 281.446 5.56129 284.472 6.0048C290.032 6.81983 290.571 12.3486 290.571 12.3486C290.571 12.3486 303.042 9.5366 309.141 13.7418C315.241 17.947 314.02 25.6909 314.02 25.6909C314.02 25.6909 322.693 25.4239 327.167 32.8892C331.64 40.3545 325.269 45.932 325.269 45.932C325.269 45.932 327.438 44.7083 329.472 47.8337C330.755 49.8098 328.737 52.0017 326.838 54.138C327.628 55.1427 328.354 56.1967 329.011 57.2936C338.525 73.1832 324.978 85.0279 324.978 85.0279C324.978 85.0279 329.578 82.4435 333.892 89.0868C338.205 95.7301 324.957 103.532 322.939 110.178C320.921 116.823 332.161 114.223 328.99 122.02C325.819 129.817 320.201 127.077 317.462 129.82C314.724 132.562 332.451 137.622 332.451 142.784C332.451 147.945 323.803 139.354 319.191 140.798C314.578 142.243 324.093 149.754 321.208 152.641C318.324 155.527 313.408 138.753 309.394 142.779C305.379 146.805 312.422 152.206 309.394 155.239C306.366 158.271 305.358 142.779 302.189 142.779C299.02 142.779 304.494 156.395 297.289 151.772C290.085 147.149 295.9 138.253 293.541 140.626C291.183 142.999 292.557 148.426 288.931 144.792C285.306 141.158 286.047 136.461 282.301 136.461C278.555 136.461 282.301 141.662 279.706 144.26C277.112 146.859 271.061 139.061 271.061 139.061C271.061 139.061 242.242 135.606 243.544 149.181C244.846 162.755 231.584 160.447 219.426 158.237C207.268 156.026 204.201 164.202 204.201 176.049C204.201 187.896 184.885 204.071 173.351 196.559C161.817 189.048 159.22 183.27 155.481 189.338C151.742 195.405 121.181 184.715 113.399 157.559C105.618 130.403 126.375 137.046 126.375 137.046Z" fill="#53A545"/><path d="M240.801 79.8427C240.801 79.8427 259.248 85.9147 248.295 96.8886C237.342 107.863 219.185 97.1765 221.768 114.801C224.351 132.425 232.788 133.848 221.536 145.126C210.284 156.404 200.17 146.287 200.17 146.287C200.17 146.287 188.93 173.734 175.959 176.046C162.988 178.359 145.695 170.267 150.594 152.645C155.494 135.023 172.5 133.577 172.5 133.577C172.5 133.577 134.74 146.287 134.74 132.132C134.74 117.977 164.559 117.529 157.211 110.175C155.624 108.587 132.423 98.6185 145.968 85.0393C159.513 71.4602 175.081 84.4635 175.081 84.4635C175.081 84.4635 167.874 79.8403 173.351 66.5491C178.827 53.2578 195.833 51.2377 197.851 57.3051C199.869 63.3725 208.227 36.5044 225.233 31.2984C242.24 26.0925 250.021 43.8954 240.796 55.6541C231.572 67.4129 223.204 67.9911 223.204 67.9911C223.204 67.9911 247.714 54.1286 257.52 57.8856C267.326 61.6426 240.801 79.8427 240.801 79.8427Z" fill="#478C3B"/><path d="M276.542 92.5536C275.138 91.1464 274.598 66.3356 282.595 64.3851C290.592 62.4346 291.134 72.9441 289.946 74.1376C288.757 75.3312 290.594 59.618 297.727 57.4516C304.86 55.2851 291.034 90.6031 293.404 86.0543C295.774 81.5054 306.377 67.2041 313.077 68.2861C319.777 69.3682 305.509 89.521 305.509 89.521C305.509 89.521 315.238 81.9373 319.777 88.6549C324.315 95.3725 305.726 100.787 305.726 100.787C305.726 100.787 316.966 102.304 310.265 111.406C303.563 120.508 295.135 106.639 295.135 106.639C295.135 106.639 305.293 118.34 294.486 123.323C283.679 128.306 284.974 108.805 284.974 108.805C284.974 108.805 286.244 122.538 280.109 127.804C278.654 129.051 276.785 129.822 274.38 129.822C261.843 129.822 272.434 106.639 272.434 106.639C272.434 106.639 251.033 130.033 248.872 118.34C246.711 106.646 275.893 93.5892 275.893 93.5892C275.893 93.5892 261.845 99.0553 261.845 90.8214C261.845 82.5875 276.542 92.5536 276.542 92.5536Z" fill="#478C3B"/><path d="M278.524 204.403C278.888 202.75 286.959 208.07 288.34 208.961C288.34 208.961 281.58 214.92 279.456 214.92C277.331 214.92 278.175 206.059 278.524 204.403ZM279.761 212.611C280.327 212.611 287.207 208.961 287.207 208.961C287.207 208.961 280.415 204.735 279.761 206.514C279.108 208.292 279.208 212.611 279.773 212.611H279.761Z" fill="#110239"/><path d="M282.245 199.566C283.262 197.918 287.689 197.864 287.689 197.864C287.689 197.864 289.98 197.716 289.98 199.055C289.98 200.395 288.359 208.961 288.359 208.961C288.359 208.961 281.228 201.217 282.245 199.566ZM288.352 208.434V199.132C287.696 199.132 284.198 199.866 283.825 200.249C283.452 200.632 288.352 208.434 288.352 208.434Z" fill="#1E2A18"/><path d="M273.429 246.954C273.73 238.941 281.697 217.065 288.348 208.961C281.023 216.608 271.293 238.126 270.311 246.701L273.429 246.954Z" fill="#110239"/><path d="M273.616 149.9C273.616 157.942 283.441 164.457 295.559 164.457C307.677 164.457 317.502 157.942 317.502 149.9C317.502 141.859 307.677 135.341 295.559 135.341C283.441 135.341 273.616 141.859 273.616 149.9Z" fill="#FD425F"/><path d="M285.85 136.842C283.584 139.131 282.268 141.871 282.268 144.815C282.268 152.854 292.093 159.372 304.211 159.372C307.506 159.387 310.782 158.882 313.92 157.874C310 161.84 303.24 164.457 295.558 164.457C283.44 164.457 273.616 157.942 273.616 149.901C273.616 144.172 278.601 139.217 285.85 136.842Z" fill="#BC6502" opacity=".49"/><path d="M317.502 149.9C317.889 134.32 286.228 129.467 275.982 143.044C274.508 145.003 273.554 147.432 273.617 149.9C273.753 147.46 274.681 145.132 276.26 143.269C286.529 130.498 316.849 134.826 317.502 149.9Z" fill="#E01F41"/><path d="M284.345 150.497C284.345 155.545 289.691 159.634 296.292 159.634C302.892 159.634 308.238 155.545 308.238 150.497C308.238 145.449 302.889 141.36 296.292 141.36C289.694 141.36 284.345 145.452 284.345 150.497Z" fill="#E01F41"/><path d="M296.68 142.837C296.68 142.837 301.135 142.273 302.333 145.015C304.703 150.467 308.509 161.766 306.57 165.983C304.631 170.2 307.668 172.232 307.668 172.232C307.668 172.232 295.036 168.052 292.436 169.956C289.837 171.86 285.767 169.41 285.767 169.41C285.767 169.41 289.351 165.277 288.252 157.628C287.154 149.98 292.425 141.799 296.68 142.837Z" fill="#0C143F"/><path d="M306.995 169.598L322.572 194.158L310.454 196.608C310.454 196.608 304.053 173.734 306.995 169.598Z" fill="#01C7E2"/><path d="M287.37 170.269C294.459 168.258 306.997 169.598 306.997 169.598C310.439 172.721 311.959 184.961 311.959 184.961L309.594 207.268L287.044 208.518L283.826 189.999C284.607 183.488 287.37 170.269 287.37 170.269Z" fill="#01C7E2"/><path d="M323.354 278.643C323.354 278.643 309.614 323.553 312.667 328.357C315.72 333.162 322.309 333.21 321.498 334.053C320.687 334.896 307.978 333.496 307.978 333.496C307.978 333.496 305.472 308.021 306.016 300.2C306.56 292.38 309.94 278.643 309.94 278.643H323.354Z" fill="#D0D1DE"/><path d="M309.94 278.643H323.354C323.354 278.643 322.299 282.089 320.838 287.174C317.224 287.824 312.665 288.542 307.661 289.092C308.745 283.503 309.94 278.643 309.94 278.643Z" fill="#432B48"/><path d="M299.258 278.64L296.274 332.163L291.483 331.877L284.969 277.932L299.258 278.64Z" fill="#D0D1DE"/><path d="M284.969 277.932L299.258 278.64L298.693 288.781L286.018 286.603L284.969 277.932Z" fill="#432B48"/><path d="M279.126 236.661C280.653 225.935 284.906 214.427 286.213 208.952C287.52 203.477 289.477 181.828 288.177 176.021L292.155 176.137C292.155 176.137 292.155 183.621 294.175 185.688C296.195 187.754 299.191 187.698 303.006 186.693C306.822 185.688 304.533 176.372 304.533 176.372L307.482 175.575C314.012 201.554 307.517 201.886 310.426 211.971C313.616 223.04 331.797 280.679 331.797 280.679C309.226 290.511 277.278 282.242 277.278 282.242C277.278 282.242 277.598 247.386 279.126 236.661Z" fill="#110239"/><path d="M338.446 261.924C338.652 258.673 336.69 254.819 335.119 251.939C333.471 249.101 331.244 246.643 328.582 244.727C325.973 242.774 322.973 241.432 319.895 240.497C313.694 238.577 307.06 238.577 300.859 240.497C297.78 241.425 294.783 242.774 292.172 244.727C289.511 246.643 287.284 249.101 285.637 251.939C284.064 254.816 282.752 258.799 282.959 262.054L285.456 261.378C285.489 258.506 286.301 255.697 287.805 253.251C289.334 250.78 291.364 248.659 293.763 247.026C298.57 243.692 304.503 242.11 310.378 242.073C316.251 242.11 322.193 243.699 326.99 247.026C329.39 248.659 331.42 250.78 332.949 253.251C334.436 255.703 336.132 258.522 336.141 261.378L338.446 261.924Z" fill="#0845E5"/><path d="M307.906 168.99L308.852 179.467L307.033 182.518L304.489 180.103L302.738 168.519L307.906 168.99Z" fill="#110239"/><path d="M292.112 169.162L292.742 179.543L290.75 181.926L288.033 179.618L287.219 169.06L292.112 169.162Z" fill="#110239"/><path d="M308.852 179.467L307.033 182.518L304.489 180.103L307.105 181.329L308.852 179.467Z" fill="#FD425F"/><path d="M292.742 179.543L290.75 181.926L288.033 179.618L290.386 180.995L292.742 179.543Z" fill="#FD425F"/><path d="M306.363 178.842C306.364 178.937 306.394 179.03 306.448 179.108C306.502 179.186 306.578 179.247 306.666 179.282C306.755 179.317 306.851 179.325 306.944 179.305C307.037 179.286 307.122 179.239 307.188 179.171C307.255 179.103 307.3 179.017 307.318 178.924C307.335 178.83 307.325 178.734 307.289 178.646C307.252 178.558 307.19 178.483 307.111 178.431C307.032 178.378 306.939 178.35 306.844 178.35C306.781 178.35 306.717 178.364 306.659 178.389C306.6 178.414 306.547 178.45 306.502 178.496C306.457 178.542 306.422 178.596 306.398 178.655C306.374 178.715 306.362 178.778 306.363 178.842Z" fill="#fff"/><path d="M290.059 178.564C290.062 178.711 290.109 178.854 290.193 178.974C290.276 179.095 290.394 179.188 290.531 179.243C290.667 179.297 290.817 179.309 290.96 179.279C291.104 179.248 291.235 179.175 291.338 179.07C291.441 178.965 291.51 178.832 291.538 178.687C291.565 178.543 291.549 178.393 291.492 178.257C291.436 178.122 291.34 178.006 291.218 177.925C291.095 177.843 290.952 177.8 290.805 177.8C290.706 177.8 290.608 177.821 290.517 177.86C290.426 177.899 290.343 177.955 290.274 178.026C290.205 178.097 290.15 178.181 290.113 178.273C290.076 178.366 290.058 178.464 290.059 178.564Z" fill="#fff"/><path d="M299.012 202.185C299.903 202.185 300.785 202.01 301.608 201.668C302.43 201.326 303.178 200.825 303.808 200.194C304.437 199.563 304.937 198.813 305.277 197.988C305.618 197.163 305.793 196.279 305.793 195.387V190.826H292.229V195.387C292.229 197.19 292.944 198.919 294.216 200.194C295.488 201.469 297.213 202.185 299.012 202.185Z" fill="#4D6330"/><path d="M292.229 190.826C292.146 194.476 292.032 195.47 292.229 196.589C293.795 204.319 304.243 204.326 305.809 196.589C306.001 195.445 305.885 194.569 305.809 190.824L305.702 194.655C305.619 204.354 292.444 204.422 292.352 194.655L292.229 190.826Z" fill="#1E2A18"/><path d="M299.012 202.185C299.903 202.185 300.785 202.01 301.608 201.668C302.43 201.326 303.178 200.825 303.808 200.194C304.437 199.563 304.937 198.813 305.277 197.988C305.618 197.163 305.793 196.279 305.793 195.387V190.826H292.229V195.387C292.229 197.19 292.944 198.919 294.216 200.194C295.488 201.469 297.213 202.185 299.012 202.185Z" fill="#01C7E2"/><path d="M292.229 190.826C292.146 194.476 292.032 195.47 292.229 196.589C293.795 204.319 304.243 204.326 305.809 196.589C306.001 195.445 305.885 194.569 305.809 190.824L305.702 194.655C305.619 204.354 292.444 204.422 292.352 194.655L292.229 190.826Z" fill="#1E2A18"/><path d="M299.361 159.864L299.824 170.355C299.824 170.355 299.275 172.791 296.44 172.791C293.604 172.791 292.965 171.667 292.965 171.667L292.233 158.552L299.361 159.864Z" fill="#F88667"/><path d="M292.229 158.552L299.359 159.864L299.348 160.9C299.348 162.321 297.263 164.32 296.197 164.443C294.332 164.659 292.834 162.375 292.331 160.375L292.229 158.552Z" fill="#FD5E5A"/><path d="M287.791 153.463C288.204 154.856 289.181 155.803 289.981 155.552C290.78 155.302 291.086 153.971 290.676 152.569C290.266 151.166 289.286 150.228 288.489 150.479C287.692 150.73 287.388 152.06 287.791 153.463Z" fill="#FC7575"/><path d="M300.403 152.45C300.069 153.816 300.428 155.081 301.207 155.281C301.985 155.48 302.884 154.538 303.218 153.175C303.551 151.812 303.19 150.544 302.414 150.346C301.638 150.149 300.734 151.09 300.403 152.45Z" fill="#FC7575"/><path d="M300.995 145.061C301.829 146.399 301.815 149.009 301.91 151.331C302.035 154.521 300.629 162.073 296.851 162.449C293.072 162.825 291.096 159.035 290.244 156.038C289.391 153.04 289.415 146.835 291.425 144.773C293.436 142.711 299.337 142.384 300.995 145.061Z" fill="#F88667"/><path d="M289.644 153.305C289.644 153.305 289.248 152.004 288.509 152.304C287.77 152.603 288.442 155.146 289.076 155.39C289.711 155.634 290.107 154.136 289.644 153.305Z" fill="#FD5E5A"/><path d="M301.327 152.227C301.405 152.146 302.135 150.602 302.629 151.12C303.122 151.637 302.745 155.362 302.066 154.665C301.387 153.969 301.327 152.227 301.327 152.227Z" fill="#FD5E5A"/><path d="M300.996 145.061C301.649 146.111 301.498 147.98 301.67 149.833C300.743 147.114 296.11 143.52 295.647 143.171C297.817 143.009 300.069 143.564 300.996 145.061Z" fill="#110239"/><path d="M289.535 149.209C289.894 147.374 290.539 145.705 291.437 144.781C292.336 143.856 293.986 143.308 295.658 143.171C294.905 145.333 291.352 147.962 289.535 149.209Z" fill="#110239"/><path d="M295.854 158.525C295.986 158.525 296.117 158.518 296.248 158.504C296.328 158.477 296.395 158.424 296.439 158.352C296.483 158.281 296.5 158.197 296.489 158.114C296.477 158.031 296.436 157.955 296.374 157.899C296.312 157.843 296.232 157.81 296.149 157.807C296.086 157.807 294.583 158.007 293.983 156.857C293.962 156.814 293.934 156.776 293.898 156.744C293.863 156.713 293.822 156.689 293.777 156.673C293.732 156.658 293.685 156.652 293.638 156.655C293.591 156.658 293.545 156.671 293.502 156.692C293.46 156.714 293.423 156.743 293.392 156.779C293.361 156.816 293.338 156.858 293.324 156.903C293.31 156.948 293.305 156.996 293.309 157.043C293.314 157.09 293.328 157.136 293.35 157.178C293.973 158.362 295.217 158.525 295.854 158.525Z" fill="#110239"/><path d="M296.68 154.528C296.476 154.143 296.087 153.6 295.667 153.528C295.241 153.562 294.85 154.136 294.657 154.524C295.667 153.442 295.646 153.486 296.68 154.528Z" fill="#662D91"/><path d="M294.277 149.153C294.277 149.153 293.149 148.688 292.722 148.688C292.296 148.688 290.742 149.752 290.742 149.752C290.742 149.752 292.173 148.846 292.845 149.032C293.517 149.218 294.004 149.877 294.277 149.596C294.55 149.315 294.277 149.153 294.277 149.153Z" fill="#110239"/><path d="M297.25 149.153C297.25 149.153 298.378 148.688 298.804 148.688C299.23 148.688 300.787 149.752 300.787 149.752C300.787 149.752 299.353 148.846 298.684 149.032C298.014 149.218 297.525 149.877 297.25 149.596C296.974 149.315 297.25 149.153 297.25 149.153Z" fill="#110239"/><path d="M296.199 141.982C296.199 141.982 300.781 140.181 303.642 146.055C305.496 149.87 312.589 167.197 308.385 176.441H304.849L305.595 172.132L303.279 176.441L300.997 176.009C300.997 176.009 304.646 169.162 304.349 165.674C304.349 165.674 302.521 173.569 299.808 174.637L296.669 173.824C296.669 173.824 301.671 171.69 300.9 163.642C300.436 158.78 302.442 148.317 299.51 145.321C297.55 143.313 295.645 143.174 295.645 143.174L296.199 141.982Z" fill="#110239"/><path d="M297.912 153.209C297.912 153.66 298.556 154.027 299.348 154.027C300.141 154.027 300.787 153.66 300.787 153.209C300.787 152.759 300.143 152.392 299.348 152.392C298.554 152.392 297.912 152.757 297.912 153.209Z" fill="#FD5E5A"/><path d="M290.416 153.291C290.416 153.697 291.072 154.027 291.88 154.027C292.689 154.027 293.342 153.697 293.342 153.291C293.342 152.884 292.689 152.555 291.88 152.555C291.072 152.555 290.416 152.884 290.416 153.291Z" fill="#FD5E5A"/><path d="M292.621 151.12C292.63 151.215 292.667 151.305 292.727 151.38C292.787 151.455 292.867 151.51 292.957 151.54C293.048 151.57 293.146 151.573 293.238 151.549C293.33 151.525 293.414 151.474 293.478 151.403C293.542 151.332 293.584 151.244 293.599 151.149C293.614 151.055 293.602 150.958 293.563 150.87C293.524 150.783 293.461 150.708 293.381 150.656C293.301 150.604 293.208 150.576 293.112 150.576C292.975 150.583 292.847 150.645 292.755 150.746C292.663 150.848 292.615 150.982 292.621 151.12Z" fill="#110239"/><path d="M294.297 151.315C292.918 148.814 291.501 152.169 290.576 151.161C290.736 151.526 291.227 151.64 291.61 151.489C292.851 151.008 292.738 150.112 294.297 151.315Z" fill="#0C143F"/><path d="M298.719 150.953C298.715 151.048 298.683 151.14 298.627 151.218C298.572 151.296 298.495 151.356 298.406 151.391C298.317 151.426 298.22 151.435 298.127 151.415C298.033 151.396 297.947 151.35 297.879 151.283C297.811 151.216 297.764 151.13 297.744 151.037C297.723 150.943 297.73 150.846 297.764 150.756C297.798 150.667 297.857 150.589 297.934 150.532C298.011 150.476 298.102 150.442 298.198 150.437C298.335 150.437 298.466 150.491 298.564 150.588C298.661 150.684 298.717 150.815 298.719 150.953Z" fill="#110239"/><path d="M297.057 151.238C298.301 148.665 299.893 151.935 300.764 150.88C300.622 151.254 300.138 151.396 299.749 151.266C298.482 150.855 298.549 149.952 297.057 151.238Z" fill="#0C143F"/><path d="M318.334 304.225C318.334 304.225 313.504 326.855 315.091 328.466C316.678 330.078 319.108 333.048 322.488 333.326C325.868 333.605 325.323 336.577 325.323 336.577L312.783 336.187L311.857 335.349L311.366 336.131L307.659 335.741C307.659 335.741 303.241 308.648 304.061 301.944L318.334 304.225Z" fill="#FD425F"/><path d="M304.054 301.933L318.338 304.224C318.338 304.224 318.136 305.153 317.835 306.653C314.682 306.068 307.156 304.622 303.954 304.006C303.947 303.314 303.981 302.621 304.054 301.933Z" fill="#E01F41"/><path d="M302.758 298.312C303.569 299.339 303.497 300.421 303.553 301.227C301.88 294.992 298.352 299.455 303.553 301.227C296.019 300.637 300.154 295.032 302.758 298.312Z" fill="#112E1C"/><path d="M315.564 331.759C311.253 329.082 313.574 323.511 315.974 307.129L315.008 311.395C314.99 311.486 312.861 322.239 312.884 322.132C312.587 324.138 311.957 326.544 312.476 328.799C313.584 334.193 319.695 333.691 323.072 335.591C323.163 335.591 323.473 335.788 323.67 335.419C323.786 335.205 318.076 333.357 315.564 331.759Z" fill="#E01F41"/><path d="M319.428 305.755L319.164 302.998L303.364 300.465L302.558 303.052L319.428 305.755Z" fill="#112E1C"/><path d="M307.263 335.24L311.136 335.648L311.757 334.659L312.946 335.734L325.766 336.134L325.738 337.028L312.607 336.617L311.942 336.018L311.581 336.593L307.481 336.442L307.263 335.24Z" fill="#E01F41"/><path d="M297.566 336.566H286.935C286.935 336.566 288.188 332.014 290.206 331.65C295.733 330.656 297.723 331.476 297.723 331.476C297.723 331.476 298.414 334.473 297.566 336.566Z" fill="#FD425F"/><path d="M299.258 301.933H285.733L290.204 331.819L297.685 332.163L299.258 301.933Z" fill="#FD425F"/><path d="M286.496 336.12H297.986V337.014H286.496V336.12Z" fill="#E01F41"/><path d="M296.275 334.659C294.408 332.716 291.899 332.124 289.168 333.963C289.073 334.032 289.007 334.134 288.984 334.25C288.961 334.365 288.983 334.485 289.045 334.585C289.592 335.433 290.347 333.287 292.898 333.315C294.143 333.366 295.334 333.84 296.275 334.659Z" fill="#E01F41"/><path d="M299.258 301.933H285.733L286.016 303.823H299.158L299.258 301.933Z" fill="#E01F41"/><path d="M299.37 300.623L284.97 299.866L285.355 302.878L299.637 302.437L299.37 300.623Z" fill="#112E1C"/><path d="M287.305 305.311L292.305 330.271L288.163 305.146C288.154 305.089 288.134 305.034 288.104 304.985C288.074 304.935 288.034 304.892 287.987 304.858C287.941 304.824 287.888 304.799 287.831 304.786C287.775 304.772 287.717 304.77 287.66 304.78C287.544 304.801 287.442 304.868 287.375 304.965C287.308 305.062 287.282 305.181 287.303 305.297L287.305 305.311Z" fill="#E01F41"/><path d="M166.455 119.817C166.986 119.813 167.514 119.891 168.021 120.049C168.528 119.891 169.056 119.813 169.587 119.817C172.182 119.817 174.285 121.695 174.285 124.012C174.285 126.33 172.182 128.208 169.587 128.208H166.455C163.86 128.208 161.757 126.33 161.757 124.012C161.757 121.695 163.854 119.817 166.455 119.817Z" fill="#E01F41"/><path d="M167.963 120.2C166.643 120.463 165.273 120.293 164.057 119.714C162.153 118.741 161.63 115.767 161.63 115.767C161.63 115.767 168.255 115.3 167.963 120.2Z" fill="#7D6"/><path d="M210.199 93.9814C210.739 93.9816 211.273 94.0964 211.765 94.3181C212.258 94.0969 212.791 93.9821 213.331 93.9814C215.926 93.9814 218.029 96.6216 218.029 99.8817C218.029 103.142 215.926 105.784 213.331 105.784H210.199C207.605 105.784 205.503 103.142 205.503 99.8817C205.503 96.6216 207.605 93.9814 210.199 93.9814Z" fill="#FD425F"/><path d="M211.71 94.3648C210.389 94.6283 209.018 94.4573 207.802 93.8772C205.9 92.9066 205.376 89.9298 205.376 89.9298C205.376 89.9298 211.997 89.4654 211.71 94.3648Z" fill="#7D6"/><path d="M211.709 94.3646C211.85 93.0236 212.419 91.7639 213.331 90.7725C214.827 89.2446 217.809 89.6323 217.809 89.6323C217.809 89.6323 216.289 96.1038 211.709 94.3646Z" fill="#7D6"/><path d="M265.832 95.0589C266.362 95.0556 266.89 95.1339 267.396 95.2911C267.903 95.1339 268.431 95.0556 268.962 95.0589C271.557 95.0589 273.66 96.9375 273.66 99.2571C273.66 101.577 271.557 103.453 268.962 103.453C268.431 103.455 267.903 103.377 267.396 103.221C266.89 103.377 266.362 103.455 265.832 103.453C263.235 103.453 261.134 101.575 261.134 99.2571C261.134 96.9398 263.235 95.0589 265.832 95.0589Z" fill="#FD425F"/><path d="M162.652 91.5435C163.196 91.5448 163.731 91.6711 164.218 91.9127C164.705 91.6715 165.241 91.5452 165.784 91.5435C168.379 91.5435 170.482 94.4251 170.482 97.9778C170.482 101.53 168.379 104.41 165.784 104.41H162.652C160.058 104.41 157.954 101.528 157.954 97.9778C157.954 94.4274 160.058 91.5435 162.652 91.5435Z" fill="#FD425F"/><path d="M213.197 64.7078C213.737 64.7084 214.271 64.8206 214.766 65.0375C215.258 64.8204 215.791 64.7081 216.329 64.7078C218.924 64.7078 221.027 67.2922 221.027 70.4826C221.027 73.6731 218.924 76.2575 216.329 76.2575C215.791 76.2571 215.258 76.1448 214.766 75.9278C214.271 76.1446 213.737 76.2569 213.197 76.2575C210.605 76.2575 208.501 73.6731 208.501 70.4826C208.501 67.2922 210.605 64.7078 213.197 64.7078Z" fill="#E01F41"/><path d="M184.426 47.9244C184.956 47.9221 185.484 48.0004 185.992 48.1566C186.498 48.0004 187.026 47.9221 187.555 47.9244C190.15 47.9244 192.256 49.8029 192.256 52.1203C192.256 54.4376 190.15 56.3185 187.555 56.3185C187.026 56.3207 186.498 56.2424 185.992 56.0863C185.484 56.2424 184.956 56.3207 184.426 56.3185C181.831 56.3185 179.728 54.44 179.728 52.1203C179.728 49.8006 181.831 47.9244 184.426 47.9244Z" fill="#FD425F"/><path d="M267.34 95.4352C266.019 95.6987 264.648 95.5277 263.432 94.9476C261.53 93.9746 261.006 91.0001 261.006 91.0001C261.006 91.0001 267.636 90.5427 267.34 95.4352Z" fill="#7D6"/><path d="M267.341 95.4351C268.341 94.5317 269.023 93.3276 269.284 92.0031C269.643 89.8924 267.579 87.7004 267.579 87.7004C267.579 87.7004 263.236 92.7485 267.341 95.4351Z" fill="#7D6"/><path d="M267.34 95.4352C267.481 94.0942 268.05 92.8345 268.961 91.8431C270.456 90.3128 273.439 90.7006 273.439 90.7006C273.439 90.7006 271.917 97.1837 267.34 95.4352Z" fill="#7D6"/><path d="M310.168 115.147C310.699 115.144 311.227 115.223 311.734 115.379C312.241 115.223 312.769 115.145 313.3 115.147C315.895 115.147 317.998 117.025 317.998 119.345C317.998 121.665 315.895 123.532 313.3 123.532H310.168C307.573 123.532 305.472 121.653 305.472 119.336C305.472 117.018 307.573 115.147 310.168 115.147Z" fill="#FD425F"/><path d="M311.678 115.532C310.357 115.796 308.987 115.625 307.77 115.045C305.868 114.072 305.345 111.097 305.345 111.097C305.345 111.097 311.966 110.63 311.678 115.532Z" fill="#7D6"/><path d="M332.916 87.3917C332.859 86.0417 333.238 84.7092 333.998 83.5929C335.249 81.8583 338.256 81.7957 338.256 81.7957C338.256 81.7957 337.705 88.4297 332.916 87.3917Z" fill="#7D6"/><path d="M311.678 115.532C312.678 114.628 313.36 113.424 313.622 112.1C313.981 109.99 311.917 107.795 311.917 107.795C311.917 107.795 307.585 112.837 311.678 115.532Z" fill="#7D6"/><path d="M311.678 115.532C311.819 114.191 312.388 112.932 313.3 111.94C314.794 110.41 317.775 110.798 317.775 110.798C317.775 110.798 316.256 117.262 311.678 115.532Z" fill="#7D6"/><path d="M308.34 64.7078C308.877 64.7081 309.409 64.813 309.906 65.0166C310.403 64.8127 310.935 64.7079 311.472 64.7078C314.067 64.7078 316.168 67.1389 316.168 70.1366C316.168 73.1344 314.067 75.5632 311.472 75.5632H308.34C305.746 75.5632 303.642 73.1344 303.642 70.1366C303.642 67.1389 305.746 64.7078 308.34 64.7078Z" fill="#FD425F"/><path d="M309.848 65.091C308.528 65.3567 307.158 65.1864 305.943 64.6056C304.038 63.6327 303.517 60.6582 303.517 60.6582C303.517 60.6582 310.136 60.1915 309.848 65.091Z" fill="#7D6"/><path d="M309.848 65.0909C310.85 64.1878 311.533 62.9837 311.794 61.6589C312.153 59.5482 310.089 57.3562 310.089 57.3562C310.089 57.3562 305.757 62.395 309.848 65.0909Z" fill="#7D6"/><path d="M309.848 65.0909C309.991 63.7482 310.564 62.488 311.481 61.4988C312.976 59.9709 315.957 60.3587 315.957 60.3587C315.957 60.3587 314.433 66.8325 309.848 65.0909Z" fill="#7D6"/><path d="M259.528 43.7284C260.058 43.7248 260.585 43.8032 261.091 43.9606C261.599 43.8032 262.128 43.7248 262.66 43.7284C265.254 43.7284 267.355 45.6069 267.355 47.9243C267.355 50.2417 265.254 52.1202 262.66 52.1202C262.128 52.1237 261.599 52.0454 261.091 51.888C260.585 52.0454 260.058 52.1237 259.528 52.1202C256.931 52.1202 254.83 50.2417 254.83 47.9243C254.83 45.6069 256.931 43.7284 259.528 43.7284Z" fill="#FD425F"/><path d="M273.006 76.2576C273.548 76.2594 274.083 76.3824 274.572 76.6175C275.061 76.3821 275.596 76.2592 276.138 76.2576C278.732 76.2576 280.836 79.0765 280.836 82.5526C280.836 86.0286 278.732 88.8499 276.138 88.8499H273.006C270.411 88.8499 268.308 86.031 268.308 82.5526C268.308 79.0742 270.416 76.2576 273.006 76.2576Z" fill="#FD425F"/><path d="M248.001 80.4558C248.533 80.4553 249.062 80.5464 249.564 80.7252C250.211 80.5007 250.9 80.4201 251.581 80.4891C252.263 80.558 252.921 80.7749 253.51 81.1245C254.1 81.4741 254.606 81.9482 254.995 82.5138C255.383 83.0793 255.644 83.7228 255.759 84.3996C255.874 85.0764 255.841 85.7701 255.662 86.4328C255.483 87.0954 255.162 87.7109 254.721 88.2367C254.281 88.7625 253.731 89.1858 253.111 89.4774C252.491 89.7689 251.815 89.9217 251.13 89.925H248.001C246.748 89.925 245.546 89.4262 244.66 88.5383C243.775 87.6504 243.277 86.4461 243.277 85.1904C243.277 83.9347 243.775 82.7305 244.66 81.8426C245.546 80.9546 246.748 80.4558 248.001 80.4558Z" fill="#FD425F"/><path d="M274.072 98.4863C274.609 98.4862 275.14 98.5895 275.638 98.7905C276.136 98.5891 276.668 98.4858 277.204 98.4863C279.799 98.4863 281.902 100.876 281.902 103.827C281.902 106.778 279.799 109.168 277.204 109.168C276.667 109.167 276.136 109.063 275.638 108.861C275.141 109.063 274.609 109.167 274.072 109.168C271.478 109.168 269.374 106.778 269.374 103.827C269.374 100.876 271.478 98.4863 274.072 98.4863Z" fill="#E01F41"/><path d="M290.664 31.0386C291.201 31.039 291.732 31.1431 292.23 31.3451C292.728 31.1433 293.259 31.0393 293.796 31.0386C296.391 31.0386 298.494 33.4303 298.494 36.3792C298.494 39.3282 296.391 41.7199 293.796 41.7199C293.259 41.72 292.728 41.6167 292.23 41.4157C291.732 41.6171 291.201 41.7204 290.664 41.7199C288.069 41.7199 285.966 39.3305 285.966 36.3792C285.966 33.4279 288.069 31.0386 290.664 31.0386Z" fill="#FD425F"/><path d="M280.732 50.98C281.269 50.9807 281.801 51.0847 282.298 51.2865C282.796 51.0845 283.328 50.9804 283.864 50.98C286.459 50.98 288.562 53.3693 288.562 56.3206C288.562 59.2719 286.459 61.6613 283.864 61.6613C283.328 61.6619 282.796 61.5586 282.298 61.3571C281.801 61.5581 281.269 61.6614 280.732 61.6613C278.138 61.6613 276.034 59.2719 276.034 56.3206C276.034 53.3693 278.138 50.98 280.732 50.98Z" fill="#FD425F"/><path d="M303.902 91.2949C304.442 91.2962 304.975 91.4068 305.471 91.62C305.964 91.4066 306.497 91.296 307.034 91.2949C309.629 91.2949 311.732 93.8492 311.732 96.9885C311.732 100.128 309.629 102.682 307.034 102.682H303.902C301.308 102.682 299.204 100.128 299.204 96.9885C299.204 93.8492 301.308 91.2949 303.902 91.2949Z" fill="#FD425F"/><path d="M319.478 100.776C320.009 100.772 320.537 100.851 321.045 101.008C321.551 100.851 322.078 100.772 322.608 100.776C325.205 100.776 327.309 102.654 327.309 104.972C327.309 107.289 325.205 109.17 322.608 109.17H319.478C316.884 109.17 314.78 107.289 314.78 104.972C314.78 102.654 316.884 100.776 319.478 100.776Z" fill="#E01F41"/><path d="M331.641 86.4697C332.177 86.4693 332.708 86.5702 333.207 86.7669C333.705 86.5704 334.237 86.4696 334.773 86.4697C337.367 86.4697 339.471 88.7917 339.471 91.6664C339.471 94.5411 337.367 96.8608 334.773 96.8608H331.641C329.046 96.8608 326.942 94.5388 326.942 91.6664C326.942 88.7941 329.046 86.4697 331.641 86.4697Z" fill="#FD425F"/><path d="M261.036 44.1185C259.716 44.3822 258.346 44.212 257.13 43.6332C255.226 42.6603 254.705 39.6857 254.705 39.6857C254.705 39.6857 261.323 39.2121 261.036 44.1185Z" fill="#7D6"/><path d="M261.036 44.1184C262.036 43.2143 262.719 42.0107 262.982 40.6865C263.339 38.5758 261.277 36.3838 261.277 36.3838C261.277 36.3838 256.945 41.4156 261.036 44.1184Z" fill="#7D6"/><path d="M261.037 44.1185C261.178 42.7775 261.747 41.5178 262.659 40.5264C264.155 38.9985 267.137 39.3862 267.137 39.3862C267.137 39.3862 265.617 45.8508 261.037 44.1185Z" fill="#7D6"/><path d="M247.279 104.41C247.82 104.411 248.353 104.527 248.845 104.751C249.337 104.527 249.871 104.411 250.411 104.41C253.006 104.41 255.109 107.089 255.109 110.394C255.109 113.698 253.006 116.38 250.411 116.38H247.279C244.685 116.38 242.581 113.7 242.581 110.394C242.581 107.087 244.685 104.41 247.279 104.41Z" fill="#FD425F"/><path d="M248.788 104.793C247.467 105.059 246.096 104.888 244.88 104.308C242.976 103.335 242.454 100.36 242.454 100.36C242.454 100.36 249.073 99.8934 248.788 104.793Z" fill="#7D6"/><path d="M215.428 136.644C215.962 136.644 216.492 136.739 216.994 136.925C217.495 136.739 218.025 136.644 218.56 136.644C221.154 136.644 223.258 138.848 223.258 141.567C223.258 144.286 221.154 146.487 218.56 146.487C218.025 146.488 217.495 146.394 216.994 146.208C216.492 146.393 215.962 146.488 215.428 146.487C212.833 146.487 210.73 144.286 210.73 141.567C210.73 138.848 212.833 136.644 215.428 136.644Z" fill="#FD425F"/><path d="M216.938 137.027C215.617 137.291 214.245 137.118 213.03 136.535C211.126 135.562 210.605 132.587 210.605 132.587C210.605 132.587 217.225 132.123 216.938 137.027Z" fill="#7D6"/><path d="M216.938 137.027C218.269 136.797 219.489 136.139 220.413 135.153C221.836 133.556 221.25 130.6 221.25 130.6C221.25 130.6 214.897 132.567 216.938 137.027Z" fill="#7D6"/><path d="M287.22 194.725C287.22 194.725 290.287 205.949 290.836 209.504C291.385 213.059 298.615 229.776 298.615 229.776L293.176 231.19C293.176 231.19 284.155 214.59 284.155 210.559C284.155 206.528 279.373 192.354 279.373 192.354L287.22 194.725Z" fill="#F88667"/><path d="M287.37 170.269L288.186 196.508L278.062 197.096C278.062 197.096 278.062 169.162 287.37 170.269Z" fill="#01C7E2"/><path d="M295.667 143.171C295.667 143.171 291.305 143.513 290.422 147.736C289.54 151.96 289.563 158.473 290.422 161.564C291.282 164.655 293.626 167.065 293.626 167.065L290.802 167.701L289.799 165.546C289.945 166.797 290.189 168.034 290.529 169.245C291.032 170.885 292.25 172.791 292.25 172.791L288.914 173.903L287.327 167.278L287.144 172.666L282.263 171.597L283.635 168.177C283.635 168.177 282.676 170.144 280.855 171.036L279.071 168.6C279.071 168.6 282.729 169.443 284.327 160.591C285.926 151.74 287.028 147.095 289.245 144.486C292.368 140.805 296.195 141.992 296.195 141.992L295.667 143.171Z" fill="#110239"/><path d="M300.682 235.302C300.682 235.302 300.879 235.472 301.197 235.767C301.229 235.778 304.813 236.823 305.758 237.856C306.387 238.586 306.88 239.423 307.213 240.327C307.213 240.327 308.255 243.371 305.617 240.726C306.08 241.305 305.584 240.571 305.742 241.017C306.407 242.925 306.794 244.874 303.49 245.222C300.187 245.57 298.414 244.86 297.673 244.511C296.932 244.163 295.91 236.707 295.91 236.707L300.682 235.302Z" fill="#FD425F"/><path d="M290.34 227.259C291.711 227.524 293.124 227.483 294.477 227.138C295.831 226.794 297.092 226.155 298.17 225.266L301.205 235.757L296.002 237.116L289.351 227.066L290.34 227.259Z" fill="#FD425F"/><path d="M289.343 227.066C293.093 228.255 296.149 227.335 298.162 225.266C294.583 227.598 292.046 227.268 289.343 227.066Z" fill="#E01F41"/><path d="M314.335 233.909C314.335 233.909 314.179 234.116 313.929 234.464C313.899 234.48 310.621 236.263 309.912 237.464C309.453 238.311 309.15 239.233 309.016 240.188C309.016 240.188 308.64 243.383 310.658 240.239C310.332 240.901 310.658 240.081 310.6 240.55C310.352 242.556 310.387 244.541 313.691 244.179C316.994 243.817 318.572 242.744 319.223 242.247C319.874 241.75 319.292 234.246 319.292 234.246L314.335 233.909Z" fill="#FD425F"/><path d="M322.747 223.843C321.462 224.396 320.071 224.657 318.674 224.609C317.277 224.561 315.908 224.204 314.664 223.564L313.92 234.464L319.293 234.682L323.664 223.444L322.747 223.843Z" fill="#FD425F"/><path d="M323.674 223.444C320.259 225.406 317.078 225.157 314.674 223.564C318.665 225.081 321.075 224.217 323.674 223.444Z" fill="#E01F41"/><path d="M285.428 262.045C285.456 264.269 296.809 266.069 310.813 266.069C324.817 266.069 336.175 264.269 336.208 262.045C337.05 264.216 337.483 266.524 337.484 268.853C337.484 281.146 325.549 291.11 310.823 291.11C296.096 291.11 284.163 281.146 284.163 268.853C284.162 266.525 284.591 264.217 285.428 262.045Z" fill="#002DA5"/><path d="M284.155 268.853C284.157 266.524 284.589 264.216 285.429 262.045C285.457 264.269 296.81 266.069 310.814 266.069C324.818 266.069 336.176 264.269 336.209 262.045C336.65 263.189 336.98 264.373 337.193 265.581C330.735 267.188 305.317 271.9 301.668 271.637C297.531 271.342 290.847 289.052 316.805 290.541C314.833 290.919 312.831 291.11 310.823 291.11C296.09 291.11 284.155 281.146 284.155 268.853Z" fill="#0845E5"/><path d="M310.814 266.069C296.81 266.069 285.457 264.269 285.429 262.045C285.593 261.607 285.899 261.236 286.298 260.993C289.193 259.272 299.069 258.005 310.814 258.005C322.499 258.005 332.335 259.259 335.287 260.965C335.705 261.208 336.026 261.588 336.197 262.04C336.176 264.269 324.82 266.069 310.814 266.069Z" fill="#603813"/><path d="M282.974 261.736C283.808 254.05 328.655 254.668 336.351 259.117C337.868 259.995 338.204 261.014 338.285 261.251C338.285 261.448 342.344 268.203 310.815 268.203C304.692 268.194 282.313 267.829 282.974 261.736ZM335.303 262.823C342.837 258.495 291.587 255.857 285.821 261.481C281.021 266.169 325.977 268.194 335.303 262.823Z" fill="#0845E5"/><path d="M318.924 256.247C319.455 256.244 319.983 256.323 320.49 256.479C320.997 256.323 321.525 256.245 322.056 256.247C324.65 256.247 326.754 258.128 326.754 260.445C326.754 262.763 324.65 264.641 322.056 264.641C321.525 264.643 320.997 264.565 320.49 264.409C319.983 264.565 319.455 264.643 318.924 264.641C316.329 264.641 314.226 262.763 314.226 260.445C314.226 258.128 316.329 256.247 318.924 256.247Z" fill="#A3A819"/><path d="M309.613 256.247C310.144 256.245 310.672 256.323 311.179 256.479C311.687 256.323 312.215 256.244 312.745 256.247C315.34 256.247 317.443 258.128 317.443 260.445C317.443 262.762 315.34 264.641 312.745 264.641C312.215 264.644 311.687 264.565 311.179 264.409C310.672 264.565 310.144 264.643 309.613 264.641C307.019 264.641 304.915 262.762 304.915 260.445C304.915 258.128 307.019 256.247 309.613 256.247Z" fill="#A3A819"/><path d="M299.238 256.869C299.769 256.866 300.297 256.944 300.804 257.101C301.311 256.944 301.839 256.866 302.37 256.869C304.965 256.869 307.068 258.748 307.068 261.065C307.068 263.382 304.965 265.263 302.37 265.263C301.84 265.265 301.312 265.187 300.804 265.031C300.297 265.187 299.769 265.266 299.238 265.263C296.644 265.263 294.54 263.385 294.54 261.065C294.54 258.745 296.644 256.869 299.238 256.869Z" fill="#A3A819"/><path d="M329.935 258.088C332.993 257.122 336.189 259.152 336.189 262.036C336.189 264.92 332.986 266.958 329.935 265.983C326.879 266.949 323.68 264.92 323.68 262.036C323.673 259.725 326.877 257.12 329.935 258.088Z" fill="#E01F41"/><path d="M319.515 259.242C322.57 258.276 325.77 260.308 325.77 263.19C325.77 266.071 322.563 268.115 319.515 267.137C316.459 268.103 313.26 266.074 313.26 263.19C313.251 260.882 316.454 258.276 319.515 259.242Z" fill="#6C0E1E"/><path d="M310.378 255.332C313.434 254.366 316.633 256.395 316.633 259.279C316.633 262.163 313.429 264.202 310.378 263.227C307.322 264.193 304.123 262.163 304.123 259.279C304.114 256.971 307.318 254.366 310.378 255.332Z" fill="#E01F41"/><path d="M291.628 257.111C294.684 256.145 297.883 258.174 297.883 261.058C297.883 263.942 294.679 265.983 291.628 265.005C288.572 265.971 285.373 263.94 285.373 261.058C285.373 258.176 288.57 256.142 291.628 257.111Z" fill="#FD425F"/><path d="M299.956 256.486C303.012 255.522 306.211 257.552 306.211 260.445C306.211 263.338 303.005 265.368 299.956 264.393C296.9 265.356 293.701 263.329 293.701 260.445C293.692 258.128 296.896 255.52 299.956 256.486Z" fill="#9E1F36"/><path d="M307.962 258.95C311.018 257.986 314.217 260.016 314.217 262.897C314.217 265.779 311.013 267.82 307.962 266.845C304.906 267.811 301.707 265.781 301.707 262.897C301.707 260.013 304.904 257.977 307.962 258.95Z" fill="#AB3E51"/><path d="M297.097 258.739C300.152 257.773 303.352 259.802 303.352 262.686C303.352 265.57 300.148 267.609 297.097 266.633C294.041 267.599 290.842 265.568 290.842 262.686C290.842 259.804 294.046 257.77 297.097 258.739Z" fill="#E01F41"/><path d="M315.956 38.0464C319.012 36.8854 322.211 39.3351 322.211 42.8391C322.211 46.343 319.975 48.4862 315.956 49.1364C311.353 49.1364 309.701 46.35 309.701 42.8391C309.701 39.3282 312.898 36.8761 315.956 38.0464Z" fill="#E01F41"/><path d="M322.22 59.0444C325.275 57.8834 328.475 60.3331 328.475 63.8371C328.475 67.341 326.239 69.4842 322.22 70.1367C317.617 70.1367 315.965 67.3387 315.965 63.8371C315.965 60.3355 319.16 57.8764 322.22 59.0444Z" fill="#E01F41"/><path d="M319.515 254.754C322.57 253.788 325.77 255.817 325.77 258.701C325.77 261.585 322.563 263.624 319.515 262.649C316.459 263.615 313.26 261.585 313.26 258.701C313.251 256.393 316.454 253.797 319.515 254.754Z" fill="#FD425F"/><path d="M329.953 254.294C329.78 254.599 329.661 254.931 329.601 255.276C329.542 255.597 329.518 255.923 329.529 256.249C329.561 256.88 329.696 257.501 329.928 258.088C329.814 257.489 329.799 256.875 329.884 256.27C329.93 255.98 330.008 255.696 330.115 255.423C330.211 255.17 330.346 254.935 330.516 254.726H330.528C330.592 254.656 330.625 254.563 330.621 254.468C330.616 254.373 330.575 254.284 330.505 254.22C330.434 254.156 330.342 254.122 330.247 254.127C330.153 254.131 330.063 254.173 330 254.243C329.982 254.259 329.967 254.276 329.953 254.294Z" fill="#592C07"/><path d="M319.528 251.034C319.355 251.338 319.236 251.671 319.176 252.016C319.117 252.338 319.093 252.665 319.104 252.991C319.135 253.621 319.27 254.242 319.503 254.828C319.389 254.229 319.374 253.616 319.459 253.012C319.504 252.722 319.582 252.438 319.69 252.165C319.785 251.912 319.92 251.676 320.091 251.468C320.155 251.398 320.189 251.306 320.185 251.211C320.181 251.116 320.14 251.026 320.07 250.962C320 250.898 319.908 250.864 319.813 250.867C319.719 250.871 319.629 250.913 319.565 250.983C319.551 250.998 319.539 251.015 319.528 251.034Z" fill="#592C07"/><path d="M307.841 255.06C307.668 255.366 307.55 255.699 307.491 256.045C307.432 256.366 307.407 256.692 307.417 257.018C307.449 257.648 307.585 258.268 307.817 258.854C307.704 258.255 307.688 257.641 307.771 257.036C307.817 256.747 307.895 256.463 308.003 256.191C308.098 255.939 308.233 255.703 308.404 255.494C308.435 255.46 308.46 255.419 308.476 255.375C308.492 255.331 308.5 255.284 308.498 255.237C308.494 255.142 308.452 255.053 308.383 254.988C308.313 254.924 308.221 254.89 308.126 254.894C308.031 254.898 307.942 254.939 307.878 255.009C307.864 255.025 307.852 255.043 307.841 255.06Z" fill="#592C07"/><path d="M297.228 255.06C297.054 255.365 296.935 255.698 296.876 256.045C296.816 256.365 296.792 256.692 296.804 257.018C296.834 257.648 296.97 258.269 297.204 258.854C297.089 258.255 297.073 257.641 297.158 257.036C297.205 256.747 297.283 256.464 297.39 256.191C297.485 255.939 297.62 255.703 297.791 255.494H297.802C297.859 255.423 297.887 255.333 297.88 255.242C297.873 255.151 297.832 255.066 297.764 255.004C297.697 254.943 297.609 254.909 297.518 254.91C297.427 254.911 297.34 254.946 297.274 255.009C297.257 255.025 297.241 255.042 297.228 255.06Z" fill="#592C07"/><path d="M297.148 258.515C295.883 258.981 294.501 259.024 293.21 258.636C291.181 257.97 290.199 255.116 290.199 255.116C290.199 255.116 296.68 253.628 297.148 258.515Z" fill="#7D6"/><path d="M329.988 258.142C330.504 256.895 331.409 255.85 332.567 255.162C334.434 254.12 337.184 255.339 337.184 255.339C337.184 255.339 333.892 261.112 329.988 258.142Z" fill="#7D6"/><path d="M311.047 265.428C311.563 264.181 312.469 263.135 313.628 262.447C315.492 261.404 318.242 262.623 318.242 262.623C318.242 262.623 314.946 268.396 311.047 265.428Z" fill="#7D6"/><path d="M285.364 261.369C286.131 265.038 325.993 268.175 335.303 262.823C336.105 262.358 336.401 261.829 336.142 261.369L338.371 261.506C338.744 262.767 339.1 268.203 310.803 268.203C304.68 268.203 282.309 267.829 282.962 261.736C282.962 261.659 282.992 261.583 283.008 261.504L285.364 261.369Z" fill="#0845E5"/><path d="M337.943 263.489C332.372 269.991 287.46 268.844 283.503 263.41C283.122 262.938 282.929 262.342 282.961 261.736C282.47 265.665 291.382 267.1 295.26 267.648C303.868 268.783 333.197 269.819 337.943 263.489Z" fill="#002DA5"/><circle cx="416.5" cy="181.5" r="47.5" stroke="url(#paint1_linear_415_6)" stroke-width="30"/><defs><linearGradient id="paint0_linear_415_6" x1="375.231" y1="8.67" x2="-71.059" y2="130.329" gradientUnits="userSpaceOnUse"><stop stop-color="#F37CA6"/><stop offset="1" stop-color="#ED5D7D"/></linearGradient><linearGradient id="paint1_linear_415_6" x1="354" y1="244" x2="524.519" y2="197.816" gradientUnits="userSpaceOnUse"><stop stop-color="#FF8045"/><stop offset="1" stop-color="#FDA556"/></linearGradient></defs></svg>