<svg width="62" height="62" viewBox="0 0 62 62" fill="none" xmlns="http://www.w3.org/2000/svg">
<path d="M31 62C48.1208 62 62 48.1208 62 31C62 13.8792 48.1208 0 31 0C13.8792 0 0 13.8792 0 31C0 48.1208 13.8792 62 31 62Z" fill="#E4935F"/>
<path d="M44.3222 19.3211C41.9639 18.2468 39.4351 17.4553 36.7909 17.0019C36.7428 16.9931 36.6947 17.015 36.6699 17.0587C36.3446 17.6331 35.9844 18.3823 35.7321 18.9712C32.8882 18.5484 30.0589 18.5484 27.2733 18.9712C27.021 18.3692 26.6477 17.6331 26.3209 17.0587C26.2962 17.0165 26.248 16.9946 26.1999 17.0019C23.5573 17.4538 21.0284 18.2453 18.6686 19.3211C18.6482 19.3298 18.6307 19.3444 18.6191 19.3633C13.8224 26.4782 12.5083 33.4182 13.1529 40.2721C13.1558 40.3056 13.1748 40.3376 13.201 40.3581C16.3658 42.6655 19.4314 44.0663 22.4401 44.9949C22.4882 45.0095 22.5392 44.992 22.5698 44.9526C23.2815 43.9877 23.9159 42.9703 24.4599 41.9003C24.492 41.8377 24.4613 41.7633 24.3957 41.7385C23.3894 41.3595 22.4312 40.8974 21.5095 40.3727C21.4366 40.3305 21.4307 40.2269 21.4979 40.1773C21.6918 40.0331 21.8858 39.8829 22.0711 39.7313C22.1046 39.7036 22.1513 39.6978 22.1907 39.7152C28.246 42.4601 34.8015 42.4601 40.7854 39.7152C40.8247 39.6963 40.8714 39.7022 40.9064 39.7298C41.0917 39.8814 41.2857 40.033 41.4811 40.1773C41.5481 40.2269 41.5437 40.3304 41.4709 40.3726C40.5491 40.9076 39.5909 41.3595 38.5832 41.737C38.5176 41.7617 38.4884 41.8376 38.5205 41.9002C39.0762 42.9687 39.7106 43.9861 40.4091 44.9511C40.4383 44.992 40.4908 45.0095 40.5389 44.9948C43.5622 44.0663 46.6278 42.6655 49.7926 40.358C49.8203 40.3376 49.8378 40.307 49.8407 40.2735C50.6122 32.3496 48.5485 25.4665 44.3702 19.3648C44.3601 19.3444 44.3426 19.3298 44.3222 19.3211ZM25.3643 36.0987C23.5412 36.0987 22.0391 34.437 22.0391 32.3963C22.0391 30.3555 23.512 28.6938 25.3643 28.6938C27.231 28.6938 28.7186 30.3701 28.6894 32.3963C28.6894 34.437 27.2164 36.0987 25.3643 36.0987ZM37.6586 36.0987C35.8357 36.0987 34.3335 34.437 34.3335 32.3963C34.3335 30.3555 35.8065 28.6938 37.6586 28.6938C39.5254 28.6938 41.013 30.3701 40.9839 32.3963C40.9839 34.437 39.5255 36.0987 37.6586 36.0987Z" fill="white"/>
</svg>
