<svg width="11" height="20" viewBox="0 0 11 20" fill="none" xmlns="http://www.w3.org/2000/svg">
<g clip-path="url(#clip0_190_1461)">
<path d="M10.0861 0H7.61786C4.84829 0 3.05779 1.88718 3.05779 4.80895V7.02626H0.577207C0.525614 7.02693 0.474659 7.03775 0.427251 7.05812C0.379843 7.07849 0.336912 7.10799 0.300908 7.14495C0.264904 7.18191 0.236533 7.2256 0.217415 7.27352C0.198297 7.32145 0.188808 7.37267 0.189487 7.42426V10.6371C0.188808 10.6887 0.198297 10.7399 0.217415 10.7878C0.236533 10.8357 0.264904 10.8794 0.300908 10.9164C0.336912 10.9534 0.379843 10.9829 0.427251 11.0032C0.474659 11.0236 0.525614 11.0344 0.577207 11.0351H3.05779V19.1412C3.05697 19.1929 3.06636 19.2442 3.08542 19.2923C3.10447 19.3403 3.13282 19.3841 3.16884 19.4212C3.20486 19.4582 3.24784 19.4878 3.29531 19.5083C3.34279 19.5287 3.39383 19.5396 3.44551 19.5402H6.68096C6.73255 19.5396 6.78351 19.5287 6.83091 19.5084C6.87832 19.488 6.92125 19.4585 6.95726 19.4215C6.99326 19.3846 7.02163 19.3409 7.04075 19.293C7.05987 19.245 7.06936 19.1938 7.06868 19.1422V11.0361H9.96886C10.0205 11.0354 10.0714 11.0246 10.1188 11.0043C10.1662 10.9839 10.2092 10.9544 10.2452 10.9174C10.2812 10.8805 10.3095 10.8368 10.3287 10.7889C10.3478 10.7409 10.3573 10.6897 10.3566 10.6381V7.42426C10.3569 7.3192 10.3164 7.21813 10.2435 7.14247C10.2079 7.10552 10.1652 7.0761 10.1181 7.05596C10.0709 7.03581 10.0202 7.02536 9.96886 7.02523H7.06971V5.14217C7.06971 4.2392 7.27539 3.78052 8.42518 3.78052H10.0861C10.1898 3.77917 10.2887 3.73689 10.3613 3.66292C10.4339 3.58895 10.4744 3.48927 10.4738 3.3856V0.402117C10.4749 0.350218 10.4657 0.298615 10.4468 0.250275C10.4279 0.201936 10.3996 0.157813 10.3636 0.120443C10.3275 0.083074 10.2845 0.0531954 10.2369 0.0325254C10.1892 0.0118554 10.138 0.000801768 10.0861 0V0Z" fill="currentColor"/>
</g>
<defs>
<clipPath id="clip0_190_1461">
<rect width="10.2843" height="19.5402" fill="currentColor" transform="translate(0.189453)"/>
</clipPath>
</defs>
</svg>
