<svg width="62" height="62" viewBox="0 0 62 62" fill="none" xmlns="http://www.w3.org/2000/svg">
<path d="M31 62C48.1208 62 62 48.1208 62 31C62 13.8792 48.1208 0 31 0C13.8792 0 0 13.8792 0 31C0 48.1208 13.8792 62 31 62Z" fill="#ADC163"/>
<path d="M37.8712 14H24.1288C18.5437 14 14 18.5437 14 24.1288V37.8712C14 43.4562 18.5437 48 24.1288 48H37.8712C43.4562 48 48 43.4562 48 37.8712V24.1288C47.9999 18.5437 43.4562 14 37.8712 14ZM44.5796 37.8712C44.5796 41.5761 41.5761 44.5796 37.8712 44.5796H24.1288C20.4239 44.5796 17.4204 41.5761 17.4204 37.8712V24.1288C17.4204 20.4238 20.4239 17.4204 24.1288 17.4204H37.8712C41.5761 17.4204 44.5796 20.4238 44.5796 24.1288V37.8712Z" fill="white"/>
<path d="M31 22.2064C26.1512 22.2064 22.2064 26.1512 22.2064 30.9999C22.2064 35.8487 26.1512 39.7935 31 39.7935C35.8488 39.7935 39.7936 35.8487 39.7936 30.9999C39.7936 26.1511 35.8488 22.2064 31 22.2064ZM31 36.3732C28.0325 36.3732 25.6268 33.9676 25.6268 31C25.6268 28.0324 28.0325 25.6268 31 25.6268C33.9676 25.6268 36.3732 28.0324 36.3732 31C36.3732 33.9675 33.9675 36.3732 31 36.3732Z" fill="white"/>
<path d="M39.8106 24.3795C40.9744 24.3795 41.9177 23.4361 41.9177 22.2724C41.9177 21.1087 40.9744 20.1653 39.8106 20.1653C38.6469 20.1653 37.7035 21.1087 37.7035 22.2724C37.7035 23.4361 38.6469 24.3795 39.8106 24.3795Z" fill="white"/>
</svg>
