<svg width="180" height="39" viewBox="0 0 180 39" fill="none" xmlns="http://www.w3.org/2000/svg">
<g clip-path="url(#clip0_190_1443)">
<path d="M153.677 8.63839V38.6586H150.117V16.6041C150.117 16.3116 150.117 15.9996 150.117 15.6291C150.117 15.2586 150.117 14.9564 150.185 14.6541L139.942 33.4034C139.823 33.6948 139.619 33.9437 139.357 34.1175C139.095 34.2914 138.787 34.3823 138.473 34.3784H137.889C137.577 34.3803 137.271 34.2885 137.011 34.1148C136.751 33.941 136.548 33.6933 136.43 33.4034L125.934 14.5469C126.016 15.2296 126.059 15.9165 126.06 16.6041V38.6586H122.51V8.63839H125.496C125.779 8.62908 126.061 8.66529 126.333 8.74564C126.583 8.86945 126.782 9.07617 126.897 9.33064L137.247 27.8556C137.412 28.1969 137.578 28.5479 137.733 28.9086C137.889 29.2694 138.045 29.6399 138.181 30.0201C138.327 29.6399 138.473 29.2694 138.628 28.8989C138.772 28.5349 138.938 28.18 139.125 27.8361L149.28 9.33064C149.386 9.07343 149.584 8.86492 149.835 8.74564C150.109 8.66604 150.395 8.62985 150.681 8.63839H153.677Z" fill="white"/>
<path d="M165.38 35.3828V24.921H176.742L176.869 23.8583V21.7815H165.38V11.8365H180.001V8.70679H161.207V38.5223H173.551L174.33 35.3828H165.38Z" fill="white"/>
<path d="M179.777 38.6685V38.5417L179.689 38.6685H179.777Z" fill="white"/>
<path d="M112.646 12.6067C111.322 11.2502 109.728 10.1873 107.967 9.48673C106.195 8.76991 104.305 8.3897 102.394 8.36548L99.5531 12.0997C100.342 11.9485 101.143 11.8734 101.946 11.8755C103.448 11.8543 104.939 12.1327 106.333 12.6945C107.604 13.2182 108.746 14.0134 109.68 15.0247C110.635 16.1082 111.36 17.3755 111.81 18.7492C112.329 20.3512 112.582 22.0278 112.559 23.712C112.582 25.393 112.329 27.0664 111.81 28.665C111.356 30.0342 110.632 31.2977 109.68 32.3797C108.748 33.3911 107.606 34.1835 106.333 34.7002C103.514 35.7768 100.398 35.7768 97.5784 34.7002C96.3058 34.1835 95.1631 33.3911 94.232 32.3797C93.2703 31.2877 92.5479 30.0056 92.1114 28.6162C91.5923 27.0176 91.3392 25.3442 91.3624 23.6632C91.3624 23.3805 91.3624 23.1172 91.3624 22.8442L87.6367 27.7192C87.7799 28.4441 87.9749 29.1577 88.2204 29.8545C88.88 31.668 89.9029 33.327 91.2262 34.7295C92.5448 36.0985 94.1356 37.1747 95.8955 37.8885C99.7711 39.3839 104.063 39.3839 107.938 37.8885C109.702 37.1772 111.297 36.1007 112.617 34.7295C113.941 33.327 114.963 31.668 115.623 29.8545C116.353 27.8732 116.715 25.7751 116.693 23.6632C116.715 21.5514 116.353 19.4532 115.623 17.472C114.959 15.6606 113.937 14.0024 112.617 12.597" fill="white"/>
<path d="M82.5478 33.9982C82.0187 34.3464 81.4506 34.6311 80.8552 34.8465C80.2253 35.0781 79.5734 35.2447 78.9097 35.3437C78.1104 35.4549 77.3041 35.507 76.4972 35.4997C75.0955 35.5128 73.7056 35.2408 72.4116 34.7002C71.1616 34.183 70.0418 33.3937 69.1334 32.3895C68.162 31.3097 67.4147 30.0469 66.935 28.6747C66.3753 27.0645 66.102 25.3682 66.1276 23.6632C66.1039 21.9767 66.3671 20.2984 66.9058 18.7005C67.3682 17.323 68.1026 16.053 69.0653 14.9662C69.9861 13.9539 71.1189 13.1582 72.3825 12.636C73.7025 12.0905 75.1181 11.8154 76.5459 11.8267C77.6399 11.8016 78.7316 11.9396 79.7852 12.2362C80.5469 12.4627 81.2835 12.7665 81.9836 13.143C82.4727 13.4234 82.9468 13.7293 83.4039 14.0595C83.6584 14.2885 83.9782 14.4318 84.3183 14.469C84.506 14.4762 84.6918 14.4288 84.8533 14.3325C84.9876 14.2439 85.0979 14.1233 85.1743 13.9815L86.5167 12.1192C85.2601 10.9365 83.8001 9.99174 82.2074 9.33074C80.4128 8.61885 78.4951 8.27088 76.5653 8.30699C74.5262 8.27964 72.5022 8.66085 70.612 9.42824C68.8645 10.1393 67.2865 11.2125 65.9817 12.5775C64.6582 13.9798 63.6352 15.6389 62.9758 17.4525C62.2628 19.4436 61.9168 21.5481 61.9544 23.6632C61.9143 25.7777 62.2436 27.883 62.9272 29.8837C63.563 31.6889 64.5556 33.3469 65.8455 34.7587C67.101 36.1168 68.6339 37.1877 70.3397 37.8982C72.189 38.6654 74.1749 39.0469 76.1762 39.0195C77.097 39.0197 78.0167 38.9578 78.9291 38.8342L82.6646 33.9592L82.5186 34.0567" fill="white"/>
<path opacity="0.99" d="M43.6584 6.7275C39.4797 3.62486 34.7534 1.34226 29.7284 0L21.7031 34.0568L21.849 34.125L43.6584 6.7275Z" fill="#3976F4"/>
<path d="M56.8969 17.5208C56.2329 15.7476 55.2056 14.1335 53.8813 12.7823C52.5596 11.441 50.9678 10.3973 49.2121 9.72085C47.963 9.22732 46.6549 8.89955 45.321 8.74585L42.8016 11.9048H43.2101C44.7126 11.8841 46.2052 12.1522 47.607 12.6946C48.8773 13.2057 50.0173 13.9952 50.9436 15.0053C51.9034 16.0707 52.6292 17.3264 53.0739 18.6909C53.6019 20.2842 53.8584 21.9553 53.8327 23.6341C53.8584 25.3129 53.6019 26.984 53.0739 28.5773C52.6315 29.9399 51.9053 31.1928 50.9436 32.2531C50.0191 33.2605 48.8781 34.044 47.607 34.5443C46.2072 35.0948 44.7137 35.3664 43.2101 35.3438H36.0603V20.3776L32.0039 25.4671V38.6588H43.181C45.2406 38.6834 47.2866 38.3196 49.2121 37.5863C50.9731 36.9094 52.5697 35.8634 53.895 34.5182C55.2202 33.1731 56.2437 31.5598 56.8969 29.7863C57.6277 27.826 57.9873 25.7461 57.9572 23.6536C57.985 21.5612 57.6255 19.4818 56.8969 17.5208Z" fill="white"/>
<path d="M21.7315 22.8149L16.07 8.63843H11.9747L0 38.6587H3.1323C3.45251 38.6686 3.76595 38.565 4.01751 38.3662C4.23305 38.1922 4.39773 37.9632 4.49416 37.7032L7.29572 30.4492H19.9416L21.7315 22.8149ZM13.1226 15.3367C13.4868 14.4155 13.7891 13.4709 14.0272 12.5092C14.1634 13.0552 14.3093 13.5622 14.465 14.0497C14.6206 14.5372 14.7665 14.9467 14.9027 15.3172L19.6109 27.5242H8.45331L13.1226 15.3367Z" fill="white"/>
<path d="M23.123 36.621L23.5413 37.7032C23.6423 37.9714 23.8137 38.2072 24.0374 38.3857C24.2875 38.5784 24.598 38.6752 24.9129 38.6587H28.055L25.8662 33.1792L23.123 36.621Z" fill="white"/>
</g>
<defs>
<clipPath id="clip0_190_1443">
<rect width="180" height="39" fill="white"/>
</clipPath>
</defs>
</svg>
