<svg width="232" height="172" viewBox="0 0 232 172" fill="none" xmlns="http://www.w3.org/2000/svg">
<path d="M198 113H34V138H198V113Z" fill="#110239"/>
<path d="M203.001 0H28.999C23.4767 0 19 4.47554 19 9.99641V120.004C19 125.524 23.4767 130 28.999 130H203.001C208.523 130 213 125.524 213 120.004V9.99641C213 4.47554 208.523 0 203.001 0Z" fill="#110239"/>
<path d="M204 9H28V120H204V9Z" fill="#3976F4"/>
<path d="M0 165V168.489C0 170.416 2.15205 172 4.79532 172H227.322C229.965 172 232 170.416 232 168.489V165H0Z" fill="#110239"/>
<path d="M115.994 137H20.7811C20.4537 137.349 5.48898 150.664 0.906015 160.563C-1.03473 164.792 0.227923 167 3.87559 167H228.137C231.761 167 233.047 164.676 231.083 160.563C226.406 150.664 211.559 137.325 211.231 137H115.994Z" fill="#110239"/>
<path d="M220 162H18L32.0129 141H206.01L220 162Z" fill="#9C9EB9"/>
<path d="M218 158.3L217.556 157.64H203.966L201.627 152.572H214.281L213.837 151.912H201.206L198.68 146.822H210.375L209.93 146.162H198.352L195.802 141H194.61L197.112 146.162H182.657L180.575 141H179.406L181.394 146.162H166.892L165.372 141H164.202L165.676 146.162H151.174L150.168 141H148.998L149.957 146.162H135.455L134.964 141H133.794L134.239 146.162H120.532V141H119.246V146.162H104.977L105.422 141H104.252L103.785 146.162H89.3526L90.3116 141H89.1421L88.1363 146.162H73.6343L75.1079 141H73.9383L72.418 146.162H57.9159L59.9275 141H58.7579L56.606 146.162H42.104L44.6067 141H43.4372L40.9344 146.162H28.1399L27.6955 146.822H40.607L38.0808 151.912H24.3038L23.8594 152.572H37.7533L35.2506 157.64H20.4444L20 158.3H34.9231L33.2156 162H34.5488L36.3265 158.3H51.9279L50.4777 162H51.811L53.2144 158.3H68.8626L67.7633 162H69.0965L70.1491 158.3H85.7973L85.0722 162H86.4054L87.1071 158.3H102.732L102.381 162H103.714L104.042 158.3H119.316V162H120.602V158.3H135.408L135.712 162H137.046L136.695 158.3H152.273L152.951 162H154.284L153.583 158.3H169.208L170.26 162H171.593L170.517 158.3H186.142L187.592 162H188.926L187.475 158.3H203.1L204.901 162H206.305L204.48 158.3H218ZM57.6118 146.822H72.1607L70.6403 151.912H55.6236L57.6118 146.822ZM41.8233 146.822H56.3955L54.3839 151.912H39.3439L41.8233 146.822ZM52.1151 157.64H36.537L39.0164 152.572H54.1266L52.1151 157.64ZM68.9796 157.64H53.4015L55.3897 152.572H70.4766L68.9796 157.64ZM85.8441 157.64H70.2894L71.7396 152.572H86.8265L85.8441 157.64ZM87.0136 151.912H71.9268L73.377 146.822H87.9492L87.0136 151.912ZM102.755 157.64H87.1539L88.0895 152.572H103.176L102.755 157.64ZM103.293 151.912H88.2065L89.1655 146.822H103.714L103.293 151.912ZM119.292 157.64H104.018L104.439 152.572H119.246L119.292 157.64ZM119.292 151.912H104.556L104.977 146.822H119.292V151.912ZM120.579 146.822H134.403L134.847 151.912H120.579V146.822ZM120.579 157.64V152.572H134.894L135.315 157.64H120.579ZM197.51 146.822L199.989 151.912H184.926L182.914 146.822H197.51ZM181.745 146.822L183.71 151.912H168.623L167.126 146.822H181.745ZM135.619 146.822H150.168L151.103 151.912H136.133L135.619 146.822ZM136.625 157.64L136.133 152.572H151.22L152.179 157.64H136.625ZM151.407 146.822H165.956L167.407 151.912H152.343L151.407 146.822ZM153.489 157.64L152.507 152.572H167.594L169.067 157.64H153.489ZM170.354 157.64L168.88 152.572H183.99L185.955 157.64H170.354ZM187.218 157.64L185.253 152.572H200.34L202.82 157.64H187.218Z" fill="#D0D1DE"/>
<path opacity="0.2" d="M185 110H47V25H185V110ZM49.599 107.4H182.424V27.5999H49.599V107.4Z" fill="white"/>
<path d="M165 47H153V101H165V47Z" fill="#FD425F"/>
<path d="M142 75H128V101H142V75Z" fill="white"/>
<path d="M118 69H106V101H118V69Z" fill="#01C7E2"/>
<path d="M94 52H81V101H94V52Z" fill="white"/>
<path d="M70 63H57V101H70V63Z" fill="white"/>
<path d="M135.75 65L111.125 60.2309L87.414 38.1651L63.8669 58.4282L63 57.4926L87.4609 36.4537L111.758 59.0671L135.164 63.5852L158.946 31L160 31.7302L135.75 65Z" fill="white"/>
<path d="M65.9999 58.976C66.0047 59.5703 65.8328 60.1527 65.506 60.6492C65.1793 61.1457 64.7124 61.5339 64.1647 61.7647C63.6169 61.9954 63.013 62.0583 62.4295 61.9453C61.846 61.8322 61.3092 61.5484 60.8872 61.1298C60.4653 60.7112 60.1771 60.1767 60.0594 59.5942C59.9417 59.0116 59.9997 58.4071 60.226 57.8576C60.4524 57.308 60.8369 56.838 61.3307 56.5073C61.8246 56.1766 62.4055 56 62.9999 56C63.7914 56 64.5509 56.3127 65.1128 56.8702C65.6747 57.4276 65.9936 58.1845 65.9999 58.976Z" fill="#FD425F"/>
<path d="M87 40C88.6569 40 90 38.8807 90 37.5C90 36.1193 88.6569 35 87 35C85.3431 35 84 36.1193 84 37.5C84 38.8807 85.3431 40 87 40Z" fill="#FD425F"/>
<path d="M114 60.5C114 60.9945 113.795 61.4778 113.41 61.8889C113.026 62.3001 112.479 62.6205 111.839 62.8097C111.2 62.9989 110.496 63.0484 109.817 62.952C109.138 62.8555 108.515 62.6174 108.025 62.2678C107.536 61.9181 107.202 61.4727 107.067 60.9877C106.932 60.5028 107.002 60.0001 107.266 59.5433C107.531 59.0865 107.98 58.696 108.556 58.4213C109.131 58.1466 109.808 58 110.5 58C111.428 58 112.318 58.2634 112.975 58.7322C113.631 59.2011 114 59.837 114 60.5Z" fill="#FD425F"/>
<path d="M138 65.0001C138 65.5945 137.823 66.1754 137.493 66.6693C137.162 67.1631 136.692 67.5476 136.142 67.774C135.593 68.0003 134.988 68.0583 134.406 67.9406C133.823 67.8229 133.289 67.5347 132.87 67.1128C132.452 66.6908 132.168 66.154 132.055 65.5705C131.942 64.987 132.005 64.3831 132.235 63.8353C132.466 63.2876 132.854 62.8207 133.351 62.494C133.847 62.1672 134.43 61.9953 135.024 62.0001C135.417 62.0001 135.806 62.0778 136.168 62.2289C136.531 62.38 136.86 62.6013 137.137 62.8802C137.413 63.1591 137.632 63.49 137.78 63.8539C137.928 64.2177 138.003 64.6073 138 65.0001Z" fill="#FD425F"/>
<path d="M162 31.472C162.005 32.1654 161.833 32.8448 161.506 33.4241C161.179 34.0033 160.712 34.4563 160.165 34.7255C159.617 34.9947 159.013 35.068 158.429 34.9361C157.846 34.8043 157.309 34.4731 156.887 33.9848C156.465 33.4964 156.177 32.8729 156.059 32.1932C155.942 31.5135 156 30.8083 156.226 30.1672C156.452 29.526 156.837 28.9777 157.331 28.5919C157.825 28.206 158.406 28 159 28C159.791 28 160.551 28.3649 161.113 29.0152C161.675 29.6655 161.994 30.5486 162 31.472Z" fill="#FD425F"/>
<path d="M86.2665 53.9701C87.1228 53.7369 87.9101 53.2853 88.5574 52.656C88.8149 52.294 89.1428 51.9927 89.5196 51.772C89.9607 51.5358 90.3691 51.2384 90.7338 50.888C91.0886 50.5235 91.5322 50.2674 92.0167 50.1473C92.6352 50.1473 92.3145 50.8402 92.0167 51.2941C91.7189 51.7481 90.0465 52.4888 90.1153 53.11C90.184 53.7312 92.1771 52.7755 92.5665 52.5843C93.4829 52.1065 93.5516 51.2941 94.1014 50.5057C94.6512 49.7172 94.6971 49.9562 94.9032 50.5057C94.9299 50.7409 94.909 50.9794 94.842 51.2057C94.7749 51.4321 94.6631 51.6412 94.5138 51.8198C94.0456 52.6462 93.3934 53.3429 92.6123 53.8507C93.3675 53.4225 94.0364 52.8465 94.5825 52.1543C94.8803 51.772 95.9342 49.765 96.5527 50.3145C97.8127 51.2225 94.2618 54.5913 93.5058 54.8541C94.2783 54.4502 94.9824 53.9175 95.5905 53.2772C95.98 52.9188 96.8276 52.0587 96.988 52.9905C97.1942 54.3763 94.6971 55.3798 93.5287 56.0488C94.3325 55.8135 95.1029 55.468 95.8196 55.0214C96.7818 54.4958 96.8047 55.4276 95.8196 56.1204C95.361 56.4258 94.8869 56.705 94.3992 56.9567C92.7665 57.8198 90.9064 58.0969 89.1073 57.7451C88.3513 57.7451 86.8164 58.3186 86.4498 57.7451C85.6709 56.9328 86.1062 55.0931 86.2665 53.9701Z" fill="#F88667"/>
<path d="M86.4679 54.0928L88 59.3834C88 59.3834 70.026 64.1713 65.6811 64.9613C61.3363 65.7513 51.7318 54.1886 51.7318 54.1886C51.7318 54.1886 48.4617 45.8816 50.9086 46.0013C52.8066 46.0013 66.5272 57.0613 67.3047 57.4922C68.0822 57.9231 86.4679 54.0928 86.4679 54.0928Z" fill="#FD425F"/>
<path d="M38.7073 146.163C38.6211 147.946 38.7707 149.733 39.1522 151.475C39.7611 153.157 44 155.753 44 155.753C44 155.753 40.1592 156.522 38.6838 155.345C36.5905 153.018 34.995 150.267 34 147.269C34.2108 146.476 35.2881 144 35.2881 144L38.7073 146.163Z" fill="#F88667"/>
<path d="M61.7073 143.163C61.6222 144.948 61.7798 146.735 62.1756 148.475C62.7611 150.157 67 152.753 67 152.753C67 152.753 63.1592 153.522 61.6838 152.345C59.5905 150.018 57.995 147.267 57 144.269C57.2342 143.476 58.2881 141 58.2881 141L61.7073 143.163Z" fill="#F88667"/>
<path d="M35.53 147C35.53 147 32.2706 148.043 33.1509 150.764C33.6623 152.806 33.8943 154.902 33.8408 157H34.7925C34.7925 157 34.9828 153.1 35.6014 153.236C36.2199 153.372 37.576 157 38.9321 157H46.6405C46.6405 157 47.4494 156.229 46.6405 155.776C45.8316 155.322 40.5975 155.503 40.0027 154.415C39.408 153.327 35.53 147 35.53 147Z" fill="#110239"/>
<path d="M58.5281 144C58.5281 144 55.2711 145.043 56.1507 147.764C56.661 149.806 56.8928 151.902 56.8402 154H57.7911C57.7911 154 57.9813 150.1 58.5994 150.236C59.2175 150.372 60.5726 154 61.9277 154H69.6302C69.6302 154 70.4623 153.229 69.6302 152.776C68.7981 152.322 63.5918 152.503 62.9975 151.415C62.4031 150.327 58.5281 144 58.5281 144Z" fill="#110239"/>
<path d="M55.6845 75C55.6845 75 46.7454 78.1264 40.2674 75C37.533 77.6283 35.8787 81.1662 35.6237 84.931C35.4551 87.4236 35.5406 89.9267 35.8791 92.4023C36.799 98.8347 37.0867 105.34 36.7382 111.828C35.7398 120.586 33 146.034 33 146.034L39.1529 147C39.1529 147 44.8183 116.264 45.4916 112.517C46.1649 108.77 48.3243 93.3218 48.3243 93.3218C48.3243 93.3218 52.1553 105.23 53.1537 111C53.293 111.897 56.0328 144.517 56.0328 144.517H62C62 144.517 61.7678 108.241 61.7678 110.103C61.7678 110.885 60.1425 85.6667 55.6845 75Z" fill="#01C7E2"/>
<path d="M52.5089 96.9892C51.6241 93.3534 50.0903 89.9554 48 87C48.2552 88.7124 48.4892 90.4011 48.6806 92.1373C48.6806 92.1373 51.6794 102.697 52.9343 109C52.7429 102.103 53.4234 100.057 52.5089 96.9892Z" fill="#00A7CC"/>
<path d="M49.785 37.9072C49.2 37.7863 46.32 31.2574 45.105 30C44.4975 34.4493 42 44.9923 42 44.9923C45.0375 48.4985 51 46.3464 51 46.3464C50.0977 43.6424 49.6853 40.7778 49.785 37.9072Z" fill="#E45940"/>
<path d="M48.2191 22.1003C48.2191 22.1003 54.7544 23.4328 56.0016 25.1492C57.2488 26.8657 57.2488 31.3601 57.9473 32.5571C58.3464 33.2798 58.7205 33.8444 58.945 34.2735C59.1695 34.7027 58.6706 34.8607 58.0969 35.0414C57.9512 35.0844 57.8188 35.158 57.7104 35.2561C57.602 35.3542 57.5208 35.4741 57.4733 35.6061C57.0992 36.6901 56.0266 39.4681 54.9789 39.852C52.9398 40.2107 50.8263 39.9126 49.0042 39.0094C47.1822 38.1062 45.7662 36.6546 45.0013 34.9059C42.931 29.6436 44.1034 20.971 48.2191 22.1003Z" fill="#F88667"/>
<path d="M42.6396 41C45.507 42.257 48.4508 43.3413 51.4545 44.2468C51.4545 44.2468 56.621 54.226 56.9638 56.9954C57.3066 59.7647 60 78.7443 60 78.7443C60 78.7443 49.6915 85.0947 35 80.0573C35 80.0573 38.5749 65.1124 37.7669 59.2156C36.9589 53.3188 37.4486 45.3689 42.6396 41Z" fill="#FD425F"/>
<path d="M40.6456 82C40.485 75.8074 41.8849 70.1757 41.9997 63.9597C42.0131 61.927 41.6306 59.9118 40.8743 58.0306C40.1179 56.1494 39.0028 54.4396 37.5933 53C37.3052 55.3824 37.3052 57.7917 37.5933 60.1741C38.3507 65.946 35 80.5745 35 80.5745C36.8382 81.2139 38.727 81.6908 40.6456 82Z" fill="#E42244"/>
<path d="M35.104 59.2874C38.4873 56.3378 37.1157 53.4122 40.4989 50.6064L41.2304 50.0069C41.4133 48.4722 37.8929 49.2635 38.9445 47.7288C40.316 45.5465 46.031 42.2612 45.9167 40.1509C45.7793 39.4954 45.8269 38.812 46.0539 38.1845C46.351 36.5538 46.9911 36.2421 45.7795 35.043C44.9337 34.2037 44.2022 33.2924 44.888 32.0454C45.5738 30.7985 46.3282 30.7025 47.174 31.6618C47.3797 31.9255 48.3856 34.0598 48.637 32.8608C48.637 32.5251 48.2941 31.8776 48.2484 31.4939C48.1555 31.2704 48.1172 31.0261 48.1372 30.7832C48.1572 30.5403 48.2347 30.3065 48.3627 30.103C48.9571 29.4316 49.8486 29.0719 50.4887 28.4004C51.1287 27.7289 51.3573 26.434 52.4775 26.0023C53.0656 25.8105 53.6953 25.8105 54.2834 26.0023C54.5577 26.0023 55.6779 26.8896 55.8836 26.8177C57.8038 26.0023 56.9351 22.8609 55.6093 21.9017C53.2139 20.0736 50.3414 19.0608 47.3797 19C45.6245 19.2385 43.9378 19.8666 42.4321 20.8425C40.9263 21.8183 39.6361 23.1195 38.6473 24.6594C37.1614 26.6738 37.2757 28.7841 36.2013 30.9184C35.1269 33.0526 33.138 33.868 31.8808 35.7145C31.3624 36.5628 31.03 37.5212 30.9075 38.5206C30.7849 39.52 30.8753 40.5355 31.1721 41.4938C31.6298 42.9288 31.8086 44.4455 31.6979 45.9542C31.4007 47.8966 29.9148 49.3355 29.4119 51.2059C28.8627 52.942 28.8627 54.8176 29.4119 56.5536C30.1891 59.8629 32.1779 60.8222 35.104 59.2874Z" fill="#110239"/>
<path d="M29.7124 90.6776C29.7274 91.5515 29.9879 92.4058 30.4671 93.1531C30.7364 93.4697 30.9368 93.8335 31.0567 94.2236C31.1819 94.6667 31.3641 95.0936 31.5991 95.4948C31.8597 95.8895 31.9986 96.3452 32 96.8106C32 97.3681 31.2925 96.8106 30.9387 96.5876C30.585 96.3646 30.2784 94.5358 29.6888 94.4912C29.0992 94.4466 29.5473 96.4092 29.6888 96.7214C29.9246 97.658 30.6321 97.8811 31.2453 98.5278C31.8585 99.1746 31.6227 99.1746 31.0095 99.2415C30.3963 99.3084 30.1841 98.9069 29.8775 98.617C29.2085 98.0028 28.7207 97.2341 28.4624 96.3869C28.6614 97.1959 29.0392 97.9559 29.5709 98.617C29.8539 98.9738 31.3632 100.29 30.7972 100.847C29.6888 101.806 27.3776 97.9703 27.3304 97.1674C27.5205 97.9561 27.8472 98.7097 28.2974 99.3976C28.5332 99.799 29.1464 100.758 28.2974 100.691C26.9767 100.691 26.6465 98.0595 26.2692 96.9444C26.3175 97.7028 26.4681 98.4522 26.7172 99.1746C26.9767 100.156 26.1276 99.9997 25.6796 99.0407C25.4959 98.56 25.3462 98.0683 25.2315 97.5688C24.805 95.922 24.971 94.1878 25.7031 92.6402C25.9626 91.9711 25.7031 90.41 26.222 90.2093C27.1182 89.6295 28.6983 90.41 29.7124 90.6776Z" fill="#F88667"/>
<path d="M30.5081 90.7177L25 91C25 91 25 74.2256 26.3884 68.5087C27.7768 62.7918 38.2696 47.4525 40.6367 46.2997C43.4818 44.8881 52.0171 48.6523 45.7579 53.6164C39.4987 58.5805 33.6491 70.4614 33.4215 70.9084C33.1939 71.3554 30.5081 90.7177 30.5081 90.7177Z" fill="#FD425F"/>
</svg>
