<svg width="134" height="109" viewBox="0 0 134 109" fill="none" xmlns="http://www.w3.org/2000/svg">
<g filter="url(#filter0_d_415_3)">
<path d="M15 26.3636C15 17.3263 22.3263 10 31.3636 10H70.6364C79.6738 10 87 17.3263 87 26.3636V65.6364C87 74.6738 79.6738 82 70.6364 82H31.3636C22.3263 82 15 74.6738 15 65.6364V26.3636Z" fill="#FAD310"/>
</g>
<g filter="url(#filter1_d_415_3)">
<path d="M69 65.8182C69 62.0526 72.0526 59 75.8182 59H92.1818C95.9474 59 99 62.0526 99 65.8182V82.1818C99 85.9474 95.9474 89 92.1818 89H75.8182C72.0526 89 69 85.9474 69 82.1818V65.8182Z" fill="#807DE7"/>
</g>
<g filter="url(#filter2_d_415_3)">
<path d="M103 41.6364C103 39.6281 104.628 38 106.636 38H115.364C117.372 38 119 39.6281 119 41.6364V50.3636C119 52.3719 117.372 54 115.364 54H106.636C104.628 54 103 52.3719 103 50.3636V41.6364Z" fill="#3976F4"/>
</g>
<defs>
<filter id="filter0_d_415_3" x="0" y="0" width="102" height="102" filterUnits="userSpaceOnUse" color-interpolation-filters="sRGB">
<feFlood flood-opacity="0" result="BackgroundImageFix"/>
<feColorMatrix in="SourceAlpha" type="matrix" values="0 0 0 0 0 0 0 0 0 0 0 0 0 0 0 0 0 0 127 0" result="hardAlpha"/>
<feOffset dy="5"/>
<feGaussianBlur stdDeviation="7.5"/>
<feComposite in2="hardAlpha" operator="out"/>
<feColorMatrix type="matrix" values="0 0 0 0 0.133333 0 0 0 0 0.133333 0 0 0 0 0.133333 0 0 0 0.05 0"/>
<feBlend mode="normal" in2="BackgroundImageFix" result="effect1_dropShadow_415_3"/>
<feBlend mode="normal" in="SourceGraphic" in2="effect1_dropShadow_415_3" result="shape"/>
</filter>
<filter id="filter1_d_415_3" x="54" y="49" width="60" height="60" filterUnits="userSpaceOnUse" color-interpolation-filters="sRGB">
<feFlood flood-opacity="0" result="BackgroundImageFix"/>
<feColorMatrix in="SourceAlpha" type="matrix" values="0 0 0 0 0 0 0 0 0 0 0 0 0 0 0 0 0 0 127 0" result="hardAlpha"/>
<feOffset dy="5"/>
<feGaussianBlur stdDeviation="7.5"/>
<feComposite in2="hardAlpha" operator="out"/>
<feColorMatrix type="matrix" values="0 0 0 0 0.133333 0 0 0 0 0.133333 0 0 0 0 0.133333 0 0 0 0.05 0"/>
<feBlend mode="normal" in2="BackgroundImageFix" result="effect1_dropShadow_415_3"/>
<feBlend mode="normal" in="SourceGraphic" in2="effect1_dropShadow_415_3" result="shape"/>
</filter>
<filter id="filter2_d_415_3" x="88" y="28" width="46" height="46" filterUnits="userSpaceOnUse" color-interpolation-filters="sRGB">
<feFlood flood-opacity="0" result="BackgroundImageFix"/>
<feColorMatrix in="SourceAlpha" type="matrix" values="0 0 0 0 0 0 0 0 0 0 0 0 0 0 0 0 0 0 127 0" result="hardAlpha"/>
<feOffset dy="5"/>
<feGaussianBlur stdDeviation="7.5"/>
<feComposite in2="hardAlpha" operator="out"/>
<feColorMatrix type="matrix" values="0 0 0 0 0.133333 0 0 0 0 0.133333 0 0 0 0 0.133333 0 0 0 0.05 0"/>
<feBlend mode="normal" in2="BackgroundImageFix" result="effect1_dropShadow_415_3"/>
<feBlend mode="normal" in="SourceGraphic" in2="effect1_dropShadow_415_3" result="shape"/>
</filter>
</defs>
</svg>
