<svg width="62" height="62" viewBox="0 0 62 62" fill="none" xmlns="http://www.w3.org/2000/svg">
<path d="M31 62C48.1208 62 62 48.1208 62 31C62 13.8792 48.1208 0 31 0C13.8792 0 0 13.8792 0 31C0 48.1208 13.8792 62 31 62Z" fill="#4DB8DA"/>
<path fill-rule="evenodd" clip-rule="evenodd" d="M13.3366 29.0538C22.4603 25.1024 28.5443 22.4973 31.5883 21.2387C40.2799 17.6452 42.086 17.0209 43.263 17.0002C43.522 16.9957 44.1008 17.0595 44.4758 17.362C45.0321 17.8107 45.0352 18.7846 44.9735 19.4292C44.5024 24.3486 42.4645 36.2867 41.4276 41.7965C40.9888 44.1279 40.125 44.9097 39.2888 44.9861C37.4713 45.1524 36.0912 43.7921 34.3309 42.6451C31.5763 40.8502 30.0202 39.7328 27.3463 37.9814C24.2564 35.9572 26.2595 34.8448 28.0205 33.0266C28.4814 32.5508 36.4891 25.3103 36.6442 24.6534C36.6636 24.5713 36.6816 24.265 36.4986 24.1034C36.3155 23.9418 36.0455 23.9969 35.8506 24.0409C35.5743 24.1033 31.1739 26.9945 22.6493 32.7146C21.4002 33.5672 20.2689 33.9826 19.2553 33.9609C18.1378 33.9369 15.9883 33.3328 14.3903 32.8165C12.4303 32.1832 10.8725 31.8482 11.0082 30.7727C11.0789 30.2124 11.855 29.6395 13.3366 29.0538Z" fill="white"/>
</svg>
