<svg width="94" height="199" viewBox="0 0 94 199" fill="none" xmlns="http://www.w3.org/2000/svg">
<g filter="url(#filter0_d_190_1549)">
<path d="M60 48.4091C60 27.1963 77.1963 10 98.4091 10H190.591C211.804 10 229 27.1963 229 48.4091V140.591C229 161.804 211.804 179 190.591 179H98.4091C77.1963 179 60 161.804 60 140.591V48.4091Z" fill="#807DE7"/>
</g>
<g filter="url(#filter1_d_190_1549)">
<path d="M41 68.9545C41 64.5614 44.6631 61 49.1818 61H68.8182C73.3369 61 77 64.5614 77 68.9545V88.0455C77 92.4386 73.3369 96 68.8182 96H49.1818C44.6631 96 41 92.4386 41 88.0455V68.9545Z" fill="url(#paint0_linear_190_1549)"/>
</g>
<g filter="url(#filter2_d_190_1549)">
<path d="M15 46.4091C15 44.5263 16.6281 43 18.6364 43H27.3636C29.3719 43 31 44.5263 31 46.4091V54.5909C31 56.4737 29.3719 58 27.3636 58H18.6364C16.6281 58 15 56.4737 15 54.5909V46.4091Z" fill="#0C92F7"/>
</g>
<defs>
<filter id="filter0_d_190_1549" x="45" y="0" width="199" height="199" filterUnits="userSpaceOnUse" color-interpolation-filters="sRGB">
<feFlood flood-opacity="0" result="BackgroundImageFix"/>
<feColorMatrix in="SourceAlpha" type="matrix" values="0 0 0 0 0 0 0 0 0 0 0 0 0 0 0 0 0 0 127 0" result="hardAlpha"/>
<feOffset dy="5"/>
<feGaussianBlur stdDeviation="7.5"/>
<feComposite in2="hardAlpha" operator="out"/>
<feColorMatrix type="matrix" values="0 0 0 0 0.133333 0 0 0 0 0.133333 0 0 0 0 0.133333 0 0 0 0.05 0"/>
<feBlend mode="normal" in2="BackgroundImageFix" result="effect1_dropShadow_190_1549"/>
<feBlend mode="normal" in="SourceGraphic" in2="effect1_dropShadow_190_1549" result="shape"/>
</filter>
<filter id="filter1_d_190_1549" x="26" y="51" width="66" height="65" filterUnits="userSpaceOnUse" color-interpolation-filters="sRGB">
<feFlood flood-opacity="0" result="BackgroundImageFix"/>
<feColorMatrix in="SourceAlpha" type="matrix" values="0 0 0 0 0 0 0 0 0 0 0 0 0 0 0 0 0 0 127 0" result="hardAlpha"/>
<feOffset dy="5"/>
<feGaussianBlur stdDeviation="7.5"/>
<feComposite in2="hardAlpha" operator="out"/>
<feColorMatrix type="matrix" values="0 0 0 0 0.133333 0 0 0 0 0.133333 0 0 0 0 0.133333 0 0 0 0.05 0"/>
<feBlend mode="normal" in2="BackgroundImageFix" result="effect1_dropShadow_190_1549"/>
<feBlend mode="normal" in="SourceGraphic" in2="effect1_dropShadow_190_1549" result="shape"/>
</filter>
<filter id="filter2_d_190_1549" x="0" y="33" width="46" height="45" filterUnits="userSpaceOnUse" color-interpolation-filters="sRGB">
<feFlood flood-opacity="0" result="BackgroundImageFix"/>
<feColorMatrix in="SourceAlpha" type="matrix" values="0 0 0 0 0 0 0 0 0 0 0 0 0 0 0 0 0 0 127 0" result="hardAlpha"/>
<feOffset dy="5"/>
<feGaussianBlur stdDeviation="7.5"/>
<feComposite in2="hardAlpha" operator="out"/>
<feColorMatrix type="matrix" values="0 0 0 0 0.133333 0 0 0 0 0.133333 0 0 0 0 0.133333 0 0 0 0.05 0"/>
<feBlend mode="normal" in2="BackgroundImageFix" result="effect1_dropShadow_190_1549"/>
<feBlend mode="normal" in="SourceGraphic" in2="effect1_dropShadow_190_1549" result="shape"/>
</filter>
<linearGradient id="paint0_linear_190_1549" x1="41" y1="96" x2="89.9157" y2="82.373" gradientUnits="userSpaceOnUse">
<stop stop-color="#FF8045"/>
<stop offset="1" stop-color="#FDA556"/>
</linearGradient>
</defs>
</svg>
