<svg width="62" height="62" viewBox="0 0 62 62" fill="none" xmlns="http://www.w3.org/2000/svg">
<path d="M31 62C48.1208 62 62 48.1208 62 31C62 13.8792 48.1208 0 31 0C13.8792 0 0 13.8792 0 31C0 48.1208 13.8792 62 31 62Z" fill="#4C74AB"/>
<path d="M44.1928 33.1889C43.5461 32.3839 43.7311 32.0257 44.1928 31.3061C44.2012 31.2979 49.5397 24.0266 50.0897 21.5607L50.093 21.5591C50.3664 20.6604 50.093 20 48.7713 20H44.3978C43.2845 20 42.7711 20.5668 42.4961 21.2009C42.4961 21.2009 40.2693 26.4548 37.1192 29.8604C36.1025 30.8445 35.6325 31.1599 35.0775 31.1599C34.8042 31.1599 34.3791 30.8445 34.3791 29.9459V21.5591C34.3791 20.4814 34.0675 20 33.1458 20H26.2689C25.5705 20 25.1555 20.5027 25.1555 20.9709C25.1555 21.9928 26.7305 22.2277 26.8939 25.1027V31.3406C26.8939 32.7075 26.6422 32.9589 26.0839 32.9589C24.5971 32.9589 20.9887 27.6836 18.8503 21.6461C18.4186 20.4748 17.9969 20.0016 16.8752 20.0016H12.5001C11.2517 20.0016 11 20.5684 11 21.2026C11 22.323 12.4867 27.8939 17.9136 35.2539C21.5304 40.2778 26.6239 43 31.2574 43C34.0425 43 34.3825 42.3954 34.3825 41.3555C34.3825 36.5551 34.1308 36.1016 35.5259 36.1016C36.1725 36.1016 37.2859 36.4171 39.886 38.8403C42.8578 41.7136 43.3461 43 45.0095 43H49.383C50.6297 43 51.2614 42.3954 50.898 41.2027C50.0664 38.6941 44.4462 33.5339 44.1928 33.1889Z" fill="white"/>
</svg>
